# Model created by Damien A.W. Hazard and BluSunrize
mtllib crusher.mtl


o drum0
v -0.562500 0.187500 0.187500
v 1.562500 0.187500 0.187500
v 1.562500 0.187500 0.812500
v -0.562500 0.187500 0.812500
v 0.062500 0.093750 0.093750
v 0.062500 0.906250 0.093750
v 0.187500 0.906250 0.093750
v 0.187500 0.093750 0.093750
v 0.187500 0.093750 0.906250
v 0.187500 0.906250 0.906250
v 0.062500 0.906250 0.906250
v 0.062500 0.093750 0.906250
v -0.437500 0.093750 0.093750
v -0.437500 0.906250 0.093750
v -0.312500 0.906250 0.093750
v -0.312500 0.093750 0.093750
v -0.312500 0.093750 0.906250
v -0.312500 0.906250 0.906250
v -0.437500 0.906250 0.906250
v -0.437500 0.093750 0.906250
v -0.187500 0.093750 0.906250
v -0.187500 0.906250 0.906250
v -0.062500 0.906250 0.906250
v -0.062500 0.093750 0.906250
v -0.062500 0.093750 0.093750
v -0.062500 0.906250 0.093750
v -0.187500 0.906250 0.093750
v -0.187500 0.093750 0.093750
v 0.312500 0.093750 0.093750
v 0.312500 0.906250 0.093750
v 0.437500 0.906250 0.093750
v 0.437500 0.093750 0.093750
v 0.437500 0.093750 0.906250
v 0.437500 0.906250 0.906250
v 0.312500 0.906250 0.906250
v 0.312500 0.093750 0.906250
v 0.562500 0.093750 0.093750
v 0.562500 0.906250 0.093750
v 0.687500 0.906250 0.093750
v 0.687500 0.093750 0.093750
v 0.687500 0.093750 0.906250
v 0.687500 0.906250 0.906250
v 0.562500 0.906250 0.906250
v 0.562500 0.093750 0.906250
v 0.812500 0.093750 0.093750
v 0.812500 0.906250 0.093750
v 0.937500 0.906250 0.093750
v 0.937500 0.093750 0.093750
v 0.937500 0.093750 0.906250
v 0.937500 0.906250 0.906250
v 0.812500 0.906250 0.906250
v 0.812500 0.093750 0.906250
v 1.062500 0.093750 0.093750
v 1.062500 0.906250 0.093750
v 1.187500 0.906250 0.093750
v 1.187500 0.093750 0.093750
v 1.187500 0.093750 0.906250
v 1.187500 0.906250 0.906250
v 1.062500 0.906250 0.906250
v 1.062500 0.093750 0.906250
v 1.312500 0.093750 0.093750
v 1.312500 0.906250 0.093750
v 1.437500 0.906250 0.093750
v 1.437500 0.093750 0.093750
v 1.437500 0.093750 0.906250
v 1.437500 0.906250 0.906250
v 1.312500 0.906250 0.906250
v 1.312500 0.093750 0.906250
v -0.562500 0.812500 0.187500
v 1.562500 0.812500 0.187500
v 1.562500 0.812500 0.812500
v -0.562500 0.812500 0.812500
vt 0.328125 0.531250
vt 0.593750 0.531250
vt 0.593750 0.453125
vt 0.328125 0.453125
vt 0.429688 0.453125
vt 0.429688 0.351562
vt 0.445312 0.351562
vt 0.445312 0.453125
vt 0.328125 0.351562
vn 0.0000 0.0000 1.0000
vn 0.0000 0.0000 -1.0000
vn 0.0000 -1.0000 -0.0000
vn 0.0000 1.0000 0.0000
vn 1.0000 0.0000 0.0000
vn -1.0000 0.0000 0.0000
usemtl crusher
f 4/1/1 3/2/1 71/3/1 72/4/1
f 1/1/2 69/4/2 70/3/2 2/2/2
f 4/1/3 1/4/3 2/3/3 3/2/3
f 72/1/4 71/2/4 70/3/4 69/4/4
f 5/5/2 6/6/2 7/7/2 8/8/2
f 9/5/1 10/6/1 11/7/1 12/8/1
f 12/5/3 5/6/3 8/7/3 9/8/3
f 6/7/4 11/8/4 10/5/4 7/6/4
f 9/5/5 8/4/5 7/9/5 10/6/5
f 12/4/6 11/9/6 6/6/6 5/5/6
f 13/5/2 14/6/2 15/7/2 16/8/2
f 17/5/1 18/6/1 19/7/1 20/8/1
f 20/5/3 13/6/3 16/7/3 17/8/3
f 14/7/4 19/8/4 18/5/4 15/6/4
f 17/5/5 16/4/5 15/9/5 18/6/5
f 20/4/6 19/9/6 14/6/6 13/5/6
f 21/4/6 22/9/6 27/6/6 28/5/6
f 24/5/5 25/4/5 26/9/5 23/6/5
f 27/7/4 22/8/4 23/5/4 26/6/4
f 21/5/3 28/6/3 25/7/3 24/8/3
f 24/5/1 23/6/1 22/7/1 21/8/1
f 28/5/2 27/6/2 26/7/2 25/8/2
f 29/5/2 30/6/2 31/7/2 32/8/2
f 33/5/1 34/6/1 35/7/1 36/8/1
f 36/5/3 29/6/3 32/7/3 33/8/3
f 30/7/4 35/8/4 34/5/4 31/6/4
f 33/5/5 32/4/5 31/9/5 34/6/5
f 36/4/6 35/9/6 30/6/6 29/5/6
f 37/5/2 38/6/2 39/7/2 40/8/2
f 41/5/1 42/6/1 43/7/1 44/8/1
f 44/5/3 37/6/3 40/7/3 41/8/3
f 38/7/4 43/8/4 42/5/4 39/6/4
f 41/5/5 40/4/5 39/9/5 42/6/5
f 44/4/6 43/9/6 38/6/6 37/5/6
f 45/5/2 46/6/2 47/7/2 48/8/2
f 49/5/1 50/6/1 51/7/1 52/8/1
f 52/5/3 45/6/3 48/7/3 49/8/3
f 46/7/4 51/8/4 50/5/4 47/6/4
f 49/5/5 48/4/5 47/9/5 50/6/5
f 52/4/6 51/9/6 46/6/6 45/5/6
f 53/5/2 54/6/2 55/7/2 56/8/2
f 57/5/1 58/6/1 59/7/1 60/8/1
f 60/5/3 53/6/3 56/7/3 57/8/3
f 54/7/4 59/8/4 58/5/4 55/6/4
f 57/5/5 56/4/5 55/9/5 58/6/5
f 60/4/6 59/9/6 54/6/6 53/5/6
f 61/5/2 62/6/2 63/7/2 64/8/2
f 65/5/1 66/6/1 67/7/1 68/8/1
f 68/5/3 61/6/3 64/7/3 65/8/3
f 62/7/4 67/8/4 66/5/4 63/6/4
f 65/5/5 64/4/5 63/9/5 66/6/5
f 68/4/6 67/9/6 62/6/6 61/5/6
