# Model created by BluSunrize
mtllib fermenter.mtl

o base
v 1.937499 -0.500000 -0.687500
v 1.687500 0.062499 0.687500
v 1.937500 0.062499 0.687500
v 1.937499 -0.500000 0.687500
v -0.875000 -0.500000 1.624998
v -0.750000 -0.500000 1.624998
v -0.749999 -0.000000 1.624999
v -0.875000 -0.000000 1.624998
v 0.875000 -0.250000 0.374999
v -0.000002 -0.250000 0.374999
v -0.000002 -0.502500 0.374999
v 0.875000 -0.500000 0.374999
v 2.000000 1.000000 2.000000
v 0.312499 0.062499 0.687500
v -0.749999 -0.500000 1.874998
v -0.750000 -0.000000 1.874999
v 0.312499 -0.500000 0.687500
v 1.937499 -0.500000 0.937500
v 2.000001 -0.500002 2.000002
v 0.062499 -0.500000 0.687500
v -0.250000 -0.500000 1.874998
v -0.250000 -0.000000 1.874998
v -0.125000 -0.000000 1.874998
v -0.125000 -0.500000 1.874998
v 1.125000 -0.250000 0.125000
v 0.875000 -0.250000 0.125000
v 0.875000 -0.000001 0.125000
v 1.125000 -0.000001 0.125000
v 1.125000 -0.250000 0.625001
v 0.875000 -0.250000 0.625001
v -0.000002 -0.250000 0.625000
v 0.875000 -0.500000 0.625001
v -0.000002 -0.500000 0.625001
v 1.125000 -0.500000 0.625001
v -1.000001 -0.000002 -0.000000
v -0.250000 -0.500000 1.624998
v -0.125000 -0.500000 1.624998
v -0.125000 -0.000000 1.624998
v -0.250000 -0.000000 1.624998
v 0.875000 -0.250000 -0.125001
v 0.875000 -0.000001 -0.125001
v 1.125000 -0.250000 -0.125001
v 1.125000 0.000000 -0.125001
v 1.125000 -0.500000 -0.125001
v 0.875000 -0.500001 -0.125001
v -0.875000 -0.500000 1.874998
v -0.874999 -0.000000 1.874999
v 0.062499 0.062499 0.687500
v 0.312499 0.062499 0.937500
v 1.000001 -0.500002 2.000002
v 1.000000 1.000000 2.000000
v 2.000000 0.999999 1.000000
v 2.000001 -0.500002 1.000001
v 0.000000 1.000000 1.999998
v 2.000000 -0.499999 -0.999994
v -1.000000 -0.500000 1.999998
v -0.999998 -1.000000 1.999999
v -0.999997 -1.000004 -0.999996
v 2.000003 -1.000003 -1.000000
v 2.000003 -1.000002 1.999995
v 1.000000 -0.500004 1.000001
v -0.999999 1.000000 1.999998
v -1.000000 1.000000 1.499998
v 0.000000 1.000000 1.499998
v 0.000000 -0.000000 1.499998
v 0.000000 -0.000000 1.999998
v -0.999999 -0.000000 1.999998
v -1.000000 -0.000000 1.499998
v -1.000001 -0.500003 -0.000000
v 0.999999 0.999998 1.000000
v -1.000000 -0.500002 1.000001
v -0.000002 -0.500002 1.000001
v -0.000002 -0.000002 0.000001
v 0.000003 1.062499 0.625001
v 0.000003 0.812499 0.625001
v 0.000004 0.812499 0.375001
v 0.000003 1.062499 0.375001
v 0.000003 0.750000 0.750001
v 0.000003 0.250001 0.750001
v 0.000004 0.250000 0.250000
v 0.000003 0.749999 0.250001
v 0.062504 0.250000 0.250000
v 0.062503 0.749999 0.250001
v 0.062503 0.250001 0.750001
v 0.062503 0.750000 0.750001
v 0.062504 0.812499 0.375001
v 0.062503 1.062499 0.375001
v 0.062503 0.812499 0.625001
v 0.062503 1.062499 0.625001
v 1.999997 1.062499 -0.374999
v 1.999997 1.062499 -0.625000
v 1.999996 0.812500 -0.625000
v 1.999997 0.812500 -0.374999
v 1.999997 0.750000 -0.250000
v 1.999997 0.750000 -0.749999
v 1.999996 0.250000 -0.750000
v 1.999997 0.250001 -0.249999
v 1.937496 0.250000 -0.750000
v 1.937497 0.750000 -0.749999
v 1.937497 0.250001 -0.249999
v 1.937497 0.750000 -0.249999
v 1.937496 0.812500 -0.625000
v 1.937497 1.062499 -0.625000
v 1.937497 0.812500 -0.374999
v 1.937497 1.062499 -0.374999
v 1.625000 1.062498 -1.000000
v 1.375000 1.062499 -1.000000
v 1.375000 0.812499 -1.000000
v 1.625000 0.812499 -1.000000
v 1.750000 0.749999 -1.000000
v 1.250000 0.749999 -1.000000
v 1.250000 0.250000 -1.000000
v 1.750000 0.250000 -1.000000
v 1.250000 0.250000 -0.937500
v 1.250000 0.749999 -0.937500
v 1.750000 0.250000 -0.937500
v 1.750000 0.749999 -0.937500
v 1.375000 0.812499 -0.937500
v 1.375000 1.062499 -0.937500
v 1.625000 0.812499 -0.937500
v 1.625000 1.062498 -0.937500
v 1.937500 0.187499 0.937500
v 1.937500 0.187499 -0.937500
v 1.687500 -0.125000 -0.687500
v 1.687500 -0.124999 0.687500
v 0.062499 0.187499 0.937500
v 0.062500 2.000003 0.937500
v 1.937500 2.000002 0.937500
v 0.062500 0.187499 -0.937500
v 0.312500 -0.125001 -0.687500
v 0.062500 2.000000 -0.937500
v 0.812499 1.000000 1.000000
v 0.812499 0.500001 1.000000
v 0.312499 0.500000 1.000000
v 0.312499 1.000000 1.000000
v 0.312499 0.500000 0.937500
v 0.312499 1.000000 0.937500
v 0.812499 0.500001 0.937500
v 0.812499 1.000000 0.937500
v 1.937500 2.000001 -0.937500
v 0.312500 -0.124998 0.687500
v -0.000002 -0.000002 1.000001
v -0.000002 -0.500002 0.000001
v -1.000000 -0.500000 -0.999997
v 0.062499 0.062499 0.937500
v 1.687499 -0.500000 0.687500
v 0.062499 -0.500000 0.937500
v 1.937500 0.062499 0.937500
v 1.687500 0.062499 0.937500
v 1.687499 -0.500000 0.937500
v 0.312499 -0.500000 0.937500
v 1.687499 -0.500000 -0.687500
v 1.687500 0.062499 -0.687500
v 1.937500 0.062500 -0.687500
v 1.687499 -0.500000 -0.937500
v 1.937499 -0.500000 -0.937500
v 1.937500 0.062499 -0.937500
v 1.687500 0.062499 -0.937500
v 0.312499 -0.500000 -0.937500
v 0.312499 -0.500000 -0.687500
v 0.312499 0.062500 -0.687500
v 0.312499 0.062499 -0.937500
v 0.062499 -0.500000 -0.687500
v 0.062499 0.062499 -0.687500
v 1.750000 -0.062500 -0.687500
v 1.875000 -0.062500 -0.687500
v 1.875000 -0.062500 0.687500
v 1.750000 -0.062500 0.687500
v 1.875000 -0.187500 -0.687500
v 1.750000 -0.187500 -0.687500
v 1.750000 -0.187500 0.687500
v 1.875000 -0.187500 0.687500
v 1.687499 -0.062501 0.750000
v 1.687499 -0.062501 0.875000
v 0.312499 -0.062501 0.875000
v 0.312499 -0.062501 0.750000
v 1.687499 -0.187501 0.875000
v 1.687499 -0.187501 0.750000
v 0.312499 -0.187501 0.750000
v 0.312499 -0.187501 0.875000
v 0.249999 -0.062501 0.687500
v 0.124999 -0.062501 0.687500
v 0.124999 -0.062501 -0.687500
v 0.249999 -0.062501 -0.687500
v 0.124999 -0.187501 0.687500
v 0.249999 -0.187501 0.687500
v 0.249999 -0.187501 -0.687500
v 0.124999 -0.187501 -0.687500
v 0.312500 -0.062501 -0.750000
v 0.312500 -0.062501 -0.875000
v 1.687500 -0.062501 -0.875000
v 1.687500 -0.062501 -0.750000
v 0.312500 -0.187501 -0.875000
v 0.312500 -0.187501 -0.750000
v 1.687500 -0.187501 -0.750000
v 1.687499 -0.187501 -0.875000
v 0.062499 -0.500000 -0.937500
v 0.062500 0.062499 -0.937500
v 2.000000 0.187501 1.000005
v 0.000000 0.187502 1.000006
v 0.000000 0.187499 -0.999994
v 2.000000 0.187500 -0.999994
v 2.000000 0.062501 1.000005
v 2.000000 0.062500 -0.999994
v 0.000000 0.062499 -0.999994
v 0.000000 0.062502 1.000006
v -1.000001 -0.000003 1.000001
vt 0.937500 0.531250
vt 0.875000 0.468750
vt 0.531250 0.468750
vt 0.468750 0.531250
vt 0.468750 1.000000
vt 0.937500 1.000000
vt 0.000000 1.000000
vt 0.000000 0.531250
vt 0.062500 0.937500
vt 0.062500 0.593750
vt 0.406250 0.593750
vt 0.406250 0.937500
vt 0.500000 0.648438
vt 0.500000 0.734375
vt 0.531250 0.734375
vt 0.531250 0.648438
vt 0.718750 0.562500
vt 0.718750 0.500000
vt 0.703125 0.500000
vt 0.703125 0.562500
vt 0.671875 0.578125
vt 0.703125 0.578125
vt 0.703125 0.468750
vt 0.671875 0.468750
vt 0.750000 0.500000
vt 0.750000 0.562500
vt 0.703125 0.546875
vt 0.671875 0.546875
vt 0.671875 0.515625
vt 0.640625 0.578125
vt 0.640625 0.515625
vt 0.640625 0.484375
vt 0.671875 0.484375
vt 0.703125 0.531250
vt 0.671875 0.531250
vt 0.375000 0.187500
vt 0.375000 0.375000
vt 0.500000 0.375000
vt 0.500000 0.187500
vt 0.750000 0.625000
vt 0.875000 0.625000
vt 0.875000 0.500000
vt 0.437500 0.617188
vt 0.468750 0.617188
vt 0.468750 0.585938
vt 0.437500 0.585938
vt 0.382812 0.570312
vt 0.445312 0.570312
vt 0.445312 0.507812
vt 0.382812 0.507812
vt 0.453125 0.507812
vt 0.453125 0.570312
vt 0.382812 0.500000
vt 0.445312 0.500000
vt 0.375000 0.570312
vt 0.375000 0.507812
vt 0.445312 0.578125
vt 0.382812 0.578125
vt 0.476562 0.585938
vt 0.476562 0.617188
vt 0.437500 0.578125
vt 0.468750 0.578125
vt 0.429688 0.617188
vt 0.429688 0.585938
vt 0.468750 0.625000
vt 0.437500 0.625000
vt 0.390625 0.617188
vt 0.390625 0.585938
vt 0.421875 0.585938
vt 0.421875 0.617188
vt 0.390625 0.578125
vt 0.421875 0.578125
vt 0.382812 0.617188
vt 0.382812 0.585938
vt 0.421875 0.625000
vt 0.390625 0.625000
vt 0.382812 0.492188
vt 0.445312 0.492188
vt 0.445312 0.429688
vt 0.382812 0.429688
vt 0.453125 0.429688
vt 0.453125 0.492188
vt 0.382812 0.421875
vt 0.445312 0.421875
vt 0.375000 0.492188
vt 0.375000 0.429688
vt 0.000000 0.375000
vt 0.125000 0.375000
vt 0.125000 0.187500
vt 0.000000 0.187500
vt 0.000000 0.500000
vt 0.125000 0.500000
vt 0.250000 0.375000
vt 0.250000 0.187500
vt 0.703125 0.734375
vt 0.703125 0.718750
vt 0.531250 0.718750
vt 0.500000 1.000000
vt 0.750000 1.000000
vt 0.750000 0.750000
vt 0.500000 0.750000
vt 0.750000 0.734375
vt 0.375000 0.750000
vt 0.375000 0.687500
vt 0.500000 0.687500
vt 0.375000 0.125000
vt 0.375000 0.062500
vt 0.000000 0.062500
vt 0.000000 0.125000
vt 0.000000 0.000000
vt 0.375000 0.000000
vt 0.875000 0.250000
vt 1.000000 0.250000
vt 1.000000 0.187500
vt 0.875000 0.187500
vt 1.000000 0.625000
vt 0.625000 0.250000
vt 0.625000 0.625000
vt 0.875000 0.125000
vt 1.000000 0.125000
vt 1.000000 1.000000
vt 0.625000 1.000000
vn 0.7809 -0.6247 0.0000
vn 0.0000 -0.0000 1.0000
vn 0.0000 -0.6247 -0.7809
vn -1.0000 0.0000 -0.0000
vn 1.0000 -0.0000 0.0000
vn -0.0000 -0.6247 0.7809
vn 0.0000 0.0000 -1.0000
vn -0.7809 -0.6247 0.0000
vn 0.0000 1.0000 -0.0000
vn -0.0000 -1.0000 0.0000
usemtl fermenter
f 122/1/1 125/2/1 124/3/1 123/4/1
f 122/4/2 128/5/2 127/6/2 126/1/2
f 123/1/3 124/2/3 130/3/3 129/4/3
f 126/4/4 127/5/4 131/6/4 129/1/4
f 123/4/5 140/5/5 128/6/5 122/1/5
f 126/1/6 141/2/6 125/3/6 122/4/6
f 129/4/7 131/5/7 140/6/7 123/1/7
f 129/1/8 130/2/8 141/3/8 126/4/8
f 128/7/9 140/5/9 131/4/9 127/8/9
f 125/9/10 141/10/10 130/11/10 124/12/10
usemtl multiblock_components
f 1/13/2 154/14/2 153/15/2 152/16/2
f 5/17/7 8/18/7 7/19/7 6/20/7
f 9/21/7 12/22/7 11/23/7 10/24/7
f 146/16/4 150/13/4 149/14/4 2/15/4
f 15/25/5 6/18/5 7/17/5 16/26/5
f 4/13/5 3/14/5 148/15/5 18/16/5
f 21/20/2 24/17/2 23/18/2 22/19/2
f 25/22/2 28/27/2 27/28/2 26/21/2
f 26/29/9 30/21/9 29/30/9 25/31/9
f 10/23/9 31/24/9 30/21/9 9/22/9
f 31/21/2 33/22/2 32/23/2 30/24/2
f 32/22/2 34/27/2 29/28/2 30/21/2
f 36/19/7 39/20/7 38/17/7 37/18/7
f 24/25/5 37/18/5 38/17/5 23/26/5
f 40/21/4 26/22/4 27/27/4 41/28/4
f 42/28/5 43/21/5 28/22/5 25/27/5
f 34/32/5 44/30/5 42/21/5 29/33/5
f 43/34/7 44/23/7 45/24/7 41/35/7
f 9/29/4 40/21/4 45/30/4 12/31/4
f 21/26/4 22/25/4 39/18/4 36/17/4
f 46/18/4 47/17/4 8/26/4 5/25/4
f 146/13/7 2/14/7 3/15/7 4/16/7
f 151/13/2 49/14/2 145/15/2 147/16/2
f 17/13/5 14/14/5 49/15/5 151/16/5
f 19/36/2 13/37/2 51/38/2 50/39/2
f 46/18/2 15/19/2 16/20/2 47/17/2
f 67/25/2 66/40/2 54/41/2 62/42/2
f 74/43/4 77/44/4 76/45/4 75/46/4
f 78/47/4 81/48/4 80/49/4 79/50/4
f 82/51/7 80/49/7 81/48/7 83/52/7
f 84/53/10 79/50/10 80/49/10 82/54/10
f 85/55/2 78/47/2 79/50/2 84/56/2
f 83/57/9 81/48/9 78/47/9 85/58/9
f 86/59/7 76/45/7 77/44/7 87/60/7
f 88/61/10 75/46/10 76/45/10 86/62/10
f 89/63/2 74/43/2 75/46/2 88/64/2
f 87/65/9 77/44/9 74/43/9 89/66/9
f 90/67/5 93/68/5 92/69/5 91/70/5
f 94/47/5 97/50/5 96/49/5 95/48/5
f 98/51/7 99/52/7 95/48/7 96/49/7
f 100/53/10 98/54/10 96/49/10 97/50/10
f 101/55/2 100/56/2 97/50/2 94/47/2
f 99/57/9 101/58/9 94/47/9 95/48/9
f 102/64/7 103/63/7 91/70/7 92/69/7
f 104/71/10 102/72/10 92/69/10 93/68/10
f 105/73/2 104/74/2 93/68/2 90/67/2
f 103/75/9 105/76/9 90/67/9 91/70/9
f 106/67/7 109/68/7 108/69/7 107/70/7
f 110/47/7 113/50/7 112/49/7 111/48/7
f 114/51/4 115/52/4 111/48/4 112/49/4
f 116/53/10 114/54/10 112/49/10 113/50/10
f 117/55/5 116/56/5 113/50/5 110/47/5
f 115/57/9 117/58/9 110/47/9 111/48/9
f 118/64/4 119/63/4 107/70/4 108/69/4
f 120/71/10 118/72/10 108/69/10 109/68/10
f 121/73/5 120/74/5 109/68/5 106/67/5
f 119/75/9 121/76/9 106/67/9 107/70/9
f 132/77/2 135/78/2 134/79/2 133/80/2
f 136/81/4 134/79/4 135/78/4 137/82/4
f 138/83/10 133/80/10 134/79/10 136/84/10
f 139/85/5 132/77/5 133/80/5 138/86/5
f 137/54/9 135/78/9 132/77/9 139/53/9
f 70/87/7 52/88/7 53/89/7 61/90/7
f 51/87/4 70/88/4 61/89/4 50/90/4
f 18/13/2 148/14/2 149/15/2 150/16/2
f 20/16/4 147/13/4 145/14/4 48/15/4
f 52/91/9 70/92/9 51/88/9 13/87/9
f 52/88/5 13/93/5 19/94/5 53/89/5
f 20/13/7 48/14/7 14/15/7 17/16/7
f 155/13/7 158/14/7 157/15/7 156/16/7
f 156/13/5 157/14/5 154/15/5 1/16/5
f 155/16/4 152/13/4 153/14/4 158/15/4
f 159/13/5 162/14/5 161/15/5 160/16/5
f 160/13/2 161/14/2 164/15/2 163/16/2
f 165/15/9 168/95/9 167/96/9 166/97/9
f 169/15/10 172/95/10 171/96/10 170/97/10
f 170/97/4 171/96/4 168/95/4 165/15/4
f 169/15/5 166/97/5 167/96/5 172/95/5
f 173/15/9 176/95/9 175/96/9 174/97/9
f 177/15/10 180/95/10 179/96/10 178/97/10
f 178/97/7 179/96/7 176/95/7 173/15/7
f 177/15/2 174/97/2 175/96/2 180/95/2
f 181/15/9 184/95/9 183/96/9 182/97/9
f 185/15/10 188/95/10 187/96/10 186/97/10
f 186/97/5 187/96/5 184/95/5 181/15/5
f 185/15/4 182/97/4 183/96/4 188/95/4
f 189/15/9 192/95/9 191/96/9 190/97/9
f 193/15/10 196/95/10 195/96/10 194/97/10
f 194/97/2 195/96/2 192/95/2 189/15/2
f 193/15/7 190/97/7 191/96/7 196/95/7
f 197/16/4 163/13/4 164/14/4 198/15/4
f 197/13/7 198/14/7 162/15/7 159/16/7
f 199/98/9 202/99/9 201/100/9 200/101/9
f 203/98/10 206/101/10 205/100/10 204/99/10
f 201/14/4 205/101/4 206/100/4 200/102/4
f 200/100/2 206/102/2 203/14/2 199/101/2
f 199/14/5 203/101/5 204/100/5 202/102/5
f 202/14/7 204/101/7 205/100/7 201/102/7
f 207/101/4 35/103/4 69/104/4 71/105/4
usemtl multiblock_base
f 19/106/5 60/107/5 59/108/5 55/109/5
f 55/106/7 59/107/7 58/108/7 144/109/7
f 56/106/2 57/107/2 60/108/2 19/109/2
f 56/107/4 144/108/4 58/110/4 57/111/4
f 73/112/5 142/113/5 72/114/5 143/115/5
f 59/116/10 60/113/10 57/117/10 58/118/10
f 66/115/5 65/119/5 64/120/5 54/114/5
f 63/113/9 62/114/9 54/115/9 64/112/9
f 68/112/4 67/115/4 62/114/4 63/113/4
f 65/120/7 68/119/7 63/112/7 64/113/7
f 68/112/10 65/113/10 66/114/10 67/115/10
f 35/112/7 73/113/7 143/114/7 69/115/7
f 142/119/9 73/112/9 35/113/9 207/120/9
f 142/112/2 207/113/2 71/114/2 72/115/2
f 144/121/9 56/116/9 19/118/9 55/122/9
