# Model created by BluSunrize
mtllib metal_press.mtl

o conveyors
v 0.062500 0.125000 -1.000000
v 0.937500 0.125000 -1.000000
v 0.937500 0.000000 -1.000000
v 0.062500 0.000000 -1.000000
v 0.062500 0.125000 0.000000
v 0.937500 0.125000 0.000000
v 0.062500 0.125000 2.000000
v 0.062500 -0.000000 2.000000
v 0.937500 -0.000000 2.000000
v 0.937500 0.125000 2.000000
v 0.062500 0.125000 1.000000
v 0.937500 0.125000 1.000000
vt 0.062500 1.000000
vt 0.937500 1.000000
vt 0.937500 0.875000
vt 0.062500 0.875000
vt 0.062500 0.000000
vt 0.062500 1.000000
vt 0.937500 1.000000
vt 0.937500 0.000000
vt 0.062500 0.000000
vt 0.062500 0.125000
vt 0.937500 0.125000
vt 0.937500 0.000000
vt 0.062500 0.000000
vt 0.062500 1.000000
vt 0.937500 1.000000
vt 0.937500 0.000000
vt 0.062500 0.000000
vt 0.062500 1.000000
vt 0.937500 1.000000
vt 0.937500 0.000000
vn 0.0000 0.0000 -1.0000
vn 0.0000 1.0000 0.0000
vn 0.0000 0.0000 1.0000
usemtl conveyor
f 1/1/1 2/2/1 3/3/1 4/4/1
f 1/5/2 5/6/2 6/7/2 2/8/2
f 7/9/3 8/10/3 9/11/3 10/12/3
f 5/13/2 11/14/2 12/15/2 6/16/2
f 11/17/2 7/18/2 10/19/2 12/20/2

o base
v 0.000000 0.000000 -1.000000
v 0.000000 -0.500000 -1.000000
v 0.000000 -0.500000 -0.812500
v 0.000000 0.000000 -0.812500
v 0.000000 -0.000000 1.062500
v 0.000000 -0.500000 1.062500
v 0.187500 -0.500000 1.062500
v 0.187500 -0.000000 1.062500
v 0.000000 0.187500 2.000000
v 0.062500 0.187500 2.000000
v 0.062500 0.187500 -1.000000
v 0.000000 0.187500 -1.000000
v 0.187500 0.000000 -1.000000
v 0.187500 -0.500000 -1.000000
v 0.812500 0.000000 -0.937400
v 0.812500 0.000000 -1.000000
v 0.187500 0.000000 -0.937400
v 0.000000 -1.000000 -1.000000
v 1.000000 -1.000000 -1.000000
v 1.000000 -1.000000 2.000000
v 0.000000 -1.000000 2.000000
v 0.000000 -0.500000 2.000000
v 0.812500 -0.000000 2.000000
v 0.812500 -0.000000 1.812500
v 0.812500 -0.500000 1.812500
v 0.812500 -0.500000 2.000001
v 1.000000 -0.000000 0.875000
v 1.000000 -0.500000 0.875000
v 0.812500 -0.500000 0.875000
v 0.812500 -0.000000 0.875000
v 1.000000 0.187500 2.000000
v 1.000000 0.187500 -1.000000
v 0.937500 0.187500 -1.000000
v 0.937500 0.187500 2.000000
v 1.000000 -0.000000 1.062500
v 1.000000 -0.500000 1.062500
v 0.812500 -0.000000 1.062500
v 0.812500 -0.500000 1.062500
v 0.000000 0.000000 -0.062500
v 0.187500 0.000000 -0.062500
v 0.187500 -0.500000 -0.062500
v 0.000000 -0.500000 -0.062500
v 0.000000 -0.500000 1.812500
v 0.062500 -0.500000 1.812500
v 0.062500 -0.500000 -0.812500
v 0.187500 -0.500000 -0.812500
v 0.187500 0.000000 -0.812500
v 0.062500 -0.000000 1.812500
v 0.062500 0.000000 -0.812500
v 0.000000 -0.000000 2.000000
v 0.000000 -0.000000 1.812500
v 0.187500 -0.000000 1.812500
v 0.187500 -0.500000 1.812500
v 0.187500 1.937500 0.812500
v 0.812500 1.937500 0.812500
v 0.750000 2.000000 0.750000
v 0.250000 2.000000 0.750000
v 0.062500 0.000000 -1.000000
v 0.062500 0.125000 2.000000
v 0.062500 0.125000 -1.000000
v 0.062500 -0.000000 2.000000
v 0.000000 0.125000 0.125000
v 0.125000 0.125000 0.125000
v 0.125000 1.312500 0.125000
v 0.000000 1.312500 0.125000
v 1.000000 0.125000 0.125000
v 1.000000 1.312500 0.125000
v 0.875000 1.312500 0.125000
v 0.875000 0.125000 0.125000
v 0.875000 0.125000 1.000000
v 0.875000 1.312500 1.000000
v 0.875000 1.312500 0.875000
v 0.875000 0.125000 0.875000
v 0.687500 1.437500 0.125000
v 0.312500 1.437500 0.125000
v 0.312500 1.312500 0.125000
v 0.687500 1.312500 0.125000
v 0.000000 0.187500 0.000000
v 0.000000 0.187500 0.125000
v 0.000000 1.437500 0.000000
v 0.000000 1.437500 1.000000
v 0.000000 1.312500 0.875000
v 0.000000 0.187500 0.875000
v 0.000000 0.187500 1.000000
v 1.000000 1.437500 1.000000
v 0.125000 1.312500 1.000000
v 0.875000 1.437500 0.875000
v 0.125000 1.437500 0.875000
v 1.000000 1.437500 0.000000
v 1.000000 0.187500 0.125000
v 1.000000 0.187500 0.000000
v 0.687500 1.437500 0.187500
v 0.687500 1.312500 0.187500
v 0.812500 1.312500 0.187500
v 0.812500 1.437500 0.187500
v 0.875000 0.125000 0.000000
v 0.875000 1.312500 0.000000
v 0.875000 1.437500 0.125000
v 0.125000 1.437500 0.125000
v 1.000000 0.187500 1.000000
v 1.000000 0.187500 0.875000
v 1.000000 1.312500 0.875000
v 0.125000 1.312500 0.000000
v 0.125000 0.125000 0.000000
v 0.000000 0.125000 0.000000
v 0.125000 0.125000 1.000000
v 0.125000 0.125000 0.875000
v 0.125000 1.312500 0.875000
v 0.812500 1.312500 0.687500
v 0.812500 1.437500 0.687500
v 0.875000 1.437500 0.687500
v 0.875000 1.312500 0.687500
v 0.812500 1.312500 0.812500
v 0.812500 1.437500 0.812500
v 0.875000 1.437500 0.312500
v 0.812500 1.437500 0.312500
v 0.812500 1.312500 0.312500
v 0.875000 1.312500 0.312500
v 0.187500 1.437500 0.312500
v 0.187500 1.437500 0.187500
v 0.125000 1.437500 0.312500
v 0.125000 1.437500 0.687500
v 0.125000 1.312500 0.687500
v 0.125000 1.312500 0.312500
v 0.187500 1.312500 0.312500
v 0.187500 1.437500 0.687500
v 0.187500 1.312500 0.687500
v 0.687500 1.312500 0.812500
v 0.687500 1.312500 0.875000
v 1.000000 0.125000 0.000000
v 1.000000 0.125000 0.875000
v 0.312500 1.312500 0.187500
v 0.312500 1.437500 0.187500
v 0.187500 1.312500 0.187500
v 0.312500 1.312500 0.812500
v 0.312500 1.312500 0.875000
v 0.187500 1.312500 0.812500
v 0.687500 1.437500 0.812500
v 0.687500 1.437500 0.875000
v 0.187500 1.437500 0.812500
v 0.312500 1.437500 0.812500
v 0.312500 1.437500 0.875000
v 0.000000 0.125000 1.000000
v 1.000000 0.125000 1.000000
v 0.000000 0.125000 0.875000
v 0.812500 1.937500 0.187500
v 0.812500 1.062500 0.187500
v 0.187500 1.062500 0.187500
v 0.187500 1.937500 0.187500
v 0.187500 1.062500 0.812500
v 0.812500 1.062500 0.812500
v 0.750000 2.000000 0.250000
v 0.250000 2.000000 0.250000
v 1.000000 0.000000 -0.062500
v 1.000000 -0.500000 -0.062500
v 0.812500 -0.500000 -0.062500
v 0.812500 0.000000 -0.062500
v 1.000000 -0.000000 0.125000
v 1.000000 -0.500000 0.125000
v 0.812500 -0.000000 0.125000
v 0.812500 -0.500000 0.125000
v 1.000000 -0.500000 1.812500
v 1.000000 -0.500000 -0.812499
v 0.937500 -0.500000 -0.812499
v 0.937500 -0.500000 1.812500
v 1.000000 0.000000 -0.812500
v 0.812500 0.000000 -0.812500
v 0.812500 -0.500000 -0.812499
v 0.937500 0.000000 -0.812500
v 0.937500 -0.000000 1.812500
v 1.000000 -0.000000 1.812500
v 0.937500 0.000000 -1.000000
v 1.000000 0.000000 -1.000000
v 1.000000 -0.000000 2.000000
v 0.937500 0.125000 -1.000000
v 0.937500 0.125000 2.000000
v 0.937500 -0.000000 2.000000
v 1.000000 -0.500000 2.000000
v 0.812500 -0.500000 1.937400
v 0.187500 -0.500000 1.937400
v 0.187500 -0.500000 2.000000
v 0.812500 -0.500000 -0.999999
v 0.812500 -0.500000 -0.937400
v 0.187500 -0.500000 -0.937400
v 0.187500 -0.000000 2.000000
v 0.812500 -0.000000 1.937400
v 0.187500 -0.000000 1.937400
v 0.000000 -0.500000 0.875000
v 0.000000 -0.000000 0.875000
v 0.000000 -0.000000 0.125000
v 0.000000 -0.500000 0.125000
v 1.000000 -0.500000 -1.000000
v 0.187500 -0.000000 0.875000
v 0.187500 -0.500000 0.875000
v 0.187500 -0.500000 0.125000
v 0.187500 -0.000000 0.125000
v 0.187500 0.000000 -0.937400
v 0.187500 -0.500000 -0.937400
v 0.812500 0.000000 -0.937400
v 0.812500 -0.500000 -0.937399
vt 0.750000 0.250000
vt 0.750000 0.125000
vt 0.796875 0.125000
vt 0.796875 0.250000
vt 0.750000 0.250000
vt 0.750000 0.125000
vt 0.796875 0.125000
vt 0.796875 0.250000
vt 0.000000 0.296875
vt 0.000000 0.281250
vt 0.750000 0.281250
vt 0.750000 0.296875
vt 0.796875 0.250000
vt 0.796875 0.125000
vt 0.953125 0.125000
vt 0.953125 0.140625
vt 0.796875 0.140625
vt 0.796875 0.125000
vt 0.750000 0.562500
vt 0.750000 0.812500
vt 0.000000 0.812500
vt 0.000000 0.562500
vt 0.750000 0.125000
vt 0.000000 0.125000
vt 0.000000 0.000000
vt 0.750000 0.000000
vt 0.750000 0.250000
vt 0.796875 0.250000
vt 0.796875 0.125000
vt 0.750000 0.125000
vt 0.750000 0.250000
vt 0.750000 0.125000
vt 0.796875 0.125000
vt 0.796875 0.250000
vt 0.000000 0.296875
vt 0.750000 0.296875
vt 0.750000 0.281250
vt 0.000000 0.281250
vt 0.750000 0.250000
vt 0.750000 0.125000
vt 0.796875 0.125000
vt 0.796875 0.250000
vt 0.796875 0.250000
vt 0.796875 0.125000
vt 0.750000 0.250000
vt 0.796875 0.250000
vt 0.796875 0.125000
vt 0.750000 0.125000
vt 0.703125 0.125000
vt 0.703125 0.140625
vt 0.046875 0.140625
vt 0.046875 0.125000
vt 0.750000 0.250000
vt 0.750000 0.125000
vt 0.796875 0.125000
vt 0.796875 0.250000
vt 0.046875 0.125000
vt 0.703125 0.125000
vt 0.703125 0.250000
vt 0.046875 0.250000
vt 0.750000 0.250000
vt 0.796875 0.250000
vt 0.796875 0.125000
vt 0.750000 0.250000
vt 0.796875 0.250000
vt 0.796875 0.125000
vt 0.750000 0.125000
vt 0.703125 0.125000
vt 0.046875 0.125000
vt 0.046875 0.140625
vt 0.703125 0.140625
vt 0.250000 0.546875
vt 0.406250 0.546875
vt 0.390625 0.562500
vt 0.265625 0.562500
vt 0.750000 0.250000
vt 0.734375 0.250000
vt 0.734375 0.296875
vt 0.750000 0.296875
vt 0.000000 0.250000
vt 0.750000 0.296875
vt 0.000000 0.296875
vt 0.000000 0.296875
vt 0.000000 0.281250
vt 0.750000 0.281250
vt 0.750000 0.250000
vt 0.750000 0.296875
vt 0.734375 0.296875
vt 0.734375 0.250000
vt 0.750000 0.250000
vt 0.781250 0.250000
vt 0.781250 0.546875
vt 0.750000 0.546875
vt 1.000000 0.250000
vt 1.000000 0.546875
vt 0.968750 0.546875
vt 0.968750 0.250000
vt 1.000000 0.250000
vt 1.000000 0.546875
vt 0.968750 0.546875
vt 0.968750 0.250000
vt 0.828125 0.546875
vt 0.921875 0.546875
vt 0.921875 0.578125
vt 0.828125 0.578125
vt 0.750000 0.265625
vt 0.781250 0.265625
vt 0.781250 0.546875
vt 0.750000 0.578125
vt 1.000000 0.578125
vt 0.968750 0.546875
vt 0.968750 0.265625
vt 1.000000 0.265625
vt 0.968750 0.546875
vt 1.000000 0.578125
vt 0.750000 0.578125
vt 0.781250 0.546875
vt 0.031250 0.328125
vt 0.031250 0.515625
vt 0.000000 0.546875
vt 0.000000 0.296875
vt 1.000000 0.578125
vt 0.968750 0.546875
vt 0.968750 0.265625
vt 1.000000 0.265625
vt 0.968750 0.546875
vt 0.968750 0.578125
vt 0.937500 0.578125
vt 0.937500 0.546875
vt 0.750000 0.250000
vt 0.781250 0.250000
vt 0.781250 0.546875
vt 0.750000 0.546875
vt 0.250000 0.296875
vt 0.218750 0.328125
vt 0.218750 0.515625
vt 0.250000 0.546875
vt 0.921875 0.578125
vt 0.921875 0.546875
vt 0.937500 0.546875
vt 0.937500 0.578125
vt 0.750000 0.265625
vt 0.781250 0.265625
vt 0.781250 0.546875
vt 0.750000 0.578125
vt 1.000000 0.578125
vt 0.968750 0.546875
vt 0.968750 0.250000
vt 1.000000 0.250000
vt 0.750000 0.578125
vt 0.781250 0.546875
vt 1.000000 0.250000
vt 1.000000 0.546875
vt 0.968750 0.546875
vt 0.968750 0.250000
vt 0.750000 0.250000
vt 0.781250 0.250000
vt 0.781250 0.546875
vt 0.750000 0.546875
vt 0.921875 0.578125
vt 0.921875 0.546875
vt 0.937500 0.546875
vt 0.937500 0.578125
vt 0.968750 0.546875
vt 0.968750 0.578125
vt 0.937500 0.578125
vt 0.937500 0.546875
vt 0.812500 0.546875
vt 0.828125 0.546875
vt 0.828125 0.578125
vt 0.812500 0.578125
vt 0.828125 0.546875
vt 0.921875 0.546875
vt 0.921875 0.578125
vt 0.828125 0.578125
vt 0.171875 0.500000
vt 0.203125 0.500000
vt 0.171875 0.515625
vt 0.828125 0.546875
vt 0.921875 0.546875
vt 0.921875 0.578125
vt 0.828125 0.578125
vt 0.031250 0.328125
vt 0.000000 0.328125
vt 0.000000 0.515625
vt 0.031250 0.515625
vt 0.078125 0.343750
vt 0.046875 0.343750
vt 0.078125 0.328125
vt 0.921875 0.578125
vt 0.921875 0.546875
vt 0.937500 0.546875
vt 0.937500 0.578125
vt 0.218750 0.328125
vt 0.218750 0.515625
vt 0.250000 0.515625
vt 0.250000 0.328125
vt 0.812500 0.546875
vt 0.828125 0.546875
vt 0.828125 0.578125
vt 0.812500 0.578125
vt 0.031250 0.546875
vt 0.218750 0.546875
vt 0.218750 0.296875
vt 0.031250 0.296875
vt 0.046875 0.375000
vt 0.046875 0.343750
vt 0.031250 0.375000
vt 0.078125 0.343750
vt 0.078125 0.328125
vt 0.750000 0.250000
vt 0.781250 0.250000
vt 0.750000 0.250000
vt 0.781250 0.250000
vt 0.781250 0.546875
vt 0.750000 0.546875
vt 0.781250 0.578125
vt 0.781250 0.546875
vt 0.812500 0.546875
vt 0.812500 0.578125
vt 0.812500 0.546875
vt 0.828125 0.546875
vt 0.828125 0.578125
vt 0.812500 0.578125
vt 0.171875 0.500000
vt 0.171875 0.515625
vt 0.203125 0.500000
vt 0.203125 0.468750
vt 0.218750 0.468750
vt 0.203125 0.375000
vt 0.203125 0.343750
vt 0.218750 0.375000
vt 0.046875 0.468750
vt 0.031250 0.468750
vt 0.046875 0.500000
vt 0.078125 0.500000
vt 0.078125 0.515625
vt 0.046875 0.375000
vt 0.031250 0.375000
vt 0.781250 0.578125
vt 0.781250 0.546875
vt 0.812500 0.546875
vt 0.812500 0.578125
vt 0.781250 0.578125
vt 0.781250 0.546875
vt 0.812500 0.546875
vt 0.812500 0.578125
vt 0.078125 0.500000
vt 0.078125 0.515625
vt 0.046875 0.500000
vt 0.781250 0.578125
vt 0.781250 0.546875
vt 0.812500 0.546875
vt 0.812500 0.578125
vt 0.046875 0.468750
vt 0.031250 0.468750
vt 0.203125 0.468750
vt 0.218750 0.468750
vt 0.171875 0.343750
vt 0.171875 0.328125
vt 0.968750 0.546875
vt 0.968750 0.578125
vt 0.937500 0.578125
vt 0.937500 0.546875
vt 0.828125 0.546875
vt 0.921875 0.546875
vt 0.921875 0.578125
vt 0.828125 0.578125
vt 0.921875 0.578125
vt 0.921875 0.546875
vt 0.937500 0.546875
vt 0.937500 0.578125
vt 0.968750 0.546875
vt 0.968750 0.578125
vt 0.937500 0.578125
vt 0.937500 0.546875
vt 0.812500 0.546875
vt 0.828125 0.546875
vt 0.828125 0.578125
vt 0.812500 0.578125
vt 0.750000 0.250000
vt 0.781250 0.250000
vt 0.968750 0.250000
vt 1.000000 0.250000
vt 1.000000 0.250000
vt 1.000000 0.546875
vt 0.968750 0.546875
vt 0.968750 0.250000
vt 0.203125 0.375000
vt 0.218750 0.375000
vt 0.203125 0.343750
vt 0.171875 0.343750
vt 0.171875 0.328125
vt 0.406250 0.546875
vt 0.406250 0.328125
vt 0.250000 0.328125
vt 0.250000 0.546875
vt 0.250000 0.328125
vt 0.406250 0.328125
vt 0.250000 0.546875
vt 0.265625 0.562500
vt 0.406250 0.546875
vt 0.390625 0.562500
vt 0.265625 0.562500
vt 0.250000 0.328125
vt 0.687500 0.437500
vt 0.687500 0.562500
vt 0.562500 0.562500
vt 0.562500 0.437500
vt 0.390625 0.562500
vt 0.406250 0.562500
vt 0.406250 0.406250
vt 0.562500 0.406250
vt 0.562500 0.562500
vt 0.406250 0.328125
vt 0.750000 0.250000
vt 0.750000 0.125000
vt 0.796875 0.125000
vt 0.796875 0.250000
vt 0.750000 0.250000
vt 0.750000 0.125000
vt 0.796875 0.125000
vt 0.796875 0.250000
vt 0.796875 0.250000
vt 0.796875 0.125000
vt 0.703125 0.125000
vt 0.046875 0.125000
vt 0.046875 0.140625
vt 0.703125 0.140625
vt 0.750000 0.250000
vt 0.796875 0.250000
vt 0.796875 0.125000
vt 0.750000 0.125000
vt 0.046875 0.125000
vt 0.046875 0.250000
vt 0.703125 0.250000
vt 0.703125 0.125000
vt 0.750000 0.250000
vt 0.750000 0.125000
vt 0.703125 0.125000
vt 0.703125 0.140625
vt 0.046875 0.140625
vt 0.046875 0.125000
vt 0.750000 0.250000
vt 0.750000 0.296875
vt 0.734375 0.296875
vt 0.734375 0.250000
vt 0.000000 0.250000
vt 0.000000 0.296875
vt 0.750000 0.296875
vt 0.750000 0.250000
vt 0.000000 0.296875
vt 0.750000 0.281250
vt 0.000000 0.281250
vt 0.750000 0.250000
vt 0.734375 0.250000
vt 0.734375 0.296875
vt 0.750000 0.296875
vt 0.750000 0.125000
vt 1.000000 0.125000
vt 1.000000 0.000000
vt 0.750000 0.000000
vt 0.953125 0.125000
vt 0.953125 0.140625
vt 0.796875 0.140625
vt 0.796875 0.125000
vt 0.953125 0.125000
vt 0.796875 0.125000
vt 0.796875 0.140625
vt 0.953125 0.140625
vt 0.750000 0.250000
vt 0.750000 0.125000
vt 0.796875 0.250000
vt 0.796875 0.125000
vt 0.953125 0.125000
vt 0.953125 0.250000
vt 0.796875 0.250000
vt 0.953125 0.125000
vt 0.796875 0.125000
vt 0.796875 0.140625
vt 0.953125 0.140625
vt 0.750000 0.250000
vt 0.750000 0.125000
vt 0.750000 0.250000
vt 0.750000 0.125000
vt 0.468750 0.125000
vt 0.468750 0.250000
vt 0.281250 0.250000
vt 0.281250 0.125000
vt 0.468750 0.125000
vt 0.468750 0.250000
vt 0.281250 0.250000
vt 0.281250 0.125000
vt 0.750000 0.125000
vt 0.750000 0.000000
vt 1.000000 0.000000
vt 1.000000 0.125000
vt 0.750000 0.250000
vt 0.796875 0.250000
vt 0.796875 0.125000
vt 0.796875 0.250000
vt 0.796875 0.125000
vt 0.796875 0.125000
vt 0.796875 0.250000
vt 0.796875 0.125000
vt 0.796875 0.250000
vt 0.796875 0.250000
vt 0.796875 0.125000
vt 0.750000 0.250000
vt 0.796875 0.250000
vt 0.796875 0.125000
vt 0.750000 0.125000
vt 0.750000 0.250000
vt 0.796875 0.250000
vt 0.796875 0.125000
vt 0.750000 0.125000
vt 0.796875 0.125000
vt 0.796875 0.250000
vt 0.000000 0.125000
vt 0.000000 0.000000
vt 0.796875 0.125000
vt 0.796875 0.250000
vt 0.953125 0.250000
vt 0.953125 0.125000
vn -1.0000 0.0000 0.0000
vn 0.0000 -0.0000 1.0000
vn 0.0000 1.0000 0.0000
vn 0.0000 0.0000 -1.0000
vn 0.0000 -1.0000 -0.0000
vn 1.0000 0.0000 0.0000
vn 0.0000 0.7071 0.7071
vn 0.7071 0.7071 0.0000
vn -0.7071 0.7071 0.0000
vn 0.0000 0.7071 -0.7071
usemtl metalPress
f 13/21/4 14/22/4 15/23/4 16/24/4
f 17/25/5 18/26/5 19/27/5 20/28/5
f 21/29/6 22/30/6 23/31/6 24/32/6
f 13/21/7 25/33/7 26/34/7 14/22/7
f 27/35/6 28/36/6 25/37/6 29/38/6
f 30/39/8 31/40/8 32/41/8 33/42/8
f 34/43/4 14/44/4 30/45/4 33/46/4
f 35/47/4 36/48/4 37/49/4 38/50/4
f 39/51/7 40/52/7 41/53/7 42/54/7
f 43/55/6 44/56/6 45/57/6 46/58/6
f 47/59/9 48/60/9 40/61/9 39/62/9
f 47/59/5 49/63/5 50/64/5 48/60/5
f 51/65/7 52/66/7 53/67/7 54/68/7
f 55/69/6 56/70/6 57/71/6 15/72/6
f 16/73/5 15/74/5 58/75/5 59/76/5
f 57/77/4 56/78/4 60/79/4 61/80/4
f 62/81/4 63/82/4 55/83/4 34/43/4
f 63/84/7 64/85/7 65/86/7 55/87/7
f 63/88/8 16/89/8 61/90/8 60/91/8
f 66/92/10 67/93/10 68/94/10 69/95/10
f 70/96/7 13/97/7 24/98/7 23/99/7
f 13/100/4 62/81/4 21/101/4 24/102/4
f 22/103/9 71/104/9 72/105/9 23/99/9
f 73/106/5 22/107/5 21/108/5 62/109/5
f 74/110/5 75/111/5 76/112/5 77/113/5
f 78/114/5 79/115/5 80/116/5 81/117/5
f 82/118/4 83/119/4 84/120/4 85/121/4
f 86/122/5 87/123/5 88/124/5 89/125/5
f 90/126/4 91/127/4 77/128/4 92/129/4
f 93/130/4 94/131/4 95/132/4 96/133/4
f 83/134/5 97/135/5 93/136/5 98/137/5
f 99/138/6 100/139/6 93/140/6 97/141/6
f 101/142/9 79/143/9 102/144/9 103/145/9
f 104/146/5 105/147/5 106/148/5 107/149/5
f 108/150/4 81/151/4 80/152/4 109/153/4
f 94/131/4 93/130/4 92/129/4 77/128/4
f 101/154/6 110/155/6 99/138/6 97/141/6
f 93/140/6 100/139/6 111/156/6 92/157/6
f 105/158/4 104/159/4 86/160/4 89/161/4
f 112/162/9 113/163/9 114/164/9 97/165/9
f 110/155/6 101/154/6 92/157/6 111/156/6
f 92/166/7 115/167/7 116/168/7 117/169/7
f 115/167/7 92/166/7 101/170/7 109/171/7
f 116/172/9 115/173/9 76/174/9 75/175/9
f 118/176/9 119/177/9 120/178/9 98/179/9
f 121/180/7 122/181/7 123/182/7 124/183/7
f 122/184/4 121/185/4 125/186/4 126/187/4
f 127/188/5 128/189/5 129/190/5 130/191/5
f 123/192/4 127/193/4 130/194/4 124/195/4
f 131/196/6 132/197/6 111/156/6 133/198/6
f 133/199/9 134/200/9 135/201/9 136/202/9
f 84/203/8 83/204/8 98/205/8 120/206/8
f 122/207/6 126/208/6 99/138/6 123/209/6
f 137/210/5 131/211/5 133/212/5 136/213/5
f 80/214/8 76/215/8 115/216/8 109/217/8
f 134/218/7 138/219/7 139/220/7 135/221/7
f 94/222/8 77/223/8 76/215/8 120/206/8
f 79/224/8 114/225/8 84/203/8 80/214/8
f 79/143/9 101/142/9 97/165/9 114/164/9
f 140/226/8 125/227/8 84/203/8 141/228/8
f 121/229/8 124/230/8 84/203/8 125/227/8
f 142/231/7 108/232/7 109/171/7 101/170/7
f 143/233/7 85/234/7 84/235/7 114/236/7
f 144/237/5 145/238/5 132/239/5 146/240/5
f 87/241/9 145/242/9 144/243/9 88/244/9
f 137/245/8 136/246/8 76/215/8 146/247/8
f 144/248/8 146/247/8 76/215/8 88/249/8
f 104/250/6 107/251/6 110/155/6 86/252/6
f 147/253/8 148/254/8 120/206/8 149/255/8
f 139/256/8 149/255/8 120/206/8 135/257/8
f 150/258/6 151/259/6 99/138/6 126/208/6
f 139/260/9 138/261/9 152/262/9 149/263/9
f 140/264/7 150/265/7 126/266/7 125/267/7
f 138/268/6 134/269/6 100/139/6 152/270/6
f 129/271/4 128/272/4 107/273/4 106/274/4
f 153/275/6 152/270/6 100/139/6 154/276/6
f 145/277/6 87/278/6 111/156/6 132/197/6
f 128/279/6 127/280/6 110/155/6 107/251/6
f 131/281/9 137/282/9 146/283/9 132/284/9
f 154/285/7 151/286/7 141/287/7 148/288/7
f 147/289/9 153/290/9 154/291/9 148/292/9
f 153/293/7 147/294/7 149/295/7 152/296/7
f 151/297/4 150/298/4 140/299/4 141/300/4
f 155/301/5 118/302/5 98/137/5 93/136/5
f 97/135/5 83/134/5 82/303/5 156/304/5
f 157/305/7 94/306/7 120/307/7 119/308/7
f 105/309/8 89/310/8 80/214/8 106/311/8
f 129/312/8 106/311/8 80/214/8 130/313/8
f 158/314/7 159/315/7 160/316/7 161/317/7
f 67/93/5 66/92/5 162/318/5 163/319/5
f 158/320/11 164/321/11 68/94/11 67/93/11
f 161/317/12 66/322/12 69/323/12 165/324/12
f 67/93/9 163/319/9 159/325/9 158/320/9
f 164/326/6 165/327/6 69/328/6 68/329/6
f 161/317/13 165/324/13 164/330/13 158/314/13
f 159/331/8 163/332/8 162/333/8 160/334/8
f 66/322/4 161/317/4 160/316/4 162/335/4
f 166/336/7 167/337/7 168/338/7 169/339/7
f 170/340/9 171/341/9 167/342/9 166/343/9
f 170/340/5 172/344/5 173/345/5 171/341/5
f 174/346/6 175/347/6 176/348/6 177/349/6
f 178/350/5 179/351/5 180/352/5 175/353/5
f 176/354/9 181/355/9 182/356/9 177/357/9
f 183/358/7 174/359/7 37/49/7 36/48/7
f 183/360/8 182/361/8 181/362/8 178/363/8
f 184/364/7 45/365/7 44/366/7 185/367/7
f 185/368/9 44/369/9 43/370/9 186/371/9
f 46/372/4 45/365/4 187/373/4 188/374/4
f 189/375/5 186/376/5 43/377/5 46/378/5
f 190/379/5 34/380/5 33/381/5 32/382/5
f 38/383/6 191/384/6 192/385/6 193/386/6
f 195/387/8 196/388/8 26/389/8 194/390/8
f 197/391/9 193/392/9 65/86/9 64/85/9
f 62/81/5 34/43/5 193/386/5 197/393/5
f 192/394/5 191/395/5 198/396/5 199/397/5
f 35/398/8 197/399/8 199/400/8 198/401/8
f 25/402/9 59/76/9 58/75/9 26/403/9
f 28/404/4 194/405/4 180/352/4 179/351/4
f 171/406/9 170/407/9 39/408/9 40/409/9
f 200/410/4 201/411/4 202/412/4 203/413/4
f 204/414/7 31/415/7 30/416/7 14/417/7
f 185/418/9 178/419/9 175/420/9 204/414/9
f 186/371/5 35/421/5 38/422/5 190/379/5
f 186/371/9 190/379/9 174/423/9 183/424/9
f 185/418/7 204/414/7 194/425/7 28/426/7
f 17/25/4 201/427/4 200/428/4 18/26/4
f 201/429/7 205/430/7 206/431/7 200/432/7
f 202/433/4 51/434/4 54/435/4 203/436/4
f 202/433/5 203/436/5 207/437/5 208/438/5
f 204/414/9 190/439/9 32/440/9 31/415/9
f 210/441/7 209/442/7 211/443/7 212/444/7
