# Model created by BluSunrize
mtllib mixer.mtl

o base
v 0.062501 -0.500000 -0.687500
v 0.312500 -0.125001 0.687500
v 0.062500 -0.000001 0.687500
v 0.062501 -0.500000 0.687500
v 1.875000 -0.500000 1.624998
v 1.750000 -0.500000 1.624998
v 1.749999 -0.000000 1.624999
v 1.875000 -0.000000 1.624998
v 1.687501 -0.125001 0.687500
v 1.749999 -0.500000 1.874998
v 1.750000 -0.000000 1.874999
v 1.687501 -0.500000 0.687500
v 0.062501 -0.500000 0.937500
v -1.000001 -0.500002 2.000002
v 1.937501 -0.500000 0.687500
v 1.250000 -0.500000 1.874998
v 1.250000 -0.000000 1.874998
v 1.125000 -0.000000 1.874998
v 1.125000 -0.500000 1.874998
v 1.250000 -0.500000 1.624998
v 1.125000 -0.500000 1.624998
v 1.125000 -0.000000 1.624998
v 1.250000 -0.000000 1.624998
v 1.875000 -0.500000 1.874998
v 1.874999 -0.000000 1.874999
v 1.937501 -0.000001 0.687500
v 1.687501 -0.000001 0.937500
v 1.000000 1.000000 1.999998
v -1.000000 -0.499999 -0.999994
v 2.000000 -0.500000 1.999998
v 1.999998 -1.000000 1.999999
v 1.999997 -1.000004 -0.999996
v -1.000003 -1.000003 -1.000000
v -1.000003 -1.000002 1.999995
v 1.999999 1.000000 1.999998
v 2.000000 1.000000 1.499998
v 1.000000 1.000000 1.499998
v 1.000000 -0.000000 1.499998
v 1.999999 -0.000000 1.999998
v 2.000000 -0.000000 1.499998
v 0.999999 -0.000004 1.000003
v 0.999998 -0.000004 2.000002
v 0.000003 0.999999 -0.374999
v 0.000003 0.999999 -0.625000
v 0.000004 0.750000 -0.625000
v 0.000003 0.750000 -0.374999
v 0.000003 0.750000 -0.250000
v 0.000003 0.750000 -0.749999
v 0.000004 0.250000 -0.750000
v 0.000003 0.250001 -0.249999
v 0.062504 0.250000 -0.750000
v 0.062503 0.750000 -0.749999
v 0.062503 0.250001 -0.249999
v 0.062503 0.750000 -0.249999
v 0.062504 0.750000 -0.625000
v 0.062503 0.999999 -0.625000
v 0.062503 0.750000 -0.374999
v 0.062503 0.999999 -0.374999
v 0.375000 0.999998 -1.000000
v 0.625000 0.999999 -1.000000
v 0.625000 0.749999 -1.000000
v 0.375000 0.749999 -1.000000
v 0.250000 0.749999 -1.000000
v 0.750000 0.749999 -1.000000
v 0.750000 0.250000 -1.000000
v 0.250000 0.250000 -1.000000
v 0.750000 0.250000 -0.937500
v 0.750000 0.749999 -0.937500
v 0.250000 0.250000 -0.937500
v 0.250000 0.749999 -0.937500
v 0.625000 0.749999 -0.937500
v 0.625000 0.999999 -0.937500
v 0.375000 0.749999 -0.937500
v 0.375000 0.999998 -0.937500
v 0.999998 -0.500004 1.000004
v 2.000000 -0.500000 -0.999997
v 0.312501 -0.500000 0.687500
v 1.937501 -0.500000 0.937500
v 0.062500 -0.000001 0.937500
v 0.312500 -0.000001 0.937500
v 0.312501 -0.500000 0.937500
v 1.687501 -0.500000 0.937500
v 0.312501 -0.500000 -0.687500
v 0.312500 -0.125001 -0.687500
v 0.062500 -0.000000 -0.687500
v 0.312501 -0.500000 -0.937500
v 0.062501 -0.500000 -0.937500
v 0.312500 -0.000001 -0.937500
v 1.687501 -0.500000 -0.937500
v 1.687501 -0.500000 -0.687500
v 1.687501 -0.125000 -0.687500
v 1.687501 -0.000001 -0.937500
v 1.937501 -0.500000 -0.687500
v 1.937501 -0.000001 -0.687500
v 1.937501 -0.500000 -0.937500
v 1.937500 -0.000001 -0.937500
v 0.999998 -0.500004 2.000002
v -0.000001 -0.000002 1.000002
v -0.000001 -0.000002 2.000002
v -1.000000 1.000000 2.000000
v -1.000001 -0.500002 0.000001
v 0.000001 0.999998 0.000000
v -0.000002 -0.500003 2.000001
v -0.000001 -0.500002 0.000002
v 0.625000 -0.250000 0.125001
v 0.625000 -0.500000 0.125001
v 1.125000 -0.500001 0.125001
v 1.125000 -0.250001 0.125002
v 1.125000 -0.500000 -0.124999
v 1.125000 -0.250001 -0.124999
v 0.625000 -0.502500 1.000003
v 0.625000 -0.250000 -0.124999
v 0.625000 -0.250000 1.000003
v 0.374998 -0.250000 -0.124999
v 0.374999 -0.250000 1.000003
v 0.374998 -0.500000 -0.124999
v 0.374998 -0.500000 1.000003
v 0.000001 0.999998 1.000000
v 0.000001 -0.500003 1.000003
v 1.500000 -0.125001 -0.499999
v 0.499999 -0.125001 -0.499999
v 0.499999 -0.125002 0.500001
v 1.500000 -0.125002 0.500001
v 1.937501 -0.000001 0.937500
v 1.500000 -0.250002 0.500001
v 1.500000 -0.250001 -0.499999
v 0.187500 -0.000002 0.812500
v 0.187500 0.999999 0.812500
v 1.812501 1.000000 0.812501
v 1.812501 -0.000001 0.812501
v 1.937501 1.000000 -0.937499
v 1.937501 1.000000 0.937501
v 0.062500 -0.000001 -0.937500
v 0.062500 0.999999 -0.937499
v 0.499999 -0.250001 -0.499999
v 0.187500 -0.000001 -0.812499
v 0.187500 0.999999 -0.812499
v 1.812501 1.000000 -0.812499
v 1.812501 -0.000001 -0.812499
v 0.062500 0.999999 0.937500
v 0.499999 -0.250002 0.500001
v 0.604734 1.187501 -0.197680
v 1.197677 1.187500 -0.395261
v 1.395268 1.187502 0.197672
v 0.802323 1.187500 0.395272
v 0.604733 1.937501 -0.197681
v 0.802322 1.937500 0.395271
v 1.395267 1.937502 0.197671
v 1.197676 1.937499 -0.395262
v -0.225407 1.624999 0.276573
v -0.225406 1.000000 0.276574
v -0.759059 0.999999 0.454397
v -0.759060 1.624999 0.454397
v -0.146374 1.625000 0.513752
v -0.680027 1.624999 0.691576
v -0.680027 1.375000 0.691576
v -0.146374 1.375000 0.513753
v -0.383552 1.375000 0.592789
v -0.423070 1.375000 0.474200
v -0.185892 1.375000 0.395164
v 0.743047 1.812501 0.217380
v 0.743042 1.562485 0.217366
v 0.703524 1.562484 0.098777
v -0.185892 0.999999 0.395164
v 0.703527 1.187501 0.098785
v 0.743042 1.249986 0.217366
v -0.146374 1.062501 0.513753
v -0.185892 1.062500 0.395164
v 0.703524 1.249985 0.098778
v 0.664012 1.187500 -0.019805
v 0.664014 1.812500 -0.019799
v -0.680026 1.000000 0.691576
v -0.146374 1.312516 0.513753
v -0.383551 1.312516 0.592789
v -0.383551 1.000000 0.592789
v -0.146374 1.000000 0.513753
v 0.743042 1.500001 0.217366
v 0.703524 1.500000 0.098778
v -0.185892 1.312515 0.395164
v -0.423069 1.312531 0.474200
v -0.423069 1.000000 0.474200
v -1.000000 0.999999 0.000000
v -0.000003 0.999998 2.000004
vt 0.750000 1.000000
vt 0.750000 0.750000
vt 1.000000 0.750000
vt 1.000000 1.000000
vt 1.000000 0.124999
vt 0.531250 0.124999
vt 0.640625 0.015625
vt 0.890624 0.015625
vt 0.531250 -0.000000
vt 0.531250 0.250000
vt 0.125000 0.250000
vt 0.125000 -0.000000
vt 1.000000 0.375000
vt 0.531250 0.375000
vt 0.562499 0.124999
vt 0.968750 0.124999
vt 0.890624 0.046875
vt 0.640625 0.046875
vt 0.062500 0.250000
vt 0.500000 0.281250
vt 0.093750 0.281250
vt 0.062500 0.625000
vt 0.218750 0.625000
vt 0.218750 0.468750
vt 0.062500 0.468750
vt 0.062500 0.281250
vt 0.218750 0.281250
vt 0.156250 0.859375
vt 0.000000 0.859375
vt 0.000000 1.000000
vt 0.156250 1.000000
vt 0.093750 1.000000
vt 0.093750 0.859375
vt 0.109375 0.859375
vt 0.109375 0.921875
vt 0.078125 0.921875
vt 0.078125 0.859375
vt 0.156250 0.625000
vt 0.093750 0.625000
vt 0.109375 0.625000
vt 0.078125 0.625000
vt 0.000000 0.625000
vt 0.812500 0.437500
vt 0.812500 0.671875
vt 0.781250 0.671875
vt 0.781250 0.437500
vt 0.187500 0.859375
vt 0.187500 0.625000
vt 0.218750 1.000000
vt 0.218750 0.859375
vt 0.218750 0.781250
vt 0.156250 0.781250
vt 0.812500 0.750000
vt 0.750000 0.671875
vt 0.781250 0.687500
vt 0.812500 0.687500
vt 0.750000 0.437500
vt 0.812500 0.718750
vt 0.750000 0.718750
vt 0.093750 0.921875
vt 0.000000 0.921875
vt 0.093750 0.937500
vt 0.000000 0.937500
vt 0.000000 0.906250
vt 0.093750 0.906250
vt 0.250000 0.750000
vt 0.749999 0.750000
vt 0.749999 1.000000
vt 0.250000 1.000000
vt 0.250000 0.375000
vt 0.749999 0.375000
vt 0.500000 0.671875
vt 0.531250 0.671875
vt 0.531250 0.718750
vt 0.500000 0.734375
vt 0.718750 0.562500
vt 0.703125 0.562500
vt 0.703125 0.500000
vt 0.718750 0.500000
vt 0.750000 0.500000
vt 0.750000 0.562500
vt 0.531250 0.734375
vt 0.671875 0.578125
vt 0.671875 0.468750
vt 0.703125 0.468750
vt 0.703125 0.578125
vt 0.671875 0.515625
vt 0.640625 0.515625
vt 0.640625 0.578125
vt 0.671875 0.546875
vt 0.703125 0.546875
vt 0.500000 0.718750
vt 0.875000 0.500000
vt 0.875000 0.625000
vt 0.750000 0.625000
vt 0.390625 0.617188
vt 0.421875 0.617188
vt 0.421875 0.585938
vt 0.390625 0.585938
vt 0.382812 0.570312
vt 0.445312 0.570312
vt 0.445312 0.507812
vt 0.382812 0.507812
vt 0.453125 0.507812
vt 0.453125 0.570312
vt 0.382812 0.500000
vt 0.445312 0.500000
vt 0.375000 0.570312
vt 0.375000 0.507812
vt 0.445312 0.578125
vt 0.382812 0.578125
vt 0.429688 0.585938
vt 0.429688 0.617188
vt 0.382812 0.617188
vt 0.382812 0.585938
vt 0.421875 0.625000
vt 0.390625 0.625000
vt 0.375000 0.750000
vt 0.375000 0.687500
vt 0.500000 0.687500
vt 0.500000 0.750000
vt 0.000000 0.187500
vt 0.125000 0.187500
vt 0.125000 0.375000
vt 0.000000 0.375000
vt 0.250000 0.617188
vt 0.375000 0.617188
vt 0.375000 0.804688
vt 0.250000 0.804688
vt 0.640625 0.484375
vt 0.671875 0.484375
vt 0.703125 0.437500
vt 0.671875 0.437500
vt 0.000000 0.617188
vt 0.125000 0.617188
vt 0.125000 0.804688
vt 0.000000 0.804688
vt 0.375000 0.062500
vt 0.000000 0.062500
vt 0.000000 0.000000
vt 0.375000 0.000000
vt 0.375000 0.125000
vt 0.000000 0.125000
vt 0.875000 0.250000
vt 0.875000 0.187500
vt 1.000000 0.187500
vt 1.000000 0.250000
vt 1.000000 0.625000
vt 0.625000 0.625000
vt 0.625000 0.250000
vt 1.000000 0.125000
vt 0.875000 0.125000
vt 0.625000 1.000000
vn 0.0000 1.0000 0.0000
vn 0.4961 -0.8682 -0.0000
vn 0.0000 0.0000 -1.0000
vn 1.0000 -0.0000 -0.0000
vn -0.0000 -0.8682 -0.4961
vn -1.0000 0.0000 0.0000
vn 0.0000 -0.0000 1.0000
vn 0.0000 0.9285 0.3714
vn 0.3714 0.9285 0.0000
vn -0.0000 0.9285 -0.3714
vn -0.3714 0.9285 0.0000
vn 0.0000 -1.0000 -0.0000
vn 0.3162 0.0000 0.9487
vn 0.9487 0.0000 -0.3162
vn -0.9487 -0.0000 0.3161
vn -0.3161 -0.0000 -0.9487
vn 0.3161 0.0000 0.9487
vn 0.1860 -0.9806 -0.0620
vn 0.1861 -0.9806 -0.0620
vn -0.1861 0.9806 0.0620
vn 0.9487 0.0000 -0.3161
vn -0.1860 0.9806 0.0620
vn -0.4961 -0.8682 -0.0000
vn 0.0000 -0.8682 0.4961
usemtl mixer
f 120/1/1 121/2/1 122/3/1 123/4/1
f 96/5/2 124/6/2 125/7/2 126/8/2
f 127/9/3 128/10/3 129/11/3 130/12/3
f 124/6/4 96/5/4 131/13/4 132/14/4
f 133/5/3 134/13/3 131/14/3 96/6/3
f 96/6/5 126/7/5 135/8/5 133/5/5
f 136/9/4 137/10/4 128/11/4 127/12/4
f 130/9/6 129/10/6 138/11/6 139/12/6
f 136/12/7 139/9/7 138/10/7 137/11/7
f 139/15/8 136/16/8 121/17/8 120/18/8
f 132/19/1 131/10/1 138/20/1 129/21/1
f 134/10/1 137/20/1 138/21/1 131/19/1
f 134/19/1 140/10/1 128/20/1 137/21/1
f 140/19/1 132/10/1 129/20/1 128/21/1
f 127/16/9 122/17/9 121/18/9 136/15/9
f 130/16/10 123/17/10 122/18/10 127/15/10
f 139/16/11 120/17/11 123/18/11 130/15/11
f 126/3/12 125/4/12 141/1/12 135/2/12
f 142/22/12 143/23/12 144/24/12 145/25/12
f 146/22/1 147/25/1 148/24/1 149/23/1
f 145/26/13 144/27/13 148/24/13 147/25/13
f 144/26/14 143/27/14 149/24/14 148/25/14
f 142/26/15 145/27/15 147/24/15 146/25/15
f 143/26/16 142/27/16 146/24/16 149/25/16
f 150/28/16 151/29/16 152/30/16 153/31/16
f 79/6/7 124/5/7 132/13/7 140/14/7
f 154/28/17 155/31/17 156/32/17 157/33/17
f 157/34/12 158/35/12 159/36/12 160/37/12
f 161/38/17 154/28/17 157/33/17 162/39/17
f 162/40/18 157/34/18 160/37/18 163/41/18
f 163/39/17 160/33/17 164/29/17 165/42/17
f 166/43/18 167/44/18 168/45/18 169/46/18
f 164/47/19 151/28/19 170/38/19 165/48/19
f 171/38/16 170/42/16 151/29/16 150/28/16
f 155/49/1 154/50/1 150/28/1 153/31/1
f 172/51/15 155/23/15 153/38/15 152/52/15
f 154/50/20 161/23/20 171/38/20 150/28/20
f 173/53/17 174/2/17 175/54/17 176/44/17
f 168/55/21 167/56/21 176/44/21 164/45/21
f 177/57/17 173/54/17 167/44/17 166/43/17
f 177/57/22 178/46/22 179/45/22 173/54/22
f 173/53/1 179/58/1 180/59/1 174/2/1
f 158/60/17 156/32/17 172/30/17 175/61/17
f 158/62/21 175/63/21 181/64/21 159/65/21
f 160/33/17 159/60/17 181/61/17 164/29/17
f 79/5/23 133/6/23 135/7/23 141/8/23
f 124/5/24 79/6/24 141/7/24 125/8/24
f 133/6/6 79/5/6 140/13/6 134/14/6
f 182/66/1 100/67/1 183/68/1 102/69/1
f 182/66/6 101/70/6 14/71/6 100/67/6
usemtl multiblock_components
f 1/72/7 83/73/7 84/74/7 85/75/7
f 5/76/3 6/77/3 7/78/3 8/79/3
f 77/73/4 2/74/4 80/75/4 81/72/4
f 10/80/6 11/81/6 7/76/6 6/79/6
f 4/72/6 13/73/6 79/82/6 3/75/6
f 16/77/7 17/78/7 18/79/7 19/76/7
f 20/78/3 21/79/3 22/76/3 23/77/3
f 19/80/6 18/81/6 22/76/6 21/79/6
f 105/83/4 113/84/4 111/85/4 106/86/4
f 105/87/7 106/88/7 107/89/7 108/83/7
f 109/83/4 110/90/4 108/91/4 107/86/4
f 16/81/4 20/76/4 23/79/4 17/80/4
f 24/79/4 5/80/4 8/81/4 25/76/4
f 77/72/3 4/73/3 3/82/3 2/92/3
f 82/72/7 78/73/7 124/82/7 27/75/7
f 12/72/6 82/73/6 27/82/6 9/92/6
f 24/79/7 25/76/7 11/77/7 10/78/7
f 39/80/7 35/93/7 28/94/7 42/95/7
f 43/96/6 44/97/6 45/98/6 46/99/6
f 47/100/6 48/101/6 49/102/6 50/103/6
f 51/104/3 49/102/3 48/101/3 52/105/3
f 53/106/12 50/103/12 49/102/12 51/107/12
f 54/108/7 47/100/7 50/103/7 53/109/7
f 52/110/1 48/101/1 47/100/1 54/111/1
f 55/112/3 45/98/3 44/97/3 56/113/3
f 58/114/7 43/96/7 46/99/7 57/115/7
f 56/116/1 44/97/1 43/96/1 58/117/1
f 59/96/3 60/97/3 61/98/3 62/99/3
f 63/100/3 64/101/3 65/102/3 66/103/3
f 67/104/4 65/102/4 64/101/4 68/105/4
f 69/106/12 66/103/12 65/102/12 67/107/12
f 70/108/6 63/100/6 66/103/6 69/109/6
f 68/110/1 64/101/1 63/100/1 70/111/1
f 71/112/4 61/98/4 60/97/4 72/113/4
f 74/114/6 59/96/6 62/99/6 73/115/6
f 72/116/1 60/97/1 59/96/1 74/117/1
f 13/72/7 81/73/7 80/82/7 79/75/7
f 15/73/4 26/82/4 124/75/4 78/72/4
f 15/72/3 12/73/3 9/74/3 26/75/3
f 86/72/3 87/73/3 133/82/3 88/75/3
f 87/72/6 1/73/6 85/82/6 133/75/6
f 86/73/4 88/82/4 84/92/4 83/72/4
f 89/72/6 90/73/6 91/74/6 92/75/6
f 90/72/7 93/73/7 94/82/7 91/92/7
f 95/73/4 96/82/4 94/75/4 93/72/4
f 95/72/3 89/73/3 92/82/3 96/75/3
f 99/118/7 103/119/7 97/120/7 42/121/7
f 14/122/7 103/123/7 183/124/7 100/125/7
f 102/125/3 104/122/3 101/123/3 182/124/3
f 119/126/4 104/127/4 102/128/4 118/129/4
f 116/130/3 114/131/3 110/83/3 109/89/3
f 113/132/1 112/86/1 114/83/1 115/133/1
f 115/83/6 114/133/6 116/132/6 117/86/6
f 103/134/4 119/135/4 118/136/4 183/137/4
usemtl multiblock_base
f 14/138/6 29/139/6 33/140/6 34/141/6
f 29/142/3 76/143/3 32/139/3 33/138/3
f 30/138/7 14/139/7 34/140/7 31/141/7
f 30/142/4 31/138/4 32/139/4 76/143/4
f 42/144/4 97/145/4 75/146/4 41/147/4
f 33/148/12 32/149/12 31/150/12 34/147/12
f 42/145/6 28/146/6 37/151/6 38/152/6
f 36/147/1 37/144/1 28/145/1 35/146/1
f 40/144/4 36/147/4 35/146/4 39/145/4
f 38/151/3 37/147/3 36/144/3 40/152/3
f 40/144/12 39/145/12 42/146/12 38/147/12
f 76/4/1 29/153/1 14/149/1 30/148/1
f 41/144/3 75/145/3 119/146/3 98/147/3
f 99/152/1 42/151/1 41/147/1 98/144/1
