# Model created by BluSunrize
mtllib radio_tower.mtl

o base
v 1.999998 -8.000001 3.999999
v 1.999997 -8.000004 -0.999996
v -1.000003 -8.000003 -1.000000
v -1.000003 -8.000002 3.999995
v 2.999992 3.500002 2.000006
v -2.000000 2.999999 1.500006
v 2.000001 3.500000 -1.999995
v 2.000001 5.500000 -1.999994
v 1.499995 2.000001 1.500000
v 1.499994 6.000001 2.999996
v 1.999997 5.500002 2.999996
v 1.999997 3.500002 2.999997
v -1.000001 -7.500002 4.000001
v 2.000004 -5.999999 3.999995
v 2.000000 -7.500000 3.999998
v 2.000004 -5.999999 2.999995
v -0.999997 -6.000000 2.999995
v 0.000001 7.000002 0.750000
v -0.000001 7.000002 0.249994
v 1.000006 7.000002 0.249991
v 0.750002 7.000002 0.999999
v 0.250002 7.000002 0.999999
v 0.200003 11.000000 0.649995
v 2.999991 2.999997 -0.499999
v 2.999991 5.500001 -0.999999
v 2.999991 3.500001 -0.999999
v 1.499992 7.000000 -0.500005
v -1.999999 5.500003 -1.000014
v -1.999999 6.000002 -0.500011
v -1.000008 5.500001 2.999988
v -1.000004 5.500003 -2.000004
v -0.500010 7.000003 -0.500005
v -0.500002 2.000002 1.500001
v 0.250005 7.000002 -0.000008
v 0.750006 7.000002 -0.000008
v 0.800004 11.000000 0.349996
v 1.000006 7.000002 0.749998
v 0.800002 11.000000 0.649996
v 1.999997 -6.000001 -0.999996
v -1.000003 -6.000000 -1.000000
v -1.000002 -6.000000 2.000001
v 2.000000 -6.000002 2.000001
v 2.000000 -7.500000 -0.999997
v -1.000000 -7.499999 -1.000001
v 1.749996 -1.999999 -0.749999
v 1.749998 -2.000001 1.750000
v -0.750002 -1.999999 1.750001
v -0.750002 -1.999999 -0.749997
v 0.625001 2.000001 1.500008
v 0.625001 -6.000000 2.000001
v 0.375001 -5.999999 2.000002
v 0.375001 2.000003 1.500001
v 0.624999 2.000001 1.625008
v 0.624999 -6.000000 2.125001
v 0.374999 -5.999999 2.125002
v 0.374999 2.000003 1.625001
v 0.625001 -2.000000 1.750004
v 0.375001 -1.999998 1.750001
v 0.624999 -1.999999 1.875004
v 0.374999 -1.999997 1.875001
v -0.999998 -7.500000 1.999996
v -1.000008 3.500001 2.999987
v 2.249994 6.000001 2.249999
v 2.249994 2.999998 -1.249997
v -1.000004 3.500004 -2.000005
v -1.250004 2.999999 2.249997
v 2.249993 6.000002 -1.249996
v -1.250000 6.000002 -1.250006
v 2.249994 2.999998 2.250000
v -1.249998 2.999999 -1.250002
v -1.250002 6.000001 2.249996
v -1.999992 2.999998 -0.499999
v 2.999994 2.999997 1.500007
v -0.500001 6.000003 -2.000002
v 1.499997 6.000004 -1.999997
v -0.500004 3.000000 -2.000004
v 2.999991 5.500000 2.000010
v 1.499994 2.999999 2.999993
v -0.500004 6.000002 2.999989
v -0.500002 2.000001 -0.499994
v -2.000000 6.000000 1.500003
v -2.000000 5.500001 2.000005
v -2.000001 3.500003 2.000006
v -0.500008 2.999999 2.999988
v -1.999992 3.500001 -0.999999
v 1.499992 6.999999 1.499997
v 2.999990 6.000000 -0.499996
v -0.499999 7.000000 1.499998
v 0.200003 11.000000 0.349996
v 0.650004 11.000000 0.199996
v 0.350004 11.000000 0.199996
v 0.650004 11.000000 0.799995
v 0.350004 11.000000 0.799995
v 1.499995 2.000001 -0.500002
v 1.499997 2.999999 -1.999995
v 2.999994 6.000002 1.500002
v -0.999997 -5.999999 3.999995
v -0.999996 -7.500000 2.999995
v 2.000005 -7.500000 2.999994
v 2.000004 -6.499999 2.999995
v -0.999997 -6.500000 2.999995
v 2.000003 -6.500000 1.999995
v 2.000004 -7.500002 1.999994
v -0.999997 -6.500000 1.999995
v 0.625001 -6.500002 2.000001
v 0.375001 -6.500000 2.000002
v 0.624999 -6.500002 2.125001
v 0.374998 -6.500000 2.999993
v 0.624998 -6.499999 2.999995
v 0.374999 -6.375000 2.999993
v 0.624999 -6.374999 2.999995
v 0.374998 -6.500000 2.125002
v 0.374999 -6.375000 2.125002
v 0.624999 -6.374999 2.125004
v 1.374998 -6.500000 2.999993
v 1.624998 -6.499999 2.999995
v 1.374999 -6.375000 2.999993
v 1.624999 -6.374999 2.999995
v 0.374997 -6.375000 2.562498
v 0.374999 -6.375001 2.312498
v 0.374997 -6.500000 2.562496
v 0.374999 -6.500001 2.312496
v -0.625002 -6.500000 2.999993
v -0.375002 -6.499999 2.999995
v -0.625001 -6.375000 2.999993
v -0.375001 -6.374999 2.999995
v -0.625000 -6.375001 2.312498
v -0.625002 -6.500000 2.562496
v -0.625000 -6.500001 2.312496
v -0.375001 -6.374999 2.562500
v -0.375002 -6.499999 2.562500
v -0.625001 -6.375000 2.562498
v 1.374998 -6.500000 2.562498
v 1.374999 -6.375000 2.562498
v 0.625000 -6.375000 2.562498
v 0.624998 -6.375001 2.312498
v 0.625000 -6.500000 2.562496
v 0.624998 -6.500001 2.312496
v 1.624999 -6.375000 2.562498
v 1.624997 -6.375001 2.312498
v 1.624999 -6.500000 2.562496
v 1.624997 -6.500001 2.312496
vt 0.250000 0.807292
vt 0.250000 0.640625
vt 0.364583 0.640625
vt 0.364583 0.807292
vt 0.218750 0.598958
vt 0.395833 0.598958
vt 0.208333 0.447917
vt 0.208333 0.598958
vt 0.041667 0.598958
vt 0.041667 0.447917
vt 0.395833 0.848958
vt 0.218750 0.848958
vt 0.041667 0.848958
vt 0.208333 0.848958
vt 0.208333 1.000000
vt 0.041667 1.000000
vt 0.000000 0.807292
vt 0.000000 0.640625
vt 0.052083 0.989583
vt 0.052083 0.822917
vt 0.218750 0.822917
vt 0.218750 0.989583
vt 0.000000 0.385417
vt 0.333333 0.393229
vt 0.333333 0.419271
vt 0.000000 0.427083
vt 0.000000 0.000000
vt 0.250000 0.000000
vt 0.250000 0.125000
vt 0.000000 0.125000
vt 0.250000 0.208333
vt 0.000000 0.208333
vt 0.250000 0.250000
vt 0.333333 0.125000
vt 0.333333 0.250000
vt 0.000000 0.364583
vt 0.333333 0.377604
vt 0.333333 0.434896
vt 0.000000 0.447917
vt 0.645833 0.666667
vt 0.625000 1.000000
vt 0.458333 1.000000
vt 0.437500 0.666667
vt 0.416667 0.333333
vt 0.666667 0.333333
vt 0.666667 0.208333
vt 0.416667 0.208333
vt 0.000000 0.333333
vt 0.333333 0.333333
vt 0.333333 0.354167
vt 0.000000 0.354167
vt 0.000000 0.343750
vt 0.333333 0.343750
vt 0.010417 0.354167
vt 0.010417 0.333333
vt 0.343750 0.382812
vt 0.369792 0.382812
vt 0.380208 0.393229
vt 0.380208 0.419271
vt 0.369792 0.429688
vt 0.343750 0.429688
vt 0.307292 0.447917
vt 0.307292 0.598958
vt 0.307292 0.848958
vt 0.307292 1.000000
vt 0.333333 0.000000
vt 0.416667 0.000000
vt 0.416667 0.125000
vt 0.000000 0.250000
vt 0.250000 0.083333
vt 0.333333 0.083333
vt 0.250000 0.333333
vt 0.333333 0.208333
vt 0.125000 0.343750
vt 0.125000 0.354167
vt 0.083333 0.354167
vt 0.083333 0.343750
vt 0.125000 0.333333
vt 0.083333 0.333333
vt 0.260417 0.354167
vt 0.260417 0.343750
vt 0.260417 0.333333
vt 0.416667 0.354167
vt 0.406250 0.354167
vt 0.406250 0.333333
vt 0.416667 0.343750
vt 0.296875 0.354167
vt 0.296875 0.333333
vt 0.296875 0.343750
vt 0.625000 0.250000
vt 0.000000 0.187500
vt 0.625000 0.187500
vt 0.375000 0.125000
vt 0.000000 0.062500
vt 0.375000 0.062500
vt 0.625000 0.625000
vt 0.000000 0.625000
vn 0.7071 -0.0000 0.7071
vn 0.5773 -0.5773 0.5774
vn -0.0000 -0.8320 0.5547
vn 0.5773 0.5774 0.5774
vn -1.0000 -0.0000 -0.0000
vn -0.7071 0.0000 0.7071
vn -0.5773 -0.5773 0.5774
vn -0.5547 -0.8320 -0.0000
vn -0.5773 0.5774 0.5774
vn -0.5547 0.8320 0.0000
vn 0.0000 0.0000 -1.0000
vn 0.0000 0.8320 -0.5547
vn -0.5773 0.5774 -0.5774
vn -0.0000 -0.8321 -0.5547
vn -0.5774 -0.5773 -0.5773
vn -0.7071 -0.0000 -0.7071
vn -0.0000 0.8321 0.5547
vn 0.5547 0.8321 -0.0000
vn 0.5774 0.5774 -0.5773
vn 0.5547 -0.8321 -0.0000
vn 0.5774 -0.5773 -0.5773
vn 0.7071 0.0000 -0.7071
vn 0.0000 1.0000 0.0000
vn -0.9988 0.0499 0.0000
vn 0.0000 0.0000 1.0000
vn 1.0000 -0.0000 0.0000
vn -0.7061 0.0530 -0.7061
vn 0.0000 0.0499 -0.9988
vn 0.9988 0.0499 0.0000
vn -0.7061 0.0530 0.7061
vn 0.7061 0.0530 -0.7061
vn 0.0000 0.0499 0.9988
vn 0.7061 0.0530 0.7061
vn 0.9981 0.0624 -0.0000
vn -0.9981 0.0624 0.0000
vn -0.0000 0.0624 -0.9981
vn 0.0000 0.0624 0.9981
vn 0.4851 -0.7276 0.4851
vn 0.4851 0.7276 0.4851
vn -0.4851 -0.7276 0.4851
vn -0.4851 0.7276 0.4851
vn -0.4851 0.7276 -0.4851
vn -0.4851 -0.7276 -0.4851
vn 0.4851 0.7276 -0.4851
vn 0.4851 -0.7276 -0.4851
vn -0.0000 -1.0000 0.0000
usemtl radio_tower
f 11/1/1 12/2/1 5/3/1 77/4/1
f 12/2/2 78/5/2 73/6/2 5/3/2
f 9/7/3 78/8/3 84/9/3 33/10/3
f 11/1/4 77/4/4 96/11/4 10/12/4
f 29/13/5 72/9/5 6/8/5 81/14/5
f 82/1/6 83/2/6 62/3/6 30/4/6
f 83/2/7 6/5/7 84/6/7 62/3/7
f 33/7/8 6/8/8 72/9/8 80/10/8
f 82/1/9 30/4/9 79/11/9 81/12/9
f 81/14/10 88/15/10 32/16/10 29/13/10
f 75/13/11 95/9/11 76/8/11 74/14/11
f 74/14/12 32/15/12 27/16/12 75/13/12
f 31/1/13 28/4/13 29/11/13 74/12/13
f 80/7/14 76/8/14 95/9/14 94/10/14
f 65/2/15 76/5/15 72/6/15 85/3/15
f 31/1/16 65/2/16 85/3/16 28/4/16
f 10/14/17 86/15/17 88/16/17 79/13/17
f 75/13/11 8/17/11 7/18/11 95/9/11
f 87/14/18 27/15/18 86/16/18 96/13/18
f 25/1/19 8/4/19 75/11/19 87/12/19
f 94/7/20 24/8/20 73/9/20 9/10/20
f 26/2/21 24/5/21 95/6/21 7/3/21
f 25/1/22 26/2/22 7/3/22 8/4/22
f 74/14/11 76/8/11 65/2/11 31/1/11
f 88/19/23 86/20/23 27/21/23 32/22/23
f 18/23/24 23/24/24 89/25/24 19/26/24
f 13/27/25 15/28/25 14/29/25 97/30/25
f 14/29/23 16/31/23 17/32/23 97/30/23
f 14/33/26 15/29/26 99/34/26 16/35/26
f 19/36/27 89/37/27 91/24/27 34/23/27
f 34/23/28 91/24/28 90/25/28 35/26/28
f 20/23/29 36/24/29 38/25/29 37/26/29
f 23/38/30 18/39/30 22/26/30 93/25/30
f 36/38/31 20/39/31 35/26/31 90/25/31
f 21/23/32 92/24/32 93/25/32 22/26/32
f 37/36/33 38/37/33 92/24/33 21/23/33
f 45/40/34 94/41/34 9/42/34 46/43/34
f 48/43/35 47/40/35 33/41/35 80/42/35
f 45/43/36 48/40/36 80/41/36 94/42/36
f 42/44/25 41/45/25 61/46/25 103/47/25
f 40/45/11 39/44/11 43/47/11 44/46/11
f 41/44/5 40/45/5 44/46/5 61/47/5
f 39/44/26 42/45/26 103/46/26 43/47/26
f 47/43/37 46/40/37 9/41/37 33/42/37
f 41/44/37 42/45/37 46/40/37 47/43/37
f 39/44/36 40/45/36 48/40/36 45/43/36
f 40/44/35 41/45/35 47/40/35 48/43/35
f 39/45/34 45/40/34 46/43/34 42/44/34
f 59/48/37 53/49/37 56/50/37 60/51/37
f 57/52/26 49/53/26 53/49/26 59/48/26
f 58/53/5 51/52/5 55/51/5 60/50/5
f 52/53/5 58/52/5 60/51/5 56/50/5
f 49/54/23 52/55/23 56/48/23 53/51/23
f 50/52/26 57/53/26 59/49/26 54/48/26
f 54/48/37 59/49/37 60/50/37 55/51/37
f 10/14/25 78/8/25 12/2/25 11/1/25
f 79/13/25 30/17/25 62/18/25 84/9/25
f 79/13/25 84/9/25 78/8/25 10/14/25
f 29/13/5 28/17/5 85/18/5 72/9/5
f 81/14/5 6/8/5 83/2/5 82/1/5
f 87/14/26 24/8/26 26/2/26 25/1/26
f 96/13/26 77/17/26 5/18/26 73/9/26
f 96/13/26 73/9/26 24/8/26 87/14/26
f 92/24/23 38/56/23 36/57/23 90/58/23
f 93/25/23 91/59/23 89/60/23 23/61/23
f 93/25/23 92/24/23 90/58/23 91/59/23
f 9/62/38 73/6/38 69/63/38 78/5/38
f 10/12/39 63/64/39 96/11/39 86/65/39
f 33/62/40 84/6/40 66/63/40 6/5/40
f 81/12/41 71/64/41 79/11/41 88/65/41
f 74/12/42 68/64/42 29/11/42 32/65/42
f 80/62/43 72/6/43 70/63/43 76/5/43
f 87/12/44 67/64/44 75/11/44 27/65/44
f 94/62/45 95/6/45 64/63/45 24/5/45
f 17/34/5 98/66/5 13/67/5 97/68/5
f 100/69/11 101/33/11 17/31/11 16/32/11
f 104/70/5 61/28/5 98/66/5 101/71/5
f 100/33/23 102/72/23 104/48/23 101/69/23
f 100/73/26 99/34/26 103/68/26 102/47/26
f 55/74/5 51/75/5 106/76/5 112/77/5
f 50/78/26 54/74/26 107/77/26 105/79/26
f 54/78/25 55/75/25 112/76/25 107/79/25
f 111/53/26 109/50/26 107/80/26 114/81/26
f 108/49/5 110/53/5 113/81/5 112/82/5
f 110/49/23 111/50/23 114/80/23 113/82/23
f 140/50/23 136/83/23 135/44/23 139/49/23
f 141/84/26 142/85/26 140/44/26 139/83/26
f 128/84/5 132/83/5 127/44/5 129/85/5
f 127/50/23 132/49/23 119/44/23 120/83/23
f 129/50/11 127/53/11 120/86/11 122/83/11
f 132/53/25 128/49/25 121/44/25 119/86/25
f 125/49/23 126/50/23 130/87/23 132/88/23
f 123/49/5 125/53/5 132/89/5 128/88/5
f 126/53/26 124/50/26 131/87/26 130/89/26
f 117/49/23 118/50/23 139/87/23 134/88/23
f 115/49/5 117/53/5 134/89/5 133/88/5
f 118/53/26 116/50/26 141/87/26 139/89/26
f 142/50/11 138/83/11 136/86/11 140/53/11
f 139/53/25 135/86/25 137/44/25 141/49/25
usemtl multiblock_base
f 13/90/5 44/69/5 3/91/5 4/92/5
f 44/93/11 43/30/11 2/94/11 3/95/11
f 15/93/25 13/30/25 4/94/25 1/95/25
f 15/90/26 1/92/26 2/91/26 43/69/26
f 3/90/46 2/96/46 1/97/46 4/69/46
