# Model created by Damien A.W. Hazard
mtllib refinery.mtl

o refinery
v -1.500000 2.000000 0.250000
v -1.500000 0.500000 0.250000
v 0.000000 0.500000 0.250000
v 0.000000 2.000000 0.250000
v 0.000000 2.000000 -1.250000
v 0.000000 0.500000 -1.250000
v -1.500000 0.500000 -1.250000
v -1.500000 2.000000 -1.250000
v 1.000000 2.000000 0.250000
v 1.000000 0.500000 0.250000
v 2.500000 0.500000 0.250000
v 2.500000 2.000000 0.250000
v 2.500000 2.000000 -1.250000
v 2.500000 0.500000 -1.250000
v 1.000000 0.500000 -1.250000
v 1.000000 2.000000 -1.250000
v 1.312500 1.687500 0.312500
v 1.312500 0.812500 0.312500
v 2.187500 0.812500 0.312500
v 2.187500 1.687500 0.312500
v -1.187500 1.687500 0.312500
v -1.187500 0.812500 0.312500
v -0.312500 0.812500 0.312500
v -0.312500 1.687500 0.312500
v -1.187500 1.687500 0.250000
v -0.312500 1.687500 0.250000
v -1.187500 0.812500 0.250000
v -0.312500 0.812500 0.250000
v 1.312500 0.812500 0.250000
v 1.312500 1.687500 0.250000
v 2.187500 1.687500 0.250000
v 2.187500 0.812500 0.250000
v -0.562500 0.625000 0.312500
v -0.937500 0.625000 0.312500
v -0.937500 0.625000 0.250000
v 1.937500 0.625000 0.250000
v 1.937500 0.625000 0.312500
v 1.562500 0.625000 0.312500
v -0.562500 0.812500 0.312500
v -0.937500 0.812500 0.312500
v 1.937500 0.812500 0.312500
v 1.562500 0.812500 0.312500
v 1.562500 0.812500 0.250000
v 1.562500 0.625000 0.250000
v 1.937500 0.812500 0.250000
v -0.937500 0.812500 0.250000
v -0.562500 0.625000 0.250000
v -0.562500 0.812500 0.250000
v 2.500000 1.875000 -0.375000
v 2.500000 1.625000 -0.375000
v 2.562500 1.625000 -0.375000
v 2.562500 1.875000 -0.625000
v 2.562500 1.625000 -0.625000
v 2.500000 1.625000 -0.625000
v 2.500000 1.875000 -0.625000
v -2.000000 0.000000 0.000000
v -2.000000 -0.500000 -0.000000
v -1.000000 -0.500000 -0.000000
v -1.000000 0.000000 0.000000
v -1.000000 0.000000 -1.000000
v -1.000000 -0.500000 -1.000000
v -2.000000 -0.500000 -1.000000
v -2.000000 0.000000 -1.000000
v 2.250000 0.375000 0.250000
v 2.250000 -0.500000 0.250000
v 2.500000 -0.500000 0.250000
v 2.500000 0.375000 0.250000
v 2.500000 0.375000 0.000000
v 2.500000 -0.500000 -0.000000
v 2.250000 -0.500000 -0.000000
v 2.250000 0.375000 0.000000
v -2.000000 -0.500000 1.000000
v -2.000000 -1.000000 1.000000
v 3.000000 -1.000000 1.000000
v 3.000000 -0.500000 1.000000
v 3.000000 -0.500000 -2.000000
v 3.000000 -1.000000 -2.000000
v -2.000000 -1.000000 -2.000000
v -2.000000 -0.500000 -2.000000
v -1.562500 0.500000 0.312500
v -1.562500 0.375000 0.312500
v 0.062500 0.375000 0.312500
v 0.062500 0.500000 0.312500
v 0.062500 0.500000 -1.312500
v 0.062500 0.375000 -1.312500
v -1.562500 0.375000 -1.312500
v -1.562500 0.500000 -1.312500
v 0.937500 0.500000 0.312500
v 0.937500 0.375000 0.312500
v 2.562500 0.375000 0.312500
v 2.562500 0.500000 0.312500
v 2.562500 0.500000 -1.312500
v 2.562500 0.375000 -1.312500
v 0.937500 0.375000 -1.312500
v 0.937500 0.500000 -1.312500
v -0.250000 0.375000 -1.000000
v -0.250000 -0.500000 -1.000000
v 0.000000 -0.500000 -1.000000
v 0.000000 0.375000 -1.000000
v 0.000000 0.375000 -1.250000
v 0.000000 -0.500000 -1.250000
v -0.250000 -0.500000 -1.250000
v -0.250000 0.375000 -1.250000
v 1.000000 0.375000 -1.000000
v 1.250000 -0.500000 -1.000000
v 1.250000 0.375000 -1.000000
v 1.250000 0.375000 -1.250000
v 1.250000 -0.500000 -1.250000
v 1.000000 -0.500000 -1.250000
v 1.000000 0.375000 -1.250000
v -0.250000 0.375000 0.250000
v -0.250000 -0.500000 0.250000
v 0.000000 -0.500000 0.250000
v 0.000000 0.375000 0.250000
v 0.000000 0.375000 0.000000
v 0.000000 -0.500000 -0.000000
v -0.250000 -0.500000 -0.000000
v -0.250000 0.375000 0.000000
v 1.000000 0.375000 0.250000
v 1.000000 -0.500000 0.250000
v 1.250000 -0.500000 0.250000
v 1.250000 0.375000 0.250000
v 1.250000 0.375000 0.000000
v 1.250000 -0.500000 -0.000000
v 1.000000 0.375000 0.000000
v -1.500000 0.375000 0.250000
v -1.500000 -0.500000 0.250000
v -1.250000 -0.500000 0.250000
v -1.250000 0.375000 0.250000
v -1.250000 0.375000 0.000000
v -1.250000 -0.500000 -0.000000
v -1.500000 -0.500000 -0.000000
v -1.500000 0.375000 0.000000
v -1.500000 0.375000 -1.000000
v -1.500000 -0.500000 -1.000000
v -1.250000 -0.500000 -1.000000
v -1.250000 0.375000 -1.000000
v -1.250000 0.375000 -1.250000
v -1.250000 -0.500000 -1.250000
v -1.500000 -0.500000 -1.250000
v -1.500000 0.375000 -1.250000
v 2.000000 0.000000 0.000000
v 2.000000 -0.500000 -0.000000
v 3.000000 -0.500000 -0.000000
v 3.000000 0.000000 0.000000
v 3.000000 0.000000 -1.000000
v 3.000000 -0.500000 -1.000000
v 2.000000 -0.500000 -1.000000
v 2.000000 0.000000 -1.000000
v 0.375000 -0.375000 -0.375000
v 0.375000 -0.375000 -0.000000
v 0.625000 -0.375000 -0.000000
v 0.625000 -0.375000 -0.375000
v 0.625000 -0.500000 -0.000000
v 0.625000 -0.500000 -0.375000
v 0.375000 -0.500000 -0.375000
v 0.375000 -0.500000 -0.000000
v 2.562500 1.875000 -0.375000
v 2.562500 0.000000 -0.375000
v 2.812500 0.000000 -0.375000
v 2.812500 1.875000 -0.375000
v 2.812500 1.875000 -0.625000
v 2.812500 0.000000 -0.625000
v 2.562500 0.000000 -0.625000
v 0.062500 1.000000 0.937500
v 0.062500 -0.000000 0.937500
v 0.937500 -0.000000 0.937500
v 0.937500 1.000000 0.937500
v 0.937500 1.000000 0.062500
v 0.937500 -0.000000 0.062500
v 0.062500 -0.000000 0.062500
v 0.062500 1.000000 0.062500
v -1.562500 1.625000 -0.375000
v -1.500000 1.625000 -0.375000
v -1.500000 1.875000 -0.375000
v -1.500000 1.875000 -0.625000
v -1.500000 1.625000 -0.625000
v -1.562500 1.625000 -0.625000
v -1.562500 1.875000 -0.625000
v -0.875000 0.375000 -0.375000
v -0.875000 -0.500000 -0.375000
v -0.625000 0.375000 -0.375000
v -0.625000 0.375000 -0.625000
v -0.875000 -0.500000 -0.625000
v -0.875000 0.375000 -0.625000
v 0.000000 -0.000000 1.000000
v 0.000000 -0.500000 1.000000
v 1.000000 -0.500000 1.000000
v 1.000000 -0.000000 1.000000
v 1.000000 0.000000 0.000000
v 1.000000 -0.500000 -0.000000
v 0.000000 0.000000 0.000000
v 1.625000 0.375000 -0.375000
v 1.625000 -0.500000 -0.375000
v 1.875000 -0.500000 -0.375000
v 1.875000 0.375000 -0.375000
v 1.875000 0.375000 -0.625000
v 1.875000 -0.500000 -0.625000
v 1.625000 0.375000 -0.625000
v -0.625000 -0.375000 -0.375000
v -0.625000 -0.500000 -0.375000
v 1.625000 -0.375000 -0.375000
v 1.625000 -0.375000 -0.625000
v 1.625000 -0.500000 -0.625000
v -0.625000 -0.500000 -0.625000
v -0.625000 -0.375000 -0.625000
v 0.000000 1.000000 -1.000000
v 1.000000 -0.500000 -1.000000
v 1.000000 1.000000 -1.000000
v 1.000000 1.000000 -2.000000
v 1.000000 -0.500000 -2.000000
v 0.000000 -0.500000 -2.000000
v 0.000000 1.000000 -2.000000
v 2.125000 -0.000000 0.875000
v 2.125000 -0.500000 0.875000
v 2.250000 -0.500000 0.875000
v 2.250000 -0.000000 0.875000
v 2.250000 -0.000000 0.625000
v 2.250000 -0.500000 0.625000
v 2.125000 -0.500000 0.625000
v 2.125000 -0.000000 0.625000
v 2.000000 1.000000 1.000000
v 2.000000 -0.000000 1.000000
v 3.000000 -0.000000 1.000000
v 3.000000 1.000000 1.000000
v 3.000000 1.000000 0.500000
v 3.000000 -0.000000 0.500000
v 2.000000 -0.000000 0.500000
v 2.000000 1.000000 0.500000
v 2.750000 -0.000000 0.875000
v 2.750000 -0.500000 0.875000
v 2.875000 -0.500000 0.875000
v 2.875000 -0.000000 0.875000
v 2.875000 -0.000000 0.625000
v 2.875000 -0.500000 0.625000
v 2.750000 -0.500000 0.625000
v 2.750000 -0.000000 0.625000
v -1.812500 1.875000 -0.375000
v -1.812500 0.000000 -0.375000
v -1.562500 0.000000 -0.375000
v -1.562500 1.875000 -0.375000
v -1.562500 0.000000 -0.625000
v -1.812500 0.000000 -0.625000
v -1.812500 1.875000 -0.625000
v 1.250000 0.250000 -1.062500
v 1.250000 0.125000 -1.062500
v 2.250000 0.125000 -1.062500
v 2.250000 0.250000 -1.062500
v 2.250000 0.250000 -1.187500
v 2.250000 0.125000 -1.187500
v 1.250000 0.125000 -1.187500
v 1.250000 0.250000 -1.187500
v 2.250000 0.375000 -1.000000
v 2.250000 -0.500000 -1.000000
v 2.500000 -0.500000 -1.000000
v 2.500000 0.375000 -1.000000
v 2.500000 0.375000 -1.250000
v 2.500000 -0.500000 -1.250000
v 2.250000 -0.500000 -1.250000
v 2.250000 0.375000 -1.250000
v 1.250000 0.250000 0.187500
v 1.250000 0.125000 0.187500
v 2.250000 0.125000 0.187500
v 2.250000 0.250000 0.187500
v 2.250000 0.250000 0.062500
v 2.250000 0.125000 0.062500
v 1.250000 0.125000 0.062500
v 1.250000 0.250000 0.062500
v -1.250000 0.250000 -1.062500
v -1.250000 0.125000 -1.062500
v -0.250000 0.125000 -1.062500
v -0.250000 0.250000 -1.062500
v -0.250000 0.250000 -1.187500
v -0.250000 0.125000 -1.187500
v -1.250000 0.125000 -1.187500
v -1.250000 0.250000 -1.187500
v -1.250000 0.250000 0.187500
v -1.250000 0.125000 0.187500
v -0.250000 0.125000 0.187500
v -0.250000 0.250000 0.187500
v -0.250000 0.250000 0.062500
v -0.250000 0.125000 0.062500
v -1.250000 0.125000 0.062500
v -1.250000 0.250000 0.062500
v 1.062500 0.250000 -1.000000
v 1.062500 0.250000 0.000000
v 1.187500 0.250000 0.000000
v 1.187500 0.250000 -1.000000
v 1.062500 0.125000 0.000000
v 1.062500 0.125000 -1.000000
v 1.187500 0.125000 -1.000000
v 1.187500 0.125000 0.000000
v -1.437500 0.250000 -1.000000
v -1.437500 0.250000 0.000000
v -1.312500 0.250000 0.000000
v -1.312500 0.250000 -1.000000
v -1.437500 0.125000 0.000000
v -1.437500 0.125000 -1.000000
v -1.312500 0.125000 -1.000000
v -1.312500 0.125000 0.000000
v -0.187500 0.250000 -1.000000
v -0.187500 0.250000 0.000000
v -0.062500 0.250000 0.000000
v -0.062500 0.250000 -1.000000
v -0.187500 0.125000 0.000000
v -0.187500 0.125000 -1.000000
v -0.062500 0.125000 -1.000000
v -0.062500 0.125000 0.000000
v 2.312500 0.250000 -1.000000
v 2.312500 0.250000 0.000000
v 2.437500 0.250000 0.000000
v 2.437500 0.250000 -1.000000
v 2.312500 0.125000 0.000000
v 2.312500 0.125000 -1.000000
v 2.437500 0.125000 -1.000000
v 2.437500 0.125000 0.000000
vt 0.000000 0.500000
vt 0.000000 0.000000
vt 0.500000 0.000000
vt 0.500000 0.500000
vt 1.000000 0.000000
vt 1.000000 0.500000
vt 0.000000 1.000000
vt 0.000000 0.479167
vt 0.500000 0.479167
vt 0.500000 1.000000
vt 1.000000 1.000000
vt 0.104167 0.395833
vt 0.104167 0.104167
vt 0.395833 0.104167
vt 0.395833 0.395833
vt 0.104167 0.375000
vt 0.395833 0.375000
vt 0.125000 0.104167
vt 0.125000 0.395833
vt 0.395833 0.125000
vt 0.104167 0.125000
vt 0.375000 0.395833
vt 0.375000 0.104167
vt 0.312500 0.041667
vt 0.312500 0.062500
vt 0.187500 0.062500
vt 0.187500 0.041667
vt 0.312500 0.104167
vt 0.187500 0.104167
vt 0.208333 0.104167
vt 0.208333 0.041667
vt 0.291667 0.041667
vt 0.291667 0.104167
vt 0.875000 0.250000
vt 0.875000 0.187500
vt 1.000000 0.187500
vt 1.000000 0.250000
vt 0.875000 0.125000
vt 1.000000 0.125000
vt 0.000000 0.187500
vt 0.000000 0.125000
vt 0.625000 0.125000
vt 0.625000 0.187500
vt 0.000000 0.250000
vt 0.625000 0.250000
vt 0.000000 0.625000
vt 0.625000 0.625000
vt 0.625000 1.000000
vt 0.375000 0.062500
vt 0.000000 0.062500
vt 0.375000 0.000000
vt 0.937500 0.125000
vt 0.937500 0.250000
vt 0.664062 0.609375
vt 0.664062 0.578125
vt 0.671875 0.578125
vt 0.671875 0.609375
vt 0.375000 0.875000
vt 0.375000 0.812500
vt 0.500000 0.812500
vt 0.500000 0.875000
vt 0.500000 0.734375
vt 0.500000 0.625000
vt 0.531250 0.625000
vt 0.531250 0.734375
vt 0.500000 0.750000
vt 0.703125 0.734375
vt 0.703125 0.750000
vt 0.523438 0.976562
vt 0.523438 0.773438
vt 0.726562 0.773438
vt 0.726562 0.976562
vt 0.703125 0.546875
vt 0.703125 0.609375
vt 0.671875 0.546875
vt 0.703125 0.562500
vt 0.687500 0.609375
vt 0.687500 0.562500
vt 0.671875 0.343750
vt 0.640625 0.343750
vt 0.640625 0.578125
vt 0.640625 0.609375
vt 0.703125 0.578125
vt 0.703125 0.343750
vt 0.531250 0.531250
vt 0.531250 0.406250
vt 0.640625 0.406250
vt 0.640625 0.531250
vt 0.640625 0.718750
vt 0.750000 0.609375
vt 0.750000 0.718750
vt 0.671875 0.484375
vt 0.671875 0.375000
vt 0.703125 0.375000
vt 0.703125 0.484375
vt 0.375000 0.750000
vt 0.375000 0.687500
vt 0.500000 0.687500
vt 0.687500 0.328125
vt 0.703125 0.328125
vt 0.671875 0.328125
vt 0.250000 0.375000
vt 0.250000 0.187500
vt 0.375000 0.187500
vt 0.375000 0.375000
vt 0.125000 0.375000
vt 0.125000 0.187500
vt 0.125000 0.500000
vt 0.000000 0.375000
vt 0.718750 0.500000
vt 0.718750 0.562500
vt 0.703125 0.500000
vt 0.750000 0.500000
vt 0.750000 0.562500
vt 0.875000 0.500000
vt 0.750000 0.625000
vt 0.875000 0.625000
vt 0.531250 0.718750
vt 0.656250 0.718750
vt 0.656250 0.734375
vn 0.0000 -0.0000 1.0000
vn 0.0000 0.0000 -1.0000
vn 0.0000 1.0000 0.0000
vn 1.0000 0.0000 0.0000
vn -1.0000 0.0000 0.0000
vn 0.0000 -1.0000 0.0000
usemtl refinery
f 1/1/1 2/2/1 3/3/1 4/4/1
f 5/4/2 6/3/2 7/5/2 8/6/2
f 8/7/3 1/8/3 4/9/3 5/10/3
f 5/6/4 4/4/4 3/3/4 6/5/4
f 2/6/5 1/11/5 8/10/5 7/4/5
f 9/1/1 10/2/1 11/3/1 12/4/1
f 13/4/2 14/3/2 15/5/2 16/6/2
f 16/7/3 9/8/3 12/9/3 13/10/3
f 13/11/4 12/10/4 11/4/4 14/6/4
f 16/4/5 15/3/5 10/5/5 9/6/5
f 17/12/1 18/13/1 19/14/1 20/15/1
f 21/12/1 22/13/1 23/14/1 24/15/1
f 25/12/3 21/16/3 24/17/3 26/15/3
f 27/13/5 22/18/5 21/19/5 25/12/5
f 28/14/6 23/20/6 22/21/6 27/13/6
f 26/15/4 24/22/4 23/23/4 28/14/4
f 29/13/5 18/18/5 17/19/5 30/12/5
f 31/15/4 20/22/4 19/23/4 32/14/4
f 30/12/3 17/16/3 20/17/3 31/15/3
f 32/14/6 19/20/6 18/21/6 29/13/6
f 47/24/6 33/25/6 34/26/6 35/27/6
f 36/24/6 37/25/6 38/26/6 44/27/6
f 33/24/1 39/28/1 40/29/1 34/27/1
f 37/24/1 41/28/1 42/29/1 38/27/1
f 42/30/5 43/29/5 44/27/5 38/31/5
f 37/32/4 36/24/4 45/28/4 41/33/4
f 40/30/5 46/29/5 35/27/5 34/31/5
f 33/32/4 47/24/4 48/28/4 39/33/4
usemtl multiblock_base
f 56/34/1 57/35/1 58/36/1 59/37/1
f 60/34/2 61/35/2 62/36/2 63/37/2
f 63/34/3 56/38/3 59/39/3 60/37/3
f 60/37/4 59/34/4 58/35/4 61/36/4
f 72/40/1 73/41/1 74/42/1 75/43/1
f 76/44/2 77/40/2 78/43/2 79/45/2
f 79/7/3 72/46/3 75/47/3 76/48/3
f 73/45/6 78/47/6 77/46/6 74/44/6
f 76/49/4 75/50/4 74/2/4 77/51/4
f 79/50/5 78/2/5 73/51/5 72/49/5
f 142/34/1 143/35/1 144/36/1 145/37/1
f 146/34/2 147/35/2 148/36/2 149/37/2
f 149/34/3 142/38/3 145/39/3 146/37/3
f 149/34/5 148/35/5 143/36/5 142/37/5
f 190/38/2 191/52/2 116/53/2 192/34/2
f 192/34/3 186/38/3 189/39/3 190/37/3
f 190/34/4 189/38/4 188/52/4 191/53/4
f 192/38/5 116/52/5 187/53/5 186/34/5
f 226/34/2 227/38/2 228/39/2 229/37/2
f 229/34/3 222/35/3 225/36/3 226/37/3
f 223/36/6 228/37/6 227/34/6 224/35/6
f 226/37/4 225/53/4 224/52/4 227/39/4
f 229/34/5 228/38/5 223/52/5 222/53/5
usemtl multiblock_components
f 49/54/1 50/55/1 51/56/1 158/57/1
f 52/57/2 53/56/2 54/55/2 55/54/2
f 55/55/3 49/54/3 158/57/3 52/56/3
f 50/55/6 54/54/6 53/57/6 51/56/6
f 63/58/5 62/59/5 57/60/5 56/61/5
f 64/62/1 65/63/1 66/64/1 67/65/1
f 68/62/2 69/63/2 70/64/2 71/65/2
f 68/65/4 67/62/4 66/63/4 69/64/4
f 71/62/5 70/63/5 65/64/5 64/65/5
f 80/66/1 81/62/1 82/67/1 83/68/1
f 84/66/2 85/62/2 86/67/2 87/68/2
f 87/69/3 80/70/3 83/71/3 84/72/3
f 81/71/6 86/72/6 85/69/6 82/70/6
f 84/68/4 83/66/4 82/62/4 85/67/4
f 87/66/5 86/62/5 81/67/5 80/68/5
f 88/66/1 89/62/1 90/67/1 91/68/1
f 92/66/2 93/62/2 94/67/2 95/68/2
f 95/69/3 88/70/3 91/71/3 92/72/3
f 89/71/6 94/72/6 93/69/6 90/70/6
f 92/68/4 91/66/4 90/62/4 93/67/4
f 95/66/5 94/62/5 89/67/5 88/68/5
f 96/62/1 97/63/1 98/64/1 99/65/1
f 100/62/2 101/63/2 102/64/2 103/65/2
f 100/65/4 99/62/4 98/63/4 101/64/4
f 103/62/5 102/63/5 97/64/5 96/65/5
f 104/62/1 208/63/1 105/64/1 106/65/1
f 107/62/2 108/63/2 109/64/2 110/65/2
f 107/65/4 106/62/4 105/63/4 108/64/4
f 110/62/5 109/63/5 208/64/5 104/65/5
f 111/62/1 112/63/1 113/64/1 114/65/1
f 115/62/2 116/63/2 117/64/2 118/65/2
f 115/65/4 114/62/4 113/63/4 116/64/4
f 118/62/5 117/63/5 112/64/5 111/65/5
f 119/62/1 120/63/1 121/64/1 122/65/1
f 123/62/2 124/63/2 191/64/2 125/65/2
f 123/65/4 122/62/4 121/63/4 124/64/4
f 125/62/5 191/63/5 120/64/5 119/65/5
f 126/62/1 127/63/1 128/64/1 129/65/1
f 130/62/2 131/63/2 132/64/2 133/65/2
f 130/65/4 129/62/4 128/63/4 131/64/4
f 133/62/5 132/63/5 127/64/5 126/65/5
f 134/62/1 135/63/1 136/64/1 137/65/1
f 138/62/2 139/63/2 140/64/2 141/65/2
f 138/65/4 137/62/4 136/63/4 139/64/4
f 141/62/5 140/63/5 135/64/5 134/65/5
f 146/61/4 145/58/4 144/59/4 147/60/4
f 150/73/3 151/74/3 152/57/3 153/75/3
f 153/76/4 152/74/4 154/77/4 155/78/4
f 150/74/5 156/77/5 157/78/5 151/76/5
f 158/56/1 159/79/1 160/80/1 161/81/1
f 162/81/2 163/80/2 164/79/2 52/56/2
f 52/56/3 158/57/3 161/82/3 162/81/3
f 162/83/4 161/56/4 160/79/4 163/84/4
f 52/56/5 164/79/5 159/84/5 158/83/5
f 165/85/1 166/86/1 167/87/1 168/88/1
f 169/85/2 170/86/2 171/87/2 172/88/2
f 172/89/3 165/82/3 168/90/3 169/91/3
f 169/88/4 168/85/4 167/86/4 170/87/4
f 172/85/5 171/86/5 166/87/5 165/88/5
f 241/54/1 173/55/1 174/56/1 175/57/1
f 176/54/2 177/55/2 178/56/2 179/57/2
f 179/54/3 241/55/3 175/56/3 176/57/3
f 173/54/6 178/55/6 177/56/6 174/57/6
f 180/92/1 181/93/1 201/94/1 182/95/1
f 183/92/2 205/93/2 184/94/2 185/95/2
f 183/95/4 182/92/4 201/93/4 205/94/4
f 185/92/5 184/93/5 181/94/5 180/95/5
f 186/96/1 187/97/1 188/98/1 189/66/1
f 193/92/1 194/93/1 195/94/1 196/95/1
f 197/92/2 198/93/2 204/94/2 199/95/2
f 197/95/4 196/92/4 195/93/4 198/94/4
f 199/92/5 204/93/5 194/94/5 193/95/5
f 200/74/1 201/77/1 194/99/1 202/100/1
f 203/74/2 204/77/2 205/99/2 206/100/2
f 206/74/3 200/57/3 202/101/3 203/100/3
f 207/102/1 98/103/1 208/104/1 209/105/1
f 210/106/2 211/107/2 212/103/2 213/102/2
f 213/108/3 207/106/3 209/109/3 210/1/3
f 210/105/4 209/102/4 208/103/4 211/104/4
f 213/102/5 212/103/5 98/104/5 207/105/5
f 214/110/1 215/111/1 216/76/1 217/112/1
f 218/110/2 219/111/2 220/76/2 221/112/2
f 218/110/4 217/113/4 216/114/4 219/111/4
f 221/113/5 220/114/5 215/111/5 214/110/5
f 222/115/1 223/113/1 224/116/1 225/117/1
f 230/110/1 231/111/1 232/76/1 233/112/1
f 234/110/2 235/111/2 236/76/2 237/112/2
f 234/110/4 233/113/4 232/114/4 235/111/4
f 237/113/5 236/114/5 231/111/5 230/110/5
f 238/81/1 239/80/1 240/79/1 241/56/1
f 179/56/2 242/79/2 243/80/2 244/81/2
f 244/82/3 238/81/3 241/56/3 179/57/3
f 179/83/4 241/56/4 240/79/4 242/84/4
f 244/56/5 243/79/5 239/84/5 238/83/5
f 245/65/1 246/118/1 247/119/1 248/120/1
f 249/65/2 250/118/2 251/119/2 252/120/2
f 252/65/3 245/118/3 248/119/3 249/120/3
f 246/119/6 251/120/6 250/65/6 247/118/6
f 253/62/1 254/63/1 255/64/1 256/65/1
f 257/62/2 258/63/2 259/64/2 260/65/2
f 257/65/4 256/62/4 255/63/4 258/64/4
f 260/62/5 259/63/5 254/64/5 253/65/5
f 261/65/1 262/118/1 263/119/1 264/120/1
f 265/65/2 266/118/2 267/119/2 268/120/2
f 268/119/3 261/120/3 264/65/3 265/118/3
f 262/119/6 267/120/6 266/65/6 263/118/6
f 269/65/1 270/118/1 271/119/1 272/120/1
f 273/65/2 274/118/2 275/119/2 276/120/2
f 276/65/3 269/118/3 272/119/3 273/120/3
f 270/119/6 275/120/6 274/65/6 271/118/6
f 277/65/1 278/118/1 279/119/1 280/120/1
f 281/65/2 282/118/2 283/119/2 284/120/2
f 284/119/3 277/120/3 280/65/3 281/118/3
f 278/119/6 283/120/6 282/65/6 279/118/6
f 285/120/3 286/65/3 287/118/3 288/119/3
f 289/118/6 290/119/6 291/120/6 292/65/6
f 288/120/4 287/65/4 292/118/4 291/119/4
f 285/65/5 290/118/5 289/119/5 286/120/5
f 293/120/3 294/65/3 295/118/3 296/119/3
f 297/118/6 298/119/6 299/120/6 300/65/6
f 296/120/4 295/65/4 300/118/4 299/119/4
f 293/65/5 298/118/5 297/119/5 294/120/5
f 301/118/3 302/119/3 303/120/3 304/65/3
f 305/118/6 306/119/6 307/120/6 308/65/6
f 304/120/4 303/65/4 308/118/4 307/119/4
f 301/65/5 306/118/5 305/119/5 302/120/5
f 309/118/3 310/119/3 311/120/3 312/65/3
f 313/118/6 314/119/6 315/120/6 316/65/6
f 312/120/4 311/65/4 316/118/4 315/119/4
f 309/65/5 314/118/5 313/119/5 310/120/5
