# Blender v2.79 (sub 0) OBJ File: 'IESawmill.blend'
# www.blender.org

mtllib sawmill.mtl
usemtl blade

o blade
v -0.667512 0.325938 0.468750
v -0.667512 0.325938 0.531250
v -0.715034 0.345620 0.531250
v -0.715034 0.345622 0.468750
v 0.749998 -0.031750 0.468750
v 0.749998 -0.031750 0.531250
v 0.749998 -0.221836 0.531250
v 0.750000 -0.221838 0.468750
v 0.702476 -0.051434 0.468750
v 0.702476 -0.051434 0.531250
v 0.749996 0.261214 0.468750
v 0.749996 0.261214 0.531250
v 0.749996 0.071126 0.531250
v 0.749998 0.071126 0.468750
v -0.290978 0.702474 0.468750
v -0.290980 0.702474 0.531250
v -0.241530 0.702474 0.531250
v -0.241528 0.702474 0.468750
v -0.702476 0.290970 0.468750
v -0.702476 0.290970 0.531250
v 0.702476 -0.241524 0.531250
v 0.702476 -0.241524 0.468750
v 0.533094 0.460358 0.468750
v 0.533094 0.460358 0.531250
v 0.552780 0.507878 0.531250
v 0.552780 0.507878 0.468750
v -0.507878 0.552780 0.468750
v -0.507878 0.552780 0.531250
v -0.373466 0.687192 0.531250
v -0.373466 0.687192 0.468750
v 0.702474 0.241530 0.468750
v 0.702474 0.241530 0.531250
v 0.702476 -0.290970 0.531250
v 0.702476 -0.290970 0.468750
v 0.667510 0.325942 0.468750
v 0.667510 0.325942 0.531250
v 0.702474 0.290980 0.531250
v 0.702474 0.290980 0.468750
v 0.702476 0.051442 0.468750
v 0.702476 0.051442 0.531250
v 0.687192 0.373466 0.468750
v 0.687192 0.373466 0.531250
v 0.480034 0.580622 0.468750
v 0.480034 0.580622 0.531250
v 0.460350 0.533100 0.531250
v 0.460350 0.533100 0.468750
v -0.580622 0.480034 0.531250
v -0.580620 0.480034 0.468750
v 0.345620 0.715034 0.468750
v 0.345620 0.715034 0.531250
v 0.290970 0.702476 0.468750
v 0.290970 0.702476 0.531250
v 0.325936 0.667512 0.531250
v 0.325936 0.667512 0.468750
v -0.071126 0.749998 0.468750
v -0.071126 0.749998 0.531250
v -0.051440 0.702476 0.531250
v -0.051440 0.702476 0.468750
v -0.533100 0.460350 0.468750
v -0.533100 0.460350 0.531250
v -0.460358 0.533094 0.531250
v -0.460356 0.533094 0.468750
v 0.667512 -0.325936 0.468750
v 0.667512 -0.325936 0.531250
v 0.715034 -0.345620 0.531250
v 0.715034 -0.345620 0.468750
v -0.325942 0.667510 0.531250
v -0.325942 0.667510 0.468750
v 0.290980 -0.702474 0.468750
v 0.290978 -0.702474 0.531250
v 0.241530 -0.702474 0.531250
v 0.241530 -0.702474 0.468750
v 0.507878 -0.552780 0.468750
v 0.507878 -0.552780 0.531250
v 0.373466 -0.687192 0.531250
v 0.373466 -0.687192 0.468750
v 0.580622 -0.480034 0.531250
v 0.580622 -0.480034 0.468750
v 0.071126 -0.749996 0.468750
v 0.071126 -0.749996 0.531250
v 0.051440 -0.702476 0.531250
v 0.051442 -0.702476 0.468750
v 0.051434 0.702476 0.531250
v 0.051434 0.702478 0.468750
v 0.533100 -0.460350 0.468750
v 0.533100 -0.460350 0.531250
v 0.460356 -0.533094 0.531250
v 0.460358 -0.533094 0.468750
v 0.325942 -0.667510 0.531250
v 0.325942 -0.667510 0.468750
v -0.051434 -0.702476 0.531250
v -0.051434 -0.702476 0.468750
v -0.241524 -0.702476 0.468750
v -0.241524 -0.702476 0.531250
v -0.290970 -0.702476 0.531250
v -0.290970 -0.702476 0.468750
v 0.261214 -0.749996 0.531250
v 0.261214 -0.749996 0.468750
v 0.241526 0.702476 0.468750
v 0.241524 0.702476 0.531250
v -0.221836 -0.749998 0.468750
v -0.221838 -0.749998 0.531250
v -0.261214 0.749996 0.531250
v -0.261214 0.749996 0.468750
v -0.031750 -0.749998 0.531250
v -0.031750 -0.749998 0.468750
v -0.749996 0.031750 0.468750
v -0.749998 0.031750 0.531250
v -0.750000 0.221838 0.531250
v -0.750000 0.221838 0.468750
v -0.702476 0.051434 0.468750
v -0.702478 0.051434 0.531250
v -0.749996 -0.261214 0.468750
v -0.749996 -0.261214 0.531250
v -0.749998 -0.071126 0.531250
v -0.749996 -0.071126 0.468750
v -0.702476 0.241524 0.531250
v -0.702474 0.241526 0.468750
v -0.533094 -0.460356 0.468750
v -0.533094 -0.460356 0.531250
v -0.552780 -0.507878 0.531250
v -0.552780 -0.507878 0.468750
v -0.702474 -0.241530 0.468750
v -0.702474 -0.241530 0.531250
v -0.667510 -0.325942 0.468750
v -0.667510 -0.325942 0.531250
v -0.702474 -0.290978 0.531250
v -0.702474 -0.290978 0.468750
v 0.221838 0.749998 0.468750
v 0.221836 0.749998 0.531250
v -0.702476 -0.051440 0.468750
v -0.702476 -0.051440 0.531250
v -0.687192 -0.373466 0.468750
v -0.687192 -0.373466 0.531250
v -0.480034 -0.580622 0.468750
v -0.480034 -0.580622 0.531250
v -0.460350 -0.533100 0.531250
v -0.460350 -0.533100 0.468750
v 0.031750 0.749998 0.531250
v 0.031750 0.749998 0.468750
v -0.345620 -0.715034 0.468750
v -0.345620 -0.715034 0.531250
v -0.325938 -0.667512 0.531250
v -0.325936 -0.667512 0.468750
vt 0.968564 0.250000
vt 0.968564 0.312500
vt 0.935915 0.312500
vt 0.935915 0.250000
vt 0.184689 0.187500
vt 0.184689 0.250000
vt 0.064035 0.250000
vt 0.064035 0.187500
vt 0.217337 0.125000
vt 0.217337 0.187500
vt 0.184689 0.187500
vt 0.184689 0.125000
vt 0.435938 0.000000
vt 0.435938 0.062500
vt 0.315283 0.062500
vt 0.315283 0.000000
vt 0.499974 0.000000
vt 0.499974 0.062500
vt 0.468587 0.062500
vt 0.468587 0.000000
vt 0.999951 0.250000
vt 0.999951 0.312500
vt 0.064035 0.250000
vt 0.064035 0.312500
vt 0.031384 0.312500
vt 0.031384 0.250000
vt 0.717314 0.000000
vt 0.717314 0.062500
vt 0.684665 0.062500
vt 0.684665 0.000000
vt 0.684665 0.000000
vt 0.684665 0.062500
vt 0.564009 0.062500
vt 0.564009 0.000000
vt 0.468587 0.000000
vt 0.468587 0.062500
vt 0.000000 0.312500
vt 0.000000 0.250000
vt 0.531359 0.000000
vt 0.531360 0.062500
vt 0.499974 0.062500
vt 0.499974 0.000000
vt 0.282635 0.062500
vt 0.282634 0.125000
vt 0.217337 0.125000
vt 0.217337 0.062500
vt 0.564009 0.000000
vt 0.564009 0.062500
vt 0.815260 0.125000
vt 0.815260 0.187500
vt 0.782612 0.187500
vt 0.782611 0.125000
vt 0.782611 0.062500
vt 0.782612 0.125000
vt 0.717314 0.125000
vt 0.717314 0.062500
vt 0.935915 0.187500
vt 0.935915 0.250000
vt 0.815260 0.250000
vt 0.815260 0.187500
vt 0.282634 0.062500
vt 0.282635 0.000000
vt 0.935915 0.187500
vt 0.935915 0.250000
vt 0.815260 0.250000
vt 0.815260 0.187500
vt 0.999951 0.250000
vt 0.999951 0.312500
vt 0.968564 0.312500
vt 0.968564 0.250000
vt 0.315283 0.000000
vt 0.315283 0.062500
vt 0.282634 0.062500
vt 0.282635 0.000000
vt 0.782611 0.062500
vt 0.782612 0.125000
vt 0.717314 0.125000
vt 0.717314 0.062500
vt 0.815260 0.125000
vt 0.815260 0.187500
vt 0.782612 0.187500
vt 0.782611 0.125000
vt 0.935915 0.312500
vt 0.935915 0.250000
vt 0.968564 0.250000
vt 0.968564 0.312500
vt 0.935915 0.312500
vt 0.935915 0.250000
vt 0.531360 0.062500
vt 0.531359 0.000000
vt 0.499974 0.000000
vt 0.499974 0.062500
vt 0.468587 0.062500
vt 0.468587 0.000000
vt 0.999951 0.250000
vt 0.999951 0.312500
vt 0.684665 0.000000
vt 0.684665 0.062500
vt 0.564009 0.062500
vt 0.564009 0.000000
vt 0.935915 0.187500
vt 0.935915 0.250000
vt 0.815260 0.250000
vt 0.815260 0.187500
vt 0.315283 0.000000
vt 0.315283 0.062500
vt 0.282634 0.062500
vt 0.282635 0.000000
vt 0.282635 0.062500
vt 0.282634 0.125000
vt 0.217337 0.125000
vt 0.217337 0.062500
vt 0.782611 0.062500
vt 0.782612 0.125000
vt 0.717314 0.125000
vt 0.717314 0.062500
vt 0.815260 0.125000
vt 0.815260 0.187500
vt 0.782612 0.187500
vt 0.782611 0.125000
vt 0.531360 0.062500
vt 0.531359 0.000000
vt 0.282635 0.062500
vt 0.282634 0.125000
vt 0.217337 0.125000
vt 0.217337 0.062500
vt 0.031384 0.250000
vt 0.031384 0.312500
vt 0.000000 0.312500
vt 0.000000 0.250000
vt 0.435938 0.062500
vt 0.435938 0.000000
vt 0.031384 0.250000
vt 0.031384 0.312500
vt 0.000000 0.312500
vt 0.000000 0.250000
vt 0.717314 0.000000
vt 0.717314 0.062500
vt 0.064035 0.250000
vt 0.064035 0.312500
vt 0.435938 0.062500
vt 0.435938 0.000000
vt 0.717314 0.000000
vt 0.717314 0.062500
vt 0.217337 0.125000
vt 0.217337 0.187500
vt 0.184689 0.187500
vt 0.184689 0.125000
vt 0.184689 0.187500
vt 0.184689 0.250000
vt 0.064035 0.250000
vt 0.064035 0.187500
vt 0.184689 0.187500
vt 0.184689 0.250000
vt 0.064035 0.250000
vt 0.064035 0.187500
vt 0.217337 0.125000
vt 0.217337 0.187500
vt 0.184689 0.187500
vt 0.184689 0.125000
vt 0.435938 0.000000
vt 0.435938 0.062500
vt 0.315283 0.062500
vt 0.315283 0.000000
vt 0.064035 0.250000
vt 0.064035 0.312500
vt 0.031384 0.312500
vt 0.031384 0.250000
vt 0.717314 0.000000
vt 0.717314 0.062500
vt 0.684665 0.062500
vt 0.684665 0.000000
vt 0.468587 0.000000
vt 0.468587 0.062500
vt 0.000000 0.312500
vt 0.000000 0.250000
vt 0.531359 0.000000
vt 0.531360 0.062500
vt 0.499974 0.062500
vt 0.499974 0.000000
vt 0.064035 0.250000
vt 0.064035 0.312500
vt 0.282635 0.062500
vt 0.282634 0.125000
vt 0.217337 0.125000
vt 0.217337 0.062500
vt 0.564009 0.000000
vt 0.564009 0.062500
vt 0.815260 0.125000
vt 0.815260 0.187500
vt 0.782612 0.187500
vt 0.782611 0.125000
vt 0.782611 0.062500
vt 0.782612 0.125000
vt 0.717314 0.125000
vt 0.717314 0.062500
vt 0.217337 0.125000
vt 0.217337 0.187500
vt 0.184689 0.187500
vt 0.184689 0.125000
vt 0.184689 0.187500
vt 0.184689 0.250000
vt 0.064035 0.250000
vt 0.064035 0.187500
vt 0.282634 0.062500
vt 0.282635 0.000000
vt 0.935915 0.187500
vt 0.935915 0.250000
vt 0.815260 0.250000
vt 0.815260 0.187500
vt 0.999951 0.250000
vt 0.999951 0.312500
vt 0.968564 0.312500
vt 0.968564 0.250000
vt 0.179978 0.112918
vt 0.269586 0.023310
vt 0.282709 0.054991
vt 0.193100 0.144600
vt 0.820022 0.887082
vt 0.730414 0.976690
vt 0.717291 0.945009
vt 0.806900 0.855401
vt -0.000000 0.647892
vt 0.000002 0.521167
vt 0.031682 0.534290
vt 0.031683 0.661017
vt 0.352108 0.000000
vt 0.478833 0.000001
vt 0.465711 0.031681
vt 0.338984 0.031682
vt 0.031684 0.338980
vt 0.031683 0.465706
vt 0.000002 0.452583
vt 0.000002 0.325857
vt 0.999998 0.547417
vt 0.999998 0.674143
vt 0.968316 0.661020
vt 0.968317 0.534294
vt 0.112919 0.820023
vt 0.023311 0.730414
vt 0.054992 0.717292
vt 0.144600 0.806901
vt 0.251023 0.958129
vt 0.161414 0.868521
vt 0.193095 0.855397
vt 0.282705 0.945008
vt 0.452583 0.999999
vt 0.325857 0.999999
vt 0.338981 0.968317
vt 0.465706 0.968318
vt 0.958128 0.748978
vt 0.868520 0.838586
vt 0.855396 0.806905
vt 0.945007 0.717295
vt 1.000000 0.352108
vt 0.999998 0.478833
vt 0.968318 0.465711
vt 0.968317 0.338983
vt 0.748977 0.041871
vt 0.838586 0.131480
vt 0.806905 0.144603
vt 0.717295 0.054993
vt 0.041872 0.251022
vt 0.131480 0.161414
vt 0.144604 0.193095
vt 0.054993 0.282705
vt 0.547417 0.000001
vt 0.674143 0.000002
vt 0.661020 0.031683
vt 0.534294 0.031682
vt 0.647892 1.000000
vt 0.521167 1.000000
vt 0.534290 0.968319
vt 0.661017 0.968318
vt 0.887081 0.179977
vt 0.976689 0.269586
vt 0.945008 0.282708
vt 0.855400 0.193100
vt 0.935915 0.312500
vt 0.935915 0.250000
vt 0.968318 0.306020
vt 0.968316 0.693986
vt 0.031683 0.693980
vt 0.031684 0.306014
vt 0.306020 0.031682
vt 0.693986 0.031683
vt 0.693980 0.968319
vt 0.306014 0.968317
vt 0.179978 0.112918
vt 0.193100 0.144600
vt 0.282709 0.054991
vt 0.269586 0.023310
vt 0.820022 0.887082
vt 0.806900 0.855401
vt 0.717291 0.945009
vt 0.730414 0.976690
vt -0.000000 0.647892
vt 0.031683 0.661017
vt 0.031682 0.534290
vt 0.000002 0.521167
vt 0.352108 0.000000
vt 0.338984 0.031682
vt 0.465711 0.031681
vt 0.478833 0.000001
vt 0.031684 0.338980
vt 0.000002 0.325857
vt 0.000002 0.452583
vt 0.031683 0.465706
vt 0.999998 0.547417
vt 0.968317 0.534294
vt 0.968316 0.661020
vt 0.999998 0.674143
vt 0.112919 0.820023
vt 0.144600 0.806901
vt 0.054992 0.717292
vt 0.023311 0.730414
vt 0.251023 0.958129
vt 0.282705 0.945008
vt 0.193095 0.855397
vt 0.161414 0.868521
vt 0.452583 0.999999
vt 0.465706 0.968318
vt 0.338981 0.968317
vt 0.325857 0.999999
vt 0.958128 0.748978
vt 0.945007 0.717295
vt 0.855396 0.806905
vt 0.868520 0.838586
vt 1.000000 0.352108
vt 0.968317 0.338983
vt 0.968318 0.465711
vt 0.999998 0.478833
vt 0.748977 0.041871
vt 0.717295 0.054993
vt 0.806905 0.144603
vt 0.838586 0.131480
vt 0.041872 0.251022
vt 0.054993 0.282705
vt 0.144604 0.193095
vt 0.131480 0.161414
vt 0.547417 0.000001
vt 0.534294 0.031682
vt 0.661020 0.031683
vt 0.674143 0.000002
vt 0.647892 1.000000
vt 0.661017 0.968318
vt 0.534290 0.968319
vt 0.521167 1.000000
vt 0.887081 0.179977
vt 0.855400 0.193100
vt 0.945008 0.282708
vt 0.976689 0.269586
vt 0.968318 0.306020
vt 0.031684 0.306014
vt 0.031683 0.693980
vt 0.968316 0.693986
vt 0.306020 0.031682
vt 0.693986 0.031683
vt 0.693980 0.968319
vt 0.306014 0.968317
vn -0.6516 -0.1296 -0.7474
vn -0.6516 -0.1296 0.7474
vn -0.8129 -0.1617 0.5595
vn -0.8129 -0.1617 -0.5595
vn 0.4605 0.6892 -0.5595
vn 0.4605 0.6892 0.5595
vn 0.6646 -0.4441 0.6009
vn 0.6647 -0.4441 -0.6009
vn 0.3691 0.5524 -0.7474
vn 0.3691 0.5524 0.7474
vn 0.6646 -0.4441 -0.6009
vn -0.3827 0.9239 -0.0000
vn -0.5524 0.3691 0.7474
vn -0.5524 0.3691 -0.7474
vn -0.9239 0.3826 -0.0000
vn 0.7580 -0.5064 0.4111
vn 0.7580 -0.5064 -0.4111
vn -0.1296 0.6516 -0.7474
vn -0.1296 0.6516 0.7474
vn -0.1617 0.8129 0.5595
vn -0.1617 0.8129 -0.5595
vn -0.1560 0.7840 0.6009
vn -0.1560 0.7840 -0.6009
vn 0.9239 -0.3827 0.0000
vn 0.8941 0.1779 -0.4111
vn 0.8941 0.1779 0.4111
vn 0.9239 0.3827 0.0000
vn 0.7579 -0.5064 -0.4111
vn 0.7579 -0.5064 0.4111
vn 0.7840 0.1560 -0.6009
vn 0.7840 0.1560 0.6009
vn 0.8941 0.1778 0.4111
vn 0.8941 0.1778 -0.4111
vn -0.1559 0.7840 -0.6009
vn 0.3827 0.9239 0.0000
vn 0.4441 0.6646 -0.6009
vn 0.4441 0.6646 0.6009
vn 0.5064 0.7580 0.4111
vn 0.5064 0.7580 -0.4111
vn -0.1778 0.8941 -0.4111
vn -0.1778 0.8941 0.4111
vn 0.6516 0.1296 -0.7474
vn 0.6516 0.1296 0.7474
vn 0.8129 0.1617 0.5595
vn 0.8129 0.1617 -0.5595
vn -0.1779 0.8941 0.4111
vn -0.1779 0.8941 -0.4111
vn 0.3827 -0.9239 0.0000
vn 0.5524 -0.3691 0.7474
vn 0.5524 -0.3691 -0.7474
vn 0.1560 -0.7840 0.6009
vn 0.1560 -0.7840 -0.6009
vn -0.4441 -0.6646 -0.6009
vn -0.4441 -0.6646 0.6009
vn -0.5064 -0.7580 0.4111
vn -0.5064 -0.7579 -0.4111
vn 0.1778 -0.8941 -0.4111
vn 0.1778 -0.8941 0.4111
vn 0.1779 -0.8941 0.4111
vn 0.1779 -0.8941 -0.4111
vn -0.5064 -0.7580 -0.4111
vn -0.3827 -0.9239 -0.0000
vn 0.6892 -0.4605 0.5595
vn 0.6892 -0.4605 -0.5595
vn -0.6892 0.4605 0.5595
vn -0.6892 0.4605 -0.5595
vn -0.4605 -0.6892 -0.5595
vn -0.4605 -0.6892 0.5595
vn -0.6646 0.4441 0.6009
vn -0.6646 0.4441 -0.6009
vn -0.3691 -0.5524 -0.7474
vn -0.3691 -0.5524 0.7474
vn -0.6647 0.4441 0.6009
vn -0.7580 0.5064 0.4111
vn -0.7580 0.5064 -0.4111
vn 0.1296 -0.6516 -0.7474
vn 0.1296 -0.6516 0.7474
vn 0.1617 -0.8129 0.5595
vn 0.1617 -0.8129 -0.5595
vn -0.8941 -0.1779 -0.4111
vn -0.8941 -0.1779 0.4111
vn -0.9239 -0.3827 0.0000
vn 0.4441 0.6647 -0.6009
vn 0.4441 0.6647 0.6009
vn -0.7840 -0.1560 -0.6009
vn -0.7840 -0.1560 0.6009
vn -0.8941 -0.1778 0.4111
vn -0.8941 -0.1778 -0.4111
vn 0.0000 -0.0000 1.0000
vn 0.0000 0.0000 -1.0000
f 1/1/1 2/2/2 3/3/3 4/4/4
f 5/5/5 6/6/6 7/7/7 8/8/8
f 9/9/9 10/10/10 6/11/6 5/12/5
f 11/13/5 12/14/6 13/15/7 14/16/11
f 15/17/12 16/18/12 17/19/13 18/20/14
f 19/21/15 20/22/15 2/2/2 1/1/1
f 8/23/8 7/24/7 21/25/16 22/26/17
f 23/27/18 24/28/19 25/29/20 26/30/21
f 27/31/4 28/32/3 29/33/22 30/34/23
f 31/35/9 32/36/10 12/14/6 11/13/5
f 22/26/17 21/25/16 33/37/24 34/38/24
f 35/39/25 36/40/26 37/41/27 38/42/27
f 39/43/28 40/44/29 10/45/10 9/46/9
f 41/47/30 42/48/31 36/40/26 35/39/25
f 43/49/30 44/50/31 45/51/32 46/52/33
f 46/53/33 45/54/32 24/55/19 23/56/18
f 4/57/4 3/58/3 47/59/22 48/60/34
f 14/16/11 13/15/7 40/61/29 39/62/28
f 49/63/21 50/64/20 44/65/31 43/66/30
f 26/30/21 25/29/20 42/48/31 41/47/30
f 51/67/35 52/68/35 53/69/19 54/70/18
f 55/71/36 56/72/37 57/73/38 58/74/39
f 59/75/40 60/76/41 61/77/2 62/78/1
f 48/79/34 47/80/22 60/81/41 59/82/40
f 38/42/27 37/41/27 32/36/10 31/35/9
f 54/70/18 53/69/19 50/83/20 49/84/21
f 63/85/42 64/86/43 65/87/44 66/88/45
f 30/34/23 29/33/22 67/89/46 68/90/47
f 69/91/48 70/92/48 71/93/49 72/94/50
f 34/95/24 33/96/24 64/86/43 63/85/42
f 73/97/45 74/98/44 75/99/51 76/100/52
f 66/101/45 65/102/44 77/103/51 78/104/52
f 79/105/53 80/106/54 81/107/55 82/108/56
f 58/109/39 57/110/38 83/111/13 84/112/14
f 85/113/57 86/114/58 87/115/43 88/116/42
f 78/117/52 77/118/51 86/119/58 85/120/57
f 76/100/52 75/99/51 89/121/59 90/122/60
f 68/90/47 67/89/46 16/18/12 15/17/12
f 82/123/56 81/124/55 91/125/49 92/126/50
f 90/122/60 89/121/59 70/92/48 69/91/48
f 93/127/61 94/128/55 95/129/62 96/130/62
f 72/94/50 71/93/49 97/131/63 98/132/64
f 99/133/39 100/134/38 52/135/35 51/136/35
f 88/137/42 87/138/43 74/98/44 73/97/45
f 101/139/53 102/140/54 94/128/55 93/127/61
f 18/20/14 17/19/13 103/141/65 104/142/66
f 98/132/64 97/131/63 80/106/54 79/105/53
f 62/143/1 61/144/2 28/32/3 27/31/4
f 92/145/50 91/146/49 105/147/63 106/148/64
f 106/149/64 105/150/63 102/151/54 101/152/53
f 107/153/67 108/154/68 109/155/69 110/156/70
f 111/157/71 112/158/72 108/159/68 107/160/67
f 113/161/67 114/162/68 115/163/73 116/164/70
f 110/165/70 109/166/69 117/167/74 118/168/75
f 119/169/76 120/170/77 121/171/78 122/172/79
f 123/173/71 124/174/72 114/162/68 113/161/67
f 118/168/75 117/167/74 20/175/15 19/176/15
f 125/177/80 126/178/81 127/179/82 128/180/82
f 129/181/83 130/182/84 100/134/38 99/133/39
f 131/183/75 132/184/74 112/185/72 111/186/71
f 133/187/85 134/188/86 126/178/81 125/177/80
f 104/142/66 103/141/65 56/72/37 55/71/36
f 135/189/85 136/190/86 137/191/87 138/192/88
f 138/193/88 137/194/87 120/195/77 119/196/76
f 84/197/14 83/198/13 139/199/65 140/200/66
f 140/201/66 139/202/65 130/203/84 129/204/83
f 116/164/70 115/163/73 132/205/74 131/206/75
f 141/207/79 142/208/78 136/209/86 135/210/85
f 122/172/79 121/171/78 134/188/86 133/187/85
f 96/211/62 95/212/62 143/213/77 144/214/76
f 136/215/86 142/216/78 143/217/77 137/218/87
f 128/180/82 127/179/82 124/174/72 123/173/71
f 44/219/31 50/220/20 53/221/19 45/222/32
f 109/223/69 108/224/68 112/225/72 117/226/74
f 102/227/54 105/228/63 91/229/49 94/230/55
f 124/231/72 132/232/74 115/233/73 114/234/68
f 13/235/7 12/236/6 32/237/10 40/238/29
f 47/239/22 3/240/3 2/241/2 60/242/41
f 29/243/22 28/244/3 61/245/2 67/246/46
f 56/247/37 103/248/65 17/249/13 57/250/38
f 42/251/31 25/252/20 24/253/19 36/254/26
f 7/255/7 6/256/6 10/257/10 21/258/16
f 75/259/51 74/260/44 87/261/43 89/262/59
f 134/263/86 121/264/78 120/265/77 126/266/81
f 80/267/54 97/268/63 71/269/49 81/270/55
f 130/271/84 139/272/65 83/273/13 100/274/38
f 77/275/51 65/276/44 64/277/43 86/278/58
f 144/214/76 143/213/77 142/279/78 141/280/79
f 33/281/89 37/282/89 20/283/89 127/284/89
f 95/285/89 70/286/89 33/281/89 127/284/89
f 52/287/89 16/288/89 20/283/89 37/282/89
f 135/289/85 138/290/88 144/291/76 141/292/79
f 43/293/30 46/294/33 54/295/18 49/296/21
f 110/297/70 118/298/75 111/299/71 107/300/67
f 101/301/53 93/302/61 92/303/50 106/304/64
f 123/305/71 113/306/67 116/307/70 131/308/75
f 14/309/11 39/310/28 31/311/9 11/312/5
f 48/313/34 59/314/40 1/315/1 4/316/4
f 30/317/23 68/318/47 62/319/1 27/320/4
f 55/321/36 58/322/39 18/323/14 104/324/66
f 41/325/30 35/326/25 23/327/18 26/328/21
f 8/329/8 22/330/17 9/331/9 5/332/5
f 76/333/52 90/334/60 88/335/42 73/336/45
f 133/337/85 125/338/80 119/339/76 122/340/79
f 79/341/53 82/342/56 72/343/50 98/344/64
f 129/345/83 99/346/39 84/347/14 140/348/66
f 78/349/52 85/350/57 63/351/42 66/352/45
f 34/353/90 128/354/90 19/355/90 38/356/90
f 96/357/90 128/354/90 34/353/90 69/358/90
f 51/359/90 38/356/90 19/355/90 15/360/90
