# Model created by BluSunrize
mtllib sawmill.mtl

o conveyors
v -2.000000 0.125000 0.062500
v -2.000000 0.125000 0.937500
v -2.000000 -0.000000 0.937500
v -2.000000 -0.000000 0.062500
v -1.312500 0.125000 0.062500
v -1.000000 0.125000 0.062500
v -1.000000 0.125000 0.406250
v -1.312500 0.125000 0.406250
v 0.000000 0.125000 0.062500
v 0.000000 0.125000 0.406250
v 3.000000 0.125000 0.062500
v 3.000000 -0.000000 0.062500
v 3.000000 -0.000000 0.937500
v 3.000000 0.125000 0.937500
v 2.000000 0.125000 0.062500
v 2.000000 0.125000 0.937500
v 0.312500 0.125000 0.062500
v 1.000000 0.125000 0.062500
v 1.000000 0.125000 0.937500
v 0.312500 0.125000 0.937500
v 2.937500 -0.000000 0.062500
v 2.937500 -0.000000 0.937500
v -1.937500 -0.000000 0.062500
v -1.937500 -0.000000 0.937500
v 0.312500 0.125000 0.406250
v -1.312500 0.125000 0.937500
v -1.000000 0.125000 0.593750
v 0.000000 0.125000 0.593750
v 0.000000 0.125000 0.937500
v -1.000000 0.125000 0.937500
v -1.312500 0.125000 0.593750
v 0.312500 0.125000 0.593750
vt 0.062500 1.000000
vt 0.062500 0.875000
vt 0.937500 0.875000
vt 0.937500 1.000000
vt 0.062500 0.687500
vt 0.406250 0.687500
vt 0.406250 1.000000
vt 0.062500 0.000000
vt 0.406250 0.000000
vt 0.937500 0.000000
vt 0.937500 0.125000
vt 0.062500 0.125000
vt 0.062500 0.312500
vt 0.937500 0.312500
vt 0.937500 0.062500
vt 0.062500 0.062500
vt 0.062500 0.937500
vt 0.937500 0.937500
vt 0.406250 0.312500
vt 0.937500 0.687500
vt 0.593750 0.000000
vt 0.593750 1.000000
vt 0.593750 0.687500
vt 0.593750 0.312500
vn -0.7071 0.7071 0.0000
vn -0.7071 -0.7071 -0.0000
vn 0.0000 1.0000 0.0000
vn 0.7071 0.7071 0.0000
vn 0.7071 -0.7071 -0.0000
vn 0.0000 -1.0000 -0.0000
usemtl conveyor
f 1/1/1 4/2/2 3/3/2 2/4/1
f 5/5/3 8/6/3 7/7/3 6/1/3
f 6/8/3 7/9/3 10/7/3 9/1/3
f 11/8/4 14/10/4 13/11/5 12/12/5
f 15/8/3 16/10/3 14/4/4 11/1/4
f 17/13/3 20/14/3 19/4/3 18/1/3
f 12/8/5 13/10/5 22/15/6 21/16/6
f 23/17/6 24/18/6 3/4/2 4/1/2
f 9/8/3 10/9/3 25/19/3 17/13/3
f 1/8/1 2/10/1 26/20/3 5/5/3
f 18/8/3 19/10/3 16/4/3 15/1/3
f 27/21/3 30/10/3 29/4/3 28/22/3
f 31/23/3 26/20/3 30/4/3 27/22/3
f 28/21/3 29/10/3 20/14/3 32/24/3

o base
v 3.000000 -0.500000 2.000000
v 3.000000 -1.000000 2.000000
v -2.000000 -0.500000 2.000000
v 3.000000 -1.000000 -1.000000
v 3.000000 -0.500000 -1.000000
v 1.750000 1.000000 1.125000
v 1.750000 0.125000 1.125000
v 1.125000 0.125000 1.125000
v 1.125000 1.000000 1.125000
v -0.187500 -0.000000 0.062500
v -1.812500 -0.000000 0.062500
v -1.812500 -0.500000 0.062500
v -0.187500 -0.500000 0.062500
v -1.000000 1.000000 0.000000
v -1.000000 -0.500000 -0.000000
v -1.000000 -0.500000 -1.000000
v -1.000000 1.000000 -1.000000
v 2.000000 1.000000 -1.000000
v 2.000000 -0.500000 -1.000000
v 2.000000 -0.500000 -0.000000
v 2.000000 1.000000 0.000000
v 3.000000 -0.000000 0.937500
v -2.000000 0.000000 0.000000
v 1.125000 1.000000 0.937500
v 1.125000 0.187500 0.937500
v 1.750000 0.187500 0.937500
v 1.750000 1.000000 0.937500
v 1.718750 0.812500 0.750000
v 1.718750 0.250000 0.750000
v 1.718750 0.250000 0.875000
v 1.718750 0.812500 0.875000
v 1.687500 0.812500 0.593750
v 1.687500 0.250000 0.593750
v 1.718750 0.250000 0.593750
v 1.718750 0.812450 0.593750
v 1.718750 0.250000 0.718750
v 1.718750 0.812500 0.718750
v 1.687500 0.812500 0.750000
v 1.687500 0.250000 0.750000
v 1.687500 0.812500 0.437500
v 1.687500 0.250000 0.437500
v 1.718750 0.250000 0.437500
v 1.718750 0.812500 0.437500
v 1.718750 0.250000 0.562500
v 1.718750 0.812500 0.562500
v 1.687500 0.812500 0.281250
v 1.687500 0.250000 0.281250
v 1.718750 0.250000 0.281250
v 1.718750 0.812500 0.281250
v 1.718750 0.250000 0.406250
v 1.718750 0.812500 0.406250
v 1.687500 0.812500 0.125000
v 1.687500 0.250000 0.125000
v 1.718750 0.250000 0.125000
v 1.718750 0.812500 0.125000
v 1.718750 0.250000 0.250000
v 1.718750 0.812500 0.250000
v 1.625000 0.812500 0.000000
v 1.625000 0.125000 0.000000
v 1.625000 0.125000 1.000000
v 1.625000 0.812500 1.000000
v 1.250000 0.812500 0.000000
v 1.250000 0.812500 1.000000
v 1.250000 0.125000 1.000000
v 1.250000 0.125000 0.000000
v 0.312500 0.125000 0.406250
v 0.312500 0.125000 0.593750
v -1.312500 0.125000 0.593750
v -1.312500 0.125000 0.406250
v 1.687500 0.250000 0.875000
v 1.687500 0.812500 0.875000
v 1.687500 0.812500 0.562500
v 1.687500 0.250000 0.562500
v 1.687500 0.812500 0.718750
v 1.687500 0.250000 0.718750
v 1.687500 0.812500 0.406250
v 1.687500 0.250000 0.406250
v 1.687500 0.812500 0.250000
v 1.687500 0.250000 0.250000
v 1.187500 0.812500 0.750000
v 1.187500 0.250000 0.750000
v 1.187500 0.250000 0.875000
v 1.187500 0.812500 0.875000
v 1.156250 0.812500 0.593750
v 1.156250 0.250000 0.593750
v 1.187500 0.250000 0.593750
v 1.187500 0.812500 0.593750
v 1.187500 0.250000 0.718750
v 1.187500 0.812500 0.718750
v 1.156250 0.812500 0.750000
v 1.156250 0.250000 0.750000
v 1.187500 0.812500 0.437500
v 1.187500 0.250000 0.437500
v 1.187500 0.250000 0.562500
v 1.187500 0.812500 0.562500
v 1.156250 0.812500 0.281250
v 1.156250 0.250000 0.281250
v 1.187500 0.250000 0.281250
v 1.187500 0.812500 0.281250
v 1.187500 0.250000 0.406250
v 1.187500 0.812500 0.406250
v 1.156250 0.812500 0.125000
v 1.156250 0.250000 0.125000
v 1.187500 0.250000 0.125000
v 1.187500 0.812500 0.125000
v 1.187500 0.250000 0.250000
v 1.187500 0.812500 0.250000
v 1.156250 0.250000 0.875000
v 1.156250 0.812500 0.875000
v 1.156250 0.812500 0.562500
v 1.156250 0.250000 0.562500
v 1.156250 0.812500 0.718750
v 1.156250 0.250000 0.718750
v 1.156250 0.812500 0.406250
v 1.156250 0.250000 0.406250
v 1.156250 0.812500 0.250000
v 1.156250 0.250000 0.250000
v 1.156250 0.812500 0.437500
v 1.156250 0.250000 0.437500
v -1.000000 -0.500000 2.000000
v 1.750000 0.875000 1.750000
v 1.750000 0.125000 1.750000
v 1.125000 0.125000 1.750000
v 1.125000 0.875000 1.750000
v 1.750000 0.875000 1.125000
v 1.125000 0.875000 1.125000
v 1.812500 0.125000 1.812500
v 1.812500 -0.625000 1.812500
v 1.062500 -0.625000 1.812500
v 1.062500 0.125000 1.812500
v 1.812500 0.125000 1.062500
v 1.062500 0.125000 1.062500
v 1.062500 -0.625000 1.062500
v 1.812500 -0.625000 1.062500
v 0.000000 -0.125000 1.625000
v 1.062500 -0.125000 1.625000
v 1.062500 -0.500000 1.625000
v 0.000000 -0.500000 1.625000
v 0.000000 -0.125000 1.250000
v 1.062500 -0.125000 1.250000
v 0.000000 -0.500000 1.250000
v 1.062500 -0.500000 1.250000
v 1.125000 -0.500000 1.125000
v 1.125000 -0.500000 0.937500
v 1.750000 -0.500000 0.937500
v 1.750000 -0.500000 1.125000
v 1.125000 1.000000 0.000000
v 1.125000 1.000000 0.062500
v 1.125000 0.187500 0.062500
v 1.125000 0.187500 0.000000
v 1.750000 1.000000 0.000000
v 1.750000 0.187500 0.000000
v 1.750000 0.187500 0.062500
v 1.750000 1.000000 0.062500
v 2.812500 -0.000000 0.937500
v 2.812500 -0.500000 0.937500
v 1.750000 -0.000000 0.937500
v 2.812500 -0.000000 0.062500
v 2.812500 -0.500000 0.062500
v 2.937500 -0.000000 0.187500
v 2.937500 -0.500000 0.187500
v 2.937500 -0.500000 0.812500
v 2.937500 -0.000000 0.812500
v -1.937500 -0.000000 0.187500
v -1.937500 -0.000000 0.812500
v -1.937500 -0.500000 0.812500
v -1.937500 -0.500000 0.187500
v -1.000000 -0.000000 1.000000
v -1.000000 -0.500000 1.000000
v 0.000000 -0.000000 1.000000
v 0.000000 -0.500000 1.000000
v 1.187500 -0.000000 0.937500
v 1.187500 -0.500000 0.937500
v -1.812500 -0.500000 0.937500
v -1.812500 -0.000000 0.937500
v 1.125000 0.812500 0.062500
v 1.125000 0.812500 0.937500
v 1.750000 0.812500 0.937500
v 1.750000 0.812500 0.062500
v -1.812500 -0.000000 1.000000
v -1.812500 -0.000000 0.812500
v -1.812500 -0.500000 0.812500
v -1.812500 -0.500000 1.000000
v -2.000000 -0.500000 1.000000
v -2.000000 -0.500000 0.812500
v -2.000000 -0.000000 0.812500
v -1.062500 -0.000000 1.000000
v -1.062500 -0.500000 1.000000
v -1.062500 -0.500000 0.812500
v -1.062500 -0.000000 0.812500
v -0.875000 -0.500000 1.000000
v 3.000000 -0.500000 1.000000
v 2.812500 -0.500000 1.000000
v 2.812500 -0.000000 1.000000
v 3.000000 -0.000000 0.812500
v 3.000000 -0.500000 0.812500
v 2.812500 -0.500000 0.812500
v 2.812500 -0.000000 0.812500
v -2.000000 -0.000000 0.187500
v -2.000000 -0.500000 0.187500
v -2.000000 -0.500000 -0.000000
v -1.812500 -0.500000 -0.000000
v -1.812500 0.000000 0.000000
v -1.812500 -0.500000 0.187500
v -1.812500 -0.000000 0.187500
v 2.812500 0.000000 0.000000
v 2.812500 -0.000000 0.187500
v 2.812500 -0.500000 0.187500
v 2.812500 -0.500000 -0.000000
v 3.000000 -0.500000 -0.000000
v 3.000000 -0.500000 0.187500
v 3.000000 -0.000000 0.187500
v 0.062500 -0.000000 1.000000
v 0.062500 -0.500000 1.000000
v 0.062500 -0.000000 0.812500
v 0.062500 -0.500000 0.812500
v -0.125000 -0.000000 1.000000
v -0.125000 -0.500000 1.000000
v -0.125000 -0.500000 0.812500
v -0.125000 -0.000000 0.812500
v -0.875000 -0.000000 1.000000
v 0.000000 -0.500000 2.000000
v -0.875000 -0.000000 0.812500
v -0.875000 -0.500000 0.812500
v -1.000000 -1.000000 2.000000
v 0.000000 -1.000000 2.000000
v -1.000000 -0.000000 2.000000
v -2.000000 -0.500000 -1.000000
v -2.000000 -1.000000 -1.000000
v 0.000000 -0.000000 2.000000
v -2.000000 -1.000000 2.000000
v 3.000000 1.000000 2.000000
v 3.000000 -0.000000 2.000000
v 2.000000 -0.000000 2.000000
v 2.000000 1.000000 2.000000
v 2.000000 1.000000 1.500000
v 2.000000 -0.000000 1.500000
v 3.000000 -0.000000 1.500000
v 3.000000 1.000000 1.500000
v 2.250000 -0.000000 1.875000
v 2.250000 -0.500000 1.875000
v 2.125000 -0.500000 1.875000
v 2.125000 -0.000000 1.875000
v 2.125000 -0.000000 1.625000
v 2.125000 -0.500000 1.625000
v 2.250000 -0.500000 1.625000
v 2.250000 -0.000000 1.625000
v 2.875000 -0.000000 1.875000
v 2.875000 -0.500000 1.875000
v 2.750000 -0.500000 1.875000
v 2.750000 -0.000000 1.875000
v 2.750000 -0.000000 1.625000
v 2.750000 -0.500000 1.625000
v 2.875000 -0.500000 1.625000
v 2.875000 -0.000000 1.625000
v 1.000000 0.000000 0.000000
v 1.000000 0.187500 0.937500
v 1.000000 0.187500 0.000000
v -2.000000 -0.000000 0.062500
v 3.000000 -0.000000 0.062500
v -2.000000 -0.000000 1.000000
v -2.000000 -0.000000 0.937500
v 3.000000 0.187500 0.000000
v 3.000000 -0.000000 1.000000
v 1.000000 -0.000000 1.000000
v 1.000000 -0.000000 0.937500
v 1.000000 -0.000000 0.062500
v 1.000000 0.187500 0.062500
v 1.000000 0.187500 1.000000
v 3.000000 0.187500 1.000000
v -2.000000 0.187500 1.000000
v 3.000000 0.187500 0.062500
v -2.000000 0.187500 0.062500
v -2.000000 0.187500 0.937500
v 3.000000 0.187500 0.937500
v -2.000000 0.187500 0.000000
v 3.000000 0.000000 0.000000
vt 0.000000 0.250000
vt 0.625000 0.250000
vt 0.625000 0.187500
vt 0.000000 0.187500
vt 0.375000 0.125000
vt 0.375000 0.062500
vt 0.000000 0.062500
vt 0.000000 0.125000
vt 1.000000 0.250000
vt 1.000000 0.187500
vt 0.875000 0.187500
vt 0.875000 0.250000
vt 1.000000 0.125000
vt 0.875000 0.125000
vt 0.375000 0.250000
vt 0.375000 0.187500
vt 0.500000 0.250000
vt 0.500000 0.187500
vt 0.000000 1.000000
vt 0.625000 1.000000
vt 0.625000 0.625000
vt 0.000000 0.625000
vt 0.937500 0.125000
vt 0.937500 0.250000
vt 0.375000 0.750000
vt 0.500000 0.750000
vt 0.500000 0.625000
vt 0.375000 0.625000
vt 0.000000 0.375000
vt 0.125000 0.375000
vt 0.125000 0.187500
vt 0.375000 1.000000
vt 0.375000 0.812500
vt 0.000000 0.812500
vt 0.500000 0.562500
vt 0.523438 0.562500
vt 0.523438 0.625000
vt 0.375000 0.500000
vt 0.000000 0.500000
vt 0.750000 0.625000
vt 0.875000 0.625000
vt 0.875000 0.500000
vt 0.750000 0.500000
vt 0.718750 0.500000
vt 0.703125 0.500000
vt 0.703125 0.562500
vt 0.718750 0.562500
vt 0.750000 0.562500
vt 0.375000 0.770833
vt 0.583333 0.770833
vt 0.583333 0.479167
vt 0.375000 0.479167
vt 0.541667 1.000000
vt 0.541667 0.833333
vt 0.000000 0.833333
vt 1.000000 0.812500
vt 1.000000 0.833333
vt 0.583333 0.500000
vt 0.947916 0.625000
vt 0.989583 0.625000
vt 0.989583 0.437501
vt 0.947916 0.437501
vt 0.885415 0.625000
vt 0.895833 0.625000
vt 0.895833 0.437501
vt 0.885415 0.437501
vt 0.937497 0.625000
vt 0.937497 0.437501
vt 0.833332 0.625000
vt 0.843748 0.625000
vt 0.843748 0.437501
vt 0.833332 0.437501
vt 0.781249 0.625000
vt 0.791665 0.625000
vt 0.791665 0.437501
vt 0.781249 0.437501
vt 0.729167 0.625000
vt 0.739583 0.625000
vt 0.739583 0.437501
vt 0.729167 0.437501
vt 0.666667 0.333333
vt 1.000000 0.333333
vt 1.000000 0.104167
vt 0.666667 0.104167
vt 0.541667 0.062500
vt 0.541667 0.000000
vt 0.000000 0.000000
vt 0.999999 0.625000
vt 0.999999 0.437501
vt 0.125000 0.520833
vt 0.333333 0.520833
vt 0.333333 0.270833
vt 0.125000 0.270833
vt 0.333333 0.062500
vt 0.125000 0.062500
vt 0.125000 0.770833
vt 0.375000 0.520833
vt 0.125000 0.416667
vt 0.000000 0.416667
vt 0.000000 0.770833
vt 0.583333 0.270833
vt 0.645833 0.270833
vt 0.645833 0.770833
vt 0.604167 0.770833
vt 0.604167 0.270833
vt 0.354167 1.000000
vt 0.354167 0.833333
vt 1.000000 1.000000
vt 0.062500 1.000000
vt 0.270833 1.000000
vt 0.270833 0.833333
vt 0.062500 0.833333
vt 0.375000 0.583333
vt 0.583333 0.583333
vt 0.583333 0.291667
vt 0.375000 0.291667
vt 0.645833 0.562500
vt 0.583333 0.562500
vt 0.333333 0.833333
vt 0.333333 0.770833
vt 1.000000 0.770833
vt 0.583333 0.229167
vt 0.375000 0.229167
vt 0.375000 0.604167
vt 0.583333 0.604167
vt 0.333333 0.812500
vt 0.020833 0.833333
vt 0.020833 0.770833
vn -0.5774 0.5774 -0.5774
vn 0.5774 0.5774 -0.5774
vn 0.5774 -0.5774 -0.5774
vn -0.5774 -0.5774 -0.5774
vn -0.5774 -0.5774 0.5774
vn -0.5774 0.5774 0.5774
vn 0.5774 -0.5774 0.5774
vn 0.5774 0.5774 0.5774
vn -0.7071 0.7071 0.0000
vn -1.0000 0.0000 0.0000
vn 0.7071 0.7071 0.0000
vn 1.0000 0.0000 0.0000
vn 0.0000 0.0000 1.0000
vn -0.7071 0.0000 -0.7071
vn -0.7071 -0.0000 0.7071
vn 0.7071 -0.0000 0.7071
vn 0.7071 0.0000 -0.7071
vn 0.0000 0.0000 -1.0000
vn 0.0000 0.7071 0.7071
vn 0.0000 0.7071 -0.7071
vn -0.7075 0.0000 -0.7067
vn 0.7068 0.0000 -0.7074
vn 0.7070 -0.0000 0.7072
vn 0.0000 1.0000 0.0000
vn -0.7071 -0.7071 -0.0000
vn 0.7071 -0.7071 -0.0000
vn 0.0000 -0.7071 0.7071
vn 0.0000 -0.7071 -0.7071
usemtl multiblock_base
f 260/25/7 37/26/8 36/27/9 261/28/10
f 260/29/7 261/30/10 263/31/11 35/32/12
f 34/30/13 36/31/9 37/32/8 33/29/14
f 200/33/15 201/34/16 152/35/16 259/36/12
f 202/36/17 262/33/14 254/34/18 203/35/18
f 202/36/17 200/33/15 259/37/12 262/38/14
f 33/25/14 254/39/19 258/40/19 34/28/13
f 152/41/19 35/26/12 263/27/11 257/42/19
f 37/43/8 260/44/7 35/45/12 33/46/14
f 34/26/13 263/25/11 261/46/10 36/45/9
f 268/36/7 271/33/8 270/37/9 269/38/10
f 271/36/8 268/33/7 267/34/12 264/35/14
f 265/34/13 266/35/11 269/36/10 270/33/9
f 268/33/7 269/37/10 266/47/11 267/48/12
f 271/36/8 264/48/14 265/47/13 270/38/9
usemtl multiblock_components
f 262/49/14 259/50/12 257/51/19 258/52/19
f 46/53/12 49/54/7 48/55/20 47/28/21
f 50/53/8 53/54/14 52/55/22 51/28/23
f 50/56/8 51/57/23 48/58/20 49/43/7
f 53/57/14 46/58/12 47/46/21 52/52/22
f 212/51/22 215/59/22 214/60/23 213/61/23
f 212/51/22 293/61/21 216/60/21 215/59/22
f 293/51/21 218/61/20 217/60/20 216/59/21
f 219/51/21 222/61/16 221/60/16 220/59/21
f 253/51/22 219/61/21 220/60/21 223/59/22
f 296/51/22 226/61/21 225/60/21 224/59/22
f 296/51/22 224/59/22 228/60/23 227/61/23
f 226/51/21 230/61/20 229/60/20 225/59/21
f 55/51/20 233/59/20 232/60/21 231/61/21
f 55/51/20 235/61/23 234/60/23 233/59/20
f 235/51/23 237/61/22 236/60/22 234/59/23
f 238/51/20 241/59/20 240/60/21 239/61/21
f 238/51/20 309/61/23 242/60/23 241/59/20
f 309/51/23 244/61/22 243/60/22 242/59/23
f 230/51/20 227/61/23 228/60/23 229/59/20
f 244/51/22 239/61/21 240/60/21 243/59/22
f 213/51/23 214/59/23 217/60/20 218/61/20
f 231/51/21 232/59/21 236/60/22 237/61/22
f 245/51/22 249/61/21 250/60/21 246/59/22
f 245/51/22 246/59/22 248/60/18 247/61/18
f 53/52/14 50/62/8 49/63/7 46/46/12
f 249/51/21 252/61/16 251/60/16 250/59/21
f 253/51/22 223/59/22 256/60/18 255/61/18
f 264/64/14 267/65/12 266/66/11 265/67/13
f 272/68/22 275/69/21 274/70/21 273/71/22
f 276/68/20 279/69/23 278/70/23 277/71/20
f 276/68/20 277/71/20 274/72/21 275/67/21
f 279/67/23 272/68/22 273/71/22 278/72/23
f 280/68/22 283/69/21 282/70/21 281/71/22
f 284/68/20 287/69/23 286/70/23 285/71/20
f 284/68/20 285/71/20 282/72/21 283/67/21
f 287/67/23 280/68/22 281/71/22 286/72/23
usemtl sawmill
f 38/73/14 41/74/12 40/75/19 39/76/19
f 42/77/24 45/78/24 44/79/24 43/43/24
f 305/80/12 300/58/25 290/79/26 308/81/7
f 303/80/12 301/58/25 289/79/26 306/81/7
f 56/73/24 59/74/24 58/82/24 57/62/24
f 60/83/23 63/84/22 62/85/22 61/86/23
f 64/87/27 67/88/28 66/89/23 65/90/20
f 67/88/28 69/91/29 68/92/22 66/89/23
f 70/91/20 60/83/23 61/86/23 71/92/20
f 72/93/20 75/94/23 74/95/23 73/96/20
f 75/94/23 77/87/22 76/90/22 74/95/23
f 78/97/20 81/98/23 80/99/23 79/100/20
f 81/98/23 83/93/22 82/96/22 80/99/23
f 84/101/20 87/102/23 86/103/23 85/104/20
f 87/102/23 89/97/22 88/100/22 86/103/23
f 90/105/18 93/106/18 92/107/18 91/108/18
f 94/105/16 97/108/16 96/107/16 95/106/16
f 98/31/30 101/109/30 100/110/30 99/111/30
f 63/84/22 103/112/21 102/113/21 62/85/22
f 104/87/21 105/90/21 76/89/22 77/88/22
f 106/91/21 107/92/21 68/86/22 69/83/29
f 108/93/21 109/96/21 82/95/22 83/94/22
f 110/97/21 111/100/21 88/99/22 89/98/22
f 70/83/20 71/86/20 102/85/21 103/84/21
f 64/88/27 65/89/20 107/92/21 106/91/21
f 72/94/20 73/95/20 105/90/21 104/87/21
f 78/98/20 79/99/20 109/96/21 108/93/21
f 84/102/20 85/103/20 111/100/21 110/97/21
f 112/83/23 115/84/22 114/85/22 113/86/23
f 116/87/20 119/88/23 118/89/23 117/90/20
f 119/88/23 121/91/22 120/92/22 118/89/23
f 122/91/20 112/83/23 113/86/23 123/92/20
f 124/94/18 127/87/22 126/90/22 125/95/18
f 128/97/20 131/98/23 130/99/23 129/100/20
f 131/98/23 133/93/22 132/96/22 130/99/23
f 134/101/20 137/102/23 136/103/23 135/104/20
f 137/102/23 139/97/22 138/100/22 136/103/23
f 115/84/22 141/112/21 140/113/21 114/85/22
f 142/87/21 143/90/21 126/89/22 127/88/22
f 144/91/21 145/92/21 120/86/22 121/83/22
f 146/93/21 147/96/21 132/95/22 133/94/22
f 148/97/21 149/100/21 138/99/22 139/98/22
f 122/83/20 123/86/20 140/85/21 141/84/21
f 116/88/20 117/89/20 145/92/21 144/91/21
f 150/94/16 151/95/16 143/90/21 142/87/21
f 128/98/20 129/99/20 147/96/21 146/93/21
f 134/102/20 135/103/20 149/100/21 148/97/21
f 153/114/14 156/115/12 155/116/21 154/117/22
f 157/117/17 158/116/15 156/118/12 153/119/14
f 158/115/15 40/116/16 155/117/21 156/114/12
f 157/114/17 153/115/14 154/116/22 39/117/18
f 159/120/14 162/73/12 161/121/21 160/114/22
f 163/120/8 164/73/7 162/121/12 159/114/14
f 164/73/7 165/121/20 161/114/21 162/120/12
f 163/120/8 159/73/14 160/121/22 166/114/23
f 163/120/8 166/114/23 165/121/20 164/73/7
f 167/122/25 170/123/19 169/124/19 168/120/25
f 171/122/26 167/123/25 168/124/25 172/120/26
f 171/122/26 172/120/26 174/124/24 173/123/24
f 56/74/15 176/125/16 175/126/16 41/127/12
f 59/74/17 38/127/14 178/126/18 177/125/18
f 179/128/15 182/129/16 181/125/21 180/74/12
f 183/129/17 186/125/14 185/74/22 184/128/18
f 180/73/12 181/62/21 185/82/22 186/74/14
f 187/43/19 189/130/19 177/131/19 188/79/19
f 190/132/24 191/81/24 45/79/24 42/43/24
f 192/133/18 195/134/18 194/135/18 193/136/18
f 196/133/16 199/136/16 198/135/16 197/134/16
f 204/43/19 207/132/19 206/81/19 205/79/19
f 208/137/31 211/138/32 210/139/32 209/140/31
f 208/141/31 209/126/31 56/125/15 180/142/15
f 211/126/32 186/125/17 59/142/17 210/141/32
f 304/81/14 300/143/25 299/144/33 292/145/13
f 302/81/14 301/143/25 297/144/33 296/145/13
f 59/140/17 56/139/15 41/146/12 38/147/14
f 186/137/17 180/138/15 56/139/15 59/140/17
f 183/148/17 179/149/15 180/138/12 186/137/14
f 293/80/11 294/81/10 298/79/34 297/58/33
f 299/150/33 288/143/34 309/81/9 292/80/13
f 307/81/8 54/145/9 298/144/34 289/143/26
f 295/81/8 309/145/9 288/144/34 290/143/26
f 297/150/33 298/143/34 54/81/9 296/80/13
f 291/80/11 55/81/10 288/79/34 299/58/33
f 289/79/26 298/124/34 294/145/10 306/81/7
f 290/79/26 288/124/34 55/145/10 308/81/7
f 301/79/25 303/81/12 293/145/11 297/124/33
f 300/79/25 305/81/12 291/145/11 299/124/33
f 303/151/12 306/79/7 294/124/10 293/152/11
f 301/150/25 302/80/14 307/81/8 289/143/26
f 302/151/14 296/152/13 54/124/9 307/79/8
f 305/151/12 308/79/7 55/124/10 291/152/11
f 300/150/25 304/80/14 295/81/8 290/143/26
f 304/151/14 292/152/13 309/124/9 295/79/8
