# Model created by BluSunrize
mtllib sawmill.mtl

o conveyors
v 3.000000 0.125000 0.062500
v 3.000000 0.125000 0.937500
v 3.000000 -0.000000 0.937500
v 3.000000 -0.000000 0.062500
v 2.312500 0.125000 0.062500
v 2.000000 0.125000 0.062500
v 2.000000 0.125000 0.406250
v 2.312500 0.125000 0.406250
v 1.000000 0.125000 0.062500
v 1.000000 0.125000 0.406250
v -2.000000 0.125000 0.062500
v -2.000000 -0.000000 0.062500
v -2.000000 -0.000000 0.937500
v -2.000000 0.125000 0.937500
v -1.000000 0.125000 0.062500
v -1.000000 0.125000 0.937500
v 0.687500 0.125000 0.062500
v 0.000000 0.125000 0.062500
v 0.000000 0.125000 0.937500
v 0.687500 0.125000 0.937500
v -1.937500 -0.000000 0.062500
v -1.937500 -0.000000 0.937500
v 2.937500 -0.000000 0.062500
v 2.937500 -0.000000 0.937500
v 0.687500 0.125000 0.406250
v 2.312500 0.125000 0.937500
v 2.000000 0.125000 0.593750
v 1.000000 0.125000 0.593750
v 1.000000 0.125000 0.937500
v 2.000000 0.125000 0.937500
v 2.312500 0.125000 0.593750
v 0.687500 0.125000 0.593750
vt 0.062500 1.000000
vt 0.937500 1.000000
vt 0.937500 0.875000
vt 0.062500 0.875000
vt 0.062500 0.687500
vt 0.406250 1.000000
vt 0.406250 0.687500
vt 0.062500 0.000000
vt 0.406250 0.000000
vt 0.062500 0.125000
vt 0.937500 0.125000
vt 0.937500 0.000000
vn 0.7071 0.7071 0.0000
vn 0.7071 -0.7071 -0.0000
vn 0.0000 1.0000 0.0000
vn -0.7071 0.7071 0.0000
vn -0.7071 -0.7071 -0.0000
vn 0.0000 -1.0000 -0.0000
usemtl conveyor
f 1/1/1 2/2/1 3/3/2 4/4/2
f 5/5/3 6/1/3 7/6/3 8/7/3
f 6/8/3 9/1/3 10/6/3 7/9/3
f 11/8/4 12/10/5 13/11/5 14/12/4
f 15/8/3 11/1/4 14/2/4 16/12/3
f 17/13/3 18/1/3 19/2/3 20/14/3
f 12/8/5 21/15/6 22/16/6 13/12/5
f 23/17/6 4/1/2 3/2/2 24/18/6
f 9/8/3 17/13/3 25/19/3 10/9/3
f 1/8/1 5/5/3 26/20/3 2/12/1
f 18/8/3 15/1/3 16/2/3 19/12/3
f 27/21/3 28/22/3 29/2/3 30/12/3
f 31/23/3 27/22/3 30/2/3 26/20/3
f 28/21/3 32/24/3 20/14/3 29/12/3

o base
v -2.000000 -0.500000 2.000000
v -2.000000 -1.000000 2.000000
v 3.000000 -0.500000 2.000000
v -2.000000 -1.000000 -1.000000
v -2.000000 -0.500000 -1.000000
v -0.750000 1.000000 1.125000
v -0.750000 0.125000 1.125000
v -0.125000 0.125000 1.125000
v -0.125000 1.000000 1.125000
v 1.187500 -0.000000 0.062500
v 2.812500 -0.000000 0.062500
v 2.812500 -0.500000 0.062500
v 1.187500 -0.500000 0.062500
v 2.000000 1.000000 0.000000
v 2.000000 -0.500000 -0.000000
v 2.000000 -0.500000 -1.000000
v 2.000000 1.000000 -1.000000
v -1.000000 1.000000 -1.000000
v -1.000000 -0.500000 -1.000000
v -1.000000 -0.500000 -0.000000
v -1.000000 1.000000 0.000000
v -2.000000 -0.000000 0.937500
v 3.000000 0.000000 0.000000
v -0.125000 1.000000 0.937500
v -0.125000 0.187500 0.937500
v -0.750000 0.187500 0.937500
v -0.750000 1.000000 0.937500
v -0.718750 0.812500 0.750000
v -0.718750 0.250000 0.750000
v -0.718750 0.250000 0.875000
v -0.718750 0.812500 0.875000
v -0.687500 0.812500 0.593750
v -0.687500 0.250000 0.593750
v -0.718750 0.250000 0.593750
v -0.718750 0.812450 0.593750
v -0.718750 0.250000 0.718750
v -0.718750 0.812500 0.718750
v -0.687500 0.812500 0.750000
v -0.687500 0.250000 0.750000
v -0.687500 0.812500 0.437500
v -0.687500 0.250000 0.437500
v -0.718750 0.250000 0.437500
v -0.718750 0.812500 0.437500
v -0.718750 0.250000 0.562500
v -0.718750 0.812500 0.562500
v -0.687500 0.812500 0.281250
v -0.687500 0.250000 0.281250
v -0.718750 0.250000 0.281250
v -0.718750 0.812500 0.281250
v -0.718750 0.250000 0.406250
v -0.718750 0.812500 0.406250
v -0.687500 0.812500 0.125000
v -0.687500 0.250000 0.125000
v -0.718750 0.250000 0.125000
v -0.718750 0.812500 0.125000
v -0.718750 0.250000 0.250000
v -0.718750 0.812500 0.250000
v -0.625000 0.812500 0.000000
v -0.625000 0.125000 0.000000
v -0.625000 0.125000 1.000000
v -0.625000 0.812500 1.000000
v -0.250000 0.812500 0.000000
v -0.250000 0.812500 1.000000
v -0.250000 0.125000 1.000000
v -0.250000 0.125000 0.000000
v 0.687500 0.125000 0.406250
v 0.687500 0.125000 0.593750
v 2.312500 0.125000 0.593750
v 2.312500 0.125000 0.406250
v -0.687500 0.250000 0.875000
v -0.687500 0.812500 0.875000
v -0.687500 0.812500 0.562500
v -0.687500 0.250000 0.562500
v -0.687500 0.812500 0.718750
v -0.687500 0.250000 0.718750
v -0.687500 0.812500 0.406250
v -0.687500 0.250000 0.406250
v -0.687500 0.812500 0.250000
v -0.687500 0.250000 0.250000
v -0.187500 0.812500 0.750000
v -0.187500 0.250000 0.750000
v -0.187500 0.250000 0.875000
v -0.187500 0.812500 0.875000
v -0.156250 0.812500 0.593750
v -0.156250 0.250000 0.593750
v -0.187500 0.250000 0.593750
v -0.187500 0.812500 0.593750
v -0.187500 0.250000 0.718750
v -0.187500 0.812500 0.718750
v -0.156250 0.812500 0.750000
v -0.156250 0.250000 0.750000
v -0.187500 0.812500 0.437500
v -0.187500 0.250000 0.437500
v -0.187500 0.250000 0.562500
v -0.187500 0.812500 0.562500
v -0.156250 0.812500 0.281250
v -0.156250 0.250000 0.281250
v -0.187500 0.250000 0.281250
v -0.187500 0.812500 0.281250
v -0.187500 0.250000 0.406250
v -0.187500 0.812500 0.406250
v -0.156250 0.812500 0.125000
v -0.156250 0.250000 0.125000
v -0.187500 0.250000 0.125000
v -0.187500 0.812500 0.125000
v -0.187500 0.250000 0.250000
v -0.187500 0.812500 0.250000
v -0.156250 0.250000 0.875000
v -0.156250 0.812500 0.875000
v -0.156250 0.812500 0.562500
v -0.156250 0.250000 0.562500
v -0.156250 0.812500 0.718750
v -0.156250 0.250000 0.718750
v -0.156250 0.812500 0.406250
v -0.156250 0.250000 0.406250
v -0.156250 0.812500 0.250000
v -0.156250 0.250000 0.250000
v -0.156250 0.812500 0.437500
v -0.156250 0.250000 0.437500
v 2.000000 -0.500000 2.000000
v -0.750000 0.875000 1.750000
v -0.750000 0.125000 1.750000
v -0.125000 0.125000 1.750000
v -0.125000 0.875000 1.750000
v -0.750000 0.875000 1.125000
v -0.125000 0.875000 1.125000
v -0.812500 0.125000 1.812500
v -0.812500 -0.625000 1.812500
v -0.062500 -0.625000 1.812500
v -0.062500 0.125000 1.812500
v -0.812500 0.125000 1.062500
v -0.062500 0.125000 1.062500
v -0.062500 -0.625000 1.062500
v -0.812500 -0.625000 1.062500
v 1.000000 -0.125000 1.625000
v -0.062500 -0.125000 1.625000
v -0.062500 -0.500000 1.625000
v 1.000000 -0.500000 1.625000
v 1.000000 -0.125000 1.250000
v -0.062500 -0.125000 1.250000
v 1.000000 -0.500000 1.250000
v -0.062500 -0.500000 1.250000
v -0.125000 -0.500000 1.125000
v -0.125000 -0.500000 0.937500
v -0.750000 -0.500000 0.937500
v -0.750000 -0.500000 1.125000
v -0.125000 1.000000 0.000000
v -0.125000 1.000000 0.062500
v -0.125000 0.187500 0.062500
v -0.125000 0.187500 0.000000
v -0.750000 1.000000 0.000000
v -0.750000 0.187500 0.000000
v -0.750000 0.187500 0.062500
v -0.750000 1.000000 0.062500
v -1.812500 -0.000000 0.937500
v -1.812500 -0.500000 0.937500
v -0.750000 -0.000000 0.937500
v -1.812500 -0.000000 0.062500
v -1.812500 -0.500000 0.062500
v -1.937500 -0.000000 0.187500
v -1.937500 -0.500000 0.187500
v -1.937500 -0.500000 0.812500
v -1.937500 -0.000000 0.812500
v 2.937500 -0.000000 0.187500
v 2.937500 -0.000000 0.812500
v 2.937500 -0.500000 0.812500
v 2.937500 -0.500000 0.187500
v 2.000000 -0.000000 1.000000
v 2.000000 -0.500000 1.000000
v 1.000000 -0.000000 1.000000
v 1.000000 -0.500000 1.000000
v -0.187500 -0.000000 0.937500
v -0.187500 -0.500000 0.937500
v 2.812500 -0.500000 0.937500
v 2.812500 -0.000000 0.937500
v -0.125000 0.812500 0.062500
v -0.125000 0.812500 0.937500
v -0.750000 0.812500 0.937500
v -0.750000 0.812500 0.062500
v 2.812500 -0.000000 1.000000
v 2.812500 -0.000000 0.812500
v 2.812500 -0.500000 0.812500
v 2.812500 -0.500000 1.000000
v 3.000000 -0.500000 1.000000
v 3.000000 -0.500000 0.812500
v 3.000000 -0.000000 0.812500
v 2.062500 -0.000000 1.000000
v 2.062500 -0.500000 1.000000
v 2.062500 -0.500000 0.812500
v 2.062500 -0.000000 0.812500
v 1.875000 -0.500000 1.000000
v -2.000000 -0.500000 1.000000
v -1.812500 -0.500000 1.000000
v -1.812500 -0.000000 1.000000
v -2.000000 -0.000000 0.812500
v -2.000000 -0.500000 0.812500
v -1.812500 -0.500000 0.812500
v -1.812500 -0.000000 0.812500
v 3.000000 -0.000000 0.187500
v 3.000000 -0.500000 0.187500
v 3.000000 -0.500000 -0.000000
v 2.812500 -0.500000 -0.000000
v 2.812500 0.000000 0.000000
v 2.812500 -0.500000 0.187500
v 2.812500 -0.000000 0.187500
v -1.812500 0.000000 0.000000
v -1.812500 -0.000000 0.187500
v -1.812500 -0.500000 0.187500
v -1.812500 -0.500000 -0.000000
v -2.000000 -0.500000 -0.000000
v -2.000000 -0.500000 0.187500
v -2.000000 -0.000000 0.187500
v 0.937500 -0.000000 1.000000
v 0.937500 -0.500000 1.000000
v 0.937500 -0.000000 0.812500
v 0.937500 -0.500000 0.812500
v 1.125000 -0.000000 1.000000
v 1.125000 -0.500000 1.000000
v 1.125000 -0.500000 0.812500
v 1.125000 -0.000000 0.812500
v 1.875000 -0.000000 1.000000
v 1.000000 -0.500000 2.000000
v 1.875000 -0.000000 0.812500
v 1.875000 -0.500000 0.812500
v 2.000000 -1.000000 2.000000
v 1.000000 -1.000000 2.000000
v 2.000000 -0.000000 2.000000
v 3.000000 -0.500000 -1.000000
v 3.000000 -1.000000 -1.000000
v 1.000000 -0.000000 2.000000
v 3.000000 -1.000000 2.000000
v -2.000000 1.000000 2.000000
v -2.000000 -0.000000 2.000000
v -1.000000 -0.000000 2.000000
v -1.000000 1.000000 2.000000
v -1.000000 1.000000 1.500000
v -1.000000 -0.000000 1.500000
v -2.000000 -0.000000 1.500000
v -2.000000 1.000000 1.500000
v -1.250000 -0.000000 1.875000
v -1.250000 -0.500000 1.875000
v -1.125000 -0.500000 1.875000
v -1.125000 -0.000000 1.875000
v -1.125000 -0.000000 1.625000
v -1.125000 -0.500000 1.625000
v -1.250000 -0.500000 1.625000
v -1.250000 -0.000000 1.625000
v -1.875000 -0.000000 1.875000
v -1.875000 -0.500000 1.875000
v -1.750000 -0.500000 1.875000
v -1.750000 -0.000000 1.875000
v -1.750000 -0.000000 1.625000
v -1.750000 -0.500000 1.625000
v -1.875000 -0.500000 1.625000
v -1.875000 -0.000000 1.625000
v 0.000000 0.000000 0.000000
v 0.000000 0.187500 0.937500
v 0.000000 0.187500 0.000000
v 3.000000 -0.000000 0.062500
v -2.000000 -0.000000 0.062500
v 3.000000 -0.000000 1.000000
v 3.000000 -0.000000 0.937500
v -2.000000 0.187500 0.000000
v -2.000000 -0.000000 1.000000
v 0.000000 -0.000000 1.000000
v 0.000000 -0.000000 0.937500
v 0.000000 -0.000000 0.062500
v 0.000000 0.187500 0.062500
v 0.000000 0.187500 1.000000
v -2.000000 0.187500 1.000000
v 3.000000 0.187500 1.000000
v -2.000000 0.187500 0.062500
v 3.000000 0.187500 0.062500
v 3.000000 0.187500 0.937500
v -2.000000 0.187500 0.937500
v 3.000000 0.187500 0.000000
v -2.000000 -0.000000 0.000000
vt 0.062500 0.312500
vt 0.937500 0.312500
vt 0.062500 0.062500
vt 0.937500 0.062500
vt 0.062500 0.937500
vt 0.937500 0.937500
vt 0.406250 0.312500
vt 0.937500 0.687500
vt 0.593750 0.000000
vt 0.593750 1.000000
vt 0.593750 0.687500
vt 0.593750 0.312500
vt 0.000000 0.250000
vt 0.000000 0.187500
vt 0.625000 0.187500
vt 0.625000 0.250000
vt 0.375000 0.125000
vt 0.000000 0.125000
vt 0.000000 0.062500
vt 0.375000 0.062500
vt 1.000000 0.250000
vt 0.875000 0.250000
vt 0.875000 0.187500
vt 1.000000 0.187500
vt 0.875000 0.125000
vt 1.000000 0.125000
vt 0.375000 0.187500
vt 0.375000 0.250000
vt 0.500000 0.250000
vt 0.500000 0.187500
vt 0.000000 1.000000
vt 0.000000 0.625000
vt 0.625000 0.625000
vt 0.625000 1.000000
vt 0.937500 0.250000
vt 0.937500 0.125000
vt 0.375000 0.750000
vt 0.375000 0.625000
vt 0.500000 0.625000
vt 0.500000 0.750000
vt 0.000000 0.375000
vt 0.125000 0.187500
vt 0.125000 0.375000
vt 0.375000 1.000000
vt 0.000000 0.812500
vt 0.375000 0.812500
vt 0.523438 0.625000
vt 0.523438 0.562500
vt 0.500000 0.562500
vt 0.000000 0.500000
vt 0.375000 0.500000
vt 0.750000 0.625000
vt 0.750000 0.500000
vt 0.875000 0.500000
vt 0.875000 0.625000
vt 0.718750 0.500000
vt 0.718750 0.562500
vt 0.703125 0.562500
vt 0.703125 0.500000
vt 0.750000 0.562500
vt 0.375000 0.770833
vt 0.375000 0.479167
vt 0.583333 0.479167
vt 0.583333 0.770833
vt 0.541667 1.000000
vt 0.000000 0.833333
vt 0.541667 0.833333
vt 1.000000 0.812500
vt 1.000000 0.833333
vt 0.583333 0.500000
vt 0.947916 0.625000
vt 0.947916 0.437501
vt 0.989583 0.437501
vt 0.989583 0.625000
vt 0.885415 0.625000
vt 0.885415 0.437501
vt 0.895833 0.437501
vt 0.895833 0.625000
vt 0.937497 0.437501
vt 0.937497 0.625000
vt 0.833332 0.625000
vt 0.833332 0.437501
vt 0.843748 0.437501
vt 0.843748 0.625000
vt 0.781249 0.625000
vt 0.781249 0.437501
vt 0.791665 0.437501
vt 0.791665 0.625000
vt 0.729167 0.625000
vt 0.729167 0.437501
vt 0.739583 0.437501
vt 0.739583 0.625000
vt 0.666667 0.333333
vt 0.666667 0.104167
vt 1.000000 0.104167
vt 1.000000 0.333333
vt 0.000000 0.000000
vt 0.541667 0.000000
vt 0.541667 0.062500
vt 0.999999 0.437501
vt 0.999999 0.625000
vt 0.125000 0.520833
vt 0.125000 0.270833
vt 0.333333 0.270833
vt 0.333333 0.520833
vt 0.125000 0.062500
vt 0.333333 0.062500
vt 0.125000 0.770833
vt 0.375000 0.520833
vt 0.125000 0.416667
vt 0.000000 0.770833
vt 0.000000 0.416667
vt 0.645833 0.770833
vt 0.645833 0.270833
vt 0.583333 0.270833
vt 0.604167 0.770833
vt 0.604167 0.270833
vt 0.354167 0.833333
vt 0.354167 1.000000
vt 1.000000 1.000000
vt 0.062500 1.000000
vt 0.062500 0.833333
vt 0.270833 0.833333
vt 0.270833 1.000000
vt 0.375000 0.583333
vt 0.375000 0.291667
vt 0.583333 0.291667
vt 0.583333 0.583333
vt 0.645833 0.562500
vt 0.583333 0.562500
vt 1.000000 0.770833
vt 0.333333 0.770833
vt 0.333333 0.833333
vt 0.375000 0.229167
vt 0.583333 0.229167
vt 0.375000 0.604167
vt 0.583333 0.604167
vt 0.333333 0.812500
vt 0.020833 0.833333
vt 0.020833 0.770833
vn 0.5774 0.5774 -0.5774
vn 0.5774 -0.5773 -0.5774
vn -0.5774 -0.5774 -0.5774
vn -0.5774 0.5774 -0.5774
vn 0.5774 0.5774 0.5774
vn 0.5774 -0.5774 0.5774
vn -0.5774 -0.5774 0.5774
vn -0.5774 0.5774 0.5774
vn 0.7071 0.7071 0.0000
vn 1.0000 0.0000 0.0000
vn -0.7071 0.7071 0.0000
vn -1.0000 -0.0000 0.0000
vn -0.0000 0.0000 1.0000
vn 0.5774 -0.5774 -0.5774
vn 0.7071 -0.0000 0.7071
vn 0.7071 0.0000 -0.7071
vn -0.7071 0.0000 -0.7071
vn -0.7071 -0.0000 0.7071
vn 0.0000 0.0000 -1.0000
vn -0.0000 0.7071 -0.7071
vn -0.0000 0.7071 0.7071
vn 0.7075 0.0000 -0.7067
vn -0.7068 0.0000 -0.7074
vn -0.7070 -0.0000 0.7072
vn 0.0000 1.0000 0.0000
vn 0.7071 -0.7071 -0.0000
vn -0.7071 -0.7071 -0.0000
vn -0.0000 -0.7071 0.7071
vn 0.0000 -0.7071 -0.7071
vn -0.5774 0.5774 -0.5773
usemtl multiblock_base
f 260/25/7 261/26/8 36/27/9 37/28/10
f 260/29/7 35/30/11 263/31/12 261/32/8
f 34/32/13 33/29/14 37/30/10 36/31/9
f 200/33/15 259/34/11 152/35/16 201/36/16
f 202/34/17 203/35/18 254/36/18 262/33/14
f 202/34/17 262/37/14 259/38/11 200/33/15
f 33/25/14 34/26/13 258/39/19 254/40/19
f 152/41/19 257/42/19 263/27/12 35/28/11
f 37/43/10 33/44/14 35/45/11 260/46/7
f 34/28/13 36/45/9 261/44/8 263/25/12
f 268/34/7 269/37/20 270/38/9 271/33/10
f 271/34/10 264/35/14 267/36/11 268/33/7
f 265/36/13 270/33/9 269/34/20 266/35/12
f 268/33/7 267/47/11 266/48/12 269/38/20
f 271/34/10 270/37/9 265/48/13 264/47/14
usemtl multiblock_components
f 262/49/14 258/50/19 257/51/19 259/52/11
f 46/53/11 47/26/21 48/54/22 49/55/7
f 50/53/10 51/26/23 52/54/24 53/55/14
f 50/56/10 49/43/7 48/57/22 51/58/23
f 53/58/14 52/50/24 47/44/21 46/57/11
f 212/51/24 213/59/23 214/60/23 215/61/24
f 212/51/24 215/61/24 216/60/21 293/59/21
f 293/51/21 216/61/21 217/60/22 218/59/22
f 219/51/21 220/61/21 221/60/16 222/59/16
f 253/51/24 223/61/24 220/60/21 219/59/21
f 296/51/24 224/61/24 225/60/21 226/59/21
f 296/51/24 227/59/23 228/60/23 224/61/24
f 226/51/21 225/61/21 229/60/22 230/59/22
f 55/51/22 231/59/21 232/60/21 233/61/22
f 55/51/22 233/61/22 234/60/23 235/59/23
f 235/51/23 234/61/23 236/60/24 237/59/24
f 238/51/22 239/59/21 240/60/21 241/61/22
f 238/51/22 241/61/22 242/60/23 309/59/23
f 309/51/23 242/61/23 243/60/24 244/59/24
f 230/51/22 229/61/22 228/60/23 227/59/23
f 244/51/24 243/61/24 240/60/21 239/59/21
f 213/51/23 218/59/22 217/60/22 214/61/23
f 231/51/21 237/59/24 236/60/24 232/61/21
f 245/51/24 246/61/24 250/60/21 249/59/21
f 245/51/24 247/59/18 248/60/18 246/61/24
f 53/50/14 46/44/11 49/62/7 50/63/10
f 249/51/21 250/61/21 251/60/16 252/59/16
f 253/51/24 255/59/18 256/60/18 223/61/24
f 264/64/14 265/65/13 266/66/12 267/67/11
f 272/68/24 273/69/24 274/70/21 275/71/21
f 276/68/22 277/69/22 278/70/23 279/71/23
f 276/68/22 275/65/21 274/72/21 277/69/22
f 279/65/23 278/72/23 273/69/24 272/68/24
f 280/68/24 281/69/24 282/70/21 283/71/21
f 284/68/22 285/69/22 286/70/23 287/71/23
f 284/68/22 283/65/21 282/72/21 285/69/22
f 287/65/23 286/72/23 281/69/24 280/68/24
usemtl sawmill
f 38/73/14 39/74/19 40/75/19 41/76/11
f 42/77/25 43/43/25 44/78/25 45/79/25
f 305/80/11 308/81/7 290/78/26 300/57/27
f 303/80/11 306/81/7 289/78/26 301/57/27
f 56/73/25 57/63/25 58/82/25 59/76/25
f 60/83/23 61/84/23 62/85/24 63/86/24
f 64/87/28 65/88/22 66/89/23 67/90/29
f 67/90/29 66/89/23 68/91/24 69/92/30
f 70/92/22 71/91/22 61/84/23 60/83/23
f 72/93/22 73/94/22 74/95/23 75/96/23
f 75/96/23 74/95/23 76/88/24 77/87/24
f 78/97/22 79/98/22 80/99/23 81/100/23
f 81/100/23 80/99/23 82/94/24 83/93/24
f 84/101/22 85/102/22 86/103/23 87/104/23
f 87/104/23 86/103/23 88/98/24 89/97/24
f 90/105/18 91/106/18 92/107/18 93/108/18
f 94/105/16 95/108/16 96/107/16 97/106/16
f 98/31/31 99/109/31 100/110/31 101/111/31
f 63/86/24 62/85/24 102/112/21 103/113/21
f 104/87/21 77/90/24 76/89/24 105/88/21
f 106/92/21 69/83/30 68/84/24 107/91/21
f 108/93/21 83/96/24 82/95/24 109/94/21
f 110/97/21 89/100/24 88/99/24 111/98/21
f 70/83/22 103/86/21 102/85/21 71/84/22
f 64/90/28 106/92/21 107/91/21 65/89/22
f 72/96/22 104/87/21 105/88/21 73/95/22
f 78/100/22 108/93/21 109/94/21 79/99/22
f 84/104/22 110/97/21 111/98/21 85/103/22
f 112/83/23 113/84/23 114/85/24 115/86/24
f 116/87/22 117/88/22 118/89/23 119/90/23
f 119/90/23 118/89/23 120/91/24 121/92/24
f 122/92/22 123/91/22 113/84/23 112/83/23
f 124/96/18 125/95/18 126/88/24 127/87/24
f 128/97/22 129/98/22 130/99/23 131/100/23
f 131/100/23 130/99/23 132/94/24 133/93/24
f 134/101/22 135/102/22 136/103/23 137/104/23
f 137/104/23 136/103/23 138/98/24 139/97/24
f 115/86/24 114/85/24 140/112/21 141/113/21
f 142/87/21 127/90/24 126/89/24 143/88/21
f 144/92/21 121/83/24 120/84/24 145/91/21
f 146/93/21 133/96/24 132/95/24 147/94/21
f 148/97/21 139/100/24 138/99/24 149/98/21
f 122/83/22 141/86/21 140/85/21 123/84/22
f 116/90/22 144/92/21 145/91/21 117/89/22
f 150/96/16 142/87/21 143/88/21 151/95/16
f 128/100/22 146/93/21 147/94/21 129/99/22
f 134/104/22 148/97/21 149/98/21 135/103/22
f 153/114/14 154/115/24 155/116/21 156/117/11
f 157/115/17 153/118/14 156/119/11 158/116/15
f 158/117/15 156/114/11 155/115/21 40/116/16
f 157/114/17 39/115/18 154/116/24 153/117/14
f 159/120/14 160/114/24 161/121/21 162/73/11
f 163/120/10 159/114/14 162/121/11 164/73/7
f 164/73/7 162/120/11 161/114/21 165/121/22
f 163/120/10 166/114/23 160/121/24 159/73/14
f 163/120/10 164/73/7 165/121/22 166/114/23
f 167/122/27 168/120/27 169/123/19 170/124/19
f 171/122/26 172/120/26 168/123/27 167/124/27
f 171/122/26 173/124/25 174/123/25 172/120/26
f 56/76/15 41/125/11 175/126/16 176/127/16
f 59/76/17 177/127/18 178/126/18 38/125/14
f 179/128/15 180/76/11 181/127/21 182/129/16
f 183/129/17 184/128/18 185/76/24 186/127/14
f 180/73/11 186/76/14 185/82/24 181/63/21
f 187/43/19 188/78/19 177/130/19 189/131/19
f 190/132/25 42/43/25 45/78/25 191/81/25
f 192/133/18 193/134/18 194/135/18 195/136/18
f 196/133/16 197/136/16 198/135/16 199/134/16
f 204/43/19 205/78/19 206/81/19 207/132/19
f 208/137/32 209/138/32 210/139/33 211/140/33
f 208/141/32 180/142/15 56/127/15 209/126/32
f 211/126/33 210/141/33 59/142/17 186/127/17
f 304/81/14 292/143/13 299/144/34 300/145/27
f 302/81/14 296/143/13 297/144/34 301/145/27
f 59/138/17 38/146/14 41/147/11 56/139/15
f 186/137/17 59/138/17 56/139/15 180/140/15
f 183/148/17 186/137/14 180/140/11 179/149/15
f 293/80/12 297/57/34 298/78/35 294/81/20
f 299/150/34 292/80/13 309/81/9 288/145/35
f 307/81/36 289/145/26 298/144/35 54/143/9
f 295/81/10 290/145/26 288/144/35 309/143/9
f 297/150/34 296/80/13 54/81/9 298/145/35
f 291/80/12 299/57/34 288/78/35 55/81/20
f 289/78/26 306/81/7 294/143/20 298/123/35
f 290/78/26 308/81/7 55/143/20 288/123/35
f 301/78/27 297/123/34 293/143/12 303/81/11
f 300/78/27 299/123/34 291/143/12 305/81/11
f 303/151/11 293/152/12 294/123/20 306/78/7
f 301/150/27 289/145/26 307/81/36 302/80/14
f 302/151/14 307/78/36 54/123/9 296/152/13
f 305/151/11 291/152/12 55/123/20 308/78/7
f 300/150/27 290/145/26 295/81/10 304/80/14
f 304/151/14 295/78/10 309/123/9 292/152/13
