# Model created by BluSunrize
mtllib squeezer.mtl

o base
v -0.937499 -0.562500 -0.687500
v -0.687500 -0.000001 0.687500
v -0.937500 -0.000001 0.687500
v -0.937499 -0.562500 0.687500
v 1.875000 -0.500000 1.624998
v 1.750000 -0.500000 1.624998
v 1.749999 -0.000000 1.624999
v 1.875000 -0.000000 1.624998
v 0.125000 -0.250000 0.374999
v 1.000002 -0.250000 0.374999
v 1.000002 -0.502500 0.374999
v 0.125000 -0.500000 0.374999
v -1.000000 1.000000 2.000000
v 0.687501 -0.000001 0.687500
v 1.749999 -0.500000 1.874998
v 1.750000 -0.000000 1.874999
v 0.687501 -0.562500 0.687500
v -0.937499 -0.562500 0.937500
v -1.000001 -0.500002 2.000002
v 0.937501 -0.562500 0.687500
v 1.250000 -0.500000 1.874998
v 1.250000 -0.000000 1.874998
v 1.125000 -0.000000 1.874998
v 1.125000 -0.500000 1.874998
v -0.125000 -0.250000 0.125000
v 0.125000 -0.250000 0.125000
v 0.125000 -0.000001 0.125000
v -0.125000 -0.000001 0.125000
v -0.125000 -0.250000 0.625001
v 0.125000 -0.250000 0.625001
v 1.000002 -0.250000 0.625000
v 0.125000 -0.500000 0.625001
v 1.000002 -0.500000 0.625001
v -0.125000 -0.500000 0.625001
v 2.000001 -0.000002 -0.000000
v 1.250000 -0.500000 1.624998
v 1.125000 -0.500000 1.624998
v 1.125000 -0.000000 1.624998
v 1.250000 -0.000000 1.624998
v 0.125000 -0.250000 -0.125001
v 0.125000 -0.000001 -0.125001
v -0.125000 -0.250000 -0.125001
v -0.125000 0.000000 -0.125001
v -0.125000 -0.500000 -0.125001
v 0.125000 -0.500001 -0.125001
v 1.875000 -0.500000 1.874998
v 1.874999 -0.000000 1.874999
v 0.937501 -0.000001 0.687500
v 0.687501 -0.000001 0.937500
v -0.000001 -0.500002 2.000002
v 0.000000 1.000000 2.000000
v -1.000000 0.999999 1.000000
v -1.000001 -0.500002 1.000001
v 1.000000 1.000000 1.999998
v -1.000000 -0.499999 -0.999994
v 2.000000 -0.500000 1.999998
v 1.999998 -1.000000 1.999999
v 1.999997 -1.000004 -0.999996
v -1.000003 -1.000003 -1.000000
v -1.000003 -1.000002 1.999995
v 0.000000 -0.500004 1.000001
v 1.999999 1.000000 1.999998
v 2.000000 1.000000 1.499998
v 1.000000 1.000000 1.499998
v 1.000000 -0.000000 1.499998
v 1.000000 -0.000000 1.999998
v 1.999999 -0.000000 1.999998
v 2.000000 -0.000000 1.499998
v 2.000001 -0.500003 -0.000000
v 0.000001 0.999998 1.000000
v 2.000000 -0.500002 1.000001
v 1.000002 -0.500002 1.000001
v 1.000002 -0.000002 0.000001
v 0.999997 1.062499 0.625001
v 0.999997 0.812499 0.625001
v 0.999996 0.812499 0.375001
v 0.999997 1.062499 0.375001
v 0.999997 0.750000 0.750001
v 0.999997 0.250001 0.750001
v 0.999996 0.250000 0.250000
v 0.999997 0.749999 0.250001
v 0.937496 0.250000 0.250000
v 0.937497 0.749999 0.250001
v 0.937497 0.250001 0.750001
v 0.937497 0.750000 0.750001
v 0.937496 0.812499 0.375001
v 0.937497 1.062499 0.375001
v 0.937497 0.812499 0.625001
v 0.937497 1.062499 0.625001
v -0.999997 1.062499 -0.374999
v -0.999997 1.062499 -0.625000
v -0.999996 0.812500 -0.625000
v -0.999997 0.812500 -0.374999
v -0.999997 0.750000 -0.250000
v -0.999997 0.750000 -0.749999
v -0.999996 0.250000 -0.750000
v -0.999997 0.250001 -0.249999
v -0.937496 0.250000 -0.750000
v -0.937497 0.750000 -0.749999
v -0.937497 0.250001 -0.249999
v -0.937497 0.750000 -0.249999
v -0.937496 0.812500 -0.625000
v -0.937497 1.062499 -0.625000
v -0.937497 0.812500 -0.374999
v -0.937497 1.062499 -0.374999
v -0.625000 1.062498 -1.000000
v -0.375000 1.062499 -1.000000
v -0.375000 0.812499 -1.000000
v -0.625000 0.812499 -1.000000
v -0.750000 0.749999 -1.000000
v -0.250000 0.749999 -1.000000
v -0.250000 0.250000 -1.000000
v -0.750000 0.250000 -1.000000
v -0.250000 0.250000 -0.937500
v -0.250000 0.749999 -0.937500
v -0.750000 0.250000 -0.937500
v -0.750000 0.749999 -0.937500
v -0.375000 0.812499 -0.937500
v -0.375000 1.062499 -0.937500
v -0.625000 0.812499 -0.937500
v -0.625000 1.062498 -0.937500
v 1.000002 -0.000002 1.000001
v 1.000002 -0.500002 0.000001
v 2.000000 -0.500000 -0.999997
v 0.937501 -0.000001 0.937500
v -0.687499 -0.562500 0.687500
v 0.937501 -0.562500 0.937500
v -0.937500 -0.000001 0.937500
v -0.687500 -0.000001 0.937500
v -0.687499 -0.562500 0.937500
v 0.687501 -0.562500 0.937500
v -0.687499 -0.562500 -0.687500
v -0.687500 -0.000001 -0.687500
v -0.937500 0.000000 -0.687500
v -0.687499 -0.562500 -0.937500
v -0.937499 -0.562500 -0.937500
v -0.937500 -0.000001 -0.937500
v -0.687500 -0.000001 -0.937500
v 0.687501 -0.562500 -0.937500
v 0.687501 -0.562500 -0.687500
v 0.687501 0.000000 -0.687500
v 0.687501 -0.000001 -0.937500
v 0.937501 -0.562500 -0.687500
v 0.937501 -0.000001 -0.687500
v 0.937501 -0.562500 -0.937500
v 0.937500 -0.000001 -0.937500
v -1.000000 0.125001 1.000005
v 1.000000 0.125002 1.000006
v 1.000000 0.124999 -0.999994
v -1.000000 0.125000 -0.999994
v -1.000000 0.000001 1.000005
v -1.000000 0.000000 -0.999994
v 1.000000 -0.000001 -0.999994
v 1.000000 0.000002 1.000006
v 2.000001 -0.000003 1.000001
v -0.250000 1.374999 0.250000
v -0.250000 1.874999 0.250000
v -0.250000 1.874999 -0.250000
v -0.250000 1.374999 -0.250000
v 0.937502 1.125000 0.937500
v -0.937498 1.125000 0.937500
v -0.937498 0.125000 0.937500
v 0.937502 0.124999 0.937500
v -0.937498 1.124999 -0.937500
v -0.937498 0.125000 -0.937500
v 0.937502 1.124999 -0.937500
v 0.937502 0.124999 -0.937500
v -0.812500 1.124999 -0.812500
v 0.812500 1.124999 -0.812500
v 0.812500 1.124999 0.812500
v -0.812500 1.124999 0.812500
v 0.812502 0.124999 -0.812500
v 0.812502 0.124999 0.812500
v -0.812498 0.125000 0.812500
v -0.812498 0.125000 -0.812500
v -1.000000 0.125000 -1.000000
v -1.000000 0.124999 1.000000
v 1.000000 1.078125 0.999999
v 1.000000 0.124999 1.000001
v 1.000000 0.124999 0.906250
v 1.000000 1.125000 0.906249
v 0.906249 1.125000 0.999999
v 0.906250 0.124999 1.000000
v 0.156250 1.874999 0.250000
v 0.156250 1.624999 0.250000
v 0.843747 0.937500 0.937501
v 0.843746 1.187500 0.937502
v 0.843750 0.124999 0.937498
v 0.250000 1.578124 0.250000
v 0.812500 1.015624 0.812500
v 0.250000 1.874999 0.156250
v 0.937497 1.187500 0.843752
v 0.937497 0.937500 0.843751
v 0.250000 1.624999 0.156250
v 0.250000 1.828124 0.250000
v 0.937500 0.124999 0.843749
v -0.999999 1.125000 0.906249
v -0.999999 1.078125 0.999999
v -0.250000 1.828124 0.250000
v -0.250000 1.874999 0.156250
v -0.906250 0.124999 1.000000
v -0.843748 0.124999 0.937499
v -0.843751 1.187500 0.937497
v -0.906249 1.125000 1.000000
v -0.156250 1.874999 0.250000
v -0.843751 0.937500 0.937497
v -0.156250 1.624999 0.250000
v -1.000000 0.124999 0.906250
v -0.937501 1.187500 0.843746
v -0.937498 0.124999 0.843750
v -0.250000 1.624999 0.156250
v -0.937501 0.937500 0.843747
v 0.999998 1.125000 -0.906249
v 0.999998 1.078124 -1.000000
v 0.250001 1.828123 -0.250000
v 0.250000 1.874998 -0.156250
v -0.156250 1.874998 -0.250000
v -0.156250 1.624998 -0.250001
v -0.843747 0.937500 -0.937501
v -0.843747 1.187500 -0.937502
v -0.906250 0.124999 -1.000000
v -0.906250 1.125000 -0.999999
v -0.843750 0.124999 -0.937498
v -0.250000 1.578123 -0.250001
v -0.812499 1.015624 -0.812500
v -0.250000 1.874998 -0.156250
v -0.937497 1.187500 -0.843751
v -0.937497 0.937500 -0.843751
v -0.250000 1.624998 -0.156251
v -1.000000 1.125000 -0.906249
v -0.250000 1.828123 -0.250001
v -0.999999 1.078124 -0.999999
v -1.000000 0.124999 -0.906250
v -0.937499 0.124999 -0.843749
v -0.124999 1.749999 0.312500
v -0.124999 1.250000 0.312500
v -0.124999 1.218750 0.437500
v -0.124999 1.718748 0.437500
v -0.124999 1.624999 0.312500
v 0.000001 1.624999 0.312500
v 0.000001 1.250000 0.312500
v -0.124999 1.250000 0.812502
v -0.124999 1.343750 0.437500
v -0.124999 1.124999 0.812502
v -0.124999 1.749999 0.250000
v 0.000001 1.749999 0.312500
v 0.000001 1.749999 0.250000
v -0.124999 1.624999 0.250000
v 0.000001 1.624999 0.250000
v 0.000001 1.218750 0.437500
v 0.000001 1.718748 0.437500
v 0.000001 1.124999 0.812502
v 0.156250 1.624998 -0.250000
v 0.843751 0.937500 -0.937497
v 0.812500 1.015624 -0.812500
v 0.250000 1.578123 -0.250000
v 0.906250 0.124999 -1.000000
v 0.843748 0.124999 -0.937500
v 0.843751 1.187500 -0.937497
v 0.906249 1.125000 -1.000000
v 0.156251 1.874998 -0.250000
v 1.000001 0.124999 -1.000000
v 0.250000 1.624998 -0.156250
v 0.937501 0.937500 -0.843747
v 1.000000 0.124999 -0.906250
v 0.937501 1.187500 -0.843747
v 0.937498 0.124999 -0.843750
v 0.250000 1.374999 -0.250000
v 0.250000 1.374999 0.250000
v -0.187500 1.937499 0.187500
v -0.187500 1.937499 -0.187500
v 0.250000 1.874999 0.250000
v 0.187500 1.937499 0.187500
v 0.250000 1.874999 -0.250000
v -0.812500 1.015624 0.812499
v -0.250000 1.578124 0.250000
v 0.187500 1.937499 -0.187500
v 0.000001 1.343750 0.437500
v 0.000001 1.250000 0.812502
v -0.125000 0.999998 1.000000
v -0.124999 0.999998 0.937500
v -0.124999 0.624998 0.937500
v -0.124999 0.624998 1.000000
v -0.124999 1.250000 0.937500
v -0.124999 1.218750 1.062500
v 0.000001 1.218750 1.062500
v 0.000001 1.250000 0.937500
v -0.124999 0.999998 1.062500
v 0.000001 0.999998 1.062500
v 0.000001 0.624998 0.937500
v 0.000001 0.624998 1.000000
v 0.000001 0.999998 0.937500
v 0.000001 1.125000 0.937500
v -0.124999 1.125000 0.937500
vt 0.000000 0.000000
vt 0.000000 0.166666
vt 0.166666 0.166666
vt 0.166666 0.000000
vt 1.000000 0.333333
vt 0.375000 0.333333
vt 0.375000 0.000000
vt 1.000000 0.000000
vt 0.958333 0.375000
vt 0.416667 0.375000
vt 0.958333 0.000000
vt 0.958333 0.333333
vt 0.416667 0.333333
vt 0.416667 0.000000
vt 0.010416 0.588542
vt 0.010416 0.270834
vt 0.041666 0.270834
vt 0.041666 0.604166
vt 0.427084 0.625000
vt 0.427084 0.541666
vt 0.104166 0.312500
vt 0.104166 0.395834
vt 0.062500 0.625000
vt 0.062500 0.270834
vt 0.062500 0.614584
vt 0.083334 0.593750
vt 0.083334 0.323958
vt 0.062500 0.287500
vt 0.104166 0.260416
vt 0.104166 0.614584
vt 0.083334 0.239584
vt 0.104166 0.287500
vt 0.062500 0.260416
vt 0.125000 0.843750
vt 0.125000 0.677084
vt 0.083334 0.666666
vt 0.083334 0.833334
vt 0.000000 0.833334
vt 0.000000 0.958334
vt 0.041666 0.958334
vt 0.041666 0.833334
vt 0.041666 0.708334
vt 0.083334 0.708334
vt 0.041666 0.854166
vt 0.083334 0.854166
vt 0.000000 1.000000
vt 0.041666 1.000000
vt 0.000000 0.708334
vt 0.333334 0.187500
vt 0.333334 0.354166
vt 0.166666 0.354166
vt 0.166666 0.187500
vt 0.020834 0.187500
vt 0.145834 0.187500
vt 0.333334 0.166666
vt 0.312500 0.187500
vt 0.187500 0.187500
vt 0.333334 0.000000
vt 0.104167 0.875000
vt 0.229167 0.875000
vt 0.229167 1.000000
vt 0.104167 1.000000
vt 0.020834 0.937500
vt 0.041666 0.937500
vt 0.041666 0.812500
vt 0.020834 0.812500
vt 0.072916 0.875000
vt 0.072916 0.854166
vt 0.114584 0.854166
vt 0.114584 0.875000
vt 0.000000 0.854166
vt 0.041666 0.927084
vt 0.000000 0.927084
vt 0.020834 0.895834
vt 0.041666 0.895834
vt 0.041666 0.666666
vt 0.125000 0.854166
vt 0.125000 0.770834
vt 0.083334 0.770834
vt 0.083334 0.843750
vt 0.000000 0.666666
vt 0.500000 0.648438
vt 0.531250 0.648438
vt 0.531250 0.734375
vt 0.500000 0.734375
vt 0.718750 0.562500
vt 0.703125 0.562500
vt 0.703125 0.500000
vt 0.718750 0.500000
vt 0.671875 0.578125
vt 0.671875 0.468750
vt 0.703125 0.468750
vt 0.703125 0.578125
vt 0.750000 0.500000
vt 0.750000 0.562500
vt 0.671875 0.546875
vt 0.703125 0.546875
vt 0.671875 0.515625
vt 0.640625 0.515625
vt 0.640625 0.578125
vt 0.640625 0.484375
vt 0.671875 0.484375
vt 0.703125 0.531250
vt 0.671875 0.531250
vt 0.375000 0.187500
vt 0.500000 0.187500
vt 0.500000 0.375000
vt 0.375000 0.375000
vt 0.875000 0.500000
vt 0.875000 0.625000
vt 0.750000 0.625000
vt 0.437500 0.617188
vt 0.437500 0.585938
vt 0.468750 0.585938
vt 0.468750 0.617188
vt 0.382812 0.570312
vt 0.382812 0.507812
vt 0.445312 0.507812
vt 0.445312 0.570312
vt 0.453125 0.507812
vt 0.453125 0.570312
vt 0.382812 0.500000
vt 0.445312 0.500000
vt 0.375000 0.570312
vt 0.375000 0.507812
vt 0.445312 0.578125
vt 0.382812 0.578125
vt 0.476562 0.585938
vt 0.476562 0.617188
vt 0.437500 0.578125
vt 0.468750 0.578125
vt 0.429688 0.617188
vt 0.429688 0.585938
vt 0.468750 0.625000
vt 0.437500 0.625000
vt 0.390625 0.617188
vt 0.421875 0.617188
vt 0.421875 0.585938
vt 0.390625 0.585938
vt 0.390625 0.578125
vt 0.421875 0.578125
vt 0.382812 0.617188
vt 0.382812 0.585938
vt 0.421875 0.625000
vt 0.390625 0.625000
vt 0.000000 0.375000
vt 0.000000 0.187500
vt 0.125000 0.187500
vt 0.125000 0.375000
vt 0.000000 0.500000
vt 0.125000 0.500000
vt 0.250000 0.187500
vt 0.250000 0.375000
vt 0.500000 1.000000
vt 0.500000 0.750000
vt 0.750000 0.750000
vt 0.750000 1.000000
vt 0.750000 0.734375
vt 0.500000 0.687500
vt 0.375000 0.687500
vt 0.375000 0.750000
vt 0.375000 0.125000
vt 0.000000 0.125000
vt 0.000000 0.062500
vt 0.375000 0.062500
vt 0.875000 0.250000
vt 0.875000 0.187500
vt 1.000000 0.187500
vt 1.000000 0.250000
vt 1.000000 0.625000
vt 0.625000 0.625000
vt 0.625000 0.250000
vt 1.000000 0.125000
vt 0.875000 0.125000
vt 1.000000 1.000000
vt 0.625000 1.000000
vn -1.0000 0.0000 0.0000
vn 0.0000 -0.0000 1.0000
vn 1.0000 0.0000 0.0000
vn 0.0000 0.0000 -1.0000
vn 0.0000 1.0000 -0.0000
vn -0.7071 -0.0000 0.7071
vn -0.4082 -0.8165 -0.4083
vn 0.7071 0.0000 -0.7071
vn 0.4082 0.8165 0.4082
vn -0.4082 -0.8165 -0.4082
vn 0.4082 0.8165 0.4083
vn -0.4082 0.8165 0.4082
vn 0.7071 0.0000 0.7071
vn -0.4083 0.8165 0.4082
vn -0.7071 -0.0000 -0.7071
vn 0.4082 0.8165 -0.4082
vn 0.4083 -0.8165 0.4082
vn -0.4082 0.8165 -0.4083
vn 0.4082 -0.8165 0.4083
vn -0.4083 0.8165 -0.4082
vn 0.0000 -1.0000 0.0000
vn 0.0000 -0.9701 -0.2425
vn -0.4082 -0.8165 0.4082
vn 0.4083 0.8165 -0.4082
vn -0.7071 0.7071 0.0000
vn 0.0000 0.7071 0.7071
vn 0.4083 -0.8165 -0.4082
vn 0.4082 -0.8165 -0.4083
vn 0.7071 0.7071 0.0000
vn 0.0000 0.7071 -0.7071
vn 0.0000 0.9701 0.2425
usemtl squeezer
f 156/1/1 157/2/1 158/3/1 159/4/1
f 160/5/2 161/6/2 162/7/2 163/8/2
f 161/5/1 164/6/1 165/7/1 162/8/1
f 166/5/3 160/6/3 163/7/3 167/8/3
f 164/5/4 166/6/4 167/7/4 165/8/4
f 164/5/5 168/9/5 169/10/5 166/6/5
f 161/6/5 160/5/5 170/9/5 171/10/5
f 164/6/5 161/5/5 171/9/5 168/10/5
f 166/5/5 169/9/5 170/10/5 160/6/5
f 169/11/1 172/12/1 173/13/1 170/14/1
f 171/11/3 174/12/3 175/13/3 168/14/3
f 170/11/4 173/12/4 174/13/4 171/14/4
f 168/11/2 175/12/2 172/13/2 169/14/2
f 178/15/3 179/16/3 180/17/3 181/18/3
f 178/15/2 182/18/2 183/17/2 179/16/2
f 184/19/6 185/20/6 186/21/6 187/22/6
f 183/17/6 182/18/6 187/23/6 188/24/6
f 185/25/7 189/26/7 190/27/7 186/28/7
f 191/19/8 192/22/8 193/21/8 194/20/8
f 181/29/9 191/30/9 195/26/9 178/31/9
f 180/17/8 196/24/8 192/23/8 181/18/8
f 194/30/10 193/32/10 190/27/10 189/26/10
f 182/33/11 178/31/11 195/26/11 184/25/11
f 197/33/12 198/31/12 199/26/12 200/25/12
f 201/17/13 202/24/13 203/23/13 204/18/13
f 204/29/14 205/30/14 199/26/14 198/31/14
f 205/19/13 203/22/13 206/21/13 207/20/13
f 208/17/15 197/18/15 209/23/15 210/24/15
f 200/19/15 211/20/15 212/21/15 209/22/15
f 213/33/16 214/31/16 215/26/16 216/25/16
f 217/19/8 218/20/8 219/21/8 220/22/8
f 221/17/8 222/18/8 220/23/8 223/24/8
f 218/25/17 224/26/17 225/27/17 219/28/17
f 226/19/6 227/22/6 228/21/6 229/20/6
f 230/29/18 226/30/18 231/26/18 232/31/18
f 233/17/6 234/24/6 227/23/6 230/18/6
f 229/30/19 228/32/19 225/27/19 224/26/19
f 222/33/20 232/31/20 231/26/20 217/25/20
f 235/34/1 236/35/1 237/36/1 238/37/1
f 236/38/4 239/39/4 240/40/4 241/41/4
f 242/42/1 243/41/1 237/37/1 244/43/1
f 245/41/5 235/44/5 246/45/5 247/37/5
f 248/41/21 249/37/21 240/45/21 239/44/21
f 236/46/22 241/47/22 250/40/22 237/39/22
f 246/34/3 251/37/3 250/36/3 241/35/3
f 244/48/22 237/38/22 250/41/22 252/42/22
f 253/30/23 254/32/23 255/27/23 256/26/23
f 257/17/15 258/24/15 259/23/15 260/18/15
f 260/29/24 261/30/24 215/26/24 214/31/24
f 261/19/15 259/22/15 254/21/15 253/20/15
f 263/25/23 256/26/23 255/27/23 264/28/23
f 265/17/13 213/18/13 266/23/13 267/24/13
f 216/19/13 263/20/13 264/21/13 266/22/13
f 214/15/3 213/18/3 265/17/3 262/16/3
f 214/15/4 262/16/4 257/17/4 260/18/4
f 156/49/21 159/50/21 268/51/21 269/52/21
f 157/2/25 270/53/25 271/54/25 158/3/25
f 157/3/26 272/55/26 273/56/26 270/57/26
f 269/1/3 268/4/3 274/3/3 272/2/3
f 156/4/2 269/58/2 272/55/2 157/3/2
f 207/30/27 206/32/27 275/27/27 276/26/27
f 211/25/28 276/26/28 275/27/28 212/28/28
f 198/15/1 197/18/1 208/17/1 177/16/1
f 198/15/2 177/16/2 201/17/2 204/18/2
f 232/15/1 176/16/1 233/17/1 230/18/1
f 232/15/4 222/18/4 221/17/4 176/16/4
f 273/59/5 277/60/5 271/61/5 270/62/5
f 272/2/29 274/3/29 277/54/29 273/53/29
f 159/1/4 158/2/4 274/3/4 268/4/4
f 158/2/30 271/53/30 277/54/30 274/3/30
f 243/38/2 278/41/2 251/40/2 238/39/2
f 242/48/31 279/42/31 278/41/31 243/38/31
f 235/46/31 238/39/31 251/40/31 246/47/31
f 279/42/3 252/43/3 250/37/3 278/41/3
f 280/63/1 281/64/1 282/65/1 283/66/1
f 247/67/3 246/68/3 240/69/3 249/70/3
f 284/46/31 285/39/31 286/40/31 287/47/31
f 245/67/1 248/70/1 239/69/1 235/68/1
f 288/71/2 289/44/2 286/72/2 285/73/2
f 283/64/21 282/63/21 290/74/21 291/75/21
f 70/63/3 291/66/3 290/65/3 292/64/3
f 252/43/3 279/42/3 287/76/3 293/36/3
f 284/77/1 281/78/1 288/79/1 285/80/1
f 287/77/3 286/80/3 289/79/3 292/78/3
f 279/42/5 242/48/5 284/81/5 287/76/5
f 244/43/1 294/36/1 284/76/1 242/42/1
usemtl multiblock_components
f 1/82/2 132/83/2 133/84/2 134/85/2
f 5/86/4 6/87/4 7/88/4 8/89/4
f 9/90/4 10/91/4 11/92/4 12/93/4
f 126/83/3 2/84/3 129/85/3 130/82/3
f 15/94/1 16/95/1 7/86/1 6/89/1
f 4/82/1 18/83/1 128/84/1 3/85/1
f 21/87/2 22/88/2 23/89/2 24/86/2
f 25/93/2 26/90/2 27/96/2 28/97/2
f 26/98/5 25/99/5 29/100/5 30/90/5
f 10/92/5 9/93/5 30/90/5 31/91/5
f 31/90/2 30/91/2 32/92/2 33/93/2
f 32/93/2 30/90/2 29/96/2 34/97/2
f 36/88/4 37/89/4 38/86/4 39/87/4
f 24/94/1 23/95/1 38/86/1 37/89/1
f 40/90/3 41/96/3 27/97/3 26/93/3
f 42/96/1 25/97/1 28/93/1 43/90/1
f 34/101/1 29/102/1 42/90/1 44/100/1
f 43/103/4 41/104/4 45/91/4 44/92/4
f 9/98/3 12/99/3 45/100/3 40/90/3
f 21/95/3 36/86/3 39/89/3 22/94/3
f 46/89/3 5/94/3 8/95/3 47/86/3
f 126/82/4 4/83/4 3/84/4 2/85/4
f 131/82/2 127/83/2 125/84/2 49/85/2
f 17/82/1 131/83/1 49/84/1 14/85/1
f 19/105/2 50/106/2 51/107/2 13/108/2
f 46/89/2 47/86/2 16/87/2 15/88/2
f 67/94/2 62/109/2 54/110/2 66/111/2
f 74/112/3 75/113/3 76/114/3 77/115/3
f 78/116/3 79/117/3 80/118/3 81/119/3
f 82/120/4 83/121/4 81/119/4 80/118/4
f 84/122/21 82/123/21 80/118/21 79/117/21
f 85/124/2 84/125/2 79/117/2 78/116/2
f 83/126/5 85/127/5 78/116/5 81/119/5
f 86/128/4 87/129/4 77/115/4 76/114/4
f 88/130/21 86/131/21 76/114/21 75/113/21
f 89/132/2 88/133/2 75/113/2 74/112/2
f 87/134/5 89/135/5 74/112/5 77/115/5
f 90/136/1 91/137/1 92/138/1 93/139/1
f 94/116/1 95/119/1 96/118/1 97/117/1
f 98/120/4 96/118/4 95/119/4 99/121/4
f 100/122/21 97/117/21 96/118/21 98/123/21
f 101/124/2 94/116/2 97/117/2 100/125/2
f 99/126/5 95/119/5 94/116/5 101/127/5
f 102/133/4 92/138/4 91/137/4 103/132/4
f 104/140/21 93/139/21 92/138/21 102/141/21
f 105/142/2 90/136/2 93/139/2 104/143/2
f 103/144/5 91/137/5 90/136/5 105/145/5
f 106/136/4 107/137/4 108/138/4 109/139/4
f 110/116/4 111/119/4 112/118/4 113/117/4
f 114/120/3 112/118/3 111/119/3 115/121/3
f 116/122/21 113/117/21 112/118/21 114/123/21
f 117/124/1 110/116/1 113/117/1 116/125/1
f 115/126/5 111/119/5 110/116/5 117/127/5
f 118/133/3 108/138/3 107/137/3 119/132/3
f 120/140/21 109/139/21 108/138/21 118/141/21
f 121/142/1 106/136/1 109/139/1 120/143/1
f 119/144/5 107/137/5 106/136/5 121/145/5
f 70/146/4 61/147/4 53/148/4 52/149/4
f 51/146/3 50/147/3 61/148/3 70/149/3
f 18/82/2 130/83/2 129/84/2 128/85/2
f 20/83/3 48/84/3 125/85/3 127/82/3
f 52/150/5 13/146/5 51/149/5 70/151/5
f 52/149/1 53/148/1 19/152/1 13/153/1
f 20/82/4 17/83/4 14/84/4 48/85/4
f 135/82/4 136/83/4 137/84/4 138/85/4
f 136/82/1 1/83/1 134/84/1 137/85/1
f 135/83/3 138/84/3 133/85/3 132/82/3
f 139/82/1 140/83/1 141/84/1 142/85/1
f 140/82/2 143/83/2 144/84/2 141/85/2
f 145/83/3 146/84/3 144/85/3 143/82/3
f 145/82/4 139/83/4 142/84/4 146/85/4
f 147/154/5 148/155/5 149/156/5 150/157/5
f 151/154/21 152/157/21 153/156/21 154/155/21
f 149/85/3 148/158/3 154/156/3 153/155/3
f 148/156/2 147/155/2 151/85/2 154/158/2
f 147/85/1 150/158/1 152/156/1 151/155/1
f 150/85/4 149/158/4 153/156/4 152/155/4
f 155/155/3 71/159/3 69/160/3 35/161/3
usemtl multiblock_base
f 19/162/1 55/163/1 59/164/1 60/165/1
f 55/162/4 124/163/4 58/164/4 59/165/4
f 56/162/2 19/163/2 60/164/2 57/165/2
f 56/165/3 57/7/3 58/1/3 124/164/3
f 73/166/1 123/167/1 72/168/1 122/169/1
f 59/170/21 58/171/21 57/172/21 60/169/21
f 66/167/1 54/168/1 64/173/1 65/174/1
f 63/169/5 64/166/5 54/167/5 62/168/5
f 68/166/3 63/169/3 62/168/3 67/167/3
f 65/173/4 64/169/4 63/166/4 68/174/4
f 68/166/21 67/167/21 66/168/21 65/169/21
f 35/166/4 69/167/4 123/168/4 73/169/4
f 122/174/5 155/173/5 35/169/5 73/166/5
f 122/166/2 72/167/2 71/168/2 155/169/2
f 124/175/5 55/176/5 19/171/5 56/170/5
