# Model created by BluSunrize
mtllib circuit_table.mtl

o desk
v 0.062501 0.812500 0.937500
v 0.062501 0.000001 0.937500
v 0.000001 1.000000 1.000000
v 0.000001 1.000000 0.000000
v 0.000001 0.812500 0.000000
v 0.000001 0.812500 1.000000
v 2.000000 1.000000 0.000000
v 2.000000 0.812500 0.000000
v 2.000000 0.812500 1.000000
v 2.000000 1.000000 1.000000
v 1.875000 1.312500 0.375000
v 1.500000 1.312500 0.375000
v 1.500000 1.125000 0.500000
v 1.500000 1.000000 0.500000
v 1.500000 1.312500 0.125000
v 1.875000 1.125000 0.500000
v 1.500000 1.000000 0.125000
v 1.500000 1.125000 0.125000
v 0.375001 1.031250 0.937500
v 1.375000 0.968750 0.062500
v 0.375001 0.968750 0.937500
v 0.375001 1.031250 0.062500
v 1.375000 1.031250 0.062500
v 1.375000 1.031250 0.937500
v 1.375000 0.968750 0.937500
v 0.375001 0.968750 0.062500
v 1.875000 1.312500 0.125000
v 1.875000 1.000000 0.500000
v 1.875000 1.000000 0.125000
v 1.875000 1.125000 0.125000
v 1.718750 1.220753 0.359081
v 1.718750 1.168750 0.393750
v 1.781250 1.220753 0.359081
v 1.781250 1.359428 0.567094
v 1.718750 1.359428 0.567094
v 1.781250 1.307425 0.601763
v 1.718750 1.307425 0.601763
v 1.781250 1.168750 0.393750
v 1.703125 1.372429 0.558427
v 1.703125 1.294424 0.610430
v 1.796875 1.372429 0.558427
v 1.796875 1.407098 0.610430
v 1.703125 1.407098 0.610430
v 1.796875 1.329093 0.662433
v 1.703125 1.329093 0.662433
v 1.796875 1.294424 0.610430
v 1.718750 1.394097 0.619097
v 1.718750 1.342094 0.653766
v 1.781250 1.394097 0.619097
v 1.781250 1.342094 0.653766
v 1.781250 1.463434 0.723104
v 1.718750 1.463434 0.723104
v 1.781250 1.411431 0.757772
v 1.718750 1.411431 0.757772
v 1.531250 1.294925 0.451416
v 1.531250 1.260256 0.399413
v 1.531250 1.156250 0.468750
v 1.531250 1.190918 0.520753
v 1.656250 1.260256 0.399413
v 1.656250 1.294925 0.451416
v 1.656250 1.190918 0.520753
v 1.656250 1.156250 0.468750
v 1.750000 0.000001 0.250000
v 1.750000 0.812500 0.875000
v 1.750000 0.000001 0.000000
v 1.750000 0.000001 0.062500
v 1.750000 0.812500 0.062500
v 1.750000 0.812500 0.250000
v 1.937500 0.000001 0.937500
v 1.937500 0.812500 0.937500
v 1.250000 0.812500 0.000000
v 1.250000 0.000001 0.000000
v 1.937500 0.000001 0.750000
v 1.750000 0.812500 0.000000
v 1.250000 0.812500 0.875000
v 1.250000 0.000001 0.875000
v 1.750000 0.000001 0.875000
v 1.937500 0.812500 0.750000
v 1.750000 0.000001 0.937500
v 1.750000 0.000001 0.750000
v 1.750000 0.812500 0.750000
v 1.750000 0.812500 0.937500
v 1.937500 0.812500 0.062500
v 1.937500 0.000001 0.062500
v 1.937500 0.812500 0.250000
v 1.937500 0.000001 0.250000
v 0.250001 0.687500 1.000000
v 0.250001 0.687500 0.937500
v 0.250001 0.562500 0.937500
v 0.250001 0.562500 1.000000
v 0.375001 0.687500 0.937500
v 0.375001 0.687500 1.000000
v 0.375001 0.562500 1.000000
v 0.375001 0.562500 0.937500
v 0.250001 0.312500 1.000000
v 0.250001 0.312500 0.937500
v 0.250001 0.187500 0.937500
v 0.250001 0.187500 1.000000
v 0.375001 0.312500 0.937500
v 0.375001 0.312500 1.000000
v 0.375001 0.187500 1.000000
v 0.375001 0.187500 0.937500
v 0.562501 0.812500 0.937500
v 0.062501 0.812500 0.062500
v 0.562501 0.000001 0.937500
v 0.062501 0.000001 0.062500
v 0.562501 0.812500 0.062500
v 0.562501 0.000001 0.062500
vt 0.166667 0.312500
vt 0.166667 0.041667
vt 0.458333 0.041667
vt 0.458333 0.312500
vt 0.625000 0.312500
vt 0.625000 0.041667
vt 0.000000 0.312500
vt 0.000000 0.041667
vt 0.958333 0.291667
vt 0.958333 0.583333
vt 0.791667 0.583333
vt 0.791667 0.291667
vt 0.000000 0.604167
vt 0.333333 0.604167
vt 0.333333 0.666667
vt 0.000000 0.666667
vt 0.666667 0.604167
vt 0.666667 0.666667
vt 0.000000 1.000000
vt 0.666667 1.000000
vt 0.854167 0.708333
vt 0.854167 0.791667
vt 0.729167 0.791667
vt 0.729167 0.708333
vt 0.854167 0.625000
vt 0.729167 0.625000
vt 0.729167 0.583333
vt 0.854167 0.583333
vt 0.854167 0.937500
vt 0.854167 0.895833
vt 0.729167 0.895833
vt 0.729167 0.937500
vt 0.916667 1.000000
vt 0.833333 1.000000
vt 0.833333 0.979167
vt 0.916667 0.979167
vt 0.812500 1.000000
vt 0.729167 1.000000
vt 0.854167 0.697917
vt 0.729167 0.697917
vt 0.958333 -0.000000
vt 0.625000 0.291667
vt 0.625000 -0.000000
vt 0.937500 0.291667
vt 0.937500 -0.000000
vt 0.645833 -0.000000
vt 0.645833 0.291667
vt 0.625000 0.270833
vt 0.958333 0.270833
vt 0.958333 0.020833
vt 0.625000 0.020833
vt 0.895833 0.937500
vt 0.895833 0.958333
vt 0.854167 0.958333
vt 0.875000 0.895833
vt 0.875000 0.937500
vt 0.895833 0.895833
vt 0.895833 0.979167
vt 0.854167 0.979167
vt 0.875000 0.916667
vt 0.895833 0.916667
vt 0.895833 0.833333
vt 0.895833 0.854167
vt 0.854167 0.854167
vt 0.854167 0.833333
vt 0.291667 0.583333
vt 0.000000 0.583333
vt 0.291667 0.312500
vt 0.458333 0.583333
vt 0.625000 0.583333
vt 0.666667 0.729167
vt 0.729167 0.729167
vt 0.729167 0.666667
vt 0.062500 0.041667
vt 0.041667 0.041667
vt 0.041667 -0.000000
vt 0.062500 -0.000000
vt 0.000000 -0.000000
vn -1.0000 -0.0000 0.0000
vn -0.0000 -0.0000 -1.0000
vn 1.0000 0.0000 -0.0000
vn 0.0000 -0.0000 1.0000
vn 0.0000 -1.0000 0.0000
vn 0.0000 1.0000 0.0000
vn 0.0000 0.5547 0.8321
vn 0.0000 0.8321 -0.5547
vn 0.0000 -0.8321 0.5547
vn 0.0000 -0.8320 0.5547
vn 0.0000 -0.5547 -0.8320
vn 0.0000 0.5547 0.8320
usemtl circuitstation
f 104/1/1 106/2/1 2/3/1 1/4/1
f 107/5/2 108/6/2 106/3/2 104/4/2
f 107/4/3 103/1/3 105/2/3 108/3/3
f 103/1/4 1/7/4 2/8/4 105/2/4
f 108/9/5 105/10/5 2/11/5 106/12/5
f 3/13/1 4/14/1 5/15/1 6/16/1
f 4/13/2 7/17/2 8/18/2 5/16/2
f 6/19/5 5/16/5 8/18/5 9/20/5
f 7/15/3 10/16/3 9/13/3 8/14/3
f 10/18/4 3/16/4 6/13/4 9/17/4
f 10/18/6 7/20/6 4/19/6 3/16/6
f 11/21/6 27/22/6 15/23/6 12/24/6
f 16/25/4 13/26/4 14/27/4 28/28/4
f 16/29/3 28/30/3 29/31/3 30/32/3
f 35/33/1 31/34/1 32/35/1 37/36/1
f 12/37/1 15/38/1 18/32/1 13/29/1
f 11/39/7 12/40/7 13/26/7 16/25/7
f 15/30/2 27/31/2 29/23/2 17/22/2
f 11/37/3 16/29/3 30/32/3 27/38/3
f 13/29/1 18/32/1 17/31/1 14/30/1
f 24/41/6 23/9/6 22/42/6 19/43/6
f 23/44/3 24/45/3 25/41/3 20/9/3
f 19/46/1 22/47/1 26/42/1 21/43/1
f 22/48/2 23/49/2 20/9/2 26/42/2
f 24/50/4 19/51/4 21/43/4 25/41/4
f 34/33/3 36/36/3 38/35/3 33/34/3
f 34/33/8 33/34/8 31/35/8 35/36/8
f 36/33/9 37/36/9 32/35/9 38/34/9
f 43/52/1 39/53/1 40/54/1 45/29/1
f 42/52/3 44/29/3 46/54/3 41/53/3
f 42/52/8 41/53/8 39/54/8 43/29/8
f 44/52/9 45/29/9 40/54/9 46/53/9
f 52/55/1 47/56/1 48/29/1 54/30/1
f 51/57/3 53/55/3 50/56/3 49/52/3
f 51/57/8 49/52/8 47/56/8 52/55/8
f 53/55/10 54/30/10 48/29/10 50/56/10
f 39/58/11 41/59/11 46/29/11 40/52/11
f 43/59/12 45/29/12 44/52/12 42/58/12
f 52/60/7 54/55/7 53/57/7 51/61/7
f 55/62/1 56/63/1 57/64/1 58/65/1
f 59/63/3 60/62/3 61/65/3 62/64/3
f 60/63/7 55/57/7 58/30/7 61/64/7
f 58/62/9 57/63/9 62/64/9 61/65/9
f 60/64/8 59/65/8 56/62/8 55/63/8
f 74/66/3 64/67/3 77/7/3 65/68/3
f 71/67/1 72/7/1 76/68/1 75/66/1
f 71/69/2 74/66/2 65/68/2 72/4/2
f 75/69/4 76/4/4 77/5/4 64/70/4
f 65/12/5 77/11/5 76/70/5 72/42/5
f 82/38/1 81/20/1 80/71/1 79/72/1
f 81/38/2 78/20/2 73/71/2 80/72/2
f 78/38/3 70/20/3 69/71/3 73/72/3
f 70/38/4 82/20/4 79/71/4 69/72/4
f 79/72/5 80/71/5 73/18/5 69/73/5
f 67/38/2 83/20/2 84/71/2 66/72/2
f 83/38/3 85/20/3 86/71/3 84/72/3
f 85/38/4 68/20/4 63/71/4 86/72/4
f 63/72/5 66/71/5 84/18/5 86/73/5
f 87/74/1 88/75/1 89/76/1 90/77/1
f 91/75/3 92/74/3 93/77/3 94/76/3
f 92/75/4 87/8/4 90/78/4 93/76/4
f 90/74/5 89/75/5 94/76/5 93/77/5
f 92/76/6 91/77/6 88/74/6 87/75/6
f 95/74/1 96/75/1 97/76/1 98/77/1
f 99/75/3 100/74/3 101/77/3 102/76/3
f 100/75/4 95/8/4 98/78/4 101/76/4
f 98/74/5 97/75/5 102/76/5 101/77/5
f 100/76/6 99/77/6 96/74/6 95/75/6
