# Model created by Damien A.W. Hazard & BluSunrize
mtllib craftingtable.mtl

o desk
v 0.437501 0.750000 1.000000
v 0.437501 0.750000 0.937500
v 0.437501 0.625000 0.937500
v 0.437501 0.625000 1.000000
v 0.562501 0.750000 0.937500
v 0.562501 0.750000 1.000000
v 0.562501 0.625000 1.000000
v 0.562501 0.625000 0.937500
v 0.781251 0.312501 0.750000
v 0.781251 0.312501 0.250000
v 0.781251 0.187501 0.250000
v 0.781251 0.187501 0.750000
v 0.906251 0.312501 0.250000
v 0.906251 0.312501 0.750000
v 0.906251 0.187501 0.750000
v 0.906251 0.187501 0.250000
v 0.750001 0.437500 0.937500
v 0.750001 0.437500 0.750000
v 0.750001 0.000001 0.750000
v 0.750001 0.000001 0.937500
v 0.937501 0.437500 0.750000
v 0.937501 0.000001 0.750000
v 0.937501 0.000001 0.937500
v 0.250001 0.437501 0.062500
v 0.250001 0.437501 0.250000
v 0.250001 0.000001 0.250000
v 0.250001 0.000001 0.062500
v 0.062501 0.437501 0.250000
v 0.062501 0.000001 0.250000
v 0.062501 0.000001 0.062500
v 0.750001 0.437501 0.250000
v 0.750001 0.437501 0.062500
v 0.750001 0.000001 0.062500
v 0.750001 0.000001 0.250000
v 0.937501 0.437501 0.250000
v 0.937501 0.000001 0.250000
v 0.937501 0.000001 0.062500
v 0.062501 0.437500 0.750000
v 0.250001 0.437500 0.750000
v 0.250001 0.000001 0.750000
v 0.062501 0.000001 0.750000
v 0.250001 0.437500 0.937500
v 0.250001 0.000001 0.937500
v 0.062501 0.000001 0.937500
v 0.093751 0.312501 0.750000
v 0.093751 0.312501 0.250000
v 0.093751 0.187501 0.250000
v 0.093751 0.187501 0.750000
v 0.218751 0.312501 0.250000
v 0.218751 0.312501 0.750000
v 0.218751 0.187501 0.750000
v 0.218751 0.187501 0.250000
v 0.062501 0.812500 0.937500
v 0.062501 0.812500 0.062500
v 0.062501 0.437501 0.062500
v 0.062501 0.437500 0.937500
v 0.937501 0.812500 0.062500
v 0.937501 0.437501 0.062500
v 0.937501 0.812500 0.937500
v 0.937501 0.437500 0.937500
v 0.250001 0.312501 0.781250
v 0.750001 0.312501 0.781250
v 0.750001 0.187501 0.781250
v 0.250001 0.187501 0.781250
v 0.750001 0.312501 0.906250
v 0.250001 0.312501 0.906250
v 0.250001 0.187501 0.906250
v 0.750001 0.187501 0.906250
v 0.250001 0.312501 0.093750
v 0.750001 0.312501 0.093750
v 0.750001 0.187501 0.093750
v 0.250001 0.187501 0.093750
v 0.750001 0.312501 0.218750
v 0.250001 0.312501 0.218750
v 0.250001 0.187501 0.218750
v 0.750001 0.187501 0.218750
v 0.000001 1.000000 1.000000
v 0.000001 1.000000 0.000000
v 0.000001 0.812500 0.000000
v 0.000001 0.812500 1.000000
v 1.000000 1.000000 0.000000
v 1.000000 0.812500 0.000000
v 1.000000 1.000000 1.000000
v 1.000000 0.812500 1.000000
vt 0.000000 1.000000
vt 0.000000 0.000000
vt 1.000000 0.000000
vt 1.000000 1.000000
vt 1.000000 0.000000
vt 1.000000 1.000000
vt 0.000000 1.000000
vt 0.000000 0.000000
vt 0.000000 0.703125
vt 0.250000 0.703125
vt 0.250000 0.750000
vt 0.000000 0.750000
vt 0.281250 0.609375
vt 0.265625 0.609375
vt 0.265625 0.578125
vt 0.281250 0.578125
vt 0.265625 0.609375
vt 0.281250 0.609375
vt 0.281250 0.578125
vt 0.265625 0.578125
vt 0.265625 0.609375
vt 0.234375 0.609375
vt 0.234375 0.578125
vt 0.265625 0.578125
vt 0.281250 0.609375
vt 0.265625 0.609375
vt 0.265625 0.578125
vt 0.281250 0.578125
vt 0.281250 0.609375
vt 0.265625 0.609375
vt 0.125000 0.609375
vt 0.000000 0.609375
vt 0.000000 0.578125
vt 0.125000 0.578125
vt 0.125000 0.609375
vt 0.000000 0.609375
vt 0.000000 0.578125
vt 0.125000 0.578125
vt 0.000000 0.578125
vt 0.125000 0.578125
vt 0.125000 0.609375
vt 0.000000 0.609375
vt 0.000000 0.578125
vt 0.125000 0.578125
vt 0.125000 0.609375
vt 0.000000 0.609375
vt 0.593750 1.000000
vt 0.546875 1.000000
vt 0.546875 0.890625
vt 0.593750 0.890625
vt 0.593750 1.000000
vt 0.546875 1.000000
vt 0.546875 0.890625
vt 0.593750 0.890625
vt 0.500000 0.796875
vt 0.500000 0.750000
vt 0.546875 0.750000
vt 0.546875 0.796875
vt 0.593750 1.000000
vt 0.546875 1.000000
vt 0.546875 0.890625
vt 0.593750 0.890625
vt 0.593750 1.000000
vt 0.546875 1.000000
vt 0.546875 0.890625
vt 0.593750 0.890625
vt 0.500000 0.796875
vt 0.500000 0.750000
vt 0.546875 0.750000
vt 0.546875 0.796875
vt 0.593750 1.000000
vt 0.546875 1.000000
vt 0.546875 0.890625
vt 0.593750 0.890625
vt 0.593750 1.000000
vt 0.546875 1.000000
vt 0.546875 0.890625
vt 0.593750 0.890625
vt 0.500000 0.796875
vt 0.500000 0.750000
vt 0.546875 0.750000
vt 0.546875 0.796875
vt 0.593750 1.000000
vt 0.546875 1.000000
vt 0.546875 0.890625
vt 0.593750 0.890625
vt 0.593750 1.000000
vt 0.546875 1.000000
vt 0.546875 0.890625
vt 0.593750 0.890625
vt 0.500000 0.796875
vt 0.500000 0.750000
vt 0.546875 0.750000
vt 0.546875 0.796875
vt 0.000000 0.578125
vt 0.125000 0.578125
vt 0.125000 0.609375
vt 0.000000 0.609375
vt 0.125000 0.609375
vt 0.000000 0.609375
vt 0.000000 0.578125
vt 0.125000 0.578125
vt 0.000000 0.578125
vt 0.125000 0.578125
vt 0.125000 0.609375
vt 0.000000 0.609375
vt 0.000000 0.578125
vt 0.125000 0.578125
vt 0.125000 0.609375
vt 0.000000 0.609375
vt 0.218750 0.703125
vt 0.437500 0.703125
vt 0.437500 0.609375
vt 0.218750 0.609375
vt 0.218750 0.703125
vt 0.218750 0.609375
vt 0.437500 0.703125
vt 0.218750 0.703125
vt 0.218750 0.609375
vt 0.437500 0.609375
vt 0.000000 0.703125
vt 0.000000 0.609375
vt 0.281250 0.609375
vt 0.281250 0.390625
vt 0.500000 0.390625
vt 0.500000 0.609375
vt 0.000000 0.578125
vt 0.125000 0.578125
vt 0.125000 0.609375
vt 0.000000 0.609375
vt 0.125000 0.609375
vt 0.000000 0.609375
vt 0.000000 0.578125
vt 0.125000 0.578125
vt 0.000000 0.609375
vt 0.000000 0.578125
vt 0.125000 0.578125
vt 0.125000 0.609375
vt 0.125000 0.578125
vt 0.125000 0.609375
vt 0.000000 0.609375
vt 0.000000 0.578125
vt 0.000000 0.578125
vt 0.125000 0.578125
vt 0.125000 0.609375
vt 0.000000 0.609375
vt 0.125000 0.609375
vt 0.000000 0.609375
vt 0.000000 0.578125
vt 0.125000 0.578125
vt 0.000000 0.609375
vt 0.000000 0.578125
vt 0.125000 0.578125
vt 0.125000 0.609375
vt 0.125000 0.578125
vt 0.125000 0.609375
vt 0.000000 0.609375
vt 0.000000 0.578125
vt 0.000000 0.703125
vt 0.250000 0.703125
vt 0.250000 0.750000
vt 0.000000 0.750000
vt 0.593750 1.000000
vt 0.546875 1.000000
vt 0.546875 0.890625
vt 0.593750 0.890625
vt 0.593750 1.000000
vt 0.546875 1.000000
vt 0.546875 0.890625
vt 0.593750 0.890625
vt 0.593750 1.000000
vt 0.546875 1.000000
vt 0.546875 0.890625
vt 0.593750 0.890625
vt 0.593750 1.000000
vt 0.546875 1.000000
vt 0.546875 0.890625
vt 0.593750 0.890625
vt 0.593750 1.000000
vt 0.546875 1.000000
vt 0.546875 0.890625
vt 0.593750 0.890625
vt 0.593750 1.000000
vt 0.546875 1.000000
vt 0.546875 0.890625
vt 0.593750 0.890625
vt 0.593750 1.000000
vt 0.546875 1.000000
vt 0.546875 0.890625
vt 0.593750 0.890625
vt 0.593750 1.000000
vt 0.546875 1.000000
vt 0.546875 0.890625
vt 0.593750 0.890625
vt 0.250000 0.750000
vt 0.000000 0.750000
vt 0.000000 0.703125
vt 0.250000 0.703125
vt 0.250000 0.750000
vt 0.000000 0.750000
vt 0.000000 0.703125
vt 0.250000 0.703125
vn 0.0000 -1.0000 -0.0000
vn 0.0000 1.0000 0.0000
vn 0.0000 0.0000 -1.0000
vn -1.0000 0.0000 0.0000
vn 1.0000 0.0000 0.0000
vn 0.0000 0.0000 1.0000
usemtl craftingtable
f 80/1/1 79/2/1 82/3/1 84/4/1
f 83/5/2 81/6/2 78/7/2 77/8/2
usemtl workbench
f 78/9/3 81/10/3 82/11/3 79/12/3
f 1/13/4 2/14/4 3/15/4 4/16/4
f 5/17/5 6/18/5 7/19/5 8/20/5
f 6/21/6 1/22/6 4/23/6 7/24/6
f 4/25/1 3/26/1 8/20/1 7/19/1
f 6/27/2 5/28/2 2/29/2 1/30/2
f 9/31/4 10/32/4 11/33/4 12/34/4
f 13/35/5 14/36/5 15/37/5 16/38/5
f 12/39/1 11/40/1 16/41/1 15/42/1
f 14/43/2 13/44/2 10/45/2 9/46/2
f 17/47/4 18/48/4 19/49/4 20/50/4
f 18/51/3 21/52/3 22/53/3 19/54/3
f 20/55/1 19/56/1 22/57/1 23/58/1
f 24/59/5 25/60/5 26/61/5 27/62/5
f 25/63/6 28/64/6 29/65/6 26/66/6
f 29/67/1 30/68/1 27/69/1 26/70/1
f 31/71/4 32/72/4 33/73/4 34/74/4
f 35/75/6 31/76/6 34/77/6 36/78/6
f 34/79/1 33/80/1 37/81/1 36/82/1
f 38/83/3 39/84/3 40/85/3 41/86/3
f 39/87/5 42/88/5 43/89/5 40/90/5
f 44/91/1 41/92/1 40/93/1 43/94/1
f 45/95/4 46/96/4 47/97/4 48/98/4
f 49/99/5 50/100/5 51/101/5 52/102/5
f 48/103/1 47/104/1 52/105/1 51/106/1
f 50/107/2 49/108/2 46/109/2 45/110/2
f 53/111/4 54/112/4 55/113/4 56/114/4
f 54/112/3 57/115/3 58/116/3 55/113/3
f 57/117/5 59/118/5 60/119/5 58/120/5
f 59/118/6 53/121/6 56/122/6 60/119/6
f 56/123/1 55/124/1 58/125/1 60/126/1
f 61/127/3 62/128/3 63/129/3 64/130/3
f 65/131/6 66/132/6 67/133/6 68/134/6
f 67/135/1 64/136/1 63/137/1 68/138/1
f 65/139/2 62/140/2 61/141/2 66/142/2
f 69/143/3 70/144/3 71/145/3 72/146/3
f 73/147/6 74/148/6 75/149/6 76/150/6
f 75/151/1 72/152/1 71/153/1 76/154/1
f 73/155/2 70/156/2 69/157/2 74/158/2
f 77/159/4 78/160/4 79/161/4 80/162/4
f 21/163/5 60/164/5 23/165/5 22/166/5
f 60/167/6 17/168/6 20/169/6 23/170/6
f 28/171/4 55/172/4 30/173/4 29/174/4
f 55/175/3 24/176/3 27/177/3 30/178/3
f 32/179/3 58/180/3 37/181/3 33/182/3
f 58/183/5 35/184/5 36/185/5 37/186/5
f 56/187/4 38/188/4 41/189/4 44/190/4
f 42/191/6 56/192/6 44/193/6 43/194/6
f 81/195/5 83/196/5 84/197/5 82/198/5
f 83/199/6 77/200/6 80/201/6 84/202/6
