# Blender v2.79 (sub 0) OBJ File: 'IELogicBlock.blend'
# www.blender.org
mtllib logic_unit.mtl

o board_8
v 0.156250 0.250000 0.562500
v 0.156250 0.312500 0.562500
v 0.156250 0.312500 0.062500
v 0.468750 0.312500 0.562500
v 0.468750 0.250000 0.562500
v 0.468750 0.250000 0.062500
v 0.468750 0.312500 0.062500
v 0.156250 0.250000 0.062500
vt 0.531250 1.000000
vt 0.562500 1.000000
vt 0.562500 0.750000
vt 0.531250 0.750000
vt 0.687500 0.750000
vt 0.687500 1.000000
vt 0.656250 1.000000
vt 0.656250 0.750000
vt 0.687500 0.968750
vt 0.531250 0.968750
vt 0.687500 0.781250
vt 0.531250 0.781250
vn -1.0000 0.0000 -0.0000
vn 0.0000 1.0000 0.0000
vn 1.0000 -0.0000 0.0000
vn 0.0000 0.0000 1.0000
vn 0.0000 0.0000 -1.0000
vn -0.0000 -1.0000 0.0000
usemtl logic_unit
f 1/1/1 2/2/1 3/3/1 8/4/1
f 7/5/2 3/4/2 2/1/2 4/6/2
f 4/7/3 5/6/3 6/5/3 7/8/3
f 5/6/4 4/9/4 2/10/4 1/1/4
f 6/11/5 8/12/5 3/4/5 7/5/5
f 6/5/6 5/6/6 1/1/6 8/4/6

o board_7
v 0.843750 0.375000 0.062500
v 0.531250 0.312500 0.062500
v 0.531250 0.375000 0.062500
v 0.531250 0.375000 0.562500
v 0.531250 0.312500 0.562500
v 0.843750 0.312500 0.062500
v 0.843750 0.312500 0.562500
v 0.843750 0.375000 0.562500
vt 0.687500 0.750000
vt 0.687500 1.000000
vt 0.531250 1.000000
vt 0.531250 0.750000
vt 0.687500 0.781250
vt 0.531250 0.781250
vt 0.687500 0.968750
vt 0.531250 0.968750
vt 0.656250 1.000000
vt 0.656250 0.750000
vt 0.562500 1.000000
vt 0.562500 0.750000
vn 0.0000 1.0000 -0.0000
vn 0.0000 -0.0000 -1.0000
vn 0.0000 0.0000 1.0000
vn -1.0000 -0.0000 0.0000
vn -0.0000 -1.0000 0.0000
vn 1.0000 -0.0000 -0.0000
usemtl logic_unit
f 11/13/7 12/14/7 16/15/7 9/16/7
f 11/17/8 9/18/8 14/16/8 10/13/8
f 12/14/9 13/19/9 15/20/9 16/15/9
f 13/21/10 12/14/10 11/13/10 10/22/10
f 10/13/11 14/16/11 15/15/11 13/14/11
f 16/15/12 15/23/12 14/24/12 9/16/12

o board_6
v 0.468750 0.437500 0.562500
v 0.468750 0.375000 0.562500
v 0.468750 0.375000 0.062500
v 0.156250 0.375000 0.562500
v 0.156250 0.437500 0.562500
v 0.156250 0.437500 0.062500
v 0.156250 0.375000 0.062500
v 0.468750 0.437500 0.062500
vt 0.531250 1.000000
vt 0.562500 1.000000
vt 0.562500 0.750000
vt 0.531250 0.750000
vt 0.687500 0.750000
vt 0.687500 1.000000
vt 0.656250 1.000000
vt 0.656250 0.750000
vt 0.687500 0.968750
vt 0.531250 0.968750
vt 0.687500 0.781250
vt 0.531250 0.781250
vn 1.0000 -0.0000 -0.0000
vn -0.0000 -1.0000 -0.0000
vn -1.0000 0.0000 0.0000
vn 0.0000 0.0000 1.0000
vn 0.0000 -0.0000 -1.0000
vn 0.0000 1.0000 -0.0000
usemtl logic_unit
f 17/25/13 18/26/13 19/27/13 24/28/13
f 23/29/14 19/28/14 18/25/14 20/30/14
f 20/31/15 21/30/15 22/29/15 23/32/15
f 21/30/16 20/33/16 18/34/16 17/25/16
f 22/35/17 24/36/17 19/28/17 23/29/17
f 22/29/18 21/30/18 17/25/18 24/28/18

o board_5
v 0.531250 0.437500 0.062500
v 0.843750 0.500000 0.062500
v 0.843750 0.437500 0.062500
v 0.843750 0.437500 0.562500
v 0.843750 0.500000 0.562500
v 0.531250 0.500000 0.062500
v 0.531250 0.500000 0.562500
v 0.531250 0.437500 0.562500
vt 0.687500 0.750000
vt 0.687500 1.000000
vt 0.531250 1.000000
vt 0.531250 0.750000
vt 0.687500 0.781250
vt 0.531250 0.781250
vt 0.687500 0.968750
vt 0.531250 0.968750
vt 0.656250 1.000000
vt 0.656250 0.750000
vt 0.562500 1.000000
vt 0.562500 0.750000
vn -0.0000 -1.0000 0.0000
vn 0.0000 0.0000 -1.0000
vn 0.0000 0.0000 1.0000
vn 1.0000 -0.0000 0.0000
vn 0.0000 1.0000 0.0000
vn -1.0000 0.0000 -0.0000
usemtl logic_unit
f 27/37/19 28/38/19 32/39/19 25/40/19
f 27/41/20 25/42/20 30/40/20 26/37/20
f 28/38/21 29/43/21 31/44/21 32/39/21
f 29/45/22 28/38/22 27/37/22 26/46/22
f 26/37/23 30/40/23 31/39/23 29/38/23
f 32/39/24 31/47/24 30/48/24 25/40/24

o board_4
v 0.156250 0.500000 0.562500
v 0.156250 0.562500 0.562500
v 0.156250 0.562500 0.062500
v 0.468750 0.562500 0.562500
v 0.468750 0.500000 0.562500
v 0.468750 0.500000 0.062500
v 0.468750 0.562500 0.062500
v 0.156250 0.500000 0.062500
vt 0.531250 1.000000
vt 0.562500 1.000000
vt 0.562500 0.750000
vt 0.531250 0.750000
vt 0.687500 0.750000
vt 0.687500 1.000000
vt 0.656250 1.000000
vt 0.656250 0.750000
vt 0.687500 0.968750
vt 0.531250 0.968750
vt 0.687500 0.781250
vt 0.531250 0.781250
vn -1.0000 -0.0000 -0.0000
vn 0.0000 1.0000 0.0000
vn 1.0000 0.0000 0.0000
vn 0.0000 -0.0000 1.0000
vn -0.0000 0.0000 -1.0000
vn -0.0000 -1.0000 -0.0000
usemtl logic_unit
f 33/49/25 34/50/25 35/51/25 40/52/25
f 39/53/26 35/52/26 34/49/26 36/54/26
f 36/55/27 37/54/27 38/53/27 39/56/27
f 37/54/28 36/57/28 34/58/28 33/49/28
f 38/59/29 40/60/29 35/52/29 39/53/29
f 38/53/30 37/54/30 33/49/30 40/52/30

o board_3
v 0.843750 0.625000 0.562500
v 0.843750 0.562500 0.562500
v 0.843750 0.562500 0.062500
v 0.531250 0.562500 0.562500
v 0.531250 0.625000 0.562500
v 0.531250 0.625000 0.062500
v 0.531250 0.562500 0.062500
v 0.843750 0.625000 0.062500
vt 0.531250 1.000000
vt 0.562500 1.000000
vt 0.562500 0.750000
vt 0.531250 0.750000
vt 0.687500 0.750000
vt 0.687500 1.000000
vt 0.656250 1.000000
vt 0.656250 0.750000
vt 0.687500 0.968750
vt 0.531250 0.968750
vt 0.687500 0.781250
vt 0.531250 0.781250
vn 1.0000 0.0000 -0.0000
vn -0.0000 -1.0000 0.0000
vn -1.0000 -0.0000 0.0000
vn 0.0000 0.0000 1.0000
vn -0.0000 -0.0000 -1.0000
vn 0.0000 1.0000 0.0000
usemtl logic_unit
f 41/61/31 42/62/31 43/63/31 48/64/31
f 47/65/32 43/64/32 42/61/32 44/66/32
f 44/67/33 45/66/33 46/65/33 47/68/33
f 45/66/34 44/69/34 42/70/34 41/61/34
f 46/71/35 48/72/35 43/64/35 47/65/35
f 46/65/36 45/66/36 41/61/36 48/64/36

o board_2
v 0.468750 0.687500 0.062500
v 0.156250 0.625000 0.062500
v 0.156250 0.687500 0.062500
v 0.156250 0.687500 0.562500
v 0.156250 0.625000 0.562500
v 0.468750 0.625000 0.062500
v 0.468750 0.625000 0.562500
v 0.468750 0.687500 0.562500
vt 0.687500 0.750000
vt 0.687500 1.000000
vt 0.531250 1.000000
vt 0.531250 0.750000
vt 0.687500 0.781250
vt 0.531250 0.781250
vt 0.687500 0.968750
vt 0.531250 0.968750
vt 0.656250 1.000000
vt 0.656250 0.750000
vt 0.562500 1.000000
vt 0.562500 0.750000
vn 0.0000 1.0000 -0.0000
vn -0.0000 -0.0000 -1.0000
vn 0.0000 0.0000 1.0000
vn -1.0000 0.0000 0.0000
vn -0.0000 -1.0000 0.0000
vn 1.0000 0.0000 -0.0000
usemtl logic_unit
f 51/73/37 52/74/37 56/75/37 49/76/37
f 51/77/38 49/78/38 54/76/38 50/73/38
f 52/74/39 53/79/39 55/80/39 56/75/39
f 53/81/40 52/74/40 51/73/40 50/82/40
f 50/73/41 54/76/41 55/75/41 53/74/41
f 56/75/42 55/83/42 54/84/42 49/76/42

o board_1
v 0.156250 0.750000 0.062500
v 0.468750 0.812500 0.062500
v 0.468750 0.750000 0.062500
v 0.468750 0.750000 0.562500
v 0.468750 0.812500 0.562500
v 0.156250 0.812500 0.062500
v 0.156250 0.812500 0.562500
v 0.156250 0.750000 0.562500
vt 0.687500 0.750000
vt 0.687500 1.000000
vt 0.531250 1.000000
vt 0.531250 0.750000
vt 0.687500 0.781250
vt 0.531250 0.781250
vt 0.687500 0.968750
vt 0.531250 0.968750
vt 0.656250 1.000000
vt 0.656250 0.750000
vt 0.562500 1.000000
vt 0.562500 0.750000
vn -0.0000 -1.0000 -0.0000
vn 0.0000 0.0000 -1.0000
vn 0.0000 0.0000 1.0000
vn 1.0000 -0.0000 0.0000
vn 0.0000 1.0000 0.0000
vn -1.0000 0.0000 -0.0000
usemtl logic_unit
f 59/85/43 60/86/43 64/87/43 57/88/43
f 59/89/44 57/90/44 62/88/44 58/85/44
f 60/86/45 61/91/45 63/92/45 64/87/45
f 61/93/46 60/86/46 59/85/46 58/94/46
f 58/85/47 62/88/47 63/87/47 61/86/47
f 64/87/48 63/95/48 62/96/48 57/88/48

o board_0
v 0.531250 0.687500 0.562500
v 0.531250 0.750000 0.562500
v 0.531250 0.750000 0.062500
v 0.843750 0.750000 0.562500
v 0.843750 0.687500 0.562500
v 0.843750 0.687500 0.062500
v 0.843750 0.750000 0.062500
v 0.531250 0.687500 0.062500
vt 0.531250 1.000000
vt 0.562500 1.000000
vt 0.562500 0.750000
vt 0.531250 0.750000
vt 0.687500 0.750000
vt 0.687500 1.000000
vt 0.656250 1.000000
vt 0.656250 0.750000
vt 0.687500 0.968750
vt 0.531250 0.968750
vt 0.687500 0.781250
vt 0.531250 0.781250
vn -1.0000 0.0000 -0.0000
vn 0.0000 1.0000 0.0000
vn 1.0000 -0.0000 0.0000
vn 0.0000 0.0000 1.0000
vn 0.0000 0.0000 -1.0000
vn -0.0000 -1.0000 -0.0000
usemtl logic_unit
f 65/97/49 66/98/49 67/99/49 72/100/49
f 71/101/50 67/100/50 66/97/50 68/102/50
f 68/103/51 69/102/51 70/101/51 71/104/51
f 69/102/52 68/105/52 66/106/52 65/97/52
f 70/107/53 72/108/53 67/100/53 71/101/53
f 70/101/54 69/102/54 65/97/54 72/100/54

o board_9
v 0.531250 0.187500 0.062500
v 0.843750 0.250000 0.062500
v 0.843750 0.187500 0.062500
v 0.843750 0.187500 0.562500
v 0.843750 0.250000 0.562500
v 0.531250 0.250000 0.062500
v 0.531250 0.250000 0.562500
v 0.531250 0.187500 0.562500
vt 0.687500 0.750000
vt 0.687500 1.000000
vt 0.531250 1.000000
vt 0.531250 0.750000
vt 0.687500 0.781250
vt 0.531250 0.781250
vt 0.687500 0.968750
vt 0.531250 0.968750
vt 0.656250 1.000000
vt 0.656250 0.750000
vt 0.562500 1.000000
vt 0.562500 0.750000
vn 0.0000 -1.0000 0.0000
vn 0.0000 0.0000 -1.0000
vn 0.0000 0.0000 1.0000
vn 1.0000 -0.0000 0.0000
vn 0.0000 1.0000 0.0000
vn -1.0000 0.0000 -0.0000
usemtl logic_unit
f 75/109/55 76/110/55 80/111/55 73/112/55
f 75/113/56 73/114/56 78/112/56 74/109/56
f 76/110/57 77/115/57 79/116/57 80/111/57
f 77/117/58 76/110/58 75/109/58 74/118/58
f 74/109/59 78/112/59 79/111/59 77/110/59
f 80/111/60 79/119/60 78/120/60 73/112/60

o base_base.001
v 0.000000 0.125000 0.000000
v 0.125000 0.125000 0.750001
v 0.125000 0.875000 0.750001
v 0.875000 0.125000 0.750001
v 0.875000 0.875000 0.750001
v 0.125000 0.875000 0.562499
v 0.125000 0.125000 0.562500
v 0.875000 0.875000 0.562500
v 0.875000 0.125000 0.562500
v 1.000000 0.125000 0.000000
v 0.875000 0.875000 -0.000000
v 0.875000 0.125000 0.000000
v 0.000000 1.000000 -0.000000
v 1.000000 0.875000 -0.000000
v 0.125000 0.875000 0.000000
v 0.000000 0.875000 0.000000
v 0.124999 0.125000 0.999999
v 0.124999 0.875000 0.999999
v 0.875000 0.875000 1.000000
v 0.875000 0.125000 1.000000
v -0.000001 0.125000 0.999999
v 0.999999 0.125000 0.999999
v 0.125000 0.125000 0.000000
v -0.000000 1.000000 0.999999
v -0.000000 0.000000 -0.000000
v 1.000000 0.000000 0.000000
v 1.000000 1.000000 -0.000000
v 0.999999 1.000000 0.999999
v 0.781250 0.281250 0.718750
v 0.781249 0.281250 0.906249
v 0.718750 0.218749 0.718751
v 0.781250 0.218749 0.718751
v 0.718750 0.281249 0.906251
v 0.718750 0.281249 0.718751
v 0.718749 0.218749 0.906252
v 0.781250 0.218750 0.906250
v 0.781250 0.531250 0.718750
v 0.781249 0.531250 0.906249
v 0.718750 0.468749 0.718751
v 0.781250 0.468749 0.718751
v 0.718750 0.531249 0.906251
v 0.718750 0.531249 0.718751
v 0.718749 0.468749 0.906251
v 0.781250 0.468750 0.906250
v 0.781250 0.781250 0.718750
v 0.781249 0.781250 0.906249
v 0.718750 0.718749 0.718751
v 0.781250 0.718749 0.718751
v 0.718750 0.781249 0.906251
v 0.718750 0.781249 0.718751
v 0.718749 0.718749 0.906251
v 0.781250 0.718750 0.906250
v 0.531250 0.281250 0.718750
v 0.531249 0.281250 0.906249
v 0.468750 0.218749 0.718751
v 0.531250 0.218749 0.718751
v 0.468750 0.281249 0.906251
v 0.468750 0.281249 0.718751
v 0.468749 0.218749 0.906252
v 0.531250 0.218750 0.906250
v 0.531250 0.781250 0.718750
v 0.531249 0.781250 0.906249
v 0.468750 0.718749 0.718751
v 0.531250 0.718749 0.718751
v 0.468750 0.781249 0.906251
v 0.468750 0.781249 0.718751
v 0.468749 0.718749 0.906251
v 0.531250 0.718750 0.906250
v 0.281250 0.281250 0.718750
v 0.281249 0.281250 0.906249
v 0.218750 0.218749 0.718751
v 0.281250 0.218749 0.718751
v 0.218750 0.281249 0.906251
v 0.218750 0.281249 0.718751
v 0.218749 0.218749 0.906252
v 0.281250 0.218750 0.906250
v 0.281250 0.531250 0.718750
v 0.281249 0.531250 0.906249
v 0.218750 0.468749 0.718751
v 0.281250 0.468749 0.718751
v 0.218750 0.531249 0.906251
v 0.218750 0.531249 0.718751
v 0.218749 0.468749 0.906251
v 0.281250 0.468750 0.906250
v 0.281250 0.781250 0.718750
v 0.281249 0.781250 0.906249
v 0.218750 0.718749 0.718751
v 0.281250 0.718749 0.718751
v 0.218750 0.781249 0.906251
v 0.218750 0.781249 0.718751
v 0.218749 0.718749 0.906251
v 0.281250 0.718750 0.906250
v -0.000001 0.875000 0.999999
v 0.999999 0.875000 0.999999
v 1.000000 -0.000000 0.999999
v -0.000001 -0.000000 0.999999
vt 0.500000 0.562500
vt 0.000000 0.562500
vt 0.000000 0.500000
vt 0.500000 0.500000
vt 0.500000 0.937500
vt 0.437500 0.937500
vt 0.437500 0.562500
vt 0.000000 0.125000
vt 0.500000 0.125000
vt 0.500000 0.000000
vt 0.875000 0.000000
vt 0.875000 0.375000
vt 0.500000 0.375000
vt 0.875000 0.750000
vt 0.500000 0.750000
vt 0.000000 0.937500
vt 0.500000 1.000000
vt 0.000000 1.000000
vt 0.062500 0.562500
vt 0.062500 0.937500
vt 0.687500 0.937500
vt 0.687500 0.843750
vt 0.718750 0.843750
vt 0.718750 0.937500
vt 0.687500 0.906250
vt 0.718750 0.906250
vn 0.0000 0.0000 -1.0000
vn 0.0000 0.0000 1.0000
vn 0.0000 1.0000 0.0000
vn -1.0000 0.0000 -0.0000
vn -0.0000 -1.0000 -0.0000
vn 1.0000 0.0000 0.0000
usemtl logic_unit
f 81/121/61 90/122/61 106/123/61 105/124/61
f 174/125/62 99/126/62 100/127/62 102/121/62
f 92/123/63 103/128/63 97/129/63 100/124/63
f 82/130/62 84/131/62 85/132/62 83/133/62
f 89/133/61 87/132/61 86/134/61 88/135/61
f 91/123/64 92/128/64 100/129/64 99/124/64
f 173/136/62 174/125/62 108/137/62 104/138/62
f 94/136/61 90/122/61 92/139/61 91/140/61
f 94/136/61 96/125/61 93/137/61 107/138/61
f 91/123/65 99/124/65 98/129/65 95/128/65
f 95/123/66 98/124/66 97/129/66 103/128/66
f 96/125/61 95/126/61 103/127/61 81/121/61
f 173/136/62 101/122/62 97/139/62 98/140/62
f 102/121/62 101/122/62 176/123/62 175/124/62
f 175/137/65 176/138/65 105/123/65 106/124/65
f 105/123/64 176/124/64 104/137/64 93/138/64
f 175/123/66 106/124/66 107/137/66 108/138/66
f 104/137/63 108/138/63 107/123/63 93/124/63
f 116/141/66 112/142/66 109/143/66 110/144/66
f 115/141/65 111/142/65 112/143/65 116/144/65
f 113/141/64 114/142/64 111/143/64 115/144/64
f 110/141/63 109/142/63 114/143/63 113/144/63
f 115/141/62 116/145/62 110/146/62 113/144/62
f 124/141/66 120/142/66 117/143/66 118/144/66
f 123/141/65 119/142/65 120/143/65 124/144/65
f 121/141/64 122/142/64 119/143/64 123/144/64
f 118/141/63 117/142/63 122/143/63 121/144/63
f 123/141/62 124/145/62 118/146/62 121/144/62
f 132/141/66 128/142/66 125/143/66 126/144/66
f 131/141/65 127/142/65 128/143/65 132/144/65
f 129/141/64 130/142/64 127/143/64 131/144/64
f 126/141/63 125/142/63 130/143/63 129/144/63
f 131/141/62 132/145/62 126/146/62 129/144/62
f 140/141/66 136/142/66 133/143/66 134/144/66
f 139/141/65 135/142/65 136/143/65 140/144/65
f 137/141/64 138/142/64 135/143/64 139/144/64
f 134/141/63 133/142/63 138/143/63 137/144/63
f 139/141/62 140/145/62 134/146/62 137/144/62
f 148/141/66 144/142/66 141/143/66 142/144/66
f 147/141/65 143/142/65 144/143/65 148/144/65
f 145/141/64 146/142/64 143/143/64 147/144/64
f 142/141/63 141/142/63 146/143/63 145/144/63
f 147/141/62 148/145/62 142/146/62 145/144/62
f 156/141/66 152/142/66 149/143/66 150/144/66
f 155/141/65 151/142/65 152/143/65 156/144/65
f 153/141/64 154/142/64 151/143/64 155/144/64
f 150/141/63 149/142/63 154/143/63 153/144/63
f 155/141/62 156/145/62 150/146/62 153/144/62
f 164/141/66 160/142/66 157/143/66 158/144/66
f 163/141/65 159/142/65 160/143/65 164/144/65
f 161/141/64 162/142/64 159/143/64 163/144/64
f 158/141/63 157/142/63 162/143/63 161/144/63
f 163/141/62 164/145/62 158/146/62 161/144/62
f 172/141/66 168/142/66 165/143/66 166/144/66
f 171/141/65 167/142/65 168/143/65 172/144/65
f 169/141/64 170/142/64 167/143/64 171/144/64
f 166/141/63 165/142/63 170/143/63 169/144/63
f 171/141/62 172/145/62 166/146/62 169/144/62
