# Blender 4.1.1
# www.blender.org
mtllib watermill.mtl

o watermill
v 0.500000 -1.935313 1.000000
v 0.500000 2.800000 1.000000
v -1.800000 0.500000 1.000000
v -1.126345 2.126346 1.000000
v 0.500000 2.935313 1.000000
v -1.935313 0.500000 1.000000
v -1.222026 2.222026 1.000000
v 2.800000 0.500000 1.000000
v 2.126345 2.126346 1.000000
v -1.800000 0.500000 0.000000
v -1.935313 0.500000 0.000000
v -1.222026 -1.222026 0.000000
v 2.800000 0.500000 -0.000000
v 2.935313 0.500000 -0.000000
v 0.500000 2.800000 0.000000
v 2.126346 2.126345 0.000000
v 0.500000 2.935313 0.000000
v 2.222026 2.222026 0.000000
v -1.126346 2.126346 0.000001
v -1.222026 2.222026 0.000001
v 0.437500 0.687500 0.937500
v 0.437500 3.562500 0.937500
v 0.437500 0.687500 0.062500
v 0.437500 3.562500 0.062500
v 0.562500 0.687500 0.937500
v 0.562500 3.562500 0.937500
v 0.562500 0.687500 0.062500
v 0.562500 3.562500 0.062500
v 0.744973 0.500000 1.000000
v 0.673222 0.326763 0.000000
v 0.673222 0.326763 1.000000
v 0.500000 0.255005 1.000000
v 0.326778 0.326763 0.000000
v 0.326778 0.326763 1.000000
v 0.255027 0.500000 0.000000
v 0.255027 0.500000 1.000000
v 0.326778 0.673237 0.000000
v 0.326778 0.673237 1.000000
v 0.500000 0.744995 1.000000
v 0.673222 0.673237 1.000000
v 0.588388 0.676777 0.937500
v 2.621320 2.709709 0.937500
v 0.588388 0.676777 0.062500
v 2.621320 2.709709 0.062500
v 0.676777 0.588388 0.937500
v 2.709708 2.621321 0.937500
v 0.676777 0.588388 0.062500
v 2.709708 2.621321 0.062500
v 0.687500 0.562500 0.937500
v 3.562500 0.562500 0.937500
v 0.687500 0.562500 0.062500
v 3.562500 0.562500 0.062500
v 0.687500 0.437500 0.937500
v 3.562500 0.437500 0.937500
v 0.687500 0.437500 0.062500
v 3.562500 0.437500 0.062500
v 0.676777 0.411612 0.937500
v 2.709709 -1.621320 0.937500
v 0.676777 0.411612 0.062500
v 2.709709 -1.621320 0.062500
v 0.588388 0.323223 0.937500
v 2.621321 -1.709708 0.937500
v 0.588388 0.323223 0.062500
v 2.621321 -1.709708 0.062500
v 0.562500 0.312500 0.937500
v 0.562501 -2.562500 0.937500
v 0.562500 0.312500 0.062500
v 0.562501 -2.562500 0.062500
v 0.437500 0.312500 0.937500
v 0.437501 -2.562500 0.937500
v 0.437500 0.312500 0.062500
v 0.437501 -2.562500 0.062500
v 0.411612 0.323223 0.937500
v -1.621320 -1.709709 0.937500
v 0.411612 0.323223 0.062500
v -1.621320 -1.709709 0.062500
v 0.323223 0.411612 0.937500
v -1.709708 -1.621320 0.937500
v 0.323223 0.411612 0.062500
v -1.709708 -1.621320 0.062500
v 0.312500 0.437500 0.937500
v -2.562500 0.437500 0.937500
v 0.312500 0.437500 0.062500
v -2.562500 0.437500 0.062500
v 0.312500 0.562500 0.937500
v -2.562500 0.562500 0.937500
v 0.312500 0.562500 0.062500
v -2.562500 0.562500 0.062500
v 0.323223 0.588388 0.937500
v -1.709709 2.621320 0.937500
v 0.323223 0.588388 0.062500
v -1.709709 2.621320 0.062500
v 0.411612 0.676777 0.937500
v -1.621320 2.709708 0.937500
v 0.411612 0.676777 0.062500
v -1.621320 2.709708 0.062500
v 2.126346 -1.126345 0.000000
v 2.126346 -1.126345 1.000000
v 0.500000 -1.800000 0.000000
v 0.500000 -1.800000 1.000000
v -1.126345 -1.126346 -0.000000
v -1.126345 -1.126346 1.000000
v 2.935313 0.500000 1.000000
v 2.222026 -1.222026 0.000000
v 2.222026 -1.222026 1.000000
v 0.500000 -1.935313 0.000000
v -1.222026 -1.222026 1.000000
v 2.222026 2.222026 1.000000
v 1.303295 2.602647 0.937500
v 1.590308 3.295556 0.937500
v 1.303295 2.602647 0.062500
v 1.590308 3.295556 0.062500
v 1.418780 2.554811 0.937500
v 1.705793 3.247721 0.937500
v 1.418780 2.554811 0.062500
v 1.705793 3.247721 0.062500
v 2.554811 1.418781 0.937500
v 3.247721 1.705793 0.937500
v 2.554811 1.418781 0.062500
v 3.247721 1.705793 0.062500
v 2.602647 1.303295 0.937500
v 3.295556 1.590308 0.937500
v 2.602647 1.303295 0.062500
v 3.295556 1.590308 0.062500
v 2.602647 -0.303295 0.937500
v 3.295556 -0.590307 0.937500
v 2.602647 -0.303295 0.062500
v 3.295556 -0.590307 0.062500
v 2.554811 -0.418780 0.937500
v 3.247721 -0.705792 0.937500
v 2.554811 -0.418780 0.062500
v 3.247721 -0.705792 0.062500
v 1.418780 -1.554812 0.937500
v 1.705793 -2.247721 0.937500
v 1.418780 -1.554812 0.062500
v 1.705793 -2.247721 0.062500
v 1.303295 -1.602647 0.937500
v 1.590308 -2.295557 0.937500
v 1.303295 -1.602647 0.062500
v 1.590308 -2.295557 0.062500
v -0.303295 -1.602647 0.937500
v -0.590308 -2.295556 0.937500
v -0.303295 -1.602647 0.062500
v -0.590308 -2.295556 0.062500
v -0.418780 -1.554811 0.937500
v -0.705793 -2.247721 0.937500
v -0.418780 -1.554811 0.062500
v -0.705793 -2.247721 0.062500
v -1.554812 -0.418780 0.937500
v -2.247721 -0.705793 0.937500
v -1.554812 -0.418780 0.062500
v -2.247721 -0.705793 0.062500
v -1.602647 -0.303295 0.937500
v -2.295557 -0.590308 0.937500
v -1.602647 -0.303295 0.062500
v -2.295557 -0.590308 0.062500
v -1.602647 1.303295 0.937500
v -2.295556 1.590307 0.937500
v -1.602647 1.303295 0.062500
v -2.295556 1.590307 0.062500
v -1.554811 1.418780 0.937500
v -2.247721 1.705793 0.937500
v -1.554811 1.418780 0.062500
v -2.247721 1.705793 0.062500
v -0.418780 2.554811 0.937500
v -0.705793 3.247721 0.937500
v -0.418780 2.554811 0.062500
v -0.705793 3.247721 0.062500
v -0.303295 2.602647 0.937500
v -0.590308 3.295556 0.937500
v -0.303295 2.602647 0.062500
v -0.590308 3.295556 0.062500
v 2.219963 2.227175 0.062500
v 2.700521 2.700209 0.062500
v 2.219963 2.227175 -0.010000
v 2.700521 2.700209 -0.010000
v 2.937495 0.494901 0.062500
v 3.611786 0.500221 0.062500
v 2.937495 0.494901 -0.010000
v 3.611786 0.500221 -0.010000
v 0.494900 2.937495 0.062500
v 0.500221 3.611786 0.062500
v 0.494900 2.937495 -0.010000
v 0.500221 3.611786 -0.010000
v 2.227175 2.219963 0.062500
v 2.700208 2.700521 0.062500
v 2.227175 2.219963 -0.010000
v 2.700208 2.700521 -0.010000
v 2.937495 0.505100 0.062500
v 3.611786 0.499780 0.062500
v 2.937495 0.505100 -0.010000
v 3.611786 0.499780 -0.010000
v 2.219964 -1.227174 0.062500
v 2.700521 -1.700208 0.062500
v 2.219964 -1.227174 -0.010000
v 2.700521 -1.700208 -0.010000
v 2.227175 -1.219963 0.062500
v 2.700209 -1.700521 0.062500
v 2.227175 -1.219963 -0.010000
v 2.700209 -1.700521 -0.010000
v 0.494901 -1.937495 0.062500
v 0.500221 -2.611786 0.062500
v 0.494901 -1.937495 -0.010000
v 0.500221 -2.611786 -0.010000
v 0.505099 -1.937495 0.062500
v 0.499779 -2.611786 0.062500
v 0.505099 -1.937495 -0.010000
v 0.499779 -2.611786 -0.010000
v -1.227175 -1.219963 0.062500
v -1.700209 -1.700521 0.062500
v -1.227175 -1.219963 -0.010000
v -1.700209 -1.700521 -0.010000
v -1.219963 -1.227174 0.062500
v -1.700521 -1.700208 0.062500
v -1.219963 -1.227174 -0.010000
v -1.700521 -1.700208 -0.010000
v -1.937495 0.505100 0.062500
v -2.611786 0.499780 0.062500
v -1.937495 0.505100 -0.010000
v -2.611786 0.499780 -0.010000
v -1.937495 0.494900 0.062500
v -2.611786 0.500220 0.062500
v -1.937495 0.494900 -0.010000
v -2.611786 0.500220 -0.010000
v -1.219963 2.227175 0.062500
v -1.700522 2.700208 0.062500
v -1.219963 2.227175 -0.010000
v -1.700522 2.700208 -0.010000
v -1.227175 2.219963 0.062500
v -1.700209 2.700521 0.062500
v -1.227175 2.219963 -0.010000
v -1.700209 2.700521 -0.010000
v 0.505099 2.937495 0.062500
v 0.499779 3.611786 0.062500
v 0.505099 2.937495 -0.010000
v 0.499779 3.611786 -0.010000
v 2.219963 2.227175 1.010000
v 2.700521 2.700209 1.010000
v 2.219963 2.227175 0.937500
v 2.700521 2.700209 0.937500
v 2.937495 0.494901 1.010000
v 3.611786 0.500221 1.010000
v 2.937495 0.494901 0.937500
v 3.611786 0.500221 0.937500
v 0.494900 2.937495 1.010000
v 0.500221 3.611786 1.010000
v 0.494900 2.937495 0.937500
v 0.500221 3.611786 0.937500
v 2.227175 2.219963 1.010000
v 2.700208 2.700521 1.010000
v 2.227175 2.219963 0.937500
v 2.700208 2.700521 0.937500
v 2.937495 0.505100 1.010000
v 3.611786 0.499780 1.010000
v 2.937495 0.505100 0.937500
v 3.611786 0.499780 0.937500
v 2.219964 -1.227174 1.010000
v 2.700521 -1.700208 1.010000
v 2.219964 -1.227174 0.937500
v 2.700521 -1.700208 0.937500
v 2.227175 -1.219963 1.010000
v 2.700209 -1.700521 1.010000
v 2.227175 -1.219963 0.937500
v 2.700209 -1.700521 0.937500
v 0.494901 -1.937495 1.010000
v 0.500221 -2.611786 1.010000
v 0.494901 -1.937495 0.937500
v 0.500221 -2.611786 0.937500
v 0.505099 -1.937495 1.010000
v 0.499779 -2.611786 1.010000
v 0.505099 -1.937495 0.937500
v 0.499779 -2.611786 0.937500
v -1.227175 -1.219963 1.010000
v -1.700209 -1.700521 1.010000
v -1.227175 -1.219963 0.937500
v -1.700209 -1.700521 0.937500
v -1.219963 -1.227174 1.010000
v -1.700521 -1.700208 1.010000
v -1.219963 -1.227174 0.937500
v -1.700521 -1.700208 0.937500
v -1.937495 0.505100 1.010000
v -2.611786 0.499780 1.010000
v -1.937495 0.505100 0.937500
v -2.611786 0.499780 0.937500
v -1.937495 0.494900 1.010000
v -2.611786 0.500220 1.010000
v -1.937495 0.494900 0.937500
v -2.611786 0.500220 0.937500
v -1.219963 2.227175 1.010000
v -1.700522 2.700208 1.010000
v -1.219963 2.227175 0.937500
v -1.700522 2.700208 0.937500
v -1.227175 2.219963 1.010000
v -1.700209 2.700521 1.010000
v -1.227175 2.219963 0.937500
v -1.700209 2.700521 0.937500
v 0.505099 2.937495 1.010000
v 0.499779 3.611786 1.010000
v 0.505099 2.937495 0.937500
v 0.499779 3.611786 0.937500
v 0.709097 0.413381 0.000000
v 0.586611 0.290884 0.000000
v 0.413389 0.290884 0.000000
v 0.290903 0.413381 0.000000
v 0.290903 0.586619 0.000000
v 0.413389 0.709116 0.000000
v 0.586611 0.709116 0.000000
v 0.709097 0.586619 0.000000
v 0.500000 0.255005 0.000000
v 0.744973 0.500000 0.000000
v 0.673222 0.673237 0.000000
v 0.500000 0.744995 0.000000
vt 0.666667 0.604167
vt 0.666667 0.020833
vt 0.708333 0.000000
vt 0.708333 0.625000
vt 0.291667 -0.000000
vt 0.291667 0.958333
vt 0.000000 0.958333
vt 0.000000 -0.000000
vt 0.333333 0.958333
vt 0.333333 0.000000
vt 0.000000 1.000000
vt 0.291667 1.000000
vt 0.583333 0.625000
vt 0.583333 0.958333
vt 0.520833 0.958333
vt 0.520833 0.625000
vt 0.552083 0.625000
vt 0.458333 0.958333
vt 0.458333 0.625000
vt 0.489583 0.625000
vt 0.395833 0.958333
vt 0.395833 0.625000
vt 0.427083 0.625000
vt 0.333333 0.625000
vt 0.364583 0.625000
vt 0.729167 0.916667
vt 0.625000 0.812500
vt 0.729167 0.854167
vt 0.333333 0.604167
vt 0.333333 0.020833
vt 0.666667 0.000000
vt 0.666667 0.625000
vt 0.000000 0.708333
vt 0.291667 0.708333
vt 0.333333 0.708333
vt 0.708333 0.708333
vt 0.916667 0.791667
vt 0.916667 0.000000
vt 0.708333 0.083333
vt 0.937500 0.000000
vt 0.937500 0.791667
vt 0.687500 0.958333
vt 0.583333 0.916667
vt 0.625000 0.958333
vt 0.583333 0.854167
vt 0.687500 0.812500
vn -0.0000 -0.0000 1.0000
vn -0.0000 -0.0000 -1.0000
vn -1.0000 -0.0000 -0.0000
vn 1.0000 -0.0000 -0.0000
vn -0.0000 1.0000 -0.0000
vn 0.9239 -0.3827 -0.0000
vn 0.3827 -0.9239 -0.0000
vn -0.3827 -0.9239 -0.0000
vn -0.9239 -0.3827 -0.0000
vn -0.9239 0.3827 -0.0000
vn -0.3827 0.9239 -0.0000
vn 0.3827 0.9239 -0.0000
vn 0.9239 0.3827 -0.0000
vn -0.7071 0.7071 -0.0000
vn 0.7071 -0.7071 -0.0000
vn 0.7071 0.7071 -0.0000
vn -0.0000 -1.0000 -0.0000
vn -0.7071 -0.7071 -0.0000
usemtl watermill
f 100/1/1 102/2/1 107/3/1 1/4/1
f 102/1/1 3/2/1 6/3/1 107/4/1
f 3/1/1 4/2/1 7/3/1 6/4/1
f 4/1/1 2/2/1 5/3/1 7/4/1
f 2/1/1 9/2/1 108/3/1 5/4/1
f 9/1/1 8/2/1 103/3/1 108/4/1
f 8/1/1 98/2/1 105/3/1 103/4/1
f 98/1/1 100/2/1 1/3/1 105/4/1
f 10/1/2 101/2/2 12/3/2 11/4/2
f 101/1/2 99/2/2 106/3/2 12/4/2
f 99/1/2 97/2/2 104/3/2 106/4/2
f 97/1/2 13/2/2 14/3/2 104/4/2
f 13/1/2 16/2/2 18/3/2 14/4/2
f 16/1/2 15/2/2 17/3/2 18/4/2
f 15/1/2 19/2/2 20/3/2 17/4/2
f 19/1/2 10/2/2 11/3/2 20/4/2
f 21/5/3 22/6/3 24/7/3 23/8/3
f 23/5/2 24/6/2 28/9/2 27/10/2
f 27/5/4 28/6/4 26/7/4 25/8/4
f 25/5/1 26/6/1 22/9/1 21/10/1
f 28/11/5 24/7/5 22/6/5 26/12/5
f 310/13/6 29/14/6 31/15/6 30/16/6 301/17/6
f 30/16/7 31/15/7 32/18/7 309/19/7 302/20/7
f 309/19/8 32/18/8 34/21/8 33/22/8 303/23/8
f 33/22/9 34/21/9 36/9/9 35/24/9 304/25/9
f 35/13/10 36/14/10 38/15/10 37/16/10 305/17/10
f 37/16/11 38/15/11 39/18/11 312/19/11 306/20/11
f 32/26/1 38/27/1 34/28/1
f 312/19/12 39/18/12 40/21/12 311/22/12 307/23/12
f 311/22/13 40/21/13 29/9/13 310/24/13 308/25/13
f 41/5/14 42/6/14 44/7/14 43/8/14
f 43/5/2 44/6/2 48/9/2 47/10/2
f 47/5/15 48/6/15 46/7/15 45/8/15
f 45/5/1 46/6/1 42/9/1 41/10/1
f 48/11/16 44/7/16 42/6/16 46/12/16
f 49/5/5 50/6/5 52/7/5 51/8/5
f 51/5/2 52/6/2 56/9/2 55/10/2
f 55/5/17 56/6/17 54/7/17 53/8/17
f 53/5/1 54/6/1 50/9/1 49/10/1
f 56/11/4 52/7/4 50/6/4 54/12/4
f 57/5/16 58/6/16 60/7/16 59/8/16
f 59/5/2 60/6/2 64/9/2 63/10/2
f 63/5/18 64/6/18 62/7/18 61/8/18
f 61/5/1 62/6/1 58/9/1 57/10/1
f 64/11/15 60/7/15 58/6/15 62/12/15
f 65/5/4 66/6/4 68/7/4 67/8/4
f 67/5/2 68/6/2 72/9/2 71/10/2
f 71/5/3 72/6/3 70/7/3 69/8/3
f 69/5/1 70/6/1 66/9/1 65/10/1
f 72/11/17 68/7/17 66/6/17 70/12/17
f 73/5/15 74/6/15 76/7/15 75/8/15
f 75/5/2 76/6/2 80/9/2 79/10/2
f 79/5/14 80/6/14 78/7/14 77/8/14
f 77/5/1 78/6/1 74/9/1 73/10/1
f 80/11/18 76/7/18 74/6/18 78/12/18
f 81/5/17 82/6/17 84/7/17 83/8/17
f 83/5/2 84/6/2 88/9/2 87/10/2
f 87/5/5 88/6/5 86/7/5 85/8/5
f 85/5/1 86/6/1 82/9/1 81/10/1
f 88/11/3 84/7/3 82/6/3 86/12/3
f 89/5/18 90/6/18 92/7/18 91/8/18
f 91/5/2 92/6/2 96/9/2 95/10/2
f 95/5/16 96/6/16 94/7/16 93/8/16
f 93/5/1 94/6/1 90/9/1 89/10/1
f 96/11/14 92/7/14 90/6/14 94/12/14
f 13/2/10 97/1/10 98/29/10 8/30/10
f 97/1/11 99/2/11 100/30/11 98/29/11
f 99/2/12 101/1/12 102/29/12 100/30/12
f 101/1/13 10/2/13 3/30/13 102/29/13
f 10/2/6 19/1/6 4/29/6 3/30/6
f 19/1/7 15/2/7 2/30/7 4/29/7
f 15/2/8 16/1/8 9/29/8 2/30/8
f 16/1/9 13/2/9 8/30/9 9/29/9
f 14/31/6 103/10/6 105/24/6 104/32/6
f 104/32/7 105/24/7 1/10/7 106/31/7
f 106/31/8 1/10/8 107/24/8 12/32/8
f 12/32/9 107/24/9 6/10/9 11/31/9
f 11/31/10 6/10/10 7/24/10 20/32/10
f 20/32/11 7/24/11 5/10/11 17/31/11
f 17/31/12 5/10/12 108/24/12 18/32/12
f 18/32/13 108/24/13 103/10/13 14/31/13
f 109/33/10 110/7/10 112/6/10 111/34/10
f 111/35/2 112/9/2 116/6/2 115/34/2
f 115/34/6 116/6/6 114/7/6 113/33/6
f 113/35/1 114/9/1 110/6/1 109/34/1
f 116/6/12 112/12/12 110/11/12 114/7/12
f 117/33/11 118/7/11 120/6/11 119/34/11
f 119/35/2 120/9/2 124/6/2 123/34/2
f 123/34/7 124/6/7 122/7/7 121/33/7
f 121/35/1 122/9/1 118/6/1 117/34/1
f 124/6/13 120/12/13 118/11/13 122/7/13
f 125/33/12 126/7/12 128/6/12 127/34/12
f 127/35/2 128/9/2 132/6/2 131/34/2
f 131/34/8 132/6/8 130/7/8 129/33/8
f 129/35/1 130/9/1 126/6/1 125/34/1
f 132/6/6 128/12/6 126/11/6 130/7/6
f 133/33/13 134/7/13 136/6/13 135/34/13
f 135/35/2 136/9/2 140/6/2 139/34/2
f 139/34/9 140/6/9 138/7/9 137/33/9
f 137/35/1 138/9/1 134/6/1 133/34/1
f 140/6/7 136/12/7 134/11/7 138/7/7
f 141/33/6 142/7/6 144/6/6 143/34/6
f 143/35/2 144/9/2 148/6/2 147/34/2
f 147/34/10 148/6/10 146/7/10 145/33/10
f 145/35/1 146/9/1 142/6/1 141/34/1
f 148/6/8 144/12/8 142/11/8 146/7/8
f 149/33/7 150/7/7 152/6/7 151/34/7
f 151/35/2 152/9/2 156/6/2 155/34/2
f 155/34/11 156/6/11 154/7/11 153/33/11
f 153/35/1 154/9/1 150/6/1 149/34/1
f 156/6/9 152/12/9 150/11/9 154/7/9
f 157/33/8 158/7/8 160/6/8 159/34/8
f 159/35/2 160/9/2 164/6/2 163/34/2
f 163/34/12 164/6/12 162/7/12 161/33/12
f 161/35/1 162/9/1 158/6/1 157/34/1
f 164/6/10 160/12/10 158/11/10 162/7/10
f 165/33/9 166/7/9 168/6/9 167/34/9
f 167/35/2 168/9/2 172/6/2 171/34/2
f 171/34/13 172/6/13 170/7/13 169/33/13
f 169/35/1 170/9/1 166/6/1 165/34/1
f 172/6/11 168/12/11 166/11/11 170/7/11
f 175/36/2 176/37/2 180/38/2 179/39/2
f 177/39/1 178/38/1 174/37/1 173/36/1
f 180/40/13 176/41/13 174/37/13 178/38/13
f 183/36/2 184/37/2 188/38/2 187/39/2
f 185/39/1 186/38/1 182/37/1 181/36/1
f 188/40/12 184/41/12 182/37/12 186/38/12
f 191/36/2 192/37/2 196/38/2 195/39/2
f 193/39/1 194/38/1 190/37/1 189/36/1
f 196/40/6 192/41/6 190/37/6 194/38/6
f 199/36/2 200/37/2 204/38/2 203/39/2
f 201/39/1 202/38/1 198/37/1 197/36/1
f 204/40/7 200/41/7 198/37/7 202/38/7
f 207/36/2 208/37/2 212/38/2 211/39/2
f 209/39/1 210/38/1 206/37/1 205/36/1
f 212/40/8 208/41/8 206/37/8 210/38/8
f 215/36/2 216/37/2 220/38/2 219/39/2
f 217/39/1 218/38/1 214/37/1 213/36/1
f 220/40/9 216/41/9 214/37/9 218/38/9
f 223/36/2 224/37/2 228/38/2 227/39/2
f 225/39/1 226/38/1 222/37/1 221/36/1
f 228/40/10 224/41/10 222/37/10 226/38/10
f 231/36/2 232/37/2 236/38/2 235/39/2
f 233/39/1 234/38/1 230/37/1 229/36/1
f 236/40/11 232/41/11 230/37/11 234/38/11
f 239/36/2 240/37/2 244/38/2 243/39/2
f 241/39/1 242/38/1 238/37/1 237/36/1
f 244/40/13 240/41/13 238/37/13 242/38/13
f 247/36/2 248/37/2 252/38/2 251/39/2
f 249/39/1 250/38/1 246/37/1 245/36/1
f 252/40/12 248/41/12 246/37/12 250/38/12
f 255/36/2 256/37/2 260/38/2 259/39/2
f 257/39/1 258/38/1 254/37/1 253/36/1
f 260/40/6 256/41/6 254/37/6 258/38/6
f 263/36/2 264/37/2 268/38/2 267/39/2
f 265/39/1 266/38/1 262/37/1 261/36/1
f 268/40/7 264/41/7 262/37/7 266/38/7
f 271/36/2 272/37/2 276/38/2 275/39/2
f 273/39/1 274/38/1 270/37/1 269/36/1
f 276/40/8 272/41/8 270/37/8 274/38/8
f 279/36/2 280/37/2 284/38/2 283/39/2
f 281/39/1 282/38/1 278/37/1 277/36/1
f 284/40/9 280/41/9 278/37/9 282/38/9
f 287/36/2 288/37/2 292/38/2 291/39/2
f 289/39/1 290/38/1 286/37/1 285/36/1
f 292/40/10 288/41/10 286/37/10 290/38/10
f 295/36/2 296/37/2 300/38/2 299/39/2
f 297/39/1 298/38/1 294/37/1 293/36/1
f 300/40/11 296/41/11 294/37/11 298/38/11
f 32/26/1 31/42/1 40/43/1
f 31/42/1 29/44/1 40/43/1
f 40/43/1 39/45/1 32/26/1
f 39/45/1 38/27/1 32/26/1
f 38/27/1 36/46/1 34/28/1
f 309/26/2 311/27/2 30/28/2
f 309/26/2 33/42/2 37/43/2
f 33/42/2 35/44/2 37/43/2
f 37/43/2 312/45/2 309/26/2
f 312/45/2 311/27/2 309/26/2
f 311/27/2 310/46/2 30/28/2
