# Model created by BluSunrize
mtllib connector_bundled.mtl
usemtl connector

o connector
v 0.375000 0.312500 0.625000
v 0.375000 0.125000 0.625000
v 0.625000 0.125000 0.625000
v 0.625000 0.312500 0.625000
v 0.625000 0.312500 0.375000
v 0.625000 0.125000 0.375000
v 0.375000 0.125000 0.375000
v 0.375000 0.312500 0.375000
v 0.312500 0.375000 0.687500
v 0.312500 0.250000 0.687500
v 0.687500 0.250000 0.687500
v 0.687500 0.375000 0.687500
v 0.687500 0.375000 0.312500
v 0.687500 0.250000 0.312500
v 0.312500 0.250000 0.312500
v 0.312500 0.375000 0.312500
v 0.312500 0.125000 0.687500
v 0.312500 -0.000000 0.687500
v 0.687500 -0.000000 0.687500
v 0.687500 0.125000 0.687500
v 0.687500 0.125000 0.312500
v 0.687500 -0.000000 0.312500
v 0.312500 -0.000000 0.312500
v 0.312500 0.125000 0.312500
v 0.375000 0.625000 0.625000
v 0.375000 0.375000 0.625000
v 0.625000 0.375000 0.625000
v 0.625000 0.625000 0.625000
v 0.625000 0.625000 0.375000
v 0.625000 0.375000 0.375000
v 0.375000 0.375000 0.375000
v 0.375000 0.625000 0.375000
v 0.312500 0.375000 0.687500
v 0.312500 -0.000000 0.687500
v 0.687500 -0.000000 0.687500
v 0.687500 0.375000 0.687500
v 0.687500 0.375000 0.312500
v 0.687500 -0.000000 0.312500
v 0.312500 -0.000000 0.312500
v 0.312500 0.375000 0.312500
v 0.375000 0.125000 0.687500
v 0.375000 0.250000 0.687500
v 0.375000 0.250000 0.312500
v 0.375000 0.125000 0.312500
v 0.625000 0.125000 0.687500
v 0.625000 0.250000 0.687500
v 0.625000 0.250000 0.312500
v 0.625000 0.125000 0.312500
v 0.687500 0.125000 0.625000
v 0.687500 0.250000 0.625000
v 0.312500 0.250000 0.625000
v 0.312500 0.125000 0.625000
v 0.687500 0.125000 0.375000
v 0.687500 0.250000 0.375000
v 0.312500 0.250000 0.375000
v 0.312500 0.125000 0.375000
vt 0.500000 0.250000
vt 0.500000 0.000000
vt 0.750000 0.000000
vt 0.750000 0.250000
vt 0.000000 0.250000
vt 0.000000 0.000000
vt 0.250000 0.000000
vt 0.250000 0.250000
vt 1.000000 0.250000
vt 1.000000 -0.000000
vt 0.625000 1.000000
vt 0.625000 0.625000
vt 1.000000 0.625000
vt 1.000000 1.000000
vt 1.000000 0.625000
vt 1.000000 1.000000
vt 0.625000 1.000000
vt 0.625000 0.625000
vt 0.625000 0.625000
vt 0.625000 0.250000
vt 1.000000 0.250000
vt 1.000000 0.625000
vt 1.000000 0.625000
vt 0.625000 0.625000
vt 0.625000 0.250000
vt 1.000000 0.250000
vt 0.625000 1.000000
vt 0.625000 0.625000
vt 1.000000 0.625000
vt 1.000000 1.000000
vt 1.000000 0.625000
vt 1.000000 1.000000
vt 0.625000 1.000000
vt 0.625000 0.625000
vt 0.625000 0.625000
vt 0.625000 0.250000
vt 1.000000 0.250000
vt 1.000000 0.625000
vt 0.625000 0.625000
vt 0.625000 0.250000
vt 1.000000 0.250000
vt 1.000000 0.625000
vt 0.250000 1.000000
vt 0.250000 0.750000
vt -0.000000 0.750000
vt -0.000000 1.000000
vt 0.250000 1.000000
vt 0.250000 0.750000
vt -0.000000 0.750000
vt -0.000000 1.000000
vt 0.250000 1.000000
vt 0.250000 0.750000
vt 0.500000 0.750000
vt 0.500000 1.000000
vt 1.000000 0.500000
vt 0.625000 0.500000
vt 0.625000 0.375000
vt 1.000000 0.375000
vt 1.000000 0.500000
vt 1.000000 0.375000
vt 0.625000 0.375000
vt 0.625000 0.500000
vt 1.000000 0.500000
vt 0.625000 0.500000
vt 0.625000 0.375000
vt 1.000000 0.375000
vt 1.000000 0.500000
vt 1.000000 0.375000
vt 0.625000 0.375000
vt 0.625000 0.500000
vn 0.0000 -0.0000 1.0000
vn 0.0000 0.0000 -1.0000
vn 1.0000 0.0000 0.0000
vn -1.0000 -0.0000 0.0000
vn 0.0000 1.0000 0.0000
vn 0.0000 -1.0000 -0.0000
f 1/1/1 2/2/1 3/3/1 4/4/1
f 5/5/2 6/6/2 7/7/2 8/8/2
f 5/9/3 4/4/3 3/3/3 6/10/3
f 8/8/4 7/7/4 2/2/4 1/1/4
f 16/11/5 9/12/5 12/13/5 13/14/5
f 10/15/6 15/16/6 14/17/6 11/18/6
f 40/19/4 39/20/4 34/21/4 33/22/4
f 37/23/3 36/24/3 35/25/3 38/26/3
f 24/27/5 17/28/5 20/29/5 21/30/5
f 18/31/6 23/32/6 22/33/6 19/34/6
f 37/35/2 38/36/2 39/37/2 40/38/2
f 33/39/1 34/40/1 35/41/1 36/42/1
f 25/43/1 26/44/1 27/45/1 28/46/1
f 29/47/2 30/48/2 31/49/2 32/50/2
f 32/51/5 25/52/5 28/53/5 29/54/5
f 29/47/3 28/46/3 27/45/3 30/48/3
f 32/50/4 31/49/4 26/44/4 25/43/4
f 43/55/3 42/56/3 41/57/3 44/58/3
f 47/59/4 48/60/4 45/61/4 46/62/4
f 51/63/2 50/64/2 49/65/2 52/66/2
f 55/67/1 56/68/1 53/69/1 54/70/1
