# Model created by BluSunrize
mtllib redstone_state_cell.mtl
usemtl state_cell

o state_cell
v 0.375000 0.625000 0.375000
v 0.375000 0.625000 0.625000
v 0.625000 0.625000 0.375000
v 0.375000 0.875000 0.375000
v 0.625000 0.625000 0.625000
v 0.625000 0.875000 0.375000
v 0.375000 0.875000 0.625000
v 0.625000 0.875000 0.625000
v 0.312500 -0.000000 0.312500
v 0.312500 -0.000000 0.687500
v 0.687500 -0.000000 0.312500
v 0.687500 -0.000000 0.687500
v 0.468750 0.500000 0.531250
v 0.468750 0.500000 0.468750
v 0.593750 0.500000 0.593750
v 0.531250 0.500000 0.531250
v 0.468750 0.250000 0.531250
v 0.531250 0.250000 0.531250
v 0.531250 0.500000 0.468750
v 0.593750 0.500000 0.406250
v 0.468750 0.250000 0.468750
v 0.531250 0.250000 0.468750
v 0.406250 0.500000 0.406250
v 0.406250 0.187500 0.406250
v 0.593750 0.187500 0.406250
v 0.312500 0.625000 0.312500
v 0.687500 0.625000 0.312500
v 0.687500 0.625000 0.687500
v 0.312500 0.625000 0.687500
v 0.312500 0.500000 0.375000
v 0.312500 0.500000 0.312500
v 0.375000 0.500000 0.375000
v 0.312500 0.125000 0.375000
v 0.375000 0.125000 0.375000
v 0.375000 0.500000 0.312500
v 0.312500 0.125000 0.312500
v 0.375000 0.125000 0.312500
v 0.312500 0.500000 0.687500
v 0.312500 0.500000 0.625000
v 0.375000 0.500000 0.687500
v 0.312500 0.125000 0.687500
v 0.375000 0.125000 0.687500
v 0.375000 0.500000 0.625000
v 0.312500 0.125000 0.625000
v 0.375000 0.125000 0.625000
v 0.625000 0.500000 0.687500
v 0.625000 0.500000 0.625000
v 0.687500 0.500000 0.687500
v 0.625000 0.125000 0.687500
v 0.687500 0.125000 0.687500
v 0.687500 0.500000 0.625000
v 0.625000 0.125000 0.625000
v 0.687500 0.125000 0.625000
v 0.625000 0.500000 0.375000
v 0.625000 0.500000 0.312500
v 0.687500 0.500000 0.375000
v 0.625000 0.125000 0.375000
v 0.687500 0.125000 0.375000
v 0.687500 0.500000 0.312500
v 0.625000 0.125000 0.312500
v 0.687500 0.125000 0.312500
v 0.593750 0.187500 0.593750
v 0.406250 0.187500 0.593750
v 0.406250 0.500000 0.593750
vt -0.000000 0.750000
vt -0.000000 1.000000
vt 0.250000 1.000000
vt 0.250000 0.750000
vt 0.500000 0.750000
vt 0.500000 1.000000
vt 0.875000 1.000000
vt 0.875000 0.625000
vt 0.500000 0.625000
vt 0.500000 0.500000
vt 0.875000 0.500000
vt 0.062500 0.500000
vt 0.000000 0.500000
vt 0.000000 0.750000
vt 0.062500 0.750000
vt 0.000000 0.437500
vt 0.062500 0.437500
vt 0.250000 0.250000
vt 0.250000 0.562500
vt 0.062500 0.562500
vt 0.062500 0.250000
vt 0.500000 0.375000
vt 0.875000 0.375000
vt 0.375000 0.375000
vt 0.312500 0.375000
vt 0.312500 0.750000
vt 0.375000 0.750000
vt 0.437500 0.375000
vt 0.437500 0.750000
vt 0.250000 0.375000
vn -1.0000 0.0000 0.0000
vn 0.0000 0.0000 -1.0000
vn 1.0000 0.0000 0.0000
vn 0.0000 0.0000 1.0000
vn 0.0000 1.0000 0.0000
vn 0.0000 -1.0000 -0.0000
f 1/1/1 2/2/1 7/3/1 4/4/1
f 3/4/2 1/1/2 4/2/2 6/3/2
f 5/1/3 3/4/3 6/3/3 8/2/3
f 2/4/4 5/1/4 8/2/4 7/3/4
f 4/3/5 7/4/5 8/5/5 6/6/5
f 36/7/5 41/8/5 50/9/5 61/6/5
f 9/7/6 11/6/6 12/9/6 10/8/6
f 36/8/2 61/9/2 11/10/2 9/11/2
f 41/10/1 36/11/1 9/8/1 10/9/1
f 50/10/4 41/11/4 10/8/4 12/9/4
f 61/10/3 50/11/3 12/8/3 11/9/3
f 13/12/1 14/13/1 21/14/1 17/15/1
f 16/12/4 13/13/4 17/14/4 18/15/4
f 19/13/3 16/12/3 18/15/3 22/14/3
f 14/12/2 19/13/2 22/14/2 21/15/2
f 17/13/6 21/16/6 22/17/6 18/12/6
f 20/18/2 25/19/2 24/20/2 23/21/2
f 20/18/3 15/21/3 62/20/3 25/19/3
f 23/18/1 24/19/1 63/20/1 64/21/1
f 26/7/5 29/8/5 28/9/5 27/6/5
f 31/7/6 59/6/6 48/9/6 38/8/6
f 26/11/2 27/10/2 59/22/2 31/23/2
f 29/22/1 26/23/1 31/11/1 38/10/1
f 28/22/4 29/23/4 38/11/4 48/10/4
f 27/11/3 28/10/3 48/22/3 59/23/3
f 30/24/1 31/25/1 36/26/1 33/27/1
f 32/24/4 30/25/4 33/26/4 34/27/4
f 35/25/3 32/24/3 34/27/3 37/26/3
f 31/24/2 35/25/2 37/26/2 36/27/2
f 38/22/1 39/28/1 44/29/1 41/5/1
f 40/22/4 38/28/4 41/29/4 42/5/4
f 43/28/3 40/22/3 42/5/3 45/29/3
f 39/22/2 43/28/2 45/29/2 44/5/2
f 46/28/1 47/24/1 52/27/1 49/29/1
f 48/28/4 46/24/4 49/27/4 50/29/4
f 51/24/3 48/28/3 50/29/3 53/27/3
f 47/28/2 51/24/2 53/27/2 52/29/2
f 54/25/1 55/30/1 60/4/1 57/26/1
f 56/25/4 54/30/4 57/4/4 58/26/4
f 59/30/3 56/25/3 58/26/3 61/4/3
f 55/25/2 59/30/2 61/4/2 60/26/2
f 15/18/4 64/21/4 63/20/4 62/19/4
f 25/19/6 62/4/6 63/15/6 24/20/6
