# Model created by BluSunrize
mtllib switchboard.mtl
usemtl switchboard

o switchboard
v 0.187500 0.750000 0.312500
v 0.437500 0.750000 0.312500
v 0.187500 0.750000 0.062500
v 0.187500 1.000000 0.312500
v 0.437500 0.750000 0.062500
v 0.187500 1.000000 0.062500
v 0.437500 1.000000 0.312500
v 0.437500 1.000000 0.062500
v 0.125000 -0.000000 0.375000
v 0.875000 -0.000000 0.375000
v 0.125000 -0.000000 0.000000
v 0.875000 -0.000000 0.000000
v 0.125000 0.750000 0.375000
v 0.875000 0.750000 0.375000
v 0.875000 0.750000 0.000000
v 0.125000 0.750000 0.000000
v 0.562500 1.000000 0.312500
v 0.562500 1.000000 0.062500
v 0.812500 1.000000 0.312500
v 0.562500 0.750000 0.312500
v 0.812500 1.000000 0.062500
v 0.812500 0.750000 0.312500
v 0.562500 0.750000 0.062500
v 0.812500 0.750000 0.062500
vt 0.750000 0.666667
vt 0.750000 0.833333
vt 0.916667 0.833333
vt 0.916667 0.666667
vt 0.750000 1.000000
vt 0.916667 1.000000
vt 0.500000 0.000000
vt 1.000000 0.000000
vt 1.000000 0.250000
vt 0.500000 0.250000
vt 0.500000 1.000000
vt 0.500000 0.500000
vt 0.750000 0.500000
vt -0.000000 1.000000
vt -0.000000 0.500000
vt -0.000000 0.000000
vn 0.0000 0.0000 1.0000
vn -1.0000 0.0000 -0.0000
vn 0.0000 0.0000 -1.0000
vn 1.0000 -0.0000 -0.0000
vn -0.0000 1.0000 0.0000
vn -0.0000 -1.0000 -0.0000
f 1/1/1 2/2/1 7/3/1 4/4/1
f 3/4/2 1/1/2 4/2/2 6/3/2
f 5/1/3 3/4/3 6/3/3 8/2/3
f 2/4/4 5/1/4 8/2/4 7/3/4
f 4/5/5 7/2/5 8/3/5 6/6/5
f 21/5/5 18/2/5 17/3/5 19/6/5
f 23/4/2 20/1/2 17/2/2 18/3/2
f 20/1/1 22/4/1 19/3/1 17/2/1
f 22/4/4 24/1/4 21/2/4 19/3/4
f 24/1/3 23/2/3 18/3/3 21/4/3
f 13/7/5 14/8/5 15/9/5 16/10/5
f 9/10/6 11/7/6 12/8/6 10/9/6
f 13/5/2 16/11/2 11/12/2 9/13/2
f 14/11/1 13/14/1 9/15/1 10/12/1
f 15/5/4 14/11/4 10/12/4 12/13/4
f 16/12/3 15/15/3 12/16/3 11/7/3
