mtllib transformer_post.mtl
usemtl transformer

o transformerPost
v 0.750000 1.000000 0.687500
v 0.750000 -0.000000 0.687500
v 0.250000 -0.000000 0.687500
v 0.250000 1.000000 0.687500
v 0.250000 1.000000 1.187500
v 0.250000 -0.000000 1.187500
v 0.750000 -0.000000 1.187500
v 0.750000 1.000000 1.187500
v 0.593750 0.875000 1.187500
v 0.593750 0.625000 1.187500
v 0.406250 0.625000 1.187500
v 0.406250 0.875000 1.187500
v 0.406250 0.875000 1.375000
v 0.406250 0.625000 1.375000
v 0.593750 0.625000 1.375000
v 0.593750 0.875000 1.375000
v 0.593750 0.375000 1.187500
v 0.593750 0.125000 1.187500
v 0.406250 0.125000 1.187500
v 0.406250 0.375000 1.187500
v 0.406250 0.375000 1.375000
v 0.406250 0.125000 1.375000
v 0.593750 0.125000 1.375000
v 0.593750 0.375000 1.375000
v 0.593750 0.343750 0.375000
v 0.593750 0.156250 0.375000
v 0.406250 0.156250 0.375000
v 0.406250 0.343750 0.375000
v 0.406250 0.343750 0.437500
v 0.406250 0.156250 0.437500
v 0.593750 0.156250 0.437500
v 0.593750 0.343750 0.437500
v 0.593750 1.437500 0.843750
v 0.593750 1.375000 0.843750
v 0.406250 1.375000 0.843750
v 0.406250 1.437500 0.843750
v 0.406250 1.437500 1.031250
v 0.406250 1.375000 1.031250
v 0.593750 1.375000 1.031250
v 0.593750 1.437500 1.031250
v 0.625000 0.375000 0.437500
v 0.625000 0.125000 0.437500
v 0.375000 0.125000 0.437500
v 0.375000 0.375000 0.437500
v 0.375000 0.375000 0.500000
v 0.375000 0.125000 0.500000
v 0.625000 0.125000 0.500000
v 0.625000 0.375000 0.500000
v 0.593750 0.343750 0.500000
v 0.593750 0.156250 0.500000
v 0.406250 0.156250 0.500000
v 0.406250 0.343750 0.500000
v 0.406250 0.343750 0.562500
v 0.406250 0.156250 0.562500
v 0.593750 0.156250 0.562500
v 0.593750 0.343750 0.562500
v 0.625000 0.375000 0.562500
v 0.625000 0.125000 0.562500
v 0.375000 0.125000 0.562500
v 0.375000 0.375000 0.562500
v 0.375000 0.375000 0.687500
v 0.375000 0.125000 0.687500
v 0.625000 0.125000 0.687500
v 0.625000 0.375000 0.687500
v 0.625000 1.375000 0.812500
v 0.625000 1.312500 0.812500
v 0.375000 1.312500 0.812500
v 0.375000 1.375000 0.812500
v 0.375000 1.375000 1.062500
v 0.375000 1.312500 1.062500
v 0.625000 1.312500 1.062500
v 0.625000 1.375000 1.062500
v 0.593750 1.312500 0.843750
v 0.593750 1.250000 0.843750
v 0.406250 1.250000 0.843750
v 0.406250 1.312500 0.843750
v 0.406250 1.312500 1.031250
v 0.406250 1.250000 1.031250
v 0.593750 1.250000 1.031250
v 0.593750 1.312500 1.031250
v 0.625000 1.250000 0.812500
v 0.625000 1.187500 0.812500
v 0.375000 1.187500 0.812500
v 0.375000 1.250000 0.812500
v 0.375000 1.250000 1.062500
v 0.375000 1.187500 1.062500
v 0.625000 1.187500 1.062500
v 0.625000 1.250000 1.062500
v 0.593750 1.187500 0.843750
v 0.593750 1.125000 0.843750
v 0.406250 1.125000 0.843750
v 0.406250 1.187500 0.843750
v 0.406250 1.187500 1.031250
v 0.406250 1.125000 1.031250
v 0.593750 1.125000 1.031250
v 0.593750 1.187500 1.031250
v 0.625000 1.125000 0.812500
v 0.625000 1.000000 0.812500
v 0.375000 1.000000 0.812500
v 0.375000 1.125000 0.812500
v 0.375000 1.125000 1.062500
v 0.375000 1.000000 1.062500
v 0.625000 1.000000 1.062500
v 0.625000 1.125000 1.062500
vt 0.166667 0.833333
vt 0.166667 0.500000
vt 0.333333 0.500000
vt 0.333333 0.833333
vt 0.500000 0.833333
vt 0.500000 0.500000
vt 0.666667 0.500000
vt 0.666667 0.833333
vt 0.166667 1.000000
vt 0.333333 1.000000
vt 0.500000 1.000000
vt 0.000000 0.833333
vt 0.000000 0.500000
vt 0.062500 0.437500
vt 0.062500 0.354167
vt 0.125000 0.354167
vt 0.125000 0.437500
vt 0.187500 0.437500
vt 0.187500 0.354167
vt 0.250000 0.354167
vt 0.250000 0.437500
vt 0.062500 0.500000
vt 0.125000 0.500000
vt 0.187500 0.500000
vt 0.000000 0.437500
vt 0.000000 0.354167
vt 0.270833 0.479167
vt 0.270833 0.416667
vt 0.333333 0.416667
vt 0.333333 0.479167
vt 0.354167 0.479167
vt 0.354167 0.416667
vt 0.416667 0.416667
vt 0.416667 0.479167
vt 0.270833 0.500000
vt 0.395833 0.479167
vt 0.395833 0.500000
vt 0.250000 0.479167
vt 0.250000 0.416667
vt 0.479167 0.395833
vt 0.479167 0.375000
vt 0.541667 0.375000
vt 0.541667 0.395833
vt 0.604167 0.395833
vt 0.604167 0.375000
vt 0.666667 0.375000
vt 0.666667 0.395833
vt 0.479167 0.458333
vt 0.541667 0.458333
vt 0.604167 0.458333
vt 0.416667 0.395833
vt 0.416667 0.375000
vt 0.687500 0.625000
vt 0.687500 0.541667
vt 0.770833 0.541667
vt 0.770833 0.625000
vt 0.791667 0.625000
vt 0.791667 0.541667
vt 0.875000 0.541667
vt 0.875000 0.625000
vt 0.687500 0.645833
vt 0.770833 0.645833
vt 0.854167 0.625000
vt 0.854167 0.645833
vt 0.666667 0.625000
vt 0.666667 0.541667
vt 0.020833 0.979167
vt 0.020833 0.916667
vt 0.083333 0.916667
vt 0.083333 0.979167
vt 0.104167 0.979167
vt 0.104167 0.916667
vt 0.166667 0.916667
vt 0.166667 0.979167
vt 0.020833 1.000000
vt 0.083333 1.000000
vt 0.145833 0.979167
vt 0.145833 1.000000
vt 0.000000 0.979167
vt 0.000000 0.916667
vt 0.708333 0.833333
vt 0.708333 0.750000
vt 0.791667 0.750000
vt 0.791667 0.833333
vt 0.833333 0.833333
vt 0.833333 0.750000
vt 0.916667 0.750000
vt 0.916667 0.833333
vt 0.708333 0.875000
vt 0.791667 0.875000
vt 0.875000 0.833333
vt 0.875000 0.875000
vt 0.666667 0.750000
vt 0.750000 0.666667
vt 0.750000 0.645833
vt 0.833333 0.645833
vt 0.833333 0.666667
vt 0.916667 0.666667
vt 0.916667 0.645833
vt 1.000000 0.645833
vt 1.000000 0.666667
vt 0.750000 0.750000
vt 0.666667 0.666667
vt 0.666667 0.645833
vt 0.729167 0.479167
vt 0.729167 0.458333
vt 0.791667 0.458333
vt 0.791667 0.479167
vt 0.854167 0.479167
vt 0.854167 0.458333
vt 0.916667 0.458333
vt 0.916667 0.479167
vt 0.729167 0.541667
vt 0.854167 0.541667
vt 0.666667 0.479167
vt 0.666667 0.458333
vt 0.583333 0.916667
vt 0.583333 0.875000
vt 0.666667 0.875000
vt 0.666667 0.916667
vt 0.750000 0.916667
vt 0.750000 0.875000
vt 0.833333 0.875000
vt 0.833333 0.916667
vt 0.583333 1.000000
vt 0.666667 1.000000
vt 0.750000 1.000000
vt 0.500000 0.916667
vt 0.500000 0.875000
vn 0.000000 -0.000000 -1.000000
vn 0.000000 0.000000 1.000000
vn 0.000000 1.000000 -0.000000
vn 0.000000 -1.000000 0.000000
vn -1.000000 0.000000 0.000000
vn 1.000000 0.000000 -0.000000
f 1/1/1 2/2/1 3/3/1 4/4/1
f 5/5/2 6/6/2 7/7/2 8/8/2
f 8/9/3 1/1/3 4/4/3 5/10/3
f 2/5/4 7/11/4 6/10/4 3/4/4
f 5/5/5 4/4/5 3/3/5 6/6/5
f 8/12/6 7/13/6 2/2/6 1/1/6
f 9/14/1 10/15/1 11/16/1 12/17/1
f 13/18/2 14/19/2 15/20/2 16/21/2
f 16/22/3 9/14/3 12/17/3 13/23/3
f 10/18/4 15/24/4 14/23/4 11/17/4
f 13/18/5 12/17/5 11/16/5 14/19/5
f 16/25/6 15/26/6 10/15/6 9/14/6
f 17/14/1 18/15/1 19/16/1 20/17/1
f 21/18/2 22/19/2 23/20/2 24/21/2
f 24/22/3 17/14/3 20/17/3 21/23/3
f 18/18/4 23/24/4 22/23/4 19/17/4
f 21/18/5 20/17/5 19/16/5 22/19/5
f 24/25/6 23/26/6 18/15/6 17/14/6
f 25/27/1 26/28/1 27/29/1 28/30/1
f 29/31/2 30/32/2 31/33/2 32/34/2
f 32/35/3 25/27/3 28/30/3 29/3/3
f 26/36/4 31/37/4 30/3/4 27/30/4
f 29/31/5 28/30/5 27/29/5 30/32/5
f 32/38/6 31/39/6 26/28/6 25/27/6
f 33/40/1 34/41/1 35/42/1 36/43/1
f 37/44/2 38/45/2 39/46/2 40/47/2
f 40/48/3 33/40/3 36/43/3 37/49/3
f 34/44/4 39/50/4 38/49/4 35/43/4
f 37/44/5 36/43/5 35/42/5 38/45/5
f 40/51/6 39/52/6 34/41/6 33/40/6
f 41/53/1 42/54/1 43/55/1 44/56/1
f 45/57/2 46/58/2 47/59/2 48/60/2
f 48/61/3 41/53/3 44/56/3 45/62/3
f 42/63/4 47/64/4 46/62/4 43/56/4
f 45/57/5 44/56/5 43/55/5 46/58/5
f 48/65/6 47/66/6 42/54/6 41/53/6
f 49/67/1 50/68/1 51/69/1 52/70/1
f 53/71/2 54/72/2 55/73/2 56/74/2
f 56/75/3 49/67/3 52/70/3 53/76/3
f 50/77/4 55/78/4 54/76/4 51/70/4
f 53/71/5 52/70/5 51/69/5 54/72/5
f 56/79/6 55/80/6 50/68/6 49/67/6
f 57/81/1 58/82/1 59/83/1 60/84/1
f 61/85/2 62/86/2 63/87/2 64/88/2
f 64/89/3 57/81/3 60/84/3 61/90/3
f 58/91/4 63/92/4 62/90/4 59/84/4
f 61/85/5 60/84/5 59/83/5 62/86/5
f 64/8/6 63/93/6 58/82/6 57/81/6
f 65/94/1 66/95/1 67/96/1 68/97/1
f 69/98/2 70/99/2 71/100/2 72/101/2
f 72/102/3 65/94/3 68/97/3 69/86/3
f 66/98/4 71/87/4 70/86/4 67/97/4
f 69/98/5 68/97/5 67/96/5 70/99/5
f 72/103/6 71/104/6 66/95/6 65/94/6
f 73/105/1 74/106/1 75/107/1 76/108/1
f 77/109/2 78/110/2 79/111/2 80/112/2
f 80/113/3 73/105/3 76/108/3 77/58/3
f 74/109/4 79/114/4 78/58/4 75/108/4
f 77/109/5 76/108/5 75/107/5 78/110/5
f 80/115/6 79/116/6 74/106/6 73/105/6
f 81/94/1 82/95/1 83/96/1 84/97/1
f 85/98/2 86/99/2 87/100/2 88/101/2
f 88/102/3 81/94/3 84/97/3 85/86/3
f 82/98/4 87/87/4 86/86/4 83/97/4
f 85/98/5 84/97/5 83/96/5 86/99/5
f 88/103/6 87/104/6 82/95/6 81/94/6
f 89/105/1 90/106/1 91/107/1 92/108/1
f 93/109/2 94/110/2 95/111/2 96/112/2
f 96/113/3 89/105/3 92/108/3 93/58/3
f 90/109/4 95/114/4 94/58/4 91/108/4
f 93/109/5 92/108/5 91/107/5 94/110/5
f 96/115/6 95/116/6 90/106/6 89/105/6
f 97/117/1 98/118/1 99/119/1 100/120/1
f 101/121/2 102/122/2 103/123/2 104/124/2
f 104/125/3 97/117/3 100/120/3 101/126/3
f 98/121/4 103/127/4 102/126/4 99/120/4
f 101/121/5 100/120/5 99/119/5 102/122/5
f 104/128/6 103/129/6 98/118/6 97/117/6