# Blender v2.75 (sub 0) OBJ File: 'E_meter.blend'
# Model created by Damien A.W. Hazard

o cube
v -0.378000 -0.189000 -1.008000
v -0.504000 0.000000 -0.756000
v -0.504000 1.008000 -0.756000
v 0.504000 0.000000 -0.756000
v -0.189000 -0.189000 -1.008000
v 0.504000 1.008000 -0.756000
v 0.504000 1.008000 -1.260000
v -0.504000 1.008000 -1.260000
v 0.504000 0.000000 -1.260000
v -0.504000 0.000000 -1.260000
v -0.315000 0.126000 -0.756000
v 0.315000 0.126000 -0.756000
v 0.315000 0.882000 -0.756000
v -0.315000 0.882000 -0.756000
v 0.315000 0.882000 -0.504000
v -0.315000 0.882000 -0.504000
v 0.315000 0.126000 -0.504000
v -0.315000 0.126000 -0.504000
v -0.126000 1.008000 -0.882000
v 0.126000 1.008000 -0.882000
v 0.126000 1.008000 -1.134000
v -0.126000 1.008000 -1.134000
v -0.126000 1.134000 -0.882000
v -0.126000 1.134000 -1.134000
v 0.126000 1.134000 -1.134000
v 0.126000 1.134000 -0.882000
v -0.094500 1.134000 -0.913500
v -0.094500 1.134000 -1.102500
v 0.094500 1.134000 -1.102500
v 0.094500 1.134000 -0.913500
v -0.094500 1.197000 -0.913500
v -0.094500 1.197000 -1.102500
v 0.094500 1.197000 -1.102500
v 0.094500 1.197000 -0.913500
v -0.126000 1.197000 -0.882000
v -0.126000 1.197000 -1.134000
v 0.126000 1.197000 -1.134000
v 0.126000 1.197000 -0.882000
v -0.126000 1.260000 -0.882000
v -0.126000 1.260000 -1.134000
v 0.126000 1.260000 -1.134000
v 0.126000 1.260000 -0.882000
v -0.063000 1.260000 -0.945000
v -0.063000 1.260000 -1.071000
v 0.063000 1.260000 -1.071000
v 0.063000 1.260000 -0.945000
v -0.063000 1.323000 -0.945000
v -0.063000 1.323000 -1.071000
v 0.063000 1.323000 -1.071000
v 0.063000 1.323000 -0.945000
vt 0.500000 0.500000
vt 1.000000 0.500000
vt 1.000000 1.000000
vt 0.500000 1.000000
vt 0.750000 0.500000
vt 0.750000 -0.000000
vt 1.000000 0.000000
vt 0.125000 1.000000
vt 0.125000 0.500000
vt 0.375000 0.500000
vt 0.375000 1.000000
vt 0.000000 0.500000
vt 0.000000 1.000000
vt 0.125000 0.125000
vt 0.437500 0.125000
vt 0.437500 0.500000
vt 0.437500 0.375000
vt 0.750000 0.375000
vt 0.000000 0.125000
vt 0.437500 0.250000
vt 0.562500 0.250000
vt 0.562500 0.375000
vt 0.562500 0.156250
vt 0.437500 0.156250
vt 0.437500 0.218750
vt 0.562500 0.218750
vt 0.531250 0.218750
vt 0.531250 0.250000
vt 0.437500 0.187500
vt 0.562500 0.187500
vt 0.562500 0.312500
vt 0.625000 0.312500
vt 0.625000 0.375000
vt 0.625000 0.281250
vt 0.562500 0.281250
vn 0.000000 0.000000 1.000000
vn 1.000000 0.000000 0.000000
vn 0.000000 1.000000 0.000000
vn -1.000000 0.000000 0.000000
vn 0.000000 -1.000000 0.000000
vn 0.000000 0.000000 -1.000000
f 2/1/1 4/2/1 6/3/1 3/4/1
f 6/5/2 4/6/2 9/7/2 7/2/2
f 3/8/3 6/9/3 7/10/3 8/11/3
f 2/7/4 3/2/4 8/5/4 10/6/4
f 4/5/5 2/6/5 10/7/5 9/2/5
f 10/12/6 8/1/6 7/4/6 9/13/6
f 18/14/1 17/15/1 15/16/1 16/9/1
f 11/17/5 12/18/5 17/5/5 18/16/5
f 13/17/3 14/18/3 16/5/3 15/16/3
f 12/19/2 13/12/2 15/9/2 17/14/2
f 14/12/4 11/19/4 18/14/4 16/9/4
f 23/17/3 26/20/3 25/21/3 24/22/3
f 21/23/6 22/24/6 24/25/6 25/26/6
f 20/23/2 21/24/2 25/25/2 26/26/2
f 19/23/1 20/24/1 26/25/1 23/26/1
f 22/23/4 19/24/4 23/25/4 24/26/4
f 27/27/1 30/25/1 34/20/1 31/28/1
f 28/27/4 27/25/4 31/20/4 32/28/4
f 29/20/6 28/28/6 32/27/6 33/25/6
f 30/20/2 29/28/2 33/27/2 34/25/2
f 35/17/5 36/22/5 37/21/5 38/20/5
f 39/17/3 42/20/3 41/21/3 40/22/3
f 37/23/6 36/24/6 40/29/6 41/30/6
f 38/24/2 37/23/2 41/30/2 42/29/2
f 35/23/1 38/24/1 42/29/1 39/30/1
f 36/23/4 35/24/4 39/29/4 40/30/4
f 47/22/3 50/31/3 49/32/3 48/33/3
f 43/34/1 46/35/1 50/31/1 47/32/1
f 44/34/4 43/35/4 47/31/4 48/32/4
f 45/35/6 44/34/6 48/32/6 49/31/6
f 46/35/2 45/34/2 49/32/2 50/31/2