o ends
v 0.500000 0.000000 0.437500
v 0.500000 1.000000 0.437500
v 0.544194 0.000000 0.455806
v 0.544194 1.000000 0.455806
v 0.562500 0.000000 0.500000
v 0.562500 1.000000 0.500000
v 0.544194 0.000000 0.544194
v 0.544194 1.000000 0.544194
v 0.500000 0.000000 0.562500
v 0.500000 1.000000 0.562500
v 0.455806 0.000000 0.544194
v 0.455806 1.000000 0.544194
v 0.437500 0.000000 0.500000
v 0.437500 1.000000 0.500000
v 0.455806 0.000000 0.455806
v 0.455806 1.000000 0.455806
vn 0.0000 -1.0000 0.0000
vn 0.0000 1.0000 0.0000
f 15//1 9//1 11//1 13//1
f 8//2 6//2 4//2 10//2
f 10//2 4//2 2//2 12//2
f 16//2 14//2 12//2 2//2
f 1//1 7//1 9//1 15//1
f 7//1 1//1 3//1 5//1
o tube
v 0.500000 0.000000 0.437500
v 0.500000 1.000000 0.437500
v 0.544194 0.000000 0.455806
v 0.544194 1.000000 0.455806
v 0.562500 0.000000 0.500000
v 0.562500 1.000000 0.500000
v 0.544194 0.000000 0.544194
v 0.544194 1.000000 0.544194
v 0.500000 0.000000 0.562500
v 0.500000 1.000000 0.562500
v 0.455806 0.000000 0.544194
v 0.455806 1.000000 0.544194
v 0.437500 0.000000 0.500000
v 0.437500 1.000000 0.500000
v 0.455806 0.000000 0.455806
v 0.455806 1.000000 0.455806
vn 0.3827 0.0000 -0.9239
vn 0.9239 0.0000 -0.3827
vn 0.9239 0.0000 0.3827
vn 0.3827 0.0000 0.9239
vn -0.3827 0.0000 0.9239
vn -0.9239 0.0000 0.3827
vn -0.9239 0.0000 -0.3827
vn -0.3827 0.0000 -0.9239
f 17//3 18//3 20//3 19//3
f 19//4 20//4 22//4 21//4
f 21//5 22//5 24//5 23//5
f 23//6 24//6 26//6 25//6
f 25//7 26//7 28//7 27//7
f 27//8 28//8 30//8 29//8
f 29//9 30//9 32//9 31//9
f 31//10 32//10 18//10 17//10
