# Model created by BluSunrize
mtllib powerpack.mtl

o banner
v -0.250000 1.062500 -0.375000
v -0.250000 1.062500 -1.000000
v -0.312500 1.062500 -0.375000
v -0.312500 1.062500 -1.000000
v -0.250000 -0.187500 -0.375000
v -0.250000 -0.187500 -1.000000
v -0.312500 -0.187500 -0.375000
v -0.312500 -0.187500 -1.000000
vt 0.031250 0.031250
vt 0.187500 0.031250
vt 0.187500 0.343750
vt 0.031250 0.343750
vt 0.046875 0.343750
vt 0.046875 0.031250
vt 0.171875 0.343750
vt 0.171875 0.031250
vt 0.187500 0.328125
vt 0.031250 0.328125
vn 1.0000 0.0000 0.0000
vn -1.0000 0.0000 0.0000
vn 0.0000 0.0000 -1.0000
vn 0.0000 0.0000 1.0000
vn 0.0000 -1.0000 0.0000
usemtl banner
f 2/1/1 1/2/1 5/3/1 6/4/1
f 4/1/2 8/4/2 7/3/2 3/2/2
f 2/1/3 6/4/3 8/5/3 4/6/3
f 5/7/4 1/8/4 3/2/4 7/3/4
f 5/9/5 7/3/5 8/4/5 6/10/5

o banner_post
v -0.250000 1.187500 -0.250000
v -0.250000 1.187500 -0.312500
v -0.312500 1.187500 -0.250000
v -0.312500 1.187500 -0.312500
v -0.250000 -0.250000 -0.250000
v -0.250000 -0.250000 -0.312500
v -0.312500 -0.250000 -0.250000
v -0.312500 -0.250000 -0.312500
v -0.250000 1.062500 -0.312500
v -0.250000 1.062500 -1.062500
v -0.312500 1.062500 -0.312500
v -0.312500 1.062500 -1.062500
v -0.250000 1.125000 -0.312500
v -0.250000 1.125000 -1.062500
v -0.312500 1.125000 -0.312500
v -0.312500 1.125000 -1.062500
vt 0.875000 1.000000
vt 0.843750 1.000000
vt 0.843750 0.375000
vt 0.875000 0.375000
vt 0.843750 0.968750
vt 0.875000 0.968750
vt 0.875000 0.625000
vt 0.906250 0.625000
vt 0.906250 1.000000
vt 0.906250 0.968750
vn 1.0000 0.0000 0.0000
vn -1.0000 0.0000 0.0000
vn 0.0000 1.0000 0.0000
vn 0.0000 0.0000 -1.0000
vn 0.0000 0.0000 1.0000
vn 0.0000 -1.0000 0.0000
usemtl powerpack
f 10/11/6 9/12/6 13/13/6 14/14/6
f 12/12/7 16/13/7 15/14/7 11/11/7
f 9/11/8 10/12/8 12/15/8 11/16/8
f 10/12/9 14/13/9 16/14/9 12/11/9
f 13/14/10 9/11/10 11/12/10 15/13/10
f 13/11/11 15/16/11 16/15/11 14/12/11
f 17/17/11 19/18/11 20/19/11 18/11/11
f 21/18/8 22/19/8 24/11/8 23/17/8
f 17/18/6 18/19/6 22/11/6 21/17/6
f 20/11/7 19/17/7 23/18/7 24/19/7
f 18/16/9 20/20/9 24/19/9 22/11/9

o chest
v -0.250000 -0.500000 0.125000
v -0.250000 -0.000000 0.125000
v -0.250000 -0.500000 -0.125000
v -0.250000 -0.000000 -0.125000
v 0.250000 -0.500000 0.125000
v 0.250000 -0.000000 0.125000
v 0.250000 -0.500000 -0.125000
v 0.250000 -0.000000 -0.125000
vt 0.125000 0.156250
vt 0.125000 0.406250
vt 0.000000 0.406250
vt 0.000000 0.156250
vt 0.750000 0.156250
vt 0.750000 0.406250
vt 0.500000 0.406250
vt 0.500000 0.156250
vt 0.375000 0.406250
vt 0.375000 0.156250
vt 0.375000 0.531250
vt 0.125000 0.531250
vn -1.0000 0.0000 0.0000
vn 0.0000 0.0000 -1.0000
vn 1.0000 0.0000 0.0000
vn 0.0000 0.0000 1.0000
vn 0.0000 1.0000 0.0000
usemtl powerpack
f 25/21/12 26/22/12 28/23/12 27/24/12
f 27/25/13 28/26/13 32/27/13 31/28/13
f 31/28/14 32/27/14 30/29/14 29/30/14
f 29/30/15 30/29/15 26/22/15 25/21/15
f 32/31/16 28/32/16 26/22/16 30/29/16

o tubes
v 0.250000 0.107019 -0.389840
v 0.250000 0.018631 -0.478228
v 0.125000 0.107019 -0.389840
v 0.125000 0.018631 -0.478228
v 0.125000 -0.069757 -0.389840
v 0.125000 0.018631 -0.301451
v 0.250000 -0.069757 -0.389840
v 0.250000 0.018631 -0.301451
v 0.218750 0.107019 -0.434034
v 0.218750 0.062825 -0.478228
v 0.156250 0.107019 -0.434034
v 0.156250 0.062825 -0.478228
v 0.156250 0.040728 -0.456131
v 0.156250 0.084922 -0.411937
v 0.218750 0.040728 -0.456131
v 0.218750 0.084922 -0.411937
v 0.203125 0.118068 -0.467180
v 0.203125 0.095971 -0.489277
v 0.171875 0.118068 -0.467180
v 0.171875 0.095971 -0.489277
v 0.171875 0.073874 -0.467180
v 0.171875 0.095971 -0.445082
v 0.203125 0.073874 -0.467180
v 0.203125 0.095971 -0.445082
v 0.109375 0.107019 -0.389840
v 0.109375 0.018631 -0.478228
v -0.015625 0.107019 -0.389840
v -0.015625 0.018631 -0.478228
v -0.015625 -0.069757 -0.389840
v -0.015625 0.018631 -0.301451
v 0.109375 -0.069757 -0.389840
v 0.109375 0.018631 -0.301451
v 0.078125 0.107019 -0.434034
v 0.078125 0.062825 -0.478228
v 0.015625 0.107019 -0.434034
v 0.015625 0.062825 -0.478228
v 0.015625 0.040728 -0.456131
v 0.015625 0.084922 -0.411937
v 0.078125 0.040728 -0.456131
v 0.078125 0.084922 -0.411937
v 0.062500 0.118068 -0.467180
v 0.062500 0.095971 -0.489277
v 0.031250 0.118068 -0.467180
v 0.031250 0.095971 -0.489277
v 0.031250 0.073874 -0.467180
v 0.031250 0.095971 -0.445082
v 0.062500 0.073874 -0.467180
v 0.062500 0.095971 -0.445082
v -0.031250 0.107019 -0.389840
v -0.031250 0.018631 -0.478228
v -0.156250 0.107019 -0.389840
v -0.156250 0.018631 -0.478228
v -0.156250 -0.069757 -0.389840
v -0.156250 0.018631 -0.301451
v -0.031250 -0.069757 -0.389840
v -0.031250 0.018631 -0.301451
v -0.062500 0.107019 -0.434034
v -0.062500 0.062825 -0.478228
v -0.125000 0.107019 -0.434034
v -0.125000 0.062825 -0.478228
v -0.125000 0.040728 -0.456131
v -0.125000 0.084922 -0.411937
v -0.062500 0.040728 -0.456131
v -0.062500 0.084922 -0.411937
v -0.078125 0.118068 -0.467180
v -0.078125 0.095971 -0.489277
v -0.109375 0.118068 -0.467180
v -0.109375 0.095971 -0.489277
v -0.109375 0.073874 -0.467180
v -0.109375 0.095971 -0.445082
v -0.078125 0.073874 -0.467180
v -0.078125 0.095971 -0.445082
vt 0.625000 0.625000
vt 0.625000 0.562500
vt 0.562500 0.562500
vt 0.562500 0.625000
vt 0.625000 0.687500
vt 0.562500 0.687500
vt 0.531250 0.656250
vt 0.562500 0.656250
vt 0.531250 0.687500
vt 0.562500 0.640625
vt 0.531250 0.640625
vt 0.500000 0.656250
vt 0.500000 0.640625
vt 0.546875 0.656250
vt 0.546875 0.671875
vt 0.531250 0.671875
vt 0.546875 0.640625
vt 0.515625 0.640625
vt 0.515625 0.656250
vn 0.0000 -0.7071 0.7071
vn 0.0000 0.7071 -0.7071
vn 0.0000 -0.7071 -0.7071
vn 0.0000 0.7071 0.7071
vn -1.0000 0.0000 0.0000
vn 1.0000 0.0000 0.0000
usemtl powerpack
f 39/33/17 40/34/17 38/35/17 37/36/17
f 34/36/18 36/33/18 35/37/18 33/38/18
f 37/34/19 36/33/19 34/36/19 39/35/19
f 40/34/20 33/33/20 35/36/20 38/35/20
f 38/34/21 35/33/21 36/36/21 37/35/21
f 39/34/22 34/33/22 33/36/22 40/35/22
f 42/39/18 44/40/18 43/38/18 41/41/18
f 45/42/19 44/40/19 42/39/19 47/43/19
f 48/42/20 41/40/20 43/39/20 46/43/20
f 46/43/21 43/39/21 44/44/21 45/45/21
f 47/43/22 42/39/22 41/44/22 48/45/22
f 50/39/18 52/46/18 51/47/18 49/48/18
f 53/49/19 52/46/19 50/39/19 55/43/19
f 56/50/20 49/51/20 51/44/20 54/45/20
f 54/42/21 51/40/21 52/46/21 53/49/21
f 55/43/22 50/39/22 49/51/22 56/50/22
f 63/33/17 64/34/17 62/35/17 61/36/17
f 58/36/18 60/33/18 59/37/18 57/38/18
f 61/34/19 60/33/19 58/36/19 63/35/19
f 64/34/20 57/33/20 59/36/20 62/35/20
f 62/34/21 59/33/21 60/36/21 61/35/21
f 63/34/22 58/33/22 57/36/22 64/35/22
f 66/39/18 68/40/18 67/38/18 65/41/18
f 69/42/19 68/40/19 66/39/19 71/43/19
f 72/42/20 65/40/20 67/39/20 70/43/20
f 70/43/21 67/39/21 68/44/21 69/45/21
f 71/43/22 66/39/22 65/44/22 72/45/22
f 74/39/18 76/46/18 75/47/18 73/48/18
f 77/49/19 76/46/19 74/39/19 79/43/19
f 80/50/20 73/51/20 75/44/20 78/45/20
f 78/42/21 75/40/21 76/46/21 77/49/21
f 79/43/22 74/39/22 73/51/22 80/50/22
f 87/33/17 88/34/17 86/35/17 85/36/17
f 82/36/18 84/33/18 83/37/18 81/38/18
f 85/34/19 84/33/19 82/36/19 87/35/19
f 88/34/20 81/33/20 83/36/20 86/35/20
f 86/34/21 83/33/21 84/36/21 85/35/21
f 87/34/22 82/33/22 81/36/22 88/35/22
f 90/39/18 92/40/18 91/38/18 89/41/18
f 93/42/19 92/40/19 90/39/19 95/43/19
f 96/42/20 89/40/20 91/39/20 94/43/20
f 94/43/21 91/39/21 92/44/21 93/45/21
f 95/43/22 90/39/22 89/44/22 96/45/22
f 98/39/18 100/46/18 99/47/18 97/48/18
f 101/49/19 100/46/19 98/39/19 103/43/19
f 104/50/20 97/51/20 99/44/20 102/45/20
f 102/42/21 99/40/21 100/46/21 101/49/21
f 103/43/22 98/39/22 97/51/22 104/50/22

o base
v 0.218750 0.073874 -0.400888
v 0.218750 0.029680 -0.445082
v 0.156250 0.073874 -0.400888
v 0.156250 0.029680 -0.445082
v 0.156250 -0.102903 -0.312500
v 0.156250 -0.058709 -0.268306
v 0.218750 -0.102903 -0.312500
v 0.218750 -0.058709 -0.268306
v 0.234375 0.007583 -0.312500
v 0.234375 -0.058709 -0.378791
v 0.140625 0.007583 -0.312500
v 0.140625 -0.058709 -0.378791
v 0.140625 -0.125000 -0.312500
v 0.140625 -0.058709 -0.246209
v 0.234375 -0.125000 -0.312500
v 0.234375 -0.058709 -0.246209
v 0.078125 0.073874 -0.400888
v 0.078125 0.029680 -0.445082
v 0.015625 0.073874 -0.400888
v 0.015625 0.029680 -0.445082
v 0.015625 -0.102903 -0.312500
v 0.015625 -0.058709 -0.268306
v 0.078125 -0.102903 -0.312500
v 0.078125 -0.058709 -0.268306
v 0.093750 0.007583 -0.312500
v 0.093750 -0.058709 -0.378791
v 0.000000 0.007583 -0.312500
v 0.000000 -0.058709 -0.378791
v 0.000000 -0.125000 -0.312500
v 0.000000 -0.058709 -0.246209
v 0.093750 -0.125000 -0.312500
v 0.093750 -0.058709 -0.246209
v -0.062500 0.073874 -0.400888
v -0.062500 0.029680 -0.445082
v -0.125000 0.073874 -0.400888
v -0.125000 0.029680 -0.445082
v -0.125000 -0.102903 -0.312500
v -0.125000 -0.058709 -0.268306
v -0.062500 -0.102903 -0.312500
v -0.062500 -0.058709 -0.268306
v -0.046875 0.007583 -0.312500
v -0.046875 -0.058709 -0.378791
v -0.140625 0.007583 -0.312500
v -0.140625 -0.058709 -0.378791
v -0.140625 -0.125000 -0.312500
v -0.140625 -0.058709 -0.246209
v -0.046875 -0.125000 -0.312500
v -0.046875 -0.058709 -0.246209
v -0.250000 -0.625000 -0.125000
v -0.250000 0.000000 -0.125000
v 0.250000 0.000000 -0.125000
v 0.250000 -0.625000 -0.125000
v -0.250000 0.000000 -0.312500
v 0.250000 0.000000 -0.312500
v -0.250000 -0.625000 -0.312500
v 0.250000 -0.625000 -0.312500
v -0.250000 -0.562500 -0.125000
v -0.250000 -0.062500 -0.125000
v -0.250000 -0.562500 -0.250000
v -0.250000 -0.062500 -0.250000
v -0.375000 -0.562500 -0.250000
v -0.375000 -0.062500 -0.250000
v -0.375000 -0.562500 -0.125000
v -0.375000 -0.062500 -0.125000
v 0.375000 -0.062500 -0.125000
v 0.375000 -0.562500 -0.125000
v 0.375000 -0.062500 -0.250000
v 0.375000 -0.562500 -0.250000
v 0.250000 -0.062500 -0.125000
v 0.250000 -0.562500 -0.125000
v 0.250000 -0.062500 -0.250000
v 0.250000 -0.562500 -0.250000
v -0.187500 -0.625000 -0.375000
v 0.187500 -0.625000 -0.375000
v -0.187500 -0.625000 -0.125000
v 0.187500 -0.625000 -0.125000
v -0.187500 -0.875000 -0.375000
v 0.187500 -0.875000 -0.375000
v -0.187500 -0.875000 -0.125000
v 0.187500 -0.875000 -0.125000
v 0.343750 -0.656250 -0.343750
v 0.343750 -0.656250 -0.156250
v 0.343750 -0.843750 -0.343750
v 0.343750 -0.843750 -0.156250
v 0.406250 -0.843750 -0.156250
v 0.093750 -0.437500 -0.281250
v 0.031250 -0.437500 -0.343750
v 0.031250 -0.437500 -0.281250
v 0.156250 -0.656250 -0.343750
v 0.156250 -0.656250 -0.156250
v 0.156250 -0.843750 -0.343750
v 0.156250 -0.843750 -0.156250
v 0.468750 -0.843750 -0.156250
v 0.468750 -0.843750 -0.343750
v 0.468750 -0.656250 -0.156250
v 0.468750 -0.656250 -0.343750
v -0.343750 -0.843750 -0.156250
v -0.343750 -0.843750 -0.343750
v -0.343750 -0.656250 -0.156250
v -0.343750 -0.656250 -0.343750
v 0.500000 -0.812500 -0.187500
v 0.500000 -0.812500 -0.312500
v 0.500000 -0.687500 -0.187500
v 0.500000 -0.687500 -0.312500
v 0.093750 -0.437500 -0.343750
v 0.406250 -0.843750 -0.343750
v 0.406250 -0.656250 -0.156250
v 0.406250 -0.656250 -0.343750
v 0.312500 -0.687500 -0.312500
v 0.312500 -0.687500 -0.187500
v 0.312500 -0.812500 -0.312500
v 0.312500 -0.812500 -0.187500
v 0.093750 -0.250000 -0.343750
v -0.406250 -0.843750 -0.343750
v 0.093750 -0.250000 -0.281250
v 0.031250 -0.250000 -0.343750
v -0.156250 -0.656250 -0.343750
v -0.156250 -0.656250 -0.156250
v -0.156250 -0.843750 -0.343750
v -0.156250 -0.843750 -0.156250
v -0.468750 -0.843750 -0.156250
v -0.468750 -0.843750 -0.343750
v -0.468750 -0.656250 -0.156250
v -0.468750 -0.656250 -0.343750
v -0.500000 -0.812500 -0.187500
v -0.500000 -0.812500 -0.312500
v -0.500000 -0.687500 -0.187500
v -0.500000 -0.687500 -0.312500
v -0.406250 -0.843750 -0.156250
v -0.406250 -0.656250 -0.156250
v -0.406250 -0.656250 -0.343750
v -0.312500 -0.687500 -0.312500
v -0.312500 -0.687500 -0.187500
v -0.312500 -0.812500 -0.312500
v -0.312500 -0.812500 -0.187500
v -0.156250 -0.500000 -0.281250
v -0.156250 -0.500000 -0.343750
v -0.156250 -0.437500 -0.281250
v -0.156250 -0.437500 -0.343750
v 0.031250 -0.500000 -0.343750
v -0.218750 -0.437500 -0.281250
v 0.031250 -0.500000 -0.281250
v -0.218750 -0.437500 -0.343750
v -0.156250 -0.250000 -0.281250
v -0.156250 -0.250000 -0.343750
v -0.156250 -0.187500 -0.281250
v -0.156250 -0.187500 -0.343750
v 0.031250 -0.187500 -0.343750
v -0.218750 -0.250000 -0.343750
v 0.031250 -0.250000 -0.281250
v 0.031250 -0.187500 -0.281250
v -0.218750 -0.250000 -0.281250
vt 0.656250 0.656250
vt 0.625000 0.656250
vt 0.625000 0.687500
vt 0.656250 0.687500
vt 0.625000 0.562500
vt 0.656250 0.562500
vt 0.554688 0.570312
vt 0.554688 0.617188
vt 0.507812 0.617188
vt 0.507812 0.570312
vt 0.843750 1.000000
vt 0.593750 1.000000
vt 0.593750 0.687500
vt 0.843750 0.687500
vt 0.250000 1.000000
vt 0.250000 0.687500
vt 0.500000 0.687500
vt 0.500000 1.000000
vt 0.250000 0.593750
vt 0.500000 0.593750
vt 0.062500 0.937500
vt 0.062500 1.000000
vt 0.000000 1.000000
vt 0.000000 0.937500
vt 0.062500 0.687500
vt 0.125000 0.687500
vt 0.125000 0.937500
vt 0.000000 0.687500
vt 0.125000 0.875000
vt 0.250000 0.875000
vt 0.125000 1.000000
vt 0.000000 0.593750
vt 0.093750 0.593750
vt 0.093750 0.687500
vt 0.187500 0.687500
vt 0.187500 0.593750
vt 0.218750 0.593750
vt 0.218750 0.687500
vt 0.062500 0.593750
vt 0.062500 0.531250
vt 0.125000 0.531250
vt 0.125000 0.593750
vt 0.000000 0.531250
vt 0.687500 0.656250
vt 0.687500 0.562500
vt 0.687500 0.625000
vt 0.656250 0.625000
vt 0.687500 0.593750
vt 0.656250 0.593750
vn 0.0000 0.7071 -0.7071
vn 0.0000 -0.7071 -0.7071
vn 0.0000 0.7071 0.7071
vn -1.0000 0.0000 0.0000
vn 1.0000 0.0000 0.0000
vn 0.0000 0.0000 1.0000
vn 0.0000 0.0000 -1.0000
vn 0.0000 1.0000 0.0000
vn 0.0000 -1.0000 0.0000
usemtl powerpack
f 106/52/23 108/53/23 107/54/23 105/55/23
f 109/56/24 108/53/24 106/52/24 111/57/24
f 112/56/25 105/53/25 107/52/25 110/57/25
f 110/56/26 107/53/26 108/52/26 109/57/26
f 111/56/27 106/53/27 105/52/27 112/57/27
f 117/58/24 116/59/24 114/60/24 119/61/24
f 120/58/25 113/59/25 115/60/25 118/61/25
f 118/58/26 115/59/26 116/60/26 117/61/26
f 119/58/27 114/59/27 113/60/27 120/61/27
f 122/52/23 124/53/23 123/54/23 121/55/23
f 125/56/24 124/53/24 122/52/24 127/57/24
f 128/56/25 121/53/25 123/52/25 126/57/25
f 126/56/26 123/53/26 124/52/26 125/57/26
f 127/56/27 122/53/27 121/52/27 128/57/27
f 133/58/24 132/59/24 130/60/24 135/61/24
f 136/58/25 129/59/25 131/60/25 134/61/25
f 134/58/26 131/59/26 132/60/26 133/61/26
f 135/58/27 130/59/27 129/60/27 136/61/27
f 138/52/23 140/53/23 139/54/23 137/55/23
f 141/56/24 140/53/24 138/52/24 143/57/24
f 144/56/25 137/53/25 139/52/25 142/57/25
f 142/56/26 139/53/26 140/52/26 141/57/26
f 143/56/27 138/53/27 137/52/27 144/57/27
f 149/58/24 148/59/24 146/60/24 151/61/24
f 152/58/25 145/59/25 147/60/25 150/61/25
f 150/58/26 147/59/26 148/60/26 149/61/26
f 151/58/27 146/59/27 145/60/27 152/61/27
f 155/62/28 154/63/28 153/64/28 156/65/28
f 158/66/29 160/67/29 159/68/29 157/69/29
f 154/68/30 155/67/30 158/70/30 157/71/30
f 155/69/27 156/68/27 160/64/27 158/63/27
f 153/68/26 154/69/26 157/63/26 159/64/26
f 156/70/31 153/71/31 159/68/31 160/67/31
f 167/72/31 165/73/31 163/74/31 161/75/31
f 166/72/30 168/73/30 162/74/30 164/75/30
f 168/72/28 167/76/28 161/77/28 162/78/28
f 165/72/29 166/76/29 164/77/29 163/78/29
f 167/75/26 168/79/26 166/76/26 165/72/26
f 170/75/27 172/72/27 171/76/27 169/79/27
f 172/72/29 176/78/29 175/77/29 171/76/29
f 169/72/28 173/78/28 174/77/28 170/76/28
f 171/72/30 175/75/30 173/74/30 169/73/30
f 170/72/31 174/75/31 176/74/31 172/73/31
f 178/80/30 177/77/30 179/67/30 180/81/30
f 182/80/31 184/81/31 183/67/31 181/77/31
f 177/66/26 181/82/26 183/80/26 179/81/26
f 179/81/28 183/80/28 184/77/28 180/67/28
f 180/66/27 184/82/27 182/80/27 178/81/27
f 178/67/29 182/77/29 181/80/29 177/81/29
f 186/79/27 188/83/27 187/84/27 185/85/27
f 211/79/26 212/85/26 210/84/26 189/83/26
f 198/86/31 197/87/31 189/88/31 210/89/31
f 188/85/28 186/84/28 194/87/28 196/86/28
f 186/85/30 185/84/30 193/87/30 194/86/30
f 185/85/29 187/84/29 195/87/29 193/86/29
f 187/85/31 188/84/31 196/87/31 195/86/31
f 200/86/29 198/87/29 210/88/29 212/89/29
f 199/86/30 200/87/30 212/88/30 211/89/30
f 197/88/28 199/89/28 211/86/28 189/87/28
f 199/79/27 197/83/27 198/84/27 200/85/27
f 203/79/26 204/85/26 202/84/26 201/83/26
f 208/90/29 206/91/29 215/92/29 213/93/29
f 207/90/30 208/91/30 213/92/30 214/93/30
f 205/92/28 207/93/28 214/90/28 216/91/28
f 207/83/27 205/94/27 206/91/27 208/90/27
f 206/90/31 205/91/31 216/92/31 215/93/31
f 234/79/27 233/83/27 218/84/27 235/85/27
f 226/86/31 218/89/31 233/88/31 225/87/31
f 201/85/28 224/86/28 222/87/28 203/84/28
f 203/85/30 222/86/30 221/87/30 204/84/30
f 204/85/29 221/86/29 223/87/29 202/84/29
f 202/85/31 223/86/31 224/87/31 201/84/31
f 228/86/29 235/89/29 218/88/29 226/87/29
f 227/86/30 234/89/30 235/88/30 228/87/30
f 225/88/28 233/87/28 234/86/28 227/89/28
f 227/79/26 228/85/26 226/84/26 225/83/26
f 232/90/29 236/93/29 238/92/29 230/91/29
f 231/90/30 237/93/30 236/92/30 232/91/30
f 229/92/28 239/91/28 237/90/28 231/93/28
f 231/83/26 232/90/26 230/91/26 229/94/26
f 230/90/31 238/93/31 239/92/31 229/91/31
f 243/95/29 191/96/29 244/57/29 241/52/29
f 242/95/30 192/96/30 191/57/30 243/52/30
f 242/95/26 243/97/26 241/98/26 240/52/26
f 241/95/31 244/96/31 246/57/31 240/52/31
f 192/99/27 246/100/27 244/57/27 191/96/27
f 251/95/29 252/96/29 220/57/29 249/52/29
f 250/95/30 255/96/30 252/57/30 251/52/30
f 250/95/26 251/97/26 249/98/26 248/52/26
f 249/95/31 220/96/31 254/57/31 248/52/31
f 255/99/27 254/100/27 220/57/27 252/96/27
f 249/95/29 243/96/29 247/57/29 253/52/29
f 248/95/27 242/96/27 243/57/27 249/52/27
f 248/95/30 249/97/30 253/98/30 256/52/30
f 253/95/26 247/96/26 245/57/26 256/52/26
f 242/99/31 245/100/31 247/57/31 243/96/31
f 217/95/29 209/96/29 191/57/29 220/52/29
f 219/95/27 190/96/27 209/57/27 217/52/27
f 219/95/30 217/97/30 220/98/30 254/52/30
f 220/95/26 191/96/26 192/57/26 254/52/26
f 190/99/31 192/100/31 191/57/31 209/96/31
