# Model created by sinsinewave
mtllib cagelamp.mtl

o cube
v 0.312500 0.562500 0.437500
v 0.625000 0.125000 0.625000
v 0.625000 0.562500 0.625000
v 0.375000 0.562500 0.625000
v 0.375000 0.125000 0.625000
v 0.375000 0.125000 0.750000
v 0.375000 0.250000 0.750000
v 0.375000 0.250000 0.687500
v 0.375000 0.125000 0.687500
v 0.312500 0.125000 0.625000
v 0.312500 0.250000 0.625000
v 0.250000 0.250000 0.625000
v 0.250000 0.125000 0.625000
v 0.312500 0.125000 0.562500
v 0.312500 0.250000 0.562500
v 0.437500 0.250000 0.687500
v 0.437500 0.250000 0.750000
v 0.437500 0.125000 0.750000
v 0.437500 0.125000 0.687500
v 0.562500 0.500000 0.687500
v 0.562500 0.500000 0.750000
v 0.437500 0.500000 0.750000
v 0.437500 0.500000 0.687500
v 0.437500 0.687500 0.562500
v 0.562500 0.687500 0.562500
v 0.562500 0.625000 0.562500
v 0.437500 0.625000 0.562500
v 0.375000 0.562500 0.750000
v 0.375000 0.562500 0.687500
v 0.250000 0.312500 0.437500
v 0.250000 0.312500 0.562500
v 0.312500 0.312500 0.562500
v 0.312500 0.312500 0.437500
v 0.562500 0.312500 0.687500
v 0.437500 0.312500 0.687500
v 0.437500 0.312500 0.750000
v 0.562500 0.312500 0.750000
v 0.375000 0.687500 0.562500
v 0.375000 0.687500 0.437500
v 0.375000 0.625000 0.437500
v 0.562500 0.625000 0.625000
v 0.250000 0.500000 0.625000
v 0.312500 0.500000 0.625000
v 0.250000 0.500000 0.562500
v 0.312500 0.500000 0.562500
v 0.250000 0.312500 0.625000
v 0.312500 0.312500 0.625000
v 0.375000 0.312500 0.750000
v 0.375000 0.500000 0.750000
v 0.375000 0.500000 0.687500
v 0.375000 0.312500 0.687500
v 0.250000 0.562500 0.312500
v 0.250000 0.625000 0.625000
v 0.250000 0.687500 0.562500
v 0.250000 0.562500 0.625000
v 0.250000 0.312500 0.375000
v 0.250000 0.250000 0.375000
v 0.250000 0.250000 0.437500
v 0.250000 0.250000 0.562500
v 0.250000 0.562500 0.687500
v 0.625000 0.625000 0.625000
v 0.437500 0.562500 0.750000
v 0.437500 0.562500 0.687500
v 0.562500 0.562500 0.750000
v 0.562500 0.562500 0.687500
v 0.375000 0.687500 0.625000
v 0.437500 0.687500 0.625000
v 0.562500 0.687500 0.625000
v 0.437500 0.625000 0.437500
v 0.437500 0.687500 0.437500
v 0.250000 0.500000 0.375000
v 0.250000 0.500000 0.437500
v 0.625000 0.562500 0.750000
v 0.625000 0.500000 0.750000
v 0.625000 0.312500 0.750000
v 0.562500 0.250000 0.750000
v 0.625000 0.250000 0.750000
v 0.312500 0.250000 0.437500
v 0.312500 0.500000 0.437500
v 0.562500 0.250000 0.687500
v 0.375000 0.125000 0.375000
v 0.375000 0.562500 0.375000
v 0.687500 0.125000 0.562500
v 0.687500 0.250000 0.562500
v 0.750000 0.250000 0.562500
v 0.750000 0.125000 0.562500
v 0.250000 0.125000 0.562500
v 0.625000 0.125000 0.750000
v 0.562500 0.125000 0.750000
v 0.562500 0.125000 0.687500
v 0.625000 0.125000 0.687500
v 0.687500 0.562500 0.437500
v 0.625000 0.250000 0.687500
v 0.750000 0.125000 0.625000
v 0.750000 0.250000 0.625000
v 0.687500 0.250000 0.625000
v 0.687500 0.125000 0.625000
v 0.625000 0.562500 0.375000
v 0.812500 -0.000000 0.812500
v 0.625000 0.562500 0.687500
v 0.750000 0.312500 0.437500
v 0.687500 0.312500 0.437500
v 0.687500 0.312500 0.562500
v 0.750000 0.312500 0.562500
v 0.437500 0.625000 0.625000
v 0.625000 0.625000 0.437500
v 0.625000 0.687500 0.437500
v 0.625000 0.687500 0.562500
v 0.750000 0.500000 0.625000
v 0.750000 0.562500 0.312500
v 0.687500 0.500000 0.625000
v 0.687500 0.500000 0.562500
v 0.750000 0.500000 0.562500
v 0.750000 0.312500 0.625000
v 0.687500 0.312500 0.625000
v 0.625000 0.312500 0.687500
v 0.625000 0.500000 0.687500
v 0.750000 0.500000 0.312500
v 0.750000 0.687500 0.562500
v 0.750000 0.250000 0.437500
v 0.750000 0.250000 0.375000
v 0.750000 0.312500 0.375000
v 0.750000 0.562500 0.687500
v 0.625000 0.625000 0.687500
v 0.625000 0.625000 0.750000
v 0.375000 0.625000 0.625000
v 0.562500 0.625000 0.750000
v 0.625000 0.687500 0.625000
v 0.562500 0.625000 0.437500
v 0.562500 0.687500 0.437500
v 0.750000 0.500000 0.437500
v 0.750000 0.500000 0.375000
v 0.750000 0.562500 0.375000
v 0.687500 0.250000 0.437500
v 0.687500 0.500000 0.437500
v 0.625000 0.125000 0.375000
v 0.312500 0.125000 0.437500
v 0.250000 0.125000 0.437500
v 0.187500 0.000000 0.187500
v 0.375000 0.125000 0.250000
v 0.375000 0.125000 0.312500
v 0.375000 0.250000 0.312500
v 0.375000 0.250000 0.250000
v 0.250000 0.125000 0.375000
v 0.312500 0.250000 0.375000
v 0.312500 0.125000 0.375000
v 0.437500 0.250000 0.312500
v 0.437500 0.125000 0.312500
v 0.437500 0.125000 0.250000
v 0.437500 0.250000 0.250000
v 0.750000 0.125000 0.375000
v 0.750000 0.125000 0.437500
v 0.687500 0.125000 0.437500
v 0.687500 0.125000 0.375000
v 0.562500 0.500000 0.312500
v 0.437500 0.500000 0.312500
v 0.437500 0.500000 0.250000
v 0.562500 0.500000 0.250000
v 0.375000 0.562500 0.312500
v 0.562500 0.312500 0.312500
v 0.562500 0.312500 0.250000
v 0.437500 0.312500 0.250000
v 0.437500 0.312500 0.312500
v 0.312500 0.500000 0.375000
v 0.312500 0.312500 0.375000
v 0.375000 0.312500 0.250000
v 0.375000 0.312500 0.312500
v 0.375000 0.500000 0.312500
v 0.375000 0.500000 0.250000
v 0.250000 0.625000 0.375000
v 0.250000 0.625000 0.437500
v 0.250000 0.687500 0.437500
v 0.312500 0.562500 0.375000
v 0.437500 0.625000 0.375000
v 0.562500 0.625000 0.375000
v 0.375000 0.625000 0.250000
v 0.312500 0.625000 0.437500
v 0.437500 0.562500 0.250000
v 0.437500 0.625000 0.250000
v 0.437500 0.562500 0.312500
v 0.312500 0.625000 0.375000
v 0.562500 0.562500 0.312500
v 0.562500 0.562500 0.250000
v 0.375000 0.625000 0.375000
v 0.375000 0.687500 0.375000
v 0.562500 0.687500 0.375000
v 0.437500 0.687500 0.375000
v 0.625000 0.500000 0.250000
v 0.625000 0.312500 0.250000
v 0.625000 0.250000 0.250000
v 0.562500 0.250000 0.250000
v 0.562500 0.250000 0.312500
v 0.625000 0.125000 0.312500
v 0.562500 0.125000 0.312500
v 0.562500 0.125000 0.250000
v 0.625000 0.125000 0.250000
v 0.625000 0.250000 0.312500
v 0.687500 0.250000 0.375000
v 0.625000 0.562500 0.312500
v 0.687500 0.500000 0.375000
v 0.687500 0.312500 0.375000
v 0.625000 0.500000 0.312500
v 0.625000 0.312500 0.312500
v 0.750000 0.625000 0.375000
v 0.750000 0.687500 0.437500
v 0.687500 0.562500 0.375000
v 0.687500 0.625000 0.437500
v 0.562500 0.625000 0.250000
v 0.687500 0.625000 0.375000
v 0.625000 0.687500 0.375000
v 0.625000 0.625000 0.375000
v 0.812500 0.125000 0.812500
v 0.187500 0.125000 0.812500
v 0.250000 0.500000 0.312500
v 0.750000 0.500000 0.250000
v 0.750000 0.250000 0.312500
v 0.750000 0.250000 0.250000
v 0.750000 0.562500 0.250000
v 0.250000 0.250000 0.312500
v 0.750000 0.500000 0.687500
v 0.750000 0.500000 0.750000
v 0.250000 0.500000 0.687500
v 0.250000 0.250000 0.687500
v 0.750000 0.250000 0.750000
v 0.750000 0.250000 0.687500
v 0.250000 0.312500 0.750000
v 0.250000 0.312500 0.250000
v 0.250000 0.250000 0.250000
v 0.250000 0.250000 0.750000
v 0.250000 0.562500 0.250000
v 0.250000 0.500000 0.250000
v 0.250000 0.500000 0.750000
v 0.750000 0.312500 0.250000
v 0.750000 0.312500 0.750000
v 0.750000 0.562500 0.750000
v 0.250000 0.562500 0.750000
v 0.250000 0.312500 0.687500
v 0.312500 0.312500 0.312500
v 0.250000 0.312500 0.312500
v 0.750000 0.312500 0.687500
v 0.750000 0.312500 0.312500
v 0.687500 0.312500 0.312500
v 0.687500 0.250000 0.312500
v 0.687500 0.500000 0.312500
v 0.687500 0.562500 0.312500
v 0.312500 0.500000 0.312500
v 0.312500 0.250000 0.312500
v 0.312500 0.562500 0.687500
v 0.687500 0.562500 0.687500
v 0.687500 0.500000 0.687500
v 0.312500 0.250000 0.687500
v 0.312500 0.312500 0.687500
v 0.687500 0.250000 0.687500
v 0.687500 0.312500 0.687500
v 0.312500 0.562500 0.312500
v 0.312500 0.500000 0.687500
v 0.562500 0.687500 0.750000
v 0.625000 0.687500 0.250000
v 0.375000 0.687500 0.750000
v 0.375000 0.687500 0.250000
v 0.437500 0.687500 0.250000
v 0.437500 0.625000 0.750000
v 0.625000 0.687500 0.750000
v 0.625000 0.625000 0.250000
v 0.375000 0.625000 0.750000
v 0.250000 0.687500 0.375000
v 0.750000 0.687500 0.375000
v 0.750000 0.625000 0.437500
v 0.750000 0.687500 0.625000
v 0.750000 0.625000 0.625000
v 0.250000 0.562500 0.437500
v 0.250000 0.562500 0.562500
v 0.250000 0.687500 0.625000
v 0.437500 0.687500 0.750000
v 0.250000 0.562500 0.375000
v 0.750000 0.562500 0.437500
v 0.750000 0.562500 0.625000
v 0.375000 0.625000 0.687500
v 0.437500 0.625000 0.687500
v 0.750000 0.562500 0.562500
v 0.562500 0.625000 0.312500
v 0.625000 0.625000 0.312500
v 0.250000 0.625000 0.562500
v 0.312500 0.625000 0.625000
v 0.375000 0.562500 0.250000
v 0.312500 0.625000 0.562500
v 0.312500 0.562500 0.625000
v 0.437500 0.625000 0.312500
v 0.687500 0.625000 0.625000
v 0.687500 0.625000 0.562500
v 0.687500 0.562500 0.625000
v 0.625000 0.562500 0.250000
v 0.375000 0.625000 0.312500
v 0.562500 0.625000 0.687500
v 0.750000 0.625000 0.562500
v 0.562500 0.687500 0.250000
v 0.312500 0.562500 0.562500
v 0.375000 0.625000 0.562500
v 0.687500 0.562500 0.562500
v 0.625000 0.625000 0.562500
v 0.187500 -0.000000 0.812500
v 0.812500 0.000000 0.187500
v 0.812500 0.125000 0.187500
v 0.187500 0.125000 0.187500
vt 0.000000 0.625000
vt 0.000000 1.000000
vt 0.062500 1.000000
vt 0.062500 0.625000
vt 0.250000 1.000000
vt 0.250000 0.625000
vt 0.312500 0.625000
vt 0.312500 1.000000
vt 0.437500 1.000000
vt 0.500000 1.000000
vt 0.500000 0.625000
vt 0.437500 0.625000
vt 0.562500 0.625000
vt 0.562500 0.750000
vt 0.500000 0.750000
vt 0.125000 0.625000
vt 0.125000 0.750000
vt 0.062500 0.750000
vt 0.062500 0.937500
vt 0.062500 0.875000
vt 0.187500 0.875000
vt 0.187500 0.937500
vt 0.062500 0.812500
vt 0.125000 1.000000
vt 0.125000 0.812500
vt 0.437500 0.812500
vt 0.375000 1.000000
vt 0.375000 0.812500
vt 0.125000 0.875000
vt 0.562500 0.812500
vt 0.562500 1.000000
vt 0.500000 0.812500
vt 0.250000 0.812500
vt 0.187500 1.000000
vt 0.187500 0.812500
vt 0.562500 0.875000
vt 0.500000 0.875000
vt 0.437500 0.937500
vt 0.375000 0.937500
vt 0.187500 0.750000
vt 0.250000 0.875000
vt 0.250000 0.750000
vt 0.250000 0.937500
vt 0.500000 0.937500
vt 0.562500 0.937500
vt 0.437500 0.875000
vt 0.437500 0.750000
vt 0.375000 0.750000
vt 0.375000 0.625000
vt 0.187500 0.625000
vt 0.062500 0.687500
vt 0.187500 0.687500
vt 0.312500 0.937500
vt 0.562500 0.687500
vt 0.500000 0.687500
vt 0.000000 0.937500
vt 0.125000 0.937500
vt 0.437500 0.687500
vt 0.250000 0.687500
vt 0.375000 0.875000
vt 0.000000 0.000000
vt -0.000000 0.625000
vt 0.625000 0.625000
vt 0.625000 0.000000
vt 0.750000 0.000000
vt 0.750000 0.625000
vt 1.000000 0.000000
vt 1.000000 0.437500
vt 0.750000 0.437500
vt 1.000000 0.687500
vt 0.750000 0.687500
vn 0.0000 -1.0000 -0.0000
vn 0.0000 1.0000 0.0000
vn -1.0000 0.0000 0.0000
vn 0.0000 0.0000 1.0000
vn 1.0000 0.0000 0.0000
vn 0.0000 0.0000 -1.0000
vn 0.0000 0.7071 -0.7071
vn 0.0000 -0.7071 -0.7071
vn 0.7071 0.7071 0.0000
vn 0.0000 0.7071 0.7071
vn 0.0000 -0.7071 0.7071
vn -0.7071 0.7071 0.0000
usemtl cagelamp
f 278/1/1 293/2/1 288/3/1 279/4/1
f 222/5/1 214/6/1 246/7/1 256/8/1
f 223/5/1 219/6/1 247/7/1 251/8/1
f 237/5/2 252/8/2 238/7/2 239/6/2
f 60/5/2 248/8/2 255/7/2 52/6/2
f 294/1/1 281/2/1 282/3/1 124/4/1
f 249/9/2 123/10/2 110/11/2 245/12/2
f 254/9/2 240/10/2 241/11/2 242/12/2
f 253/9/1 243/12/1 216/11/1 225/10/1
f 250/9/1 244/12/1 118/11/1 220/10/1
f 6/13/3 7/14/3 8/15/3 9/11/3
f 10/16/4 11/17/4 12/18/4 13/4/4
f 10/19/5 14/20/5 15/21/5 11/22/5
f 16/17/5 17/18/5 18/4/5 19/16/5
f 9/19/6 8/22/6 16/21/6 19/20/6
f 31/23/6 44/3/6 45/24/6 32/25/6
f 46/26/3 42/9/3 44/27/3 31/28/3
f 47/29/4 43/24/4 42/3/4 46/20/4
f 48/30/3 49/31/3 50/10/3 51/32/3
f 35/25/5 23/24/5 22/3/5 36/23/5
f 36/33/4 22/5/4 49/34/4 48/35/4
f 29/32/3 28/30/3 265/36/3 278/37/3
f 62/23/5 63/25/5 279/29/5 262/20/5
f 55/23/4 287/25/4 284/29/4 53/20/4
f 263/38/4 257/39/4 64/28/4 73/26/4
f 67/40/2 68/21/2 25/41/2 24/42/2
f 54/43/2 273/22/2 66/35/2 38/33/2
f 267/38/5 205/39/5 276/28/5 133/26/5
f 266/22/3 275/35/3 271/33/3 172/43/3
f 233/23/7 217/18/8 228/14/8 227/30/7
f 63/37/6 29/44/6 278/45/6 279/36/6
f 35/41/6 51/43/6 50/38/6 23/46/6
f 32/41/5 45/46/5 43/38/5 47/43/5
f 83/11/6 84/15/6 85/14/6 86/13/6
f 13/12/3 12/47/3 59/48/3 87/49/3
f 18/6/4 17/42/4 7/40/4 6/50/4
f 88/4/5 91/16/5 93/17/5 77/18/5
f 94/13/4 95/14/4 96/15/4 97/11/4
f 83/20/3 97/19/3 96/22/3 84/21/3
f 80/17/3 90/16/3 89/4/3 76/18/3
f 91/51/6 90/18/6 80/40/6 93/52/6
f 104/30/6 103/32/6 112/10/6 113/31/6
f 114/35/5 104/33/5 113/5/5 109/34/5
f 115/37/4 114/36/4 109/31/4 111/10/4
f 75/23/5 116/25/5 117/24/5 74/3/5
f 34/25/3 37/23/3 21/3/3 20/24/3
f 37/28/4 75/26/4 74/9/4 21/27/4
f 274/43/4 259/22/4 28/35/4 62/33/4
f 100/25/5 124/29/5 125/20/5 73/23/5
f 126/27/1 284/8/1 286/53/1 298/39/1
f 64/23/3 127/20/3 294/29/3 65/25/3
f 277/30/4 270/36/4 289/37/4 291/32/4
f 119/45/6 295/36/6 283/20/6 54/19/6
f 263/19/9 125/20/5 264/36/5 258/45/9
f 119/6/2 108/42/2 128/40/2 269/50/2
f 277/35/5 280/33/5 119/43/5 269/22/5
f 218/23/7 215/18/8 231/14/8 230/30/7
f 234/30/10 226/23/10 229/18/11 224/14/11
f 236/23/10 232/18/11 221/14/11 235/30/10
f 222/51/1 220/54/1 221/13/11 232/4/11
f 223/51/1 225/54/1 224/13/11 229/4/11
f 237/51/2 226/4/10 234/13/10 240/54/2
f 60/51/2 236/4/10 235/13/10 123/54/2
f 65/15/6 294/14/6 124/54/6 100/55/6
f 61/2/1 300/56/1 290/19/1 289/3/1
f 27/57/1 26/43/1 41/5/1 105/24/1
f 34/42/6 20/47/6 117/58/6 116/59/6
f 103/41/3 115/43/3 111/38/3 112/46/3
f 137/16/4 78/17/4 58/18/4 138/4/4
f 94/50/5 86/6/5 85/42/5 95/40/5
f 89/49/4 88/12/4 77/47/4 76/48/4
f 140/4/3 141/16/3 142/17/3 143/18/3
f 144/13/6 57/14/6 145/15/6 146/11/6
f 137/18/5 146/51/5 145/52/5 78/40/5
f 147/15/5 148/11/5 149/13/5 150/14/5
f 141/19/4 148/20/4 147/21/4 142/22/4
f 273/38/3 54/39/3 272/28/3 55/26/3
f 30/23/4 33/25/4 79/24/4 72/3/4
f 56/35/3 30/33/3 72/5/3 71/34/3
f 165/32/6 56/30/6 71/31/6 164/10/6
f 166/23/3 167/25/3 168/24/3 169/3/3
f 163/32/5 162/30/5 157/31/5 156/10/5
f 162/28/6 166/26/6 169/9/6 157/27/6
f 174/57/1 175/43/1 129/5/1 69/24/1
f 159/25/3 293/29/3 176/20/3 285/23/3
f 1/25/4 177/29/4 171/20/4 271/23/4
f 178/30/5 179/36/5 288/37/5 180/32/5
f 275/30/6 170/36/6 181/37/6 173/32/6
f 269/45/4 273/19/4 53/20/4 270/36/4
f 70/48/2 130/60/2 186/46/2 187/47/2
f 172/39/2 39/28/2 185/26/2 266/38/2
f 296/30/12 257/23/12 263/18/9 258/14/9
f 180/37/4 288/36/4 293/45/4 159/44/4
f 40/27/1 177/8/1 181/53/1 184/39/1
f 177/14/5 1/15/5 173/55/5 181/54/5
f 163/41/4 156/46/4 168/38/4 167/43/4
f 33/42/5 165/59/5 164/58/5 79/47/5
f 152/13/4 120/14/4 134/15/4 153/11/4
f 144/50/3 138/6/3 58/42/3 57/40/3
f 149/49/6 140/12/6 143/47/6 150/48/6
f 196/13/5 190/14/5 197/15/5 193/11/5
f 154/16/6 198/17/6 121/18/6 151/4/6
f 154/51/3 153/18/3 134/40/3 198/52/3
f 192/15/3 191/14/3 195/13/3 194/11/3
f 193/51/4 197/52/4 192/40/4 194/18/4
f 87/4/6 59/18/6 15/17/6 14/16/6
f 101/30/4 131/31/4 135/10/4 102/32/4
f 122/26/5 132/9/5 131/27/5 101/28/5
f 201/25/6 200/24/6 132/3/6 122/23/6
f 189/30/5 188/31/5 202/10/5 203/32/5
f 160/32/3 155/10/3 158/31/3 161/30/3
f 161/33/6 158/5/6 188/34/6 189/35/6
f 183/33/6 296/43/6 258/22/6 292/35/6
f 199/32/5 292/30/5 264/36/5 282/37/5
f 92/32/4 276/30/4 268/36/4 207/37/4
f 183/30/3 182/32/3 281/37/3 208/36/3
f 133/23/6 206/25/6 209/29/6 204/20/6
f 205/45/4 172/19/4 171/20/4 268/36/4
f 274/18/9 261/14/9 260/30/12 259/23/12
f 205/49/2 267/12/2 210/47/2 107/48/2
f 267/19/6 204/20/6 170/36/6 266/45/6
f 285/26/6 260/38/6 261/39/6 178/28/6
f 215/45/8 118/36/1 214/20/1 231/19/8
f 233/45/7 227/19/7 239/20/2 241/36/2
f 217/45/8 216/36/1 219/20/1 228/19/8
f 218/45/7 230/19/7 52/20/2 110/36/2
f 182/15/4 199/55/4 282/54/4 281/14/4
f 106/2/1 211/56/1 209/19/1 207/3/1
f 207/14/3 209/54/3 206/55/3 92/15/3
f 160/42/4 203/59/4 202/58/4 155/47/4
f 102/42/3 135/47/3 200/58/3 201/59/3
f 257/19/12 296/45/12 208/36/3 127/20/3
f 303/61/2 304/62/2 213/63/2 212/64/2
f 151/12/5 121/47/5 120/48/5 152/49/5
f 195/6/6 191/42/6 190/40/6 196/50/6
f 302/61/1 99/64/1 301/63/1 139/62/1
f 227/23/3 228/18/3 229/14/3 226/30/3
f 230/23/3 231/18/3 232/14/3 236/30/3
f 233/30/5 234/23/5 224/18/5 217/14/5
f 235/23/5 221/18/5 215/14/5 218/30/5
f 253/34/3 254/5/3 242/6/3 243/50/3
f 247/34/4 243/50/4 242/6/4 238/5/4
f 255/9/4 246/10/4 244/11/4 245/12/4
f 251/34/5 247/50/5 238/6/5 252/5/5
f 251/34/6 252/5/6 254/6/6 253/50/6
f 248/9/6 249/12/6 250/11/6 256/10/6
f 248/9/5 256/10/5 246/11/5 255/12/5
f 249/9/3 245/12/3 244/11/3 250/10/3
f 274/19/9 262/20/5 179/36/5 261/45/9
f 259/45/12 260/19/12 176/20/3 265/36/3
f 299/25/6 290/29/6 295/20/6 280/23/6
f 290/14/3 299/15/3 291/55/3 289/54/3
f 297/32/6 272/30/6 283/36/6 286/37/6
f 286/14/5 284/54/5 287/55/5 297/15/5
f 301/63/4 99/64/4 212/65/4 213/66/4
f 301/64/3 213/65/3 304/66/3 139/63/3
f 303/65/5 212/66/5 99/63/5 302/64/5
f 139/64/6 304/65/6 303/66/6 302/63/6
usemtl emissive
f 2/67/4 3/68/4 4/69/4 5/65/4
f 81/65/3 5/67/3 4/68/3 82/69/3
f 3/69/2 98/68/2 82/70/2 4/71/2
f 136/67/5 98/68/5 3/69/5 2/65/5
f 136/65/6 81/67/6 82/68/6 98/69/6
