# Model created by BluSunrize
mtllib chute.mtl
usemtl chute

o inventory
v 0.937500 0.000000 0.062500
v 0.000000 -0.000000 0.062500
v 0.000000 1.000000 0.937500
v 0.000000 -0.000000 0.937500
v 0.937500 -0.000000 0.937500
v 0.062500 -0.000000 0.062500
v 1.000000 -0.000000 0.937500
v 0.062500 1.000000 0.062500
v 0.062500 -0.000000 0.937500
v 1.000000 -0.000000 0.062500
v 0.937500 1.000000 0.062500
v 0.937500 1.000000 0.937500
v 0.062500 1.000000 0.937500
v 1.000000 0.000000 1.000000
v 0.000000 1.000000 -0.000000
v 0.000000 0.000000 -0.000000
v 1.000000 0.000000 -0.000000
v 0.000000 1.000000 1.000000
v 1.000000 1.000000 1.000000
v 1.000000 1.000000 0.937500
v 1.000000 1.000000 -0.000000
v 0.000000 1.000000 0.062500
v 1.000000 1.000000 0.062500
v 0.000000 0.000000 1.000000
vt 0.937500 1.000000
vt 0.062500 1.000000
vt 0.062500 0.000000
vt 0.937500 0.000000
vt 0.062500 0.000000
vt 0.937500 0.000000
vt 0.937500 1.000000
vt 0.062500 1.000000
vt 0.062500 1.000000
vt 0.062500 0.000000
vt 0.937500 0.000000
vt 0.937500 1.000000
vt 0.000000 0.937500
vt 0.000000 0.062500
vt 0.062500 0.062500
vt 0.062500 0.937500
vt 0.000000 0.062500
vt 0.062500 0.062500
vt 0.062500 0.937500
vt 0.000000 0.937500
vt 0.000000 0.000000
vt 1.000000 0.000000
vt 1.000000 0.062500
vt 0.937500 0.000000
vt 0.937500 1.000000
vt 0.062500 1.000000
vt 0.062500 0.000000
vt 1.000000 1.000000
vt 0.000000 1.000000
vt 0.000000 0.000000
vt 1.000000 0.000000
vt 1.000000 0.062500
vt 0.000000 0.000000
vt 0.937500 0.937500
vt 0.937500 0.062500
vt 1.000000 0.937500
vt 1.000000 0.000000
vt 1.000000 1.000000
vt 0.000000 1.000000
vt 0.937500 0.062500
vt 1.000000 0.937500
vt 0.937500 0.937500
vt 1.000000 0.000000
vt 1.000000 1.000000
vt 0.000000 1.000000
vt 0.000000 -0.000000
vt 0.000000 1.000000
vt 0.000000 0.000000
vt 1.000000 0.000000
vt 1.000000 1.000000
vt 0.000000 1.000000
vt 1.000000 1.000000
vn 0.0000 -0.0000 1.0000
vn -1.0000 0.0000 0.0000
vn 0.0000 -0.0000 -1.0000
vn 0.0000 -1.0000 -0.0000
vn -0.0000 1.0000 -0.0000
vn 1.0000 0.0000 0.0000
f 11/1/1 8/2/1 6/3/1 1/4/1
f 1/5/2 5/6/2 12/7/2 11/8/2
f 12/9/3 5/10/3 9/11/3 13/12/3
f 4/13/4 2/14/4 6/15/4 9/16/4
f 3/17/5 13/18/5 8/19/5 22/20/5
f 18/21/5 19/22/5 20/23/5 3/17/5
f 6/24/6 8/25/6 13/26/6 9/27/6
f 21/28/6 19/29/6 14/30/6 17/31/6
f 17/31/4 10/32/4 2/14/4 16/33/4
f 5/34/4 1/35/4 10/32/4 7/36/4
f 24/37/2 18/38/2 15/39/2 16/33/2
f 12/40/5 20/23/5 23/41/5 11/42/5
f 16/43/3 15/44/3 21/45/3 17/46/3
f 18/47/1 24/48/1 14/49/1 19/50/1
f 22/20/5 23/41/5 21/28/5 15/39/5
f 24/51/4 4/13/4 7/36/4 14/52/4